%TF.GenerationSoftware,KiCad,Pcbnew,7.0.7*%
%TF.CreationDate,2023-11-09T14:18:26-08:00*%
%TF.ProjectId,Micro_Mouse,4d696372-6f5f-44d6-9f75-73652e6b6963,rev?*%
%TF.SameCoordinates,Original*%
%TF.FileFunction,Soldermask,Top*%
%TF.FilePolarity,Negative*%
%FSLAX46Y46*%
G04 Gerber Fmt 4.6, Leading zero omitted, Abs format (unit mm)*
G04 Created by KiCad (PCBNEW 7.0.7) date 2023-11-09 14:18:26*
%MOMM*%
%LPD*%
G01*
G04 APERTURE LIST*
G04 Aperture macros list*
%AMRoundRect*
0 Rectangle with rounded corners*
0 $1 Rounding radius*
0 $2 $3 $4 $5 $6 $7 $8 $9 X,Y pos of 4 corners*
0 Add a 4 corners polygon primitive as box body*
4,1,4,$2,$3,$4,$5,$6,$7,$8,$9,$2,$3,0*
0 Add four circle primitives for the rounded corners*
1,1,$1+$1,$2,$3*
1,1,$1+$1,$4,$5*
1,1,$1+$1,$6,$7*
1,1,$1+$1,$8,$9*
0 Add four rect primitives between the rounded corners*
20,1,$1+$1,$2,$3,$4,$5,0*
20,1,$1+$1,$4,$5,$6,$7,0*
20,1,$1+$1,$6,$7,$8,$9,0*
20,1,$1+$1,$8,$9,$2,$3,0*%
G04 Aperture macros list end*
%ADD10R,2.200000X2.200000*%
%ADD11C,2.200000*%
%ADD12R,1.600000X1.600000*%
%ADD13C,1.600000*%
%ADD14R,1.700000X1.700000*%
%ADD15O,1.700000X1.700000*%
%ADD16RoundRect,0.250000X0.475000X-0.337500X0.475000X0.337500X-0.475000X0.337500X-0.475000X-0.337500X0*%
%ADD17R,1.600000X2.200000*%
%ADD18R,2.800000X1.000000*%
%ADD19RoundRect,0.250000X-0.600000X-0.750000X0.600000X-0.750000X0.600000X0.750000X-0.600000X0.750000X0*%
%ADD20O,1.700000X2.000000*%
%ADD21R,0.450000X1.750000*%
%ADD22RoundRect,0.250000X-0.450000X0.262500X-0.450000X-0.262500X0.450000X-0.262500X0.450000X0.262500X0*%
G04 APERTURE END LIST*
D10*
%TO.C,J4*%
X195580000Y-55880000D03*
D11*
X193040000Y-55880000D03*
X190500000Y-55880000D03*
X187960000Y-55880000D03*
X185420000Y-55880000D03*
X182880000Y-55880000D03*
%TD*%
D12*
%TO.C,A1*%
X172720000Y-53340000D03*
D13*
X170180000Y-53340000D03*
X167640000Y-53340000D03*
X165100000Y-53340000D03*
X162560000Y-53340000D03*
X160020000Y-53340000D03*
X157480000Y-53340000D03*
X154940000Y-53340000D03*
X152400000Y-53340000D03*
X149860000Y-53340000D03*
X147320000Y-53340000D03*
X144780000Y-53340000D03*
X142240000Y-53340000D03*
X139700000Y-53340000D03*
X137160000Y-53340000D03*
X134620000Y-53340000D03*
X134620000Y-73660000D03*
X137160000Y-73660000D03*
X139700000Y-73660000D03*
X142240000Y-73660000D03*
X144780000Y-73660000D03*
X147320000Y-73660000D03*
X149860000Y-73660000D03*
X152400000Y-73660000D03*
X154940000Y-73660000D03*
X157480000Y-73660000D03*
X160020000Y-73660000D03*
X162560000Y-73660000D03*
%TD*%
D14*
%TO.C,J6*%
X144780000Y-116840000D03*
D15*
X144780000Y-119380000D03*
X144780000Y-121920000D03*
%TD*%
D16*
%TO.C,C4*%
X132080000Y-112797500D03*
X132080000Y-110722500D03*
%TD*%
D10*
%TO.C,J3*%
X124460000Y-55880000D03*
D11*
X121920000Y-55880000D03*
X119380000Y-55880000D03*
X116840000Y-55880000D03*
X114300000Y-55880000D03*
X111760000Y-55880000D03*
%TD*%
D17*
%TO.C,C2*%
X172720000Y-113260000D03*
X172720000Y-110260000D03*
%TD*%
D18*
%TO.C,SW1*%
X187960000Y-73660000D03*
X193760000Y-73660000D03*
X187960000Y-77660000D03*
X193760000Y-77660000D03*
%TD*%
D14*
%TO.C,J7*%
X165100000Y-116840000D03*
D15*
X165100000Y-119380000D03*
X165100000Y-121920000D03*
%TD*%
D14*
%TO.C,J5*%
X149860000Y-137160000D03*
D15*
X152400000Y-137160000D03*
X154940000Y-137160000D03*
X157480000Y-137160000D03*
X160020000Y-137160000D03*
X162560000Y-137160000D03*
%TD*%
D19*
%TO.C,J1*%
X192240322Y-134787338D03*
D20*
X194740322Y-134787338D03*
%TD*%
D21*
%TO.C,U1*%
X150390000Y-124460000D03*
X151040000Y-124460000D03*
X151690000Y-124460000D03*
X152340000Y-124460000D03*
X152990000Y-124460000D03*
X153640000Y-124460000D03*
X154290000Y-124460000D03*
X154940000Y-124460000D03*
X155590000Y-124460000D03*
X156240000Y-124460000D03*
X156890000Y-124460000D03*
X157540000Y-124460000D03*
X157540000Y-117260000D03*
X156890000Y-117260000D03*
X156240000Y-117260000D03*
X155590000Y-117260000D03*
X154940000Y-117260000D03*
X154290000Y-117260000D03*
X153640000Y-117260000D03*
X152990000Y-117260000D03*
X152340000Y-117260000D03*
X151690000Y-117260000D03*
X151040000Y-117260000D03*
X150390000Y-117260000D03*
%TD*%
D17*
%TO.C,C3*%
X139700000Y-112220000D03*
X139700000Y-109220000D03*
%TD*%
D22*
%TO.C,R1*%
X193952500Y-65127500D03*
X193952500Y-66952500D03*
%TD*%
D14*
%TO.C,J8*%
X142240000Y-104140000D03*
D15*
X144780000Y-104140000D03*
X147320000Y-104140000D03*
X149860000Y-104140000D03*
X152400000Y-104140000D03*
X154940000Y-104140000D03*
X157480000Y-104140000D03*
X160020000Y-104140000D03*
X162560000Y-104140000D03*
X165100000Y-104140000D03*
%TD*%
D16*
%TO.C,C1*%
X180340000Y-113835000D03*
X180340000Y-111760000D03*
%TD*%
M02*
