%TF.GenerationSoftware,KiCad,Pcbnew,7.0.7*%
%TF.CreationDate,2023-11-09T14:18:26-08:00*%
%TF.ProjectId,Micro_Mouse,4d696372-6f5f-44d6-9f75-73652e6b6963,rev?*%
%TF.SameCoordinates,Original*%
%TF.FileFunction,Copper,L1,Top*%
%TF.FilePolarity,Positive*%
%FSLAX46Y46*%
G04 Gerber Fmt 4.6, Leading zero omitted, Abs format (unit mm)*
G04 Created by KiCad (PCBNEW 7.0.7) date 2023-11-09 14:18:26*
%MOMM*%
%LPD*%
G01*
G04 APERTURE LIST*
G04 Aperture macros list*
%AMRoundRect*
0 Rectangle with rounded corners*
0 $1 Rounding radius*
0 $2 $3 $4 $5 $6 $7 $8 $9 X,Y pos of 4 corners*
0 Add a 4 corners polygon primitive as box body*
4,1,4,$2,$3,$4,$5,$6,$7,$8,$9,$2,$3,0*
0 Add four circle primitives for the rounded corners*
1,1,$1+$1,$2,$3*
1,1,$1+$1,$4,$5*
1,1,$1+$1,$6,$7*
1,1,$1+$1,$8,$9*
0 Add four rect primitives between the rounded corners*
20,1,$1+$1,$2,$3,$4,$5,0*
20,1,$1+$1,$4,$5,$6,$7,0*
20,1,$1+$1,$6,$7,$8,$9,0*
20,1,$1+$1,$8,$9,$2,$3,0*%
G04 Aperture macros list end*
%TA.AperFunction,ComponentPad*%
%ADD10R,2.200000X2.200000*%
%TD*%
%TA.AperFunction,ComponentPad*%
%ADD11C,2.200000*%
%TD*%
%TA.AperFunction,ComponentPad*%
%ADD12R,1.600000X1.600000*%
%TD*%
%TA.AperFunction,ComponentPad*%
%ADD13C,1.600000*%
%TD*%
%TA.AperFunction,ComponentPad*%
%ADD14R,1.700000X1.700000*%
%TD*%
%TA.AperFunction,ComponentPad*%
%ADD15O,1.700000X1.700000*%
%TD*%
%TA.AperFunction,SMDPad,CuDef*%
%ADD16RoundRect,0.250000X0.475000X-0.337500X0.475000X0.337500X-0.475000X0.337500X-0.475000X-0.337500X0*%
%TD*%
%TA.AperFunction,SMDPad,CuDef*%
%ADD17R,1.600000X2.200000*%
%TD*%
%TA.AperFunction,SMDPad,CuDef*%
%ADD18R,2.800000X1.000000*%
%TD*%
%TA.AperFunction,ComponentPad*%
%ADD19RoundRect,0.250000X-0.600000X-0.750000X0.600000X-0.750000X0.600000X0.750000X-0.600000X0.750000X0*%
%TD*%
%TA.AperFunction,ComponentPad*%
%ADD20O,1.700000X2.000000*%
%TD*%
%TA.AperFunction,SMDPad,CuDef*%
%ADD21R,0.450000X1.750000*%
%TD*%
%TA.AperFunction,SMDPad,CuDef*%
%ADD22RoundRect,0.250000X-0.450000X0.262500X-0.450000X-0.262500X0.450000X-0.262500X0.450000X0.262500X0*%
%TD*%
%TA.AperFunction,ViaPad*%
%ADD23C,0.800000*%
%TD*%
%TA.AperFunction,Conductor*%
%ADD24C,0.250000*%
%TD*%
%TA.AperFunction,Conductor*%
%ADD25C,1.000000*%
%TD*%
%TA.AperFunction,Conductor*%
%ADD26C,0.400000*%
%TD*%
%TA.AperFunction,Conductor*%
%ADD27C,0.500000*%
%TD*%
G04 APERTURE END LIST*
D10*
%TO.P,J4,1,Pin_1*%
%TO.N,BO1*%
X195580000Y-55880000D03*
D11*
%TO.P,J4,2,Pin_2*%
%TO.N,BO2*%
X193040000Y-55880000D03*
%TO.P,J4,3,Pin_3*%
%TO.N,GND*%
X190500000Y-55880000D03*
%TO.P,J4,4,Pin_4*%
%TO.N,+3.3V*%
X187960000Y-55880000D03*
%TO.P,J4,5,Pin_5*%
%TO.N,E2_PHA*%
X185420000Y-55880000D03*
%TO.P,J4,6,Pin_6*%
%TO.N,E2_PHB*%
X182880000Y-55880000D03*
%TD*%
D12*
%TO.P,A1,1,~{RESET}*%
%TO.N,unconnected-(A1-~{RESET}-Pad1)*%
X172720000Y-53340000D03*
D13*
%TO.P,A1,2,3V3*%
%TO.N,+3.3V*%
X170180000Y-53340000D03*
%TO.P,A1,3,NC*%
%TO.N,unconnected-(A1-NC-Pad3)*%
X167640000Y-53340000D03*
%TO.P,A1,4,GND*%
%TO.N,GND*%
X165100000Y-53340000D03*
%TO.P,A1,5,DAC2/A0*%
%TO.N,E2_PHB*%
X162560000Y-53340000D03*
%TO.P,A1,6,DAC1/A1*%
%TO.N,E2_PHA*%
X160020000Y-53340000D03*
%TO.P,A1,7,I34/A2*%
%TO.N,BTN*%
X157480000Y-53340000D03*
%TO.P,A1,8,I39/A3*%
%TO.N,IR_2*%
X154940000Y-53340000D03*
%TO.P,A1,9,IO36/A4*%
%TO.N,IR_1*%
X152400000Y-53340000D03*
%TO.P,A1,10,IO4/A5*%
%TO.N,E1_PHA*%
X149860000Y-53340000D03*
%TO.P,A1,11,SCK/IO5*%
%TO.N,unconnected-(A1-SCK{slash}IO5-Pad11)*%
X147320000Y-53340000D03*
%TO.P,A1,12,MOSI/IO18*%
%TO.N,unconnected-(A1-MOSI{slash}IO18-Pad12)*%
X144780000Y-53340000D03*
%TO.P,A1,13,MISO/IO19*%
%TO.N,unconnected-(A1-MISO{slash}IO19-Pad13)*%
X142240000Y-53340000D03*
%TO.P,A1,14,RX/IO16*%
%TO.N,unconnected-(A1-RX{slash}IO16-Pad14)*%
X139700000Y-53340000D03*
%TO.P,A1,15,TX/IO17*%
%TO.N,unconnected-(A1-TX{slash}IO17-Pad15)*%
X137160000Y-53340000D03*
%TO.P,A1,16,IO21*%
%TO.N,E1_PHB*%
X134620000Y-53340000D03*
%TO.P,A1,17,SDA/IO23*%
%TO.N,I2C SDA*%
X134620000Y-73660000D03*
%TO.P,A1,18,SCL/IO22*%
%TO.N,I2C SCL*%
X137160000Y-73660000D03*
%TO.P,A1,19,A6/IO14*%
%TO.N,PWMA*%
X139700000Y-73660000D03*
%TO.P,A1,20,A7/IO32*%
%TO.N,AIN2*%
X142240000Y-73660000D03*
%TO.P,A1,21,A8/IO15*%
%TO.N,AIN1*%
X144780000Y-73660000D03*
%TO.P,A1,22,A9/IO33*%
%TO.N,BIN1*%
X147320000Y-73660000D03*
%TO.P,A1,23,A10/IO27*%
%TO.N,BIN2*%
X149860000Y-73660000D03*
%TO.P,A1,24,A11/IO12*%
%TO.N,PWMB*%
X152400000Y-73660000D03*
%TO.P,A1,25,A12/IO13*%
%TO.N,unconnected-(A1-A12{slash}IO13-Pad25)*%
X154940000Y-73660000D03*
%TO.P,A1,26,USB*%
%TO.N,unconnected-(A1-USB-Pad26)*%
X157480000Y-73660000D03*
%TO.P,A1,27,EN*%
%TO.N,unconnected-(A1-EN-Pad27)*%
X160020000Y-73660000D03*
%TO.P,A1,28,VBAT*%
%TO.N,unconnected-(A1-VBAT-Pad28)*%
X162560000Y-73660000D03*
%TD*%
D14*
%TO.P,J6,1,Pin_1*%
%TO.N,+3.3V*%
X144780000Y-116840000D03*
D15*
%TO.P,J6,2,Pin_2*%
%TO.N,GND*%
X144780000Y-119380000D03*
%TO.P,J6,3,Pin_3*%
%TO.N,IR_1*%
X144780000Y-121920000D03*
%TD*%
D16*
%TO.P,C4,1*%
%TO.N,+3.3V*%
X132080000Y-112797500D03*
%TO.P,C4,2*%
%TO.N,GND*%
X132080000Y-110722500D03*
%TD*%
D10*
%TO.P,J3,1,Pin_1*%
%TO.N,E1_PHB*%
X124460000Y-55880000D03*
D11*
%TO.P,J3,2,Pin_2*%
%TO.N,E1_PHA*%
X121920000Y-55880000D03*
%TO.P,J3,3,Pin_3*%
%TO.N,GND*%
X119380000Y-55880000D03*
%TO.P,J3,4,Pin_4*%
%TO.N,+3.3V*%
X116840000Y-55880000D03*
%TO.P,J3,5,Pin_5*%
%TO.N,AO1*%
X114300000Y-55880000D03*
%TO.P,J3,6,Pin_6*%
%TO.N,AO2*%
X111760000Y-55880000D03*
%TD*%
D17*
%TO.P,C2,1*%
%TO.N,Net-(J1-Pin_2)*%
X172720000Y-113260000D03*
%TO.P,C2,2*%
%TO.N,GND*%
X172720000Y-110260000D03*
%TD*%
D18*
%TO.P,SW1,1,1*%
%TO.N,BTN*%
X187960000Y-73660000D03*
X193760000Y-73660000D03*
%TO.P,SW1,2,2*%
%TO.N,GND*%
X187960000Y-77660000D03*
X193760000Y-77660000D03*
%TD*%
D14*
%TO.P,J7,1,Pin_1*%
%TO.N,IR_2*%
X165100000Y-116840000D03*
D15*
%TO.P,J7,2,Pin_2*%
%TO.N,GND*%
X165100000Y-119380000D03*
%TO.P,J7,3,Pin_3*%
%TO.N,+3.3V*%
X165100000Y-121920000D03*
%TD*%
D14*
%TO.P,J5,1,Pin_1*%
%TO.N,+3.3V*%
X149860000Y-137160000D03*
D15*
%TO.P,J5,2,Pin_2*%
%TO.N,GND*%
X152400000Y-137160000D03*
%TO.P,J5,3,Pin_3*%
%TO.N,I2C SCL*%
X154940000Y-137160000D03*
%TO.P,J5,4,Pin_4*%
%TO.N,I2C SDA*%
X157480000Y-137160000D03*
%TO.P,J5,5,Pin_5*%
%TO.N,unconnected-(J5-Pin_5-Pad5)*%
X160020000Y-137160000D03*
%TO.P,J5,6,Pin_6*%
%TO.N,unconnected-(J5-Pin_6-Pad6)*%
X162560000Y-137160000D03*
%TD*%
D19*
%TO.P,J1,1,Pin_1*%
%TO.N,GND*%
X192240322Y-134787338D03*
D20*
%TO.P,J1,2,Pin_2*%
%TO.N,Net-(J1-Pin_2)*%
X194740322Y-134787338D03*
%TD*%
D21*
%TO.P,U1,1,AO1*%
%TO.N,AO1*%
X150390000Y-124460000D03*
%TO.P,U1,2,AO1*%
X151040000Y-124460000D03*
%TO.P,U1,3,PGND1*%
%TO.N,GND*%
X151690000Y-124460000D03*
%TO.P,U1,4,PGND1*%
X152340000Y-124460000D03*
%TO.P,U1,5,AO2*%
%TO.N,AO2*%
X152990000Y-124460000D03*
%TO.P,U1,6,AO2*%
X153640000Y-124460000D03*
%TO.P,U1,7,BO2*%
%TO.N,BO2*%
X154290000Y-124460000D03*
%TO.P,U1,8,BO2*%
X154940000Y-124460000D03*
%TO.P,U1,9,PGND2*%
%TO.N,GND*%
X155590000Y-124460000D03*
%TO.P,U1,10,PGND2*%
X156240000Y-124460000D03*
%TO.P,U1,11,BO1*%
%TO.N,BO1*%
X156890000Y-124460000D03*
%TO.P,U1,12,BO1*%
X157540000Y-124460000D03*
%TO.P,U1,13,VM2*%
%TO.N,Net-(J1-Pin_2)*%
X157540000Y-117260000D03*
%TO.P,U1,14,VM3*%
X156890000Y-117260000D03*
%TO.P,U1,15,PWMB*%
%TO.N,PWMB*%
X156240000Y-117260000D03*
%TO.P,U1,16,BIN2*%
%TO.N,BIN2*%
X155590000Y-117260000D03*
%TO.P,U1,17,BIN1*%
%TO.N,BIN1*%
X154940000Y-117260000D03*
%TO.P,U1,18,GND*%
%TO.N,GND*%
X154290000Y-117260000D03*
%TO.P,U1,19,STBY*%
%TO.N,+3.3V*%
X153640000Y-117260000D03*
%TO.P,U1,20,VCC*%
X152990000Y-117260000D03*
%TO.P,U1,21,AIN1*%
%TO.N,AIN1*%
X152340000Y-117260000D03*
%TO.P,U1,22,AIN2*%
%TO.N,AIN2*%
X151690000Y-117260000D03*
%TO.P,U1,23,PWMA*%
%TO.N,PWMA*%
X151040000Y-117260000D03*
%TO.P,U1,24,VM1*%
%TO.N,Net-(J1-Pin_2)*%
X150390000Y-117260000D03*
%TD*%
D17*
%TO.P,C3,1*%
%TO.N,+3.3V*%
X139700000Y-112220000D03*
%TO.P,C3,2*%
%TO.N,GND*%
X139700000Y-109220000D03*
%TD*%
D22*
%TO.P,R1,1*%
%TO.N,+3.3V*%
X193952500Y-65127500D03*
%TO.P,R1,2*%
%TO.N,BTN*%
X193952500Y-66952500D03*
%TD*%
D14*
%TO.P,J8,1,Pin_1*%
%TO.N,+3.3V*%
X142240000Y-104140000D03*
D15*
%TO.P,J8,2,Pin_2*%
%TO.N,GND*%
X144780000Y-104140000D03*
%TO.P,J8,3,Pin_3*%
%TO.N,I2C SCL*%
X147320000Y-104140000D03*
%TO.P,J8,4,Pin_4*%
%TO.N,I2C SDA*%
X149860000Y-104140000D03*
%TO.P,J8,5,Pin_5*%
%TO.N,unconnected-(J8-Pin_5-Pad5)*%
X152400000Y-104140000D03*
%TO.P,J8,6,Pin_6*%
%TO.N,unconnected-(J8-Pin_6-Pad6)*%
X154940000Y-104140000D03*
%TO.P,J8,7,Pin_7*%
%TO.N,unconnected-(J8-Pin_7-Pad7)*%
X157480000Y-104140000D03*
%TO.P,J8,8,Pin_8*%
%TO.N,unconnected-(J8-Pin_8-Pad8)*%
X160020000Y-104140000D03*
%TO.P,J8,9,Pin_9*%
%TO.N,unconnected-(J8-Pin_9-Pad9)*%
X162560000Y-104140000D03*
%TO.P,J8,10,Pin_10*%
%TO.N,unconnected-(J8-Pin_10-Pad10)*%
X165100000Y-104140000D03*
%TD*%
D16*
%TO.P,C1,1*%
%TO.N,Net-(J1-Pin_2)*%
X180340000Y-113835000D03*
%TO.P,C1,2*%
%TO.N,GND*%
X180340000Y-111760000D03*
%TD*%
D23*
%TO.N,GND*%
X144780000Y-106680000D03*
%TO.N,BO2*%
X160020000Y-109220000D03*
%TO.N,BO1*%
X162560000Y-109220000D03*
%TO.N,IR_1*%
X132080000Y-93980000D03*
X147320000Y-66040000D03*
%TO.N,+3.3V*%
X142240000Y-101600000D03*
X129540000Y-101600000D03*
%TO.N,I2C SDA*%
X134620000Y-96520000D03*
X139700000Y-96520000D03*
%TO.N,PWMA*%
X139700000Y-81280000D03*
X149860000Y-109220000D03*
%TO.N,+3.3V*%
X170180000Y-63500000D03*
X132080000Y-116840000D03*
X153615363Y-112937056D03*
X149860000Y-129540000D03*
X147343149Y-112963100D03*
X170180000Y-55880000D03*
X165100000Y-129540000D03*
%TO.N,GND*%
X142240000Y-106680000D03*
X195580000Y-78740000D03*
X147320000Y-119380000D03*
X152292244Y-122020592D03*
X121920000Y-60960000D03*
X167640000Y-55880000D03*
X152387920Y-133508679D03*
X167640000Y-119380000D03*
X190500000Y-132080000D03*
X185420000Y-78740000D03*
X190500000Y-60960000D03*
X156207450Y-121890374D03*
X134620000Y-109220000D03*
%TO.N,BO1*%
X187960000Y-68580000D03*
X195580000Y-60960000D03*
X162560000Y-127000000D03*
X157480000Y-127000000D03*
X162560000Y-116840000D03*
%TO.N,BO2*%
X193040000Y-60960000D03*
X182880000Y-66040000D03*
X160020000Y-116840000D03*
%TO.N,Net-(J1-Pin_2)*%
X157480000Y-114300000D03*
X149860000Y-114300000D03*
%TO.N,BTN*%
X185420000Y-73660000D03*
X157480000Y-60960000D03*
%TO.N,I2C SCL*%
X137160000Y-106680000D03*
X147320000Y-132080000D03*
X116840000Y-114300000D03*
X154940000Y-132080000D03*
%TO.N,I2C SDA*%
X119380000Y-134620000D03*
X119380000Y-127000000D03*
X147320000Y-134620000D03*
X157480000Y-134620000D03*
X134620000Y-104140000D03*
X119380000Y-111760000D03*
%TO.N,IR_1*%
X142240000Y-121920000D03*
X152400000Y-60960000D03*
%TO.N,IR_2*%
X167640000Y-116840000D03*
X154940000Y-60960000D03*
X154940000Y-66040000D03*
X167640000Y-96520000D03*
%TD*%
D24*
%TO.N,AIN1*%
X153765000Y-105315000D02*
X152340000Y-106740000D01*
X153765000Y-105315000D02*
X153765000Y-90265000D01*
%TO.N,AIN2*%
X151225000Y-90265000D02*
X142240000Y-81280000D01*
X151225000Y-108045000D02*
X151225000Y-90265000D01*
X151690000Y-108510000D02*
X151225000Y-108045000D01*
D25*
%TO.N,GND*%
X144780000Y-104140000D02*
X144780000Y-106680000D01*
%TO.N,BO2*%
X170180000Y-106680000D02*
X170180000Y-83820000D01*
X162560000Y-106680000D02*
X170180000Y-106680000D01*
X160020000Y-109220000D02*
X162560000Y-106680000D01*
X170180000Y-83820000D02*
X182880000Y-71120000D01*
X182880000Y-71120000D02*
X182880000Y-66040000D01*
%TO.N,BO1*%
X185420000Y-71120000D02*
X177800000Y-78740000D01*
X162560000Y-109220000D02*
X170180000Y-109220000D01*
X170180000Y-109220000D02*
X177800000Y-101600000D01*
X177800000Y-101600000D02*
X177800000Y-78740000D01*
%TO.N,Net-(J1-Pin_2)*%
X180340000Y-113835000D02*
X180340000Y-121100000D01*
X180340000Y-121100000D02*
X183700000Y-124460000D01*
D24*
%TO.N,IR_1*%
X132080000Y-71120000D02*
X132080000Y-93980000D01*
X139700000Y-66040000D02*
X134620000Y-71120000D01*
X147320000Y-66040000D02*
X139700000Y-66040000D01*
X134620000Y-71120000D02*
X132080000Y-71120000D01*
%TO.N,I2C SCL*%
X116840000Y-132080000D02*
X147320000Y-132080000D01*
X116840000Y-114300000D02*
X116840000Y-132080000D01*
D25*
%TO.N,+3.3V*%
X142240000Y-101600000D02*
X142240000Y-104140000D01*
X129540000Y-101600000D02*
X129540000Y-110338503D01*
D24*
%TO.N,I2C SDA*%
X142240000Y-96520000D02*
X139700000Y-96520000D01*
X149860000Y-104140000D02*
X142240000Y-96520000D01*
%TO.N,I2C SCL*%
X137160000Y-99060000D02*
X137160000Y-73660000D01*
X142240000Y-99060000D02*
X137160000Y-99060000D01*
X137160000Y-106680000D02*
X137160000Y-99060000D01*
X147320000Y-104140000D02*
X142240000Y-99060000D01*
%TO.N,PWMB*%
X152400000Y-81280000D02*
X152400000Y-73660000D01*
X161385000Y-90265000D02*
X152400000Y-81280000D01*
X161385000Y-105315000D02*
X161385000Y-90265000D01*
X160020000Y-106680000D02*
X161385000Y-105315000D01*
X156240000Y-110460000D02*
X160020000Y-106680000D01*
X156240000Y-117260000D02*
X156240000Y-110460000D01*
%TO.N,BIN2*%
X149860000Y-81280000D02*
X149860000Y-73660000D01*
X158845000Y-90265000D02*
X149860000Y-81280000D01*
X158845000Y-105315000D02*
X158845000Y-90265000D01*
X157480000Y-106680000D02*
X158845000Y-105315000D01*
X155590000Y-108570000D02*
X157480000Y-106680000D01*
X155590000Y-117260000D02*
X155590000Y-108570000D01*
%TO.N,BIN1*%
X147320000Y-81280000D02*
X147320000Y-73660000D01*
X156305000Y-90265000D02*
X147320000Y-81280000D01*
X156305000Y-105315000D02*
X156305000Y-90265000D01*
X154940000Y-106680000D02*
X156305000Y-105315000D01*
X154940000Y-117260000D02*
X154940000Y-106680000D01*
%TO.N,AIN1*%
X144780000Y-81280000D02*
X144780000Y-73660000D01*
X153765000Y-90265000D02*
X144780000Y-81280000D01*
X152340000Y-117260000D02*
X152340000Y-106740000D01*
%TO.N,AIN2*%
X142240000Y-81280000D02*
X142240000Y-73660000D01*
X151690000Y-117260000D02*
X151690000Y-108510000D01*
%TO.N,PWMA*%
X139700000Y-81280000D02*
X139700000Y-73660000D01*
X151040000Y-110400000D02*
X149860000Y-109220000D01*
X151040000Y-117260000D02*
X151040000Y-110400000D01*
D25*
%TO.N,+3.3V*%
X187960000Y-58420000D02*
X182880000Y-63500000D01*
X192325000Y-63500000D02*
X193952500Y-65127500D01*
X170180000Y-55880000D02*
X170180000Y-53340000D01*
X182880000Y-63500000D02*
X192325000Y-63500000D01*
X137160000Y-63500000D02*
X134620000Y-66040000D01*
X124460000Y-66040000D02*
X124460000Y-71120000D01*
X182880000Y-63500000D02*
X170180000Y-63500000D01*
X187960000Y-55880000D02*
X187960000Y-58420000D01*
X170180000Y-63500000D02*
X137160000Y-63500000D01*
X129540000Y-114300000D02*
X132080000Y-116840000D01*
X146600049Y-112220000D02*
X139700000Y-112220000D01*
X131998997Y-112797500D02*
X132080000Y-112797500D01*
X129540000Y-110338503D02*
X129540000Y-114300000D01*
D26*
X152990000Y-117260000D02*
X152990000Y-113545057D01*
D25*
X147343149Y-112963100D02*
X146600049Y-112220000D01*
X124460000Y-71120000D02*
X129540000Y-76200000D01*
X132657500Y-112220000D02*
X132080000Y-112797500D01*
X129540000Y-110338503D02*
X131998997Y-112797500D01*
X165100000Y-129540000D02*
X165100000Y-121920000D01*
D24*
X153615363Y-112919694D02*
X153640000Y-112895057D01*
D25*
X144780000Y-116840000D02*
X132080000Y-116840000D01*
X129540000Y-76200000D02*
X129540000Y-101600000D01*
X124460000Y-66040000D02*
X116840000Y-58420000D01*
X139700000Y-112220000D02*
X132657500Y-112220000D01*
D26*
X153640000Y-117260000D02*
X153640000Y-112895057D01*
D25*
X134620000Y-66040000D02*
X124460000Y-66040000D01*
X149860000Y-129540000D02*
X149860000Y-137160000D01*
D24*
X153615363Y-112937056D02*
X153615363Y-112919694D01*
D25*
X116840000Y-58420000D02*
X116840000Y-55880000D01*
D24*
X153598001Y-112937056D02*
X153615363Y-112937056D01*
D27*
X152990000Y-113545057D02*
X153598001Y-112937056D01*
D24*
%TO.N,GND*%
X152299408Y-122020592D02*
X152292244Y-122020592D01*
X156172725Y-121890374D02*
X156207450Y-121890374D01*
D25*
X165100000Y-53340000D02*
X167640000Y-55880000D01*
X165100000Y-119380000D02*
X167640000Y-119380000D01*
D27*
X155590000Y-122473099D02*
X156172725Y-121890374D01*
D25*
X133582500Y-109220000D02*
X134620000Y-109220000D01*
D24*
X155590000Y-124460000D02*
X155590000Y-122473099D01*
X156207450Y-121890374D02*
X156207450Y-121855649D01*
D25*
X192240322Y-133820322D02*
X190500000Y-132080000D01*
X144780000Y-119380000D02*
X147320000Y-119380000D01*
X190500000Y-55880000D02*
X190500000Y-60960000D01*
D27*
X154290000Y-119972924D02*
X156207450Y-121890374D01*
D24*
X152387920Y-133508679D02*
X152400000Y-133518008D01*
D25*
X187960000Y-77660000D02*
X186500000Y-77660000D01*
X193760000Y-77660000D02*
X194500000Y-77660000D01*
X194500000Y-77660000D02*
X195580000Y-78740000D01*
D24*
X152340000Y-121980000D02*
X152299408Y-122020592D01*
D25*
X152400000Y-137160000D02*
X152387920Y-133508679D01*
X187960000Y-77660000D02*
X193040000Y-77660000D01*
D27*
X152292244Y-122027756D02*
X151690000Y-122630000D01*
D25*
X119380000Y-58420000D02*
X121920000Y-60960000D01*
X192240322Y-134787338D02*
X192240322Y-133820322D01*
D24*
X152292244Y-122020592D02*
X152292244Y-122027756D01*
X154290000Y-117260000D02*
X154290000Y-119972924D01*
X156233493Y-121829606D02*
X156240000Y-121836113D01*
X151690000Y-122630000D02*
X151690000Y-124460000D01*
X152340000Y-124460000D02*
X152340000Y-121980000D01*
D25*
X132080000Y-110722500D02*
X133582500Y-109220000D01*
D24*
X156207450Y-121855649D02*
X156233493Y-121829606D01*
D25*
X139700000Y-109220000D02*
X142240000Y-106680000D01*
X193040000Y-77660000D02*
X193760000Y-77660000D01*
X119380000Y-55880000D02*
X119380000Y-58420000D01*
X186500000Y-77660000D02*
X185420000Y-78740000D01*
D24*
X156240000Y-121836113D02*
X156240000Y-124460000D01*
%TO.N,E2_PHA*%
X185420000Y-55880000D02*
X185420000Y-58420000D01*
X185420000Y-58420000D02*
X182880000Y-58420000D01*
X180340000Y-60960000D02*
X167640000Y-60960000D01*
X182880000Y-58420000D02*
X180340000Y-60960000D01*
X167640000Y-60960000D02*
X160020000Y-53340000D01*
%TO.N,E2_PHB*%
X167640000Y-58420000D02*
X162560000Y-53340000D01*
X182880000Y-55880000D02*
X180340000Y-58420000D01*
X180340000Y-58420000D02*
X167640000Y-58420000D01*
%TO.N,E1_PHB*%
X127000000Y-60960000D02*
X132080000Y-60960000D01*
X124460000Y-55880000D02*
X124460000Y-58420000D01*
X132080000Y-60960000D02*
X134620000Y-58420000D01*
X134620000Y-58420000D02*
X134620000Y-53340000D01*
X124460000Y-58420000D02*
X127000000Y-60960000D01*
%TO.N,E1_PHA*%
X144780000Y-58420000D02*
X149860000Y-53340000D01*
X121920000Y-55880000D02*
X121920000Y-58420000D01*
X134620000Y-63500000D02*
X139700000Y-58420000D01*
X121920000Y-58420000D02*
X127000000Y-63500000D01*
X127000000Y-63500000D02*
X134620000Y-63500000D01*
X139700000Y-58420000D02*
X144780000Y-58420000D01*
D25*
%TO.N,AO1*%
X127000000Y-76200000D02*
X127000000Y-126197653D01*
D26*
X151040000Y-125820000D02*
X150390000Y-126470000D01*
D25*
X150390000Y-126470000D02*
X149860000Y-127000000D01*
X149057653Y-126197653D02*
X149860000Y-127000000D01*
X127000000Y-126197653D02*
X149057653Y-126197653D01*
X114300000Y-76200000D02*
X127000000Y-76200000D01*
D26*
X150390000Y-124460000D02*
X150390000Y-126470000D01*
X151040000Y-124460000D02*
X151040000Y-125820000D01*
D25*
X114300000Y-55880000D02*
X114300000Y-76200000D01*
%TO.N,AO2*%
X152990000Y-127000000D02*
X152990000Y-127750000D01*
X124460000Y-127000000D02*
X125800000Y-128340000D01*
D26*
X152990000Y-124460000D02*
X152990000Y-127000000D01*
D25*
X111760000Y-78740000D02*
X124460000Y-78740000D01*
D26*
X153640000Y-126350000D02*
X152990000Y-127000000D01*
X153640000Y-124460000D02*
X153640000Y-126350000D01*
D25*
X125800000Y-128340000D02*
X152400000Y-128340000D01*
X124460000Y-78740000D02*
X124460000Y-127000000D01*
X152990000Y-127750000D02*
X152400000Y-128340000D01*
X111760000Y-55880000D02*
X111760000Y-78740000D01*
%TO.N,BO1*%
X185420000Y-68580000D02*
X185420000Y-71120000D01*
D24*
X157540000Y-126940000D02*
X157480000Y-127000000D01*
D26*
X156890000Y-126410000D02*
X156890000Y-124460000D01*
X157540000Y-124460000D02*
X157540000Y-126940000D01*
D25*
X187960000Y-68580000D02*
X185420000Y-68580000D01*
D26*
X157480000Y-127000000D02*
X156890000Y-126410000D01*
D25*
X162560000Y-116840000D02*
X162560000Y-127000000D01*
X195580000Y-55880000D02*
X195580000Y-60960000D01*
D26*
%TO.N,BO2*%
X154290000Y-126350000D02*
X154290000Y-124460000D01*
D25*
X160020000Y-128715000D02*
X160020000Y-124460000D01*
D26*
X154940000Y-124460000D02*
X154940000Y-127000000D01*
D25*
X160020000Y-116840000D02*
X160020000Y-124460000D01*
X154940000Y-127000000D02*
X156655000Y-128715000D01*
D26*
X154940000Y-127000000D02*
X154290000Y-126350000D01*
D25*
X193040000Y-55880000D02*
X193040000Y-60960000D01*
X156655000Y-128715000D02*
X160020000Y-128715000D01*
%TO.N,Net-(J1-Pin_2)*%
X194740322Y-134787338D02*
X194740322Y-126160322D01*
X193040000Y-124460000D02*
X183700000Y-124460000D01*
X194740322Y-126160322D02*
X193040000Y-124460000D01*
D27*
X157480000Y-114300000D02*
X156890000Y-114890000D01*
D26*
X156890000Y-114890000D02*
X156890000Y-117260000D01*
D25*
X172720000Y-113260000D02*
X158520000Y-113260000D01*
D27*
X150390000Y-114830000D02*
X149860000Y-114300000D01*
D24*
X157540000Y-114360000D02*
X157480000Y-114300000D01*
D26*
X157540000Y-117260000D02*
X157540000Y-114360000D01*
D24*
X180340000Y-113835000D02*
X179765000Y-113260000D01*
D26*
X150390000Y-117260000D02*
X150390000Y-114830000D01*
D25*
X179765000Y-113260000D02*
X172720000Y-113260000D01*
D24*
X179765000Y-114410000D02*
X180340000Y-113835000D01*
D25*
X158520000Y-113260000D02*
X157480000Y-114300000D01*
%TO.N,BTN*%
X187960000Y-73660000D02*
X193760000Y-73660000D01*
X193760000Y-67145000D02*
X193760000Y-73660000D01*
D24*
X187960000Y-73660000D02*
X185420000Y-73660000D01*
X157480000Y-53340000D02*
X157480000Y-60960000D01*
X193952500Y-66952500D02*
X193760000Y-67145000D01*
%TO.N,I2C SCL*%
X154940000Y-132080000D02*
X154940000Y-137160000D01*
%TO.N,I2C SDA*%
X134620000Y-104140000D02*
X134620000Y-73660000D01*
X157480000Y-134620000D02*
X157480000Y-137160000D01*
X119380000Y-134620000D02*
X147320000Y-134620000D01*
X119380000Y-127000000D02*
X119380000Y-111760000D01*
%TO.N,IR_1*%
X144780000Y-121920000D02*
X142240000Y-121920000D01*
X152400000Y-60960000D02*
X152400000Y-53340000D01*
%TO.N,IR_2*%
X162560000Y-66040000D02*
X154940000Y-66040000D01*
X165100000Y-116840000D02*
X167640000Y-116840000D01*
X167640000Y-96520000D02*
X167640000Y-71120000D01*
X167640000Y-71120000D02*
X162560000Y-66040000D01*
X154940000Y-60960000D02*
X154940000Y-53340000D01*
%TD*%
%TA.AperFunction,Conductor*%
%TO.N,GND*%
G36*
X152207540Y-124254685D02*
G01*
X152253295Y-124307489D01*
X152264500Y-124358997D01*
X152264501Y-124561000D01*
X152244816Y-124628039D01*
X152192012Y-124673794D01*
X152140501Y-124685000D01*
X151889500Y-124685000D01*
X151822461Y-124665315D01*
X151776706Y-124612511D01*
X151765500Y-124561000D01*
X151765500Y-124359000D01*
X151785185Y-124291961D01*
X151837989Y-124246206D01*
X151889500Y-124235000D01*
X152140501Y-124235000D01*
X152207540Y-124254685D01*
G37*
%TD.AperFunction*%
%TA.AperFunction,Conductor*%
G36*
X156107540Y-124254685D02*
G01*
X156153295Y-124307489D01*
X156164500Y-124358997D01*
X156164501Y-124561000D01*
X156144816Y-124628039D01*
X156092012Y-124673794D01*
X156040501Y-124685000D01*
X155789500Y-124685000D01*
X155722461Y-124665315D01*
X155676706Y-124612511D01*
X155665500Y-124561000D01*
X155665500Y-124359000D01*
X155685185Y-124291961D01*
X155737989Y-124246206D01*
X155789500Y-124235000D01*
X156040501Y-124235000D01*
X156107540Y-124254685D01*
G37*
%TD.AperFunction*%
%TA.AperFunction,Conductor*%
G36*
X143330128Y-101046933D02*
G01*
X143368385Y-101072976D01*
X144030798Y-101735389D01*
X144993681Y-102698272D01*
X145027166Y-102759594D01*
X145030000Y-102785952D01*
X145030000Y-103527698D01*
X145010315Y-103594737D01*
X144957511Y-103640492D01*
X144888355Y-103650436D01*
X144815766Y-103640000D01*
X144815763Y-103640000D01*
X144744237Y-103640000D01*
X144744233Y-103640000D01*
X144671645Y-103650436D01*
X144602487Y-103640492D01*
X144549684Y-103594736D01*
X144530000Y-103527698D01*
X144530000Y-102809364D01*
X144529999Y-102809364D01*
X144316513Y-102866567D01*
X144316507Y-102866570D01*
X144102422Y-102966399D01*
X144102420Y-102966400D01*
X143908926Y-103101886D01*
X143786865Y-103223947D01*
X143725542Y-103257431D01*
X143655850Y-103252447D01*
X143599917Y-103210575D01*
X143583002Y-103179598D01*
X143533797Y-103047671D01*
X143533793Y-103047664D01*
X143447547Y-102932455D01*
X143447544Y-102932452D01*
X143332335Y-102846206D01*
X143332332Y-102846205D01*
X143332331Y-102846204D01*
X143321161Y-102842038D01*
X143265231Y-102800166D01*
X143240816Y-102734701D01*
X143240500Y-102725858D01*
X143240500Y-101549256D01*
X143225074Y-101397560D01*
X143162391Y-101197778D01*
X143161103Y-101127921D01*
X143197788Y-101068456D01*
X143260798Y-101038265D01*
X143330128Y-101046933D01*
G37*
%TD.AperFunction*%
%TA.AperFunction,Conductor*%
G36*
X120022553Y-56169067D02*
G01*
X120025037Y-56171483D01*
X120522078Y-56668524D01*
X120540124Y-56691415D01*
X120621160Y-56823653D01*
X120621161Y-56823656D01*
X120621164Y-56823659D01*
X120784776Y-57015224D01*
X120907938Y-57120414D01*
X120976343Y-57178838D01*
X120976346Y-57178839D01*
X121190411Y-57310019D01*
X121191141Y-57310466D01*
X121217951Y-57321570D01*
X121272355Y-57365410D01*
X121294421Y-57431703D01*
X121294500Y-57436132D01*
X121294500Y-58337255D01*
X121292775Y-58352872D01*
X121293061Y-58352899D01*
X121292326Y-58360665D01*
X121294500Y-58429814D01*
X121294500Y-58459343D01*
X121294501Y-58459360D01*
X121295368Y-58466231D01*
X121295826Y-58472050D01*
X121297290Y-58518624D01*
X121297291Y-58518627D01*
X121302880Y-58537867D01*
X121306824Y-58556911D01*
X121307614Y-58563160D01*
X121309336Y-58576791D01*
X121326490Y-58620119D01*
X121328382Y-58625647D01*
X121341381Y-58670388D01*
X121351580Y-58687634D01*
X121360136Y-58705100D01*
X121367514Y-58723732D01*
X121391506Y-58756755D01*
X121394898Y-58761423D01*
X121398106Y-58766307D01*
X121421827Y-58806416D01*
X121421833Y-58806424D01*
X121435990Y-58820580D01*
X121448628Y-58835376D01*
X121460405Y-58851586D01*
X121460406Y-58851587D01*
X121496309Y-58881288D01*
X121500620Y-58885210D01*
X125255735Y-62640326D01*
X126499197Y-63883788D01*
X126509022Y-63896051D01*
X126509243Y-63895869D01*
X126514214Y-63901878D01*
X126535043Y-63921437D01*
X126564635Y-63949226D01*
X126585529Y-63970120D01*
X126591011Y-63974373D01*
X126595443Y-63978157D01*
X126629418Y-64010062D01*
X126646976Y-64019714D01*
X126663233Y-64030393D01*
X126679064Y-64042673D01*
X126698737Y-64051186D01*
X126721833Y-64061182D01*
X126727077Y-64063750D01*
X126767908Y-64086197D01*
X126780523Y-64089435D01*
X126787305Y-64091177D01*
X126805719Y-64097481D01*
X126824104Y-64105438D01*
X126870157Y-64112732D01*
X126875826Y-64113906D01*
X126920981Y-64125500D01*
X126941016Y-64125500D01*
X126960413Y-64127026D01*
X126980196Y-64130160D01*
X127026583Y-64125775D01*
X127032422Y-64125500D01*
X134537257Y-64125500D01*
X134552877Y-64127224D01*
X134552904Y-64126939D01*
X134560660Y-64127671D01*
X134560667Y-64127673D01*
X134629814Y-64125500D01*
X134659350Y-64125500D01*
X134666228Y-64124630D01*
X134672041Y-64124172D01*
X134718627Y-64122709D01*
X134737869Y-64117117D01*
X134756912Y-64113174D01*
X134776792Y-64110664D01*
X134812087Y-64096689D01*
X134881666Y-64090312D01*
X134943646Y-64122564D01*
X134978351Y-64183205D01*
X134974761Y-64252983D01*
X134945417Y-64299662D01*
X134241899Y-65003181D01*
X134180576Y-65036666D01*
X134154218Y-65039500D01*
X124925783Y-65039500D01*
X124858744Y-65019815D01*
X124838102Y-65003181D01*
X117876819Y-58041898D01*
X117843334Y-57980575D01*
X117840500Y-57954217D01*
X117840500Y-57187453D01*
X117860185Y-57120414D01*
X117883965Y-57093166D01*
X117975224Y-57015224D01*
X118138836Y-56823659D01*
X118219879Y-56691407D01*
X118237922Y-56668522D01*
X118731481Y-56174963D01*
X118792804Y-56141478D01*
X118862496Y-56146462D01*
X118918429Y-56188334D01*
X118921513Y-56193249D01*
X118921549Y-56193225D01*
X118926441Y-56200156D01*
X118997816Y-56276579D01*
X119029638Y-56310652D01*
X119064698Y-56331973D01*
X119111749Y-56383623D01*
X119123407Y-56452513D01*
X119095970Y-56516770D01*
X119087950Y-56525601D01*
X118435819Y-57177731D01*
X118435819Y-57177732D01*
X118436636Y-57178430D01*
X118436638Y-57178432D01*
X118651368Y-57310019D01*
X118884043Y-57406396D01*
X119128927Y-57465187D01*
X119379999Y-57484947D01*
X119631072Y-57465187D01*
X119875956Y-57406396D01*
X120108631Y-57310019D01*
X120323360Y-57178432D01*
X120323371Y-57178424D01*
X120324179Y-57177732D01*
X119673165Y-56526718D01*
X119639680Y-56465395D01*
X119644664Y-56395703D01*
X119682588Y-56342853D01*
X119785739Y-56258934D01*
X119836052Y-56187655D01*
X119890793Y-56144239D01*
X119960318Y-56137309D01*
X120022553Y-56169067D01*
G37*
%TD.AperFunction*%
%TA.AperFunction,Conductor*%
G36*
X198062539Y-50820185D02*
G01*
X198108294Y-50872989D01*
X198119500Y-50924500D01*
X198119500Y-81155500D01*
X198099815Y-81222539D01*
X198047011Y-81268294D01*
X197995500Y-81279500D01*
X185444760Y-81279500D01*
X185444554Y-81279459D01*
X185420000Y-81279459D01*
X185419901Y-81279500D01*
X185419617Y-81279616D01*
X185419615Y-81279618D01*
X185419459Y-81279999D01*
X185419476Y-81304616D01*
X185419471Y-81304616D01*
X185419500Y-81304759D01*
X185419500Y-109195467D01*
X185419416Y-109195889D01*
X185419459Y-109220001D01*
X185419500Y-109220099D01*
X185419616Y-109220382D01*
X185419618Y-109220384D01*
X185419808Y-109220462D01*
X185420000Y-109220541D01*
X185420002Y-109220539D01*
X185444616Y-109220524D01*
X185444616Y-109220528D01*
X185444760Y-109220500D01*
X197995500Y-109220500D01*
X198062539Y-109240185D01*
X198108294Y-109292989D01*
X198119500Y-109344500D01*
X198119500Y-139575500D01*
X198099815Y-139642539D01*
X198047011Y-139688294D01*
X197995500Y-139699500D01*
X109344500Y-139699500D01*
X109277461Y-139679815D01*
X109231706Y-139627011D01*
X109220500Y-139575500D01*
X109220500Y-134620000D01*
X118474540Y-134620000D01*
X118494326Y-134808256D01*
X118494327Y-134808259D01*
X118552818Y-134988277D01*
X118552821Y-134988284D01*
X118647467Y-135152216D01*
X118736996Y-135251648D01*
X118774129Y-135292888D01*
X118927265Y-135404148D01*
X118927270Y-135404151D01*
X119100192Y-135481142D01*
X119100197Y-135481144D01*
X119285354Y-135520500D01*
X119285355Y-135520500D01*
X119474644Y-135520500D01*
X119474646Y-135520500D01*
X119659803Y-135481144D01*
X119832730Y-135404151D01*
X119985871Y-135292888D01*
X119988788Y-135289647D01*
X119991600Y-135286526D01*
X120051087Y-135249879D01*
X120083748Y-135245500D01*
X146616252Y-135245500D01*
X146683291Y-135265185D01*
X146708400Y-135286526D01*
X146714126Y-135292885D01*
X146714130Y-135292889D01*
X146867265Y-135404148D01*
X146867270Y-135404151D01*
X147040192Y-135481142D01*
X147040197Y-135481144D01*
X147225354Y-135520500D01*
X147225355Y-135520500D01*
X147414644Y-135520500D01*
X147414646Y-135520500D01*
X147599803Y-135481144D01*
X147772730Y-135404151D01*
X147925871Y-135292888D01*
X148052533Y-135152216D01*
X148147179Y-134988284D01*
X148205674Y-134808256D01*
X148225460Y-134620000D01*
X148205674Y-134431744D01*
X148147179Y-134251716D01*
X148052533Y-134087784D01*
X147925871Y-133947112D01*
X147925870Y-133947111D01*
X147772734Y-133835851D01*
X147772729Y-133835848D01*
X147599807Y-133758857D01*
X147599802Y-133758855D01*
X147433422Y-133723491D01*
X147414646Y-133719500D01*
X147225354Y-133719500D01*
X147206578Y-133723491D01*
X147040197Y-133758855D01*
X147040192Y-133758857D01*
X146867270Y-133835848D01*
X146867265Y-133835851D01*
X146714130Y-133947110D01*
X146714126Y-133947114D01*
X146708400Y-133953474D01*
X146648913Y-133990121D01*
X146616252Y-133994500D01*
X120083748Y-133994500D01*
X120016709Y-133974815D01*
X119991600Y-133953474D01*
X119985873Y-133947114D01*
X119985869Y-133947110D01*
X119832734Y-133835851D01*
X119832729Y-133835848D01*
X119659807Y-133758857D01*
X119659802Y-133758855D01*
X119493422Y-133723491D01*
X119474646Y-133719500D01*
X119285354Y-133719500D01*
X119266578Y-133723491D01*
X119100197Y-133758855D01*
X119100192Y-133758857D01*
X118927270Y-133835848D01*
X118927265Y-133835851D01*
X118774129Y-133947111D01*
X118647466Y-134087785D01*
X118552821Y-134251715D01*
X118552818Y-134251722D01*
X118494327Y-134431740D01*
X118494326Y-134431744D01*
X118474540Y-134620000D01*
X109220500Y-134620000D01*
X109220500Y-114300000D01*
X115934540Y-114300000D01*
X115954326Y-114488256D01*
X115954327Y-114488259D01*
X116012818Y-114668277D01*
X116012821Y-114668284D01*
X116107467Y-114832216D01*
X116140360Y-114868747D01*
X116182650Y-114915715D01*
X116212880Y-114978706D01*
X116214500Y-114998687D01*
X116214500Y-132009152D01*
X116212305Y-132032379D01*
X116210773Y-132040412D01*
X116214378Y-132097724D01*
X116214500Y-132101595D01*
X116214500Y-132119356D01*
X116216725Y-132136968D01*
X116217091Y-132140843D01*
X116220696Y-132198138D01*
X116223222Y-132205914D01*
X116228309Y-132228672D01*
X116229334Y-132236784D01*
X116229336Y-132236792D01*
X116250469Y-132290170D01*
X116251788Y-132293833D01*
X116269532Y-132348440D01*
X116273907Y-132355333D01*
X116284503Y-132376129D01*
X116287511Y-132383726D01*
X116287513Y-132383731D01*
X116321265Y-132430187D01*
X116323455Y-132433409D01*
X116354213Y-132481876D01*
X116360164Y-132487464D01*
X116375604Y-132504978D01*
X116380403Y-132511585D01*
X116424647Y-132548187D01*
X116427567Y-132550761D01*
X116469418Y-132590062D01*
X116476578Y-132593998D01*
X116495879Y-132607114D01*
X116502177Y-132612324D01*
X116502178Y-132612324D01*
X116502179Y-132612325D01*
X116554125Y-132636769D01*
X116557597Y-132638538D01*
X116607903Y-132666195D01*
X116607905Y-132666195D01*
X116607908Y-132666197D01*
X116613205Y-132667556D01*
X116615814Y-132668227D01*
X116637777Y-132676133D01*
X116645174Y-132679614D01*
X116701576Y-132690373D01*
X116705362Y-132691219D01*
X116760981Y-132705500D01*
X116769153Y-132705500D01*
X116792385Y-132707696D01*
X116793989Y-132708001D01*
X116800412Y-132709227D01*
X116857724Y-132705621D01*
X116861597Y-132705500D01*
X146616252Y-132705500D01*
X146683291Y-132725185D01*
X146708400Y-132746526D01*
X146714126Y-132752885D01*
X146714130Y-132752889D01*
X146867265Y-132864148D01*
X146867270Y-132864151D01*
X147040192Y-132941142D01*
X147040197Y-132941144D01*
X147225354Y-132980500D01*
X147225355Y-132980500D01*
X147414644Y-132980500D01*
X147414646Y-132980500D01*
X147599803Y-132941144D01*
X147772730Y-132864151D01*
X147925871Y-132752888D01*
X148052533Y-132612216D01*
X148147179Y-132448284D01*
X148205674Y-132268256D01*
X148225460Y-132080000D01*
X148205674Y-131891744D01*
X148147179Y-131711716D01*
X148052533Y-131547784D01*
X147925871Y-131407112D01*
X147925870Y-131407111D01*
X147772734Y-131295851D01*
X147772729Y-131295848D01*
X147599807Y-131218857D01*
X147599802Y-131218855D01*
X147454000Y-131187865D01*
X147414646Y-131179500D01*
X147225354Y-131179500D01*
X147192897Y-131186398D01*
X147040197Y-131218855D01*
X147040192Y-131218857D01*
X146867270Y-131295848D01*
X146867265Y-131295851D01*
X146714130Y-131407110D01*
X146714126Y-131407114D01*
X146708400Y-131413474D01*
X146648913Y-131450121D01*
X146616252Y-131454500D01*
X117589500Y-131454500D01*
X117522461Y-131434815D01*
X117476706Y-131382011D01*
X117465500Y-131330500D01*
X117465500Y-127000000D01*
X118474540Y-127000000D01*
X118494326Y-127188256D01*
X118494327Y-127188259D01*
X118552818Y-127368277D01*
X118552821Y-127368284D01*
X118647467Y-127532216D01*
X118760309Y-127657539D01*
X118774129Y-127672888D01*
X118927265Y-127784148D01*
X118927270Y-127784151D01*
X119100192Y-127861142D01*
X119100197Y-127861144D01*
X119285354Y-127900500D01*
X119285355Y-127900500D01*
X119474644Y-127900500D01*
X119474646Y-127900500D01*
X119659803Y-127861144D01*
X119832730Y-127784151D01*
X119985871Y-127672888D01*
X120112533Y-127532216D01*
X120207179Y-127368284D01*
X120265674Y-127188256D01*
X120285460Y-127000000D01*
X120265674Y-126811744D01*
X120207179Y-126631716D01*
X120112533Y-126467784D01*
X120037348Y-126384283D01*
X120007119Y-126321293D01*
X120005499Y-126301324D01*
X120005500Y-112458683D01*
X120025184Y-112391648D01*
X120037350Y-112375714D01*
X120055210Y-112355879D01*
X120112533Y-112292216D01*
X120207179Y-112128284D01*
X120265674Y-111948256D01*
X120285460Y-111760000D01*
X120265674Y-111571744D01*
X120207179Y-111391716D01*
X120112533Y-111227784D01*
X119985871Y-111087112D01*
X119965249Y-111072129D01*
X119832734Y-110975851D01*
X119832729Y-110975848D01*
X119659807Y-110898857D01*
X119659802Y-110898855D01*
X119514000Y-110867865D01*
X119474646Y-110859500D01*
X119285354Y-110859500D01*
X119252897Y-110866398D01*
X119100197Y-110898855D01*
X119100192Y-110898857D01*
X118927270Y-110975848D01*
X118927265Y-110975851D01*
X118774129Y-111087111D01*
X118647466Y-111227785D01*
X118552821Y-111391715D01*
X118552818Y-111391722D01*
X118510641Y-111521531D01*
X118494326Y-111571744D01*
X118474540Y-111760000D01*
X118494326Y-111948256D01*
X118494327Y-111948259D01*
X118552818Y-112128277D01*
X118552821Y-112128284D01*
X118647467Y-112292216D01*
X118679310Y-112327581D01*
X118722650Y-112375715D01*
X118752880Y-112438706D01*
X118754500Y-112458687D01*
X118754500Y-126301312D01*
X118734815Y-126368351D01*
X118722650Y-126384284D01*
X118647466Y-126467784D01*
X118552821Y-126631715D01*
X118552818Y-126631722D01*
X118506246Y-126775057D01*
X118494326Y-126811744D01*
X118474540Y-127000000D01*
X117465500Y-127000000D01*
X117465500Y-114998687D01*
X117485185Y-114931648D01*
X117497350Y-114915715D01*
X117534458Y-114874502D01*
X117572533Y-114832216D01*
X117667179Y-114668284D01*
X117725674Y-114488256D01*
X117745460Y-114300000D01*
X117725674Y-114111744D01*
X117667179Y-113931716D01*
X117572533Y-113767784D01*
X117445871Y-113627112D01*
X117413588Y-113603657D01*
X117292734Y-113515851D01*
X117292729Y-113515848D01*
X117119807Y-113438857D01*
X117119802Y-113438855D01*
X116974001Y-113407865D01*
X116934646Y-113399500D01*
X116745354Y-113399500D01*
X116712897Y-113406398D01*
X116560197Y-113438855D01*
X116560192Y-113438857D01*
X116387270Y-113515848D01*
X116387265Y-113515851D01*
X116234129Y-113627111D01*
X116107466Y-113767785D01*
X116012821Y-113931715D01*
X116012818Y-113931722D01*
X115954327Y-114111740D01*
X115954326Y-114111744D01*
X115934540Y-114300000D01*
X109220500Y-114300000D01*
X109220500Y-109344500D01*
X109240185Y-109277461D01*
X109292989Y-109231706D01*
X109344500Y-109220500D01*
X121895240Y-109220500D01*
X121895383Y-109220528D01*
X121895384Y-109220524D01*
X121919997Y-109220539D01*
X121920000Y-109220541D01*
X121920383Y-109220383D01*
X121920500Y-109220099D01*
X121920541Y-109220000D01*
X121920540Y-109219997D01*
X121920583Y-109195889D01*
X121920500Y-109195467D01*
X121920500Y-81304759D01*
X121920528Y-81304616D01*
X121920524Y-81304616D01*
X121920539Y-81280002D01*
X121920541Y-81280000D01*
X121920462Y-81279808D01*
X121920384Y-81279618D01*
X121920382Y-81279616D01*
X121920099Y-81279500D01*
X121920000Y-81279459D01*
X121895446Y-81279459D01*
X121895240Y-81279500D01*
X109344500Y-81279500D01*
X109277461Y-81259815D01*
X109231706Y-81207011D01*
X109220500Y-81155500D01*
X109220500Y-55879999D01*
X110154551Y-55879999D01*
X110174317Y-56131151D01*
X110233126Y-56376110D01*
X110329533Y-56608859D01*
X110461160Y-56823653D01*
X110461161Y-56823656D01*
X110583146Y-56966482D01*
X110624776Y-57015224D01*
X110716032Y-57093164D01*
X110754225Y-57151669D01*
X110759500Y-57187453D01*
X110759500Y-78713070D01*
X110759420Y-78716210D01*
X110755631Y-78790935D01*
X110755631Y-78790936D01*
X110766957Y-78864877D01*
X110767354Y-78867991D01*
X110774925Y-78942437D01*
X110774926Y-78942440D01*
X110779749Y-78957814D01*
X110784003Y-78976147D01*
X110786442Y-78992064D01*
X110786443Y-78992068D01*
X110812427Y-79062232D01*
X110813441Y-79065198D01*
X110835841Y-79136588D01*
X110835842Y-79136589D01*
X110835843Y-79136592D01*
X110843657Y-79150670D01*
X110851517Y-79167777D01*
X110857111Y-79182881D01*
X110857114Y-79182887D01*
X110896694Y-79246390D01*
X110898288Y-79249096D01*
X110934592Y-79314503D01*
X110934593Y-79314504D01*
X110945078Y-79326718D01*
X110956222Y-79341894D01*
X110964745Y-79355567D01*
X110964745Y-79355568D01*
X110964748Y-79355571D01*
X111016315Y-79409819D01*
X111018392Y-79412118D01*
X111038902Y-79436010D01*
X111067132Y-79468894D01*
X111067133Y-79468895D01*
X111079869Y-79478753D01*
X111093844Y-79491379D01*
X111104940Y-79503052D01*
X111166340Y-79545789D01*
X111168873Y-79547648D01*
X111190502Y-79564390D01*
X111228042Y-79593448D01*
X111242515Y-79600547D01*
X111258726Y-79610090D01*
X111271951Y-79619295D01*
X111271956Y-79619297D01*
X111340696Y-79648796D01*
X111343552Y-79650108D01*
X111410724Y-79683058D01*
X111410726Y-79683058D01*
X111410729Y-79683060D01*
X111426316Y-79687095D01*
X111444128Y-79693182D01*
X111458942Y-79699540D01*
X111532265Y-79714607D01*
X111535260Y-79715302D01*
X111607711Y-79734062D01*
X111607715Y-79734063D01*
X111623807Y-79734879D01*
X111642480Y-79737257D01*
X111651413Y-79739093D01*
X111658258Y-79740500D01*
X111658259Y-79740500D01*
X111733071Y-79740500D01*
X111736211Y-79740580D01*
X111762842Y-79741930D01*
X111810936Y-79744369D01*
X111826856Y-79741930D01*
X111845633Y-79740500D01*
X123335500Y-79740500D01*
X123402539Y-79760185D01*
X123448294Y-79812989D01*
X123459500Y-79864500D01*
X123459500Y-126987283D01*
X123457243Y-127076362D01*
X123457243Y-127076370D01*
X123468064Y-127136739D01*
X123468718Y-127141404D01*
X123474925Y-127202430D01*
X123474927Y-127202444D01*
X123485208Y-127235213D01*
X123487079Y-127242837D01*
X123493142Y-127276652D01*
X123493142Y-127276655D01*
X123502890Y-127301058D01*
X123513769Y-127328294D01*
X123515894Y-127333612D01*
X123517474Y-127338051D01*
X123535841Y-127396588D01*
X123535844Y-127396595D01*
X123552509Y-127426619D01*
X123555879Y-127433714D01*
X123568622Y-127465614D01*
X123568627Y-127465624D01*
X123602377Y-127516833D01*
X123604818Y-127520863D01*
X123634588Y-127574498D01*
X123634589Y-127574499D01*
X123634591Y-127574502D01*
X123656968Y-127600567D01*
X123661693Y-127606835D01*
X123674263Y-127625906D01*
X123680598Y-127635519D01*
X123723978Y-127678899D01*
X123727169Y-127682343D01*
X123767131Y-127728892D01*
X123767130Y-127728892D01*
X123794299Y-127749923D01*
X123800186Y-127755107D01*
X125083548Y-129038468D01*
X125144941Y-129103053D01*
X125144944Y-129103055D01*
X125144947Y-129103058D01*
X125179053Y-129126795D01*
X125195303Y-129138106D01*
X125199044Y-129140926D01*
X125246593Y-129179698D01*
X125277045Y-129195604D01*
X125283756Y-129199671D01*
X125311951Y-129219295D01*
X125368332Y-129243490D01*
X125372567Y-129245501D01*
X125426951Y-129273909D01*
X125459973Y-129283356D01*
X125467365Y-129285989D01*
X125498940Y-129299539D01*
X125498941Y-129299540D01*
X125512054Y-129302234D01*
X125559055Y-129311892D01*
X125563595Y-129313006D01*
X125622582Y-129329886D01*
X125656841Y-129332494D01*
X125664609Y-129333585D01*
X125698255Y-129340500D01*
X125698259Y-129340500D01*
X125759601Y-129340500D01*
X125764308Y-129340678D01*
X125791597Y-129342757D01*
X125825475Y-129345337D01*
X125825475Y-129345336D01*
X125825476Y-129345337D01*
X125859559Y-129340996D01*
X125867389Y-129340500D01*
X148735500Y-129340500D01*
X148802539Y-129360185D01*
X148848294Y-129412989D01*
X148859500Y-129464500D01*
X148859500Y-135745858D01*
X148839815Y-135812897D01*
X148787011Y-135858652D01*
X148778847Y-135862034D01*
X148767669Y-135866204D01*
X148767664Y-135866206D01*
X148652455Y-135952452D01*
X148652452Y-135952455D01*
X148566206Y-136067664D01*
X148566202Y-136067671D01*
X148515908Y-136202517D01*
X148509501Y-136262116D01*
X148509500Y-136262135D01*
X148509500Y-138057870D01*
X148509501Y-138057876D01*
X148515908Y-138117483D01*
X148566202Y-138252328D01*
X148566206Y-138252335D01*
X148652452Y-138367544D01*
X148652455Y-138367547D01*
X148767664Y-138453793D01*
X148767671Y-138453797D01*
X148902517Y-138504091D01*
X148902516Y-138504091D01*
X148909444Y-138504835D01*
X148962127Y-138510500D01*
X150757872Y-138510499D01*
X150817483Y-138504091D01*
X150952331Y-138453796D01*
X151067546Y-138367546D01*
X151153796Y-138252331D01*
X151203002Y-138120401D01*
X151244872Y-138064468D01*
X151310337Y-138040050D01*
X151378610Y-138054901D01*
X151406865Y-138076053D01*
X151528917Y-138198105D01*
X151722421Y-138333600D01*
X151936507Y-138433429D01*
X151936516Y-138433433D01*
X152150000Y-138490634D01*
X152150000Y-137772301D01*
X152169685Y-137705262D01*
X152222489Y-137659507D01*
X152291647Y-137649563D01*
X152364237Y-137660000D01*
X152364238Y-137660000D01*
X152435762Y-137660000D01*
X152435763Y-137660000D01*
X152508353Y-137649563D01*
X152577512Y-137659507D01*
X152630315Y-137705262D01*
X152650000Y-137772301D01*
X152650000Y-138490633D01*
X152863483Y-138433433D01*
X152863492Y-138433429D01*
X153077578Y-138333600D01*
X153271082Y-138198105D01*
X153438105Y-138031082D01*
X153568119Y-137845405D01*
X153622696Y-137801781D01*
X153692195Y-137794588D01*
X153754549Y-137826110D01*
X153771269Y-137845405D01*
X153901505Y-138031401D01*
X154068599Y-138198495D01*
X154165384Y-138266265D01*
X154262165Y-138334032D01*
X154262167Y-138334033D01*
X154262170Y-138334035D01*
X154476337Y-138433903D01*
X154704592Y-138495063D01*
X154881034Y-138510500D01*
X154939999Y-138515659D01*
X154940000Y-138515659D01*
X154940001Y-138515659D01*
X154998966Y-138510500D01*
X155175408Y-138495063D01*
X155403663Y-138433903D01*
X155617830Y-138334035D01*
X155811401Y-138198495D01*
X155978495Y-138031401D01*
X156108424Y-137845842D01*
X156163002Y-137802217D01*
X156232500Y-137795023D01*
X156294855Y-137826546D01*
X156311575Y-137845842D01*
X156441500Y-138031395D01*
X156441505Y-138031401D01*
X156608599Y-138198495D01*
X156705384Y-138266265D01*
X156802165Y-138334032D01*
X156802167Y-138334033D01*
X156802170Y-138334035D01*
X157016337Y-138433903D01*
X157244592Y-138495063D01*
X157421034Y-138510500D01*
X157479999Y-138515659D01*
X157480000Y-138515659D01*
X157480001Y-138515659D01*
X157538966Y-138510500D01*
X157715408Y-138495063D01*
X157943663Y-138433903D01*
X158157830Y-138334035D01*
X158351401Y-138198495D01*
X158518495Y-138031401D01*
X158648424Y-137845842D01*
X158703002Y-137802217D01*
X158772500Y-137795023D01*
X158834855Y-137826546D01*
X158851575Y-137845842D01*
X158981500Y-138031395D01*
X158981505Y-138031401D01*
X159148599Y-138198495D01*
X159245384Y-138266265D01*
X159342165Y-138334032D01*
X159342167Y-138334033D01*
X159342170Y-138334035D01*
X159556337Y-138433903D01*
X159784592Y-138495063D01*
X159961034Y-138510500D01*
X160019999Y-138515659D01*
X160020000Y-138515659D01*
X160020001Y-138515659D01*
X160078966Y-138510500D01*
X160255408Y-138495063D01*
X160483663Y-138433903D01*
X160697830Y-138334035D01*
X160891401Y-138198495D01*
X161058495Y-138031401D01*
X161188424Y-137845842D01*
X161243002Y-137802217D01*
X161312500Y-137795023D01*
X161374855Y-137826546D01*
X161391575Y-137845842D01*
X161521500Y-138031395D01*
X161521505Y-138031401D01*
X161688599Y-138198495D01*
X161785384Y-138266265D01*
X161882165Y-138334032D01*
X161882167Y-138334033D01*
X161882170Y-138334035D01*
X162096337Y-138433903D01*
X162324592Y-138495063D01*
X162501034Y-138510500D01*
X162559999Y-138515659D01*
X162560000Y-138515659D01*
X162560001Y-138515659D01*
X162618966Y-138510500D01*
X162795408Y-138495063D01*
X163023663Y-138433903D01*
X163237830Y-138334035D01*
X163431401Y-138198495D01*
X163598495Y-138031401D01*
X163734035Y-137837830D01*
X163833903Y-137623663D01*
X163895063Y-137395408D01*
X163915659Y-137160000D01*
X163895063Y-136924592D01*
X163833903Y-136696337D01*
X163734035Y-136482171D01*
X163728731Y-136474595D01*
X163598494Y-136288597D01*
X163431402Y-136121506D01*
X163431395Y-136121501D01*
X163416929Y-136111372D01*
X163354518Y-136067671D01*
X163237834Y-135985967D01*
X163237830Y-135985965D01*
X163185500Y-135961563D01*
X163023663Y-135886097D01*
X163023659Y-135886096D01*
X163023655Y-135886094D01*
X162795413Y-135824938D01*
X162795403Y-135824936D01*
X162560001Y-135804341D01*
X162559999Y-135804341D01*
X162324596Y-135824936D01*
X162324586Y-135824938D01*
X162096344Y-135886094D01*
X162096335Y-135886098D01*
X161882171Y-135985964D01*
X161882169Y-135985965D01*
X161688597Y-136121505D01*
X161521505Y-136288597D01*
X161391575Y-136474158D01*
X161336998Y-136517783D01*
X161267500Y-136524977D01*
X161205145Y-136493454D01*
X161188425Y-136474158D01*
X161058494Y-136288597D01*
X160891402Y-136121506D01*
X160891395Y-136121501D01*
X160876929Y-136111372D01*
X160814518Y-136067671D01*
X160697834Y-135985967D01*
X160697830Y-135985965D01*
X160645500Y-135961563D01*
X160483663Y-135886097D01*
X160483659Y-135886096D01*
X160483655Y-135886094D01*
X160255413Y-135824938D01*
X160255403Y-135824936D01*
X160020001Y-135804341D01*
X160019999Y-135804341D01*
X159784596Y-135824936D01*
X159784586Y-135824938D01*
X159556344Y-135886094D01*
X159556335Y-135886098D01*
X159342171Y-135985964D01*
X159342169Y-135985965D01*
X159148597Y-136121505D01*
X158981508Y-136288594D01*
X158851574Y-136474160D01*
X158796997Y-136517784D01*
X158727498Y-136524977D01*
X158665144Y-136493455D01*
X158648429Y-136474164D01*
X158530807Y-136306183D01*
X158518493Y-136288596D01*
X158351402Y-136121506D01*
X158351401Y-136121505D01*
X158185990Y-136005683D01*
X158158376Y-135986347D01*
X158114751Y-135931770D01*
X158105500Y-135884772D01*
X158105500Y-135318687D01*
X158125185Y-135251648D01*
X158137350Y-135235715D01*
X158158442Y-135212290D01*
X158212533Y-135152216D01*
X158307179Y-134988284D01*
X158365674Y-134808256D01*
X158385460Y-134620000D01*
X158365674Y-134431744D01*
X158307179Y-134251716D01*
X158212533Y-134087784D01*
X158085871Y-133947112D01*
X158085870Y-133947111D01*
X157932734Y-133835851D01*
X157932729Y-133835848D01*
X157759807Y-133758857D01*
X157759802Y-133758855D01*
X157593422Y-133723491D01*
X157574646Y-133719500D01*
X157385354Y-133719500D01*
X157366578Y-133723491D01*
X157200197Y-133758855D01*
X157200192Y-133758857D01*
X157027270Y-133835848D01*
X157027265Y-133835851D01*
X156874129Y-133947111D01*
X156747466Y-134087785D01*
X156652821Y-134251715D01*
X156652818Y-134251722D01*
X156594327Y-134431740D01*
X156594326Y-134431744D01*
X156574540Y-134620000D01*
X156594326Y-134808256D01*
X156594327Y-134808259D01*
X156652818Y-134988277D01*
X156652821Y-134988284D01*
X156747467Y-135152216D01*
X156765957Y-135172751D01*
X156822650Y-135235715D01*
X156852880Y-135298706D01*
X156854500Y-135318687D01*
X156854500Y-135884773D01*
X156834815Y-135951812D01*
X156801623Y-135986348D01*
X156608597Y-136121505D01*
X156441505Y-136288597D01*
X156311575Y-136474158D01*
X156256998Y-136517783D01*
X156187500Y-136524977D01*
X156125145Y-136493454D01*
X156108425Y-136474158D01*
X155978494Y-136288597D01*
X155811402Y-136121506D01*
X155811401Y-136121505D01*
X155645990Y-136005683D01*
X155618376Y-135986347D01*
X155574751Y-135931770D01*
X155565500Y-135884772D01*
X155565500Y-132778687D01*
X155585185Y-132711648D01*
X155597350Y-132695715D01*
X155623928Y-132666197D01*
X155672533Y-132612216D01*
X155767179Y-132448284D01*
X155825674Y-132268256D01*
X155845460Y-132080000D01*
X155825674Y-131891744D01*
X155767179Y-131711716D01*
X155672533Y-131547784D01*
X155545871Y-131407112D01*
X155545870Y-131407111D01*
X155392734Y-131295851D01*
X155392729Y-131295848D01*
X155219807Y-131218857D01*
X155219802Y-131218855D01*
X155074000Y-131187865D01*
X155034646Y-131179500D01*
X154845354Y-131179500D01*
X154812897Y-131186398D01*
X154660197Y-131218855D01*
X154660192Y-131218857D01*
X154487270Y-131295848D01*
X154487265Y-131295851D01*
X154334129Y-131407111D01*
X154207466Y-131547785D01*
X154112821Y-131711715D01*
X154112818Y-131711722D01*
X154054327Y-131891740D01*
X154054326Y-131891744D01*
X154034540Y-132080000D01*
X154054326Y-132268256D01*
X154054327Y-132268259D01*
X154112818Y-132448277D01*
X154112821Y-132448284D01*
X154207467Y-132612216D01*
X154231168Y-132638538D01*
X154282650Y-132695715D01*
X154312880Y-132758706D01*
X154314500Y-132778687D01*
X154314500Y-135884773D01*
X154294815Y-135951812D01*
X154261623Y-135986348D01*
X154068597Y-136121505D01*
X153901508Y-136288594D01*
X153771269Y-136474595D01*
X153716692Y-136518219D01*
X153647193Y-136525412D01*
X153584839Y-136493890D01*
X153568119Y-136474594D01*
X153438113Y-136288926D01*
X153438108Y-136288920D01*
X153271082Y-136121894D01*
X153077578Y-135986399D01*
X152863492Y-135886570D01*
X152863486Y-135886567D01*
X152650000Y-135829364D01*
X152650000Y-136547698D01*
X152630315Y-136614737D01*
X152577511Y-136660492D01*
X152508355Y-136670436D01*
X152435766Y-136660000D01*
X152435763Y-136660000D01*
X152364237Y-136660000D01*
X152364233Y-136660000D01*
X152291645Y-136670436D01*
X152222487Y-136660492D01*
X152169684Y-136614736D01*
X152150000Y-136547698D01*
X152150000Y-135829364D01*
X152149999Y-135829364D01*
X151936513Y-135886567D01*
X151936507Y-135886570D01*
X151722422Y-135986399D01*
X151722420Y-135986400D01*
X151528926Y-136121886D01*
X151406865Y-136243947D01*
X151345542Y-136277431D01*
X151275850Y-136272447D01*
X151219917Y-136230575D01*
X151203002Y-136199598D01*
X151153797Y-136067671D01*
X151153793Y-136067664D01*
X151067547Y-135952455D01*
X151067544Y-135952452D01*
X150952335Y-135866206D01*
X150952332Y-135866205D01*
X150952331Y-135866204D01*
X150941161Y-135862038D01*
X150885231Y-135820166D01*
X150860816Y-135754701D01*
X150860500Y-135745858D01*
X150860500Y-129489258D01*
X150859361Y-129478058D01*
X150859258Y-129477045D01*
X150872059Y-129408359D01*
X150919962Y-129357496D01*
X150982622Y-129340500D01*
X152387284Y-129340500D01*
X152476358Y-129342757D01*
X152476358Y-129342756D01*
X152476363Y-129342757D01*
X152536753Y-129331932D01*
X152541412Y-129331280D01*
X152583607Y-129326988D01*
X152602438Y-129325074D01*
X152635227Y-129314786D01*
X152642840Y-129312918D01*
X152676653Y-129306858D01*
X152733621Y-129284101D01*
X152738053Y-129282524D01*
X152796588Y-129264159D01*
X152826627Y-129247484D01*
X152833708Y-129244122D01*
X152865617Y-129231377D01*
X152916854Y-129197608D01*
X152920851Y-129195187D01*
X152974502Y-129165409D01*
X153000568Y-129143030D01*
X153006843Y-129138300D01*
X153017269Y-129131429D01*
X153035519Y-129119402D01*
X153078885Y-129076034D01*
X153082343Y-129072830D01*
X153122369Y-129038468D01*
X153128895Y-129032866D01*
X153149928Y-129005691D01*
X153155098Y-128999821D01*
X153688468Y-128466451D01*
X153753053Y-128405059D01*
X153788099Y-128354706D01*
X153790938Y-128350941D01*
X153794612Y-128346435D01*
X153829698Y-128303407D01*
X153845601Y-128272960D01*
X153849674Y-128266239D01*
X153854489Y-128259320D01*
X153869295Y-128238049D01*
X153893492Y-128181660D01*
X153895498Y-128177435D01*
X153923909Y-128123049D01*
X153933360Y-128090015D01*
X153935991Y-128082628D01*
X153949540Y-128051058D01*
X153961893Y-127990940D01*
X153963006Y-127986412D01*
X153979887Y-127927418D01*
X153982495Y-127893155D01*
X153983587Y-127885376D01*
X153988568Y-127861144D01*
X153990500Y-127851741D01*
X153990500Y-127790402D01*
X153990679Y-127785694D01*
X153992837Y-127757350D01*
X154017554Y-127691998D01*
X154073678Y-127650384D01*
X154143392Y-127645719D01*
X154204160Y-127679082D01*
X155154445Y-128629366D01*
X155938566Y-129413487D01*
X155999941Y-129478053D01*
X155999944Y-129478055D01*
X155999947Y-129478058D01*
X156030877Y-129499584D01*
X156050295Y-129513100D01*
X156054050Y-129515932D01*
X156101593Y-129554698D01*
X156132045Y-129570604D01*
X156138756Y-129574671D01*
X156166951Y-129594295D01*
X156223332Y-129618490D01*
X156227567Y-129620501D01*
X156281951Y-129648909D01*
X156314973Y-129658356D01*
X156322365Y-129660989D01*
X156353940Y-129674539D01*
X156353941Y-129674540D01*
X156367054Y-129677234D01*
X156414055Y-129686892D01*
X156418595Y-129688006D01*
X156477582Y-129704886D01*
X156511841Y-129707494D01*
X156519609Y-129708585D01*
X156553255Y-129715500D01*
X156553259Y-129715500D01*
X156614601Y-129715500D01*
X156619308Y-129715678D01*
X156655651Y-129718446D01*
X156680475Y-129720337D01*
X156680475Y-129720336D01*
X156680476Y-129720337D01*
X156714559Y-129715996D01*
X156722389Y-129715500D01*
X159993071Y-129715500D01*
X159996211Y-129715580D01*
X160023068Y-129716941D01*
X160070936Y-129719369D01*
X160144895Y-129708038D01*
X160147992Y-129707643D01*
X160222438Y-129700074D01*
X160237811Y-129695250D01*
X160256149Y-129690995D01*
X160260473Y-129690332D01*
X160272071Y-129688556D01*
X160342266Y-129662558D01*
X160345150Y-129661572D01*
X160416588Y-129639159D01*
X160430670Y-129631341D01*
X160447782Y-129623479D01*
X160462887Y-129617886D01*
X160526421Y-129578283D01*
X160529041Y-129576741D01*
X160594502Y-129540409D01*
X160606724Y-129529915D01*
X160621898Y-129518773D01*
X160635571Y-129510252D01*
X160689835Y-129458668D01*
X160692098Y-129456624D01*
X160748895Y-129407866D01*
X160758750Y-129395133D01*
X160771374Y-129381161D01*
X160775810Y-129376942D01*
X160783053Y-129370059D01*
X160825817Y-129308616D01*
X160827600Y-129306186D01*
X160873448Y-129246958D01*
X160880549Y-129232479D01*
X160890092Y-129216269D01*
X160899295Y-129203049D01*
X160928822Y-129134241D01*
X160930085Y-129131493D01*
X160963060Y-129064271D01*
X160967098Y-129048672D01*
X160973191Y-129030851D01*
X160979538Y-129016062D01*
X160979540Y-129016058D01*
X160994607Y-128942730D01*
X160995299Y-128939749D01*
X161014063Y-128867285D01*
X161014879Y-128851193D01*
X161017258Y-128832516D01*
X161020500Y-128816742D01*
X161020500Y-128741928D01*
X161020580Y-128738788D01*
X161021894Y-128712851D01*
X161024369Y-128664064D01*
X161021930Y-128648142D01*
X161020500Y-128629366D01*
X161020500Y-127050743D01*
X161559500Y-127050743D01*
X161574925Y-127202439D01*
X161635837Y-127396579D01*
X161635844Y-127396594D01*
X161734589Y-127574499D01*
X161734592Y-127574504D01*
X161867132Y-127728893D01*
X161867134Y-127728895D01*
X162028037Y-127853445D01*
X162028038Y-127853445D01*
X162028042Y-127853448D01*
X162210729Y-127943060D01*
X162407715Y-127994063D01*
X162610936Y-128004369D01*
X162812071Y-127973556D01*
X163002887Y-127902886D01*
X163175571Y-127795252D01*
X163323053Y-127655059D01*
X163439295Y-127488049D01*
X163519540Y-127301058D01*
X163560500Y-127101741D01*
X163560500Y-122334314D01*
X163580185Y-122267275D01*
X163632989Y-122221520D01*
X163702147Y-122211576D01*
X163765703Y-122240601D01*
X163803477Y-122299379D01*
X163804275Y-122302221D01*
X163826094Y-122383655D01*
X163826096Y-122383659D01*
X163826097Y-122383663D01*
X163858063Y-122452214D01*
X163925965Y-122597830D01*
X163925967Y-122597834D01*
X164000412Y-122704151D01*
X164061505Y-122791401D01*
X164063174Y-122793070D01*
X164063674Y-122793985D01*
X164064982Y-122795544D01*
X164064668Y-122795806D01*
X164096664Y-122854388D01*
X164099500Y-122880757D01*
X164099500Y-129590743D01*
X164114925Y-129742439D01*
X164175837Y-129936579D01*
X164175844Y-129936594D01*
X164274589Y-130114499D01*
X164274592Y-130114504D01*
X164407132Y-130268893D01*
X164407134Y-130268895D01*
X164568037Y-130393445D01*
X164568038Y-130393445D01*
X164568042Y-130393448D01*
X164750729Y-130483060D01*
X164947715Y-130534063D01*
X165150936Y-130544369D01*
X165352071Y-130513556D01*
X165542887Y-130442886D01*
X165715571Y-130335252D01*
X165863053Y-130195059D01*
X165979295Y-130028049D01*
X166059540Y-129841058D01*
X166100500Y-129641741D01*
X166100500Y-122880757D01*
X166120185Y-122813719D01*
X166136819Y-122793077D01*
X166136828Y-122793068D01*
X166138495Y-122791401D01*
X166274035Y-122597830D01*
X166373903Y-122383663D01*
X166435063Y-122155408D01*
X166455659Y-121920000D01*
X166435063Y-121684592D01*
X166373903Y-121456337D01*
X166274035Y-121242171D01*
X166273652Y-121241623D01*
X166138494Y-121048597D01*
X165971402Y-120881506D01*
X165971401Y-120881505D01*
X165785405Y-120751269D01*
X165741781Y-120696692D01*
X165734588Y-120627193D01*
X165766110Y-120564839D01*
X165785405Y-120548119D01*
X165971082Y-120418105D01*
X166138105Y-120251082D01*
X166273600Y-120057578D01*
X166373429Y-119843492D01*
X166373432Y-119843486D01*
X166430636Y-119630000D01*
X165713347Y-119630000D01*
X165646308Y-119610315D01*
X165600553Y-119557511D01*
X165590609Y-119488353D01*
X165594369Y-119471067D01*
X165600000Y-119451888D01*
X165600000Y-119308111D01*
X165594369Y-119288933D01*
X165594370Y-119219064D01*
X165632145Y-119160286D01*
X165695701Y-119131262D01*
X165713347Y-119130000D01*
X166430636Y-119130000D01*
X166430635Y-119129999D01*
X166373432Y-118916513D01*
X166373429Y-118916507D01*
X166273600Y-118702422D01*
X166273599Y-118702420D01*
X166138113Y-118508926D01*
X166138108Y-118508920D01*
X166016053Y-118386865D01*
X165982568Y-118325542D01*
X165987552Y-118255850D01*
X166029424Y-118199917D01*
X166060400Y-118183002D01*
X166192331Y-118133796D01*
X166307546Y-118047546D01*
X166393796Y-117932331D01*
X166444091Y-117797483D01*
X166450500Y-117737873D01*
X166450500Y-117589499D01*
X166470185Y-117522461D01*
X166522989Y-117476706D01*
X166574500Y-117465500D01*
X166936252Y-117465500D01*
X167003291Y-117485185D01*
X167028400Y-117506526D01*
X167034126Y-117512885D01*
X167034130Y-117512889D01*
X167187265Y-117624148D01*
X167187270Y-117624151D01*
X167360192Y-117701142D01*
X167360197Y-117701144D01*
X167545354Y-117740500D01*
X167545355Y-117740500D01*
X167734644Y-117740500D01*
X167734646Y-117740500D01*
X167919803Y-117701144D01*
X168092730Y-117624151D01*
X168245871Y-117512888D01*
X168372533Y-117372216D01*
X168467179Y-117208284D01*
X168525674Y-117028256D01*
X168545460Y-116840000D01*
X168525674Y-116651744D01*
X168467179Y-116471716D01*
X168372533Y-116307784D01*
X168245871Y-116167112D01*
X168245870Y-116167111D01*
X168092734Y-116055851D01*
X168092729Y-116055848D01*
X167919807Y-115978857D01*
X167919802Y-115978855D01*
X167774000Y-115947865D01*
X167734646Y-115939500D01*
X167545354Y-115939500D01*
X167512897Y-115946398D01*
X167360197Y-115978855D01*
X167360192Y-115978857D01*
X167187270Y-116055848D01*
X167187265Y-116055851D01*
X167034130Y-116167110D01*
X167034126Y-116167114D01*
X167028400Y-116173474D01*
X166968913Y-116210121D01*
X166936252Y-116214500D01*
X166574499Y-116214500D01*
X166507460Y-116194815D01*
X166461705Y-116142011D01*
X166450499Y-116090500D01*
X166450499Y-115942129D01*
X166450498Y-115942123D01*
X166450497Y-115942116D01*
X166444091Y-115882517D01*
X166438096Y-115866444D01*
X166393797Y-115747671D01*
X166393793Y-115747664D01*
X166307547Y-115632455D01*
X166307544Y-115632452D01*
X166192335Y-115546206D01*
X166192328Y-115546202D01*
X166057482Y-115495908D01*
X166057483Y-115495908D01*
X165997883Y-115489501D01*
X165997881Y-115489500D01*
X165997873Y-115489500D01*
X165997864Y-115489500D01*
X164202129Y-115489500D01*
X164202123Y-115489501D01*
X164142516Y-115495908D01*
X164007671Y-115546202D01*
X164007664Y-115546206D01*
X163892455Y-115632452D01*
X163892452Y-115632455D01*
X163806206Y-115747664D01*
X163806202Y-115747671D01*
X163755908Y-115882517D01*
X163754358Y-115896940D01*
X163749501Y-115942123D01*
X163749500Y-115942135D01*
X163749500Y-116479685D01*
X163729815Y-116546724D01*
X163677011Y-116592479D01*
X163607853Y-116602423D01*
X163544297Y-116573398D01*
X163507187Y-116516806D01*
X163484162Y-116443420D01*
X163484160Y-116443416D01*
X163484159Y-116443412D01*
X163385409Y-116265498D01*
X163385408Y-116265497D01*
X163385407Y-116265495D01*
X163252867Y-116111106D01*
X163252865Y-116111104D01*
X163091962Y-115986554D01*
X163091959Y-115986553D01*
X163091958Y-115986552D01*
X162909271Y-115896940D01*
X162712285Y-115845937D01*
X162712287Y-115845937D01*
X162576804Y-115839066D01*
X162509064Y-115835631D01*
X162509063Y-115835631D01*
X162509061Y-115835631D01*
X162307936Y-115866442D01*
X162307924Y-115866445D01*
X162117118Y-115937111D01*
X162117111Y-115937115D01*
X161944432Y-116044745D01*
X161944427Y-116044749D01*
X161796949Y-116184938D01*
X161796947Y-116184940D01*
X161796947Y-116184941D01*
X161782777Y-116205300D01*
X161680705Y-116351949D01*
X161600459Y-116538943D01*
X161559500Y-116738258D01*
X161559500Y-127050743D01*
X161020500Y-127050743D01*
X161020500Y-116789256D01*
X161005074Y-116637560D01*
X160944162Y-116443420D01*
X160944160Y-116443416D01*
X160944159Y-116443412D01*
X160845409Y-116265498D01*
X160845408Y-116265497D01*
X160845407Y-116265495D01*
X160712867Y-116111106D01*
X160712865Y-116111104D01*
X160551962Y-115986554D01*
X160551959Y-115986553D01*
X160551958Y-115986552D01*
X160369271Y-115896940D01*
X160172285Y-115845937D01*
X160172287Y-115845937D01*
X160036804Y-115839066D01*
X159969064Y-115835631D01*
X159969063Y-115835631D01*
X159969061Y-115835631D01*
X159767936Y-115866442D01*
X159767924Y-115866445D01*
X159577118Y-115937111D01*
X159577111Y-115937115D01*
X159404432Y-116044745D01*
X159404427Y-116044749D01*
X159256949Y-116184938D01*
X159256947Y-116184940D01*
X159256947Y-116184941D01*
X159242777Y-116205300D01*
X159140705Y-116351949D01*
X159060459Y-116538943D01*
X159019500Y-116738258D01*
X159019500Y-127590500D01*
X158999815Y-127657539D01*
X158947011Y-127703294D01*
X158895500Y-127714500D01*
X158322066Y-127714500D01*
X158255027Y-127694815D01*
X158209272Y-127642011D01*
X158199328Y-127572853D01*
X158214679Y-127528501D01*
X158307176Y-127368289D01*
X158307175Y-127368289D01*
X158307179Y-127368284D01*
X158365674Y-127188256D01*
X158385460Y-127000000D01*
X158365674Y-126811744D01*
X158307179Y-126631716D01*
X158257111Y-126544996D01*
X158240500Y-126482998D01*
X158240500Y-125514700D01*
X158248318Y-125471366D01*
X158250567Y-125465337D01*
X158259091Y-125442483D01*
X158265500Y-125382873D01*
X158265499Y-123537128D01*
X158259091Y-123477517D01*
X158256329Y-123470113D01*
X158208797Y-123342671D01*
X158208793Y-123342664D01*
X158122547Y-123227455D01*
X158122544Y-123227452D01*
X158007335Y-123141206D01*
X158007328Y-123141202D01*
X157872486Y-123090910D01*
X157872485Y-123090909D01*
X157872483Y-123090909D01*
X157812873Y-123084500D01*
X157812863Y-123084500D01*
X157267130Y-123084500D01*
X157267119Y-123084501D01*
X157228253Y-123088679D01*
X157201748Y-123088679D01*
X157162874Y-123084500D01*
X156617132Y-123084500D01*
X156617117Y-123084501D01*
X156575904Y-123088931D01*
X156549402Y-123088931D01*
X156512834Y-123085000D01*
X156465000Y-123085000D01*
X156449388Y-123100611D01*
X156445315Y-123114485D01*
X156415313Y-123146710D01*
X156307454Y-123227454D01*
X156307453Y-123227455D01*
X156307452Y-123227456D01*
X156238266Y-123319876D01*
X156182332Y-123361747D01*
X156112641Y-123366731D01*
X156051318Y-123333245D01*
X156017834Y-123271922D01*
X156015000Y-123245565D01*
X156015000Y-123085000D01*
X155967164Y-123085000D01*
X155928252Y-123089183D01*
X155901748Y-123089183D01*
X155862835Y-123085000D01*
X155815000Y-123085000D01*
X155815000Y-123245565D01*
X155795315Y-123312604D01*
X155742511Y-123358359D01*
X155673353Y-123368303D01*
X155609797Y-123339278D01*
X155591734Y-123319876D01*
X155522547Y-123227456D01*
X155522548Y-123227456D01*
X155522546Y-123227454D01*
X155414687Y-123146711D01*
X155378888Y-123098888D01*
X155365000Y-123085000D01*
X155317165Y-123085000D01*
X155280598Y-123088931D01*
X155254092Y-123088931D01*
X155212873Y-123084500D01*
X154667130Y-123084500D01*
X154667119Y-123084501D01*
X154628253Y-123088679D01*
X154601748Y-123088679D01*
X154562874Y-123084500D01*
X154017130Y-123084500D01*
X154017119Y-123084501D01*
X153978253Y-123088679D01*
X153951748Y-123088679D01*
X153912874Y-123084500D01*
X153367130Y-123084500D01*
X153367119Y-123084501D01*
X153328253Y-123088679D01*
X153301748Y-123088679D01*
X153262874Y-123084500D01*
X152717132Y-123084500D01*
X152717117Y-123084501D01*
X152675904Y-123088931D01*
X152649402Y-123088931D01*
X152612834Y-123085000D01*
X152565000Y-123085000D01*
X152549388Y-123100611D01*
X152545315Y-123114485D01*
X152515313Y-123146710D01*
X152407454Y-123227454D01*
X152407453Y-123227455D01*
X152407452Y-123227456D01*
X152338266Y-123319876D01*
X152282332Y-123361747D01*
X152212641Y-123366731D01*
X152151318Y-123333245D01*
X152117834Y-123271922D01*
X152115000Y-123245565D01*
X152115000Y-123085000D01*
X152067164Y-123085000D01*
X152028252Y-123089183D01*
X152001748Y-123089183D01*
X151962835Y-123085000D01*
X151915000Y-123085000D01*
X151915000Y-123245565D01*
X151895315Y-123312604D01*
X151842511Y-123358359D01*
X151773353Y-123368303D01*
X151709797Y-123339278D01*
X151691734Y-123319876D01*
X151622547Y-123227456D01*
X151622548Y-123227456D01*
X151622546Y-123227454D01*
X151514687Y-123146711D01*
X151478888Y-123098888D01*
X151465000Y-123085000D01*
X151417165Y-123085000D01*
X151380598Y-123088931D01*
X151354092Y-123088931D01*
X151312873Y-123084500D01*
X150767130Y-123084500D01*
X150767119Y-123084501D01*
X150728253Y-123088679D01*
X150701748Y-123088679D01*
X150662874Y-123084500D01*
X150117129Y-123084500D01*
X150117123Y-123084501D01*
X150057516Y-123090908D01*
X149922671Y-123141202D01*
X149922664Y-123141206D01*
X149807455Y-123227452D01*
X149807452Y-123227455D01*
X149721206Y-123342664D01*
X149721202Y-123342671D01*
X149670908Y-123477517D01*
X149665686Y-123526094D01*
X149664501Y-123537123D01*
X149664500Y-123537135D01*
X149664500Y-125181190D01*
X149644815Y-125248229D01*
X149592011Y-125293984D01*
X149522853Y-125303928D01*
X149490976Y-125294871D01*
X149488871Y-125293954D01*
X149484927Y-125292068D01*
X149430709Y-125263747D01*
X149430704Y-125263745D01*
X149430702Y-125263744D01*
X149420861Y-125260928D01*
X149397683Y-125254295D01*
X149390283Y-125251661D01*
X149358710Y-125238112D01*
X149358711Y-125238112D01*
X149298619Y-125225762D01*
X149294044Y-125224639D01*
X149235073Y-125207766D01*
X149235078Y-125207766D01*
X149200811Y-125205156D01*
X149193033Y-125204065D01*
X149159395Y-125197153D01*
X149159394Y-125197153D01*
X149098055Y-125197153D01*
X149093348Y-125196974D01*
X149087774Y-125196549D01*
X149032177Y-125192315D01*
X149012242Y-125194854D01*
X148998093Y-125196656D01*
X148990264Y-125197153D01*
X128124500Y-125197153D01*
X128057461Y-125177468D01*
X128011706Y-125124664D01*
X128000500Y-125073153D01*
X128000500Y-76374782D01*
X128020185Y-76307743D01*
X128072989Y-76261988D01*
X128142147Y-76252044D01*
X128205703Y-76281069D01*
X128212181Y-76287101D01*
X128503181Y-76578101D01*
X128536666Y-76639424D01*
X128539500Y-76665782D01*
X128539500Y-110236762D01*
X128539499Y-110325786D01*
X128537243Y-110414863D01*
X128537244Y-110414876D01*
X128537557Y-110416623D01*
X128539499Y-110438482D01*
X128539499Y-114287284D01*
X128537243Y-114376359D01*
X128537243Y-114376367D01*
X128548064Y-114436739D01*
X128548718Y-114441404D01*
X128554925Y-114502430D01*
X128554927Y-114502444D01*
X128565208Y-114535213D01*
X128567079Y-114542837D01*
X128573142Y-114576652D01*
X128573142Y-114576655D01*
X128595894Y-114633612D01*
X128597474Y-114638051D01*
X128615841Y-114696588D01*
X128615844Y-114696595D01*
X128632509Y-114726619D01*
X128635879Y-114733714D01*
X128646271Y-114759730D01*
X128648622Y-114765614D01*
X128648627Y-114765624D01*
X128682377Y-114816833D01*
X128684818Y-114820863D01*
X128714588Y-114874498D01*
X128714589Y-114874499D01*
X128714591Y-114874502D01*
X128736968Y-114900567D01*
X128741693Y-114906835D01*
X128747546Y-114915715D01*
X128760598Y-114935519D01*
X128803978Y-114978899D01*
X128807169Y-114982343D01*
X128847131Y-115028892D01*
X128847134Y-115028895D01*
X128874294Y-115049918D01*
X128880190Y-115055111D01*
X131363566Y-117538487D01*
X131424941Y-117603053D01*
X131424944Y-117603055D01*
X131424945Y-117603056D01*
X131475295Y-117638101D01*
X131479047Y-117640929D01*
X131526592Y-117679697D01*
X131526595Y-117679698D01*
X131526597Y-117679700D01*
X131557039Y-117695601D01*
X131563753Y-117699668D01*
X131591947Y-117719292D01*
X131591953Y-117719296D01*
X131648331Y-117743490D01*
X131652569Y-117745502D01*
X131706951Y-117773909D01*
X131739973Y-117783356D01*
X131747365Y-117785989D01*
X131778940Y-117799539D01*
X131778941Y-117799540D01*
X131792054Y-117802234D01*
X131839055Y-117811892D01*
X131843595Y-117813006D01*
X131902582Y-117829886D01*
X131936841Y-117832494D01*
X131944609Y-117833585D01*
X131978255Y-117840500D01*
X131978259Y-117840500D01*
X132039601Y-117840500D01*
X132044308Y-117840678D01*
X132080651Y-117843446D01*
X132105475Y-117845337D01*
X132105475Y-117845336D01*
X132105476Y-117845337D01*
X132139559Y-117840996D01*
X132147389Y-117840500D01*
X143365859Y-117840500D01*
X143432898Y-117860185D01*
X143478653Y-117912989D01*
X143482030Y-117921140D01*
X143486204Y-117932331D01*
X143486205Y-117932332D01*
X143486206Y-117932335D01*
X143572452Y-118047544D01*
X143572455Y-118047547D01*
X143687664Y-118133793D01*
X143687671Y-118133797D01*
X143687674Y-118133798D01*
X143819598Y-118183002D01*
X143875531Y-118224873D01*
X143899949Y-118290337D01*
X143885098Y-118358610D01*
X143863947Y-118386865D01*
X143741886Y-118508926D01*
X143606400Y-118702420D01*
X143606399Y-118702422D01*
X143506570Y-118916507D01*
X143506567Y-118916513D01*
X143449364Y-119129999D01*
X143449364Y-119130000D01*
X144166653Y-119130000D01*
X144233692Y-119149685D01*
X144279447Y-119202489D01*
X144289391Y-119271647D01*
X144285631Y-119288933D01*
X144280000Y-119308111D01*
X144280000Y-119451888D01*
X144285631Y-119471067D01*
X144285630Y-119540936D01*
X144247855Y-119599714D01*
X144184299Y-119628738D01*
X144166653Y-119630000D01*
X143449364Y-119630000D01*
X143506567Y-119843486D01*
X143506570Y-119843492D01*
X143606399Y-120057578D01*
X143741894Y-120251082D01*
X143908917Y-120418105D01*
X144094595Y-120548119D01*
X144138219Y-120602696D01*
X144145412Y-120672195D01*
X144113890Y-120734549D01*
X144094595Y-120751269D01*
X143908594Y-120881508D01*
X143741505Y-121048597D01*
X143606348Y-121241623D01*
X143551771Y-121285248D01*
X143504773Y-121294500D01*
X142943748Y-121294500D01*
X142876709Y-121274815D01*
X142851600Y-121253474D01*
X142845873Y-121247114D01*
X142845869Y-121247110D01*
X142692734Y-121135851D01*
X142692729Y-121135848D01*
X142519807Y-121058857D01*
X142519802Y-121058855D01*
X142374001Y-121027865D01*
X142334646Y-121019500D01*
X142145354Y-121019500D01*
X142112897Y-121026398D01*
X141960197Y-121058855D01*
X141960192Y-121058857D01*
X141787270Y-121135848D01*
X141787265Y-121135851D01*
X141634129Y-121247111D01*
X141507466Y-121387785D01*
X141412821Y-121551715D01*
X141412818Y-121551722D01*
X141369645Y-121684596D01*
X141354326Y-121731744D01*
X141334540Y-121920000D01*
X141354326Y-122108256D01*
X141354327Y-122108259D01*
X141412818Y-122288277D01*
X141412821Y-122288284D01*
X141507467Y-122452216D01*
X141609185Y-122565185D01*
X141634129Y-122592888D01*
X141787265Y-122704148D01*
X141787270Y-122704151D01*
X141960192Y-122781142D01*
X141960197Y-122781144D01*
X142145354Y-122820500D01*
X142145355Y-122820500D01*
X142334644Y-122820500D01*
X142334646Y-122820500D01*
X142519803Y-122781144D01*
X142692730Y-122704151D01*
X142845871Y-122592888D01*
X142848788Y-122589647D01*
X142851600Y-122586526D01*
X142911087Y-122549879D01*
X142943748Y-122545500D01*
X143504773Y-122545500D01*
X143571812Y-122565185D01*
X143606348Y-122598377D01*
X143741500Y-122791395D01*
X143741505Y-122791401D01*
X143908599Y-122958495D01*
X144005384Y-123026265D01*
X144102165Y-123094032D01*
X144102167Y-123094033D01*
X144102170Y-123094035D01*
X144316337Y-123193903D01*
X144544592Y-123255063D01*
X144732918Y-123271539D01*
X144779999Y-123275659D01*
X144780000Y-123275659D01*
X144780001Y-123275659D01*
X144822713Y-123271922D01*
X145015408Y-123255063D01*
X145243663Y-123193903D01*
X145457830Y-123094035D01*
X145651401Y-122958495D01*
X145818495Y-122791401D01*
X145954035Y-122597830D01*
X146053903Y-122383663D01*
X146115063Y-122155408D01*
X146135659Y-121920000D01*
X146115063Y-121684592D01*
X146053903Y-121456337D01*
X145954035Y-121242171D01*
X145953652Y-121241623D01*
X145818494Y-121048597D01*
X145651402Y-120881506D01*
X145651401Y-120881505D01*
X145465405Y-120751269D01*
X145421781Y-120696692D01*
X145414588Y-120627193D01*
X145446110Y-120564839D01*
X145465405Y-120548119D01*
X145651082Y-120418105D01*
X145818105Y-120251082D01*
X145953600Y-120057578D01*
X146053429Y-119843492D01*
X146053432Y-119843486D01*
X146110636Y-119630000D01*
X145393347Y-119630000D01*
X145326308Y-119610315D01*
X145280553Y-119557511D01*
X145270609Y-119488353D01*
X145274369Y-119471067D01*
X145280000Y-119451888D01*
X145280000Y-119308111D01*
X145274369Y-119288933D01*
X145274370Y-119219064D01*
X145312145Y-119160286D01*
X145375701Y-119131262D01*
X145393347Y-119130000D01*
X146110636Y-119130000D01*
X146110635Y-119129999D01*
X146053432Y-118916513D01*
X146053429Y-118916507D01*
X145953600Y-118702422D01*
X145953599Y-118702420D01*
X145818113Y-118508926D01*
X145818108Y-118508920D01*
X145696053Y-118386865D01*
X145662568Y-118325542D01*
X145667552Y-118255850D01*
X145709424Y-118199917D01*
X145740400Y-118183002D01*
X145872331Y-118133796D01*
X145987546Y-118047546D01*
X146073796Y-117932331D01*
X146124091Y-117797483D01*
X146130500Y-117737873D01*
X146130499Y-115942128D01*
X146124091Y-115882517D01*
X146118096Y-115866444D01*
X146073797Y-115747671D01*
X146073793Y-115747664D01*
X145987547Y-115632455D01*
X145987544Y-115632452D01*
X145872335Y-115546206D01*
X145872328Y-115546202D01*
X145737482Y-115495908D01*
X145737483Y-115495908D01*
X145677883Y-115489501D01*
X145677881Y-115489500D01*
X145677873Y-115489500D01*
X145677864Y-115489500D01*
X143882129Y-115489500D01*
X143882123Y-115489501D01*
X143822516Y-115495908D01*
X143687671Y-115546202D01*
X143687664Y-115546206D01*
X143572455Y-115632452D01*
X143572452Y-115632455D01*
X143486206Y-115747664D01*
X143486204Y-115747668D01*
X143486204Y-115747669D01*
X143482039Y-115758834D01*
X143440171Y-115814766D01*
X143374707Y-115839184D01*
X143365859Y-115839500D01*
X132545783Y-115839500D01*
X132478744Y-115819815D01*
X132458102Y-115803181D01*
X130576819Y-113921898D01*
X130543334Y-113860575D01*
X130540500Y-113834217D01*
X130540500Y-113053285D01*
X130560185Y-112986246D01*
X130612989Y-112940491D01*
X130682147Y-112930547D01*
X130745703Y-112959572D01*
X130752157Y-112965581D01*
X130818183Y-113031606D01*
X130851666Y-113092929D01*
X130854500Y-113119284D01*
X130854500Y-113185000D01*
X130854501Y-113185019D01*
X130865000Y-113287796D01*
X130865001Y-113287799D01*
X130920185Y-113454331D01*
X130920187Y-113454336D01*
X130944007Y-113492954D01*
X131012288Y-113603656D01*
X131136344Y-113727712D01*
X131285666Y-113819814D01*
X131452203Y-113874999D01*
X131554991Y-113885500D01*
X132605008Y-113885499D01*
X132605016Y-113885498D01*
X132605019Y-113885498D01*
X132661302Y-113879748D01*
X132707797Y-113874999D01*
X132874334Y-113819814D01*
X133023656Y-113727712D01*
X133147712Y-113603656D01*
X133239814Y-113454334D01*
X133289135Y-113305492D01*
X133328905Y-113248051D01*
X133393421Y-113221228D01*
X133406839Y-113220500D01*
X138275501Y-113220500D01*
X138342540Y-113240185D01*
X138388295Y-113292989D01*
X138399501Y-113344500D01*
X138399501Y-113367876D01*
X138405908Y-113427483D01*
X138456202Y-113562328D01*
X138456206Y-113562335D01*
X138542452Y-113677544D01*
X138542455Y-113677547D01*
X138657664Y-113763793D01*
X138657671Y-113763797D01*
X138792517Y-113814091D01*
X138792516Y-113814091D01*
X138799444Y-113814835D01*
X138852127Y-113820500D01*
X140547872Y-113820499D01*
X140607483Y-113814091D01*
X140742331Y-113763796D01*
X140857546Y-113677546D01*
X140943796Y-113562331D01*
X140994091Y-113427483D01*
X141000500Y-113367873D01*
X141000500Y-113344500D01*
X141020185Y-113277461D01*
X141072989Y-113231706D01*
X141124500Y-113220500D01*
X146134266Y-113220500D01*
X146201305Y-113240185D01*
X146221947Y-113256819D01*
X146448139Y-113483010D01*
X146671569Y-113706440D01*
X146789742Y-113802798D01*
X146970100Y-113897009D01*
X147165731Y-113952986D01*
X147354266Y-113967343D01*
X147368624Y-113968437D01*
X147368625Y-113968437D01*
X147570470Y-113942731D01*
X147570470Y-113942730D01*
X147570477Y-113942730D01*
X147763021Y-113876916D01*
X147938376Y-113773690D01*
X148089362Y-113637279D01*
X148209798Y-113473267D01*
X148294754Y-113288368D01*
X148294864Y-113287897D01*
X148340751Y-113090154D01*
X148345906Y-112886742D01*
X148345905Y-112886741D01*
X148345906Y-112886737D01*
X148315618Y-112717752D01*
X148310008Y-112686451D01*
X148310006Y-112686445D01*
X148275553Y-112600193D01*
X148234526Y-112497483D01*
X148234521Y-112497476D01*
X148234519Y-112497471D01*
X148122552Y-112327582D01*
X148122549Y-112327578D01*
X147316500Y-111521531D01*
X147255110Y-111456949D01*
X147255109Y-111456948D01*
X147255108Y-111456947D01*
X147227253Y-111437559D01*
X147204758Y-111421902D01*
X147200995Y-111419064D01*
X147153462Y-111380305D01*
X147153455Y-111380300D01*
X147123008Y-111364397D01*
X147116300Y-111360334D01*
X147088098Y-111340705D01*
X147088095Y-111340703D01*
X147088094Y-111340703D01*
X147088090Y-111340701D01*
X147031729Y-111316514D01*
X147027473Y-111314493D01*
X146973106Y-111286094D01*
X146973099Y-111286091D01*
X146973098Y-111286091D01*
X146967057Y-111284362D01*
X146940079Y-111276642D01*
X146932679Y-111274008D01*
X146901106Y-111260459D01*
X146901107Y-111260459D01*
X146841015Y-111248109D01*
X146836440Y-111246986D01*
X146777469Y-111230113D01*
X146777474Y-111230113D01*
X146743207Y-111227503D01*
X146735429Y-111226412D01*
X146701791Y-111219500D01*
X146701790Y-111219500D01*
X146640451Y-111219500D01*
X146635744Y-111219321D01*
X146630170Y-111218896D01*
X146574573Y-111214662D01*
X146554638Y-111217201D01*
X146540489Y-111219003D01*
X146532660Y-111219500D01*
X141124499Y-111219500D01*
X141057460Y-111199815D01*
X141011705Y-111147011D01*
X141000499Y-111095500D01*
X141000499Y-111072129D01*
X141000498Y-111072123D01*
X141000497Y-111072116D01*
X140994091Y-111012517D01*
X140980415Y-110975851D01*
X140943797Y-110877671D01*
X140943795Y-110877668D01*
X140881081Y-110793893D01*
X140856664Y-110728431D01*
X140871515Y-110660158D01*
X140881082Y-110645271D01*
X140943352Y-110562089D01*
X140943354Y-110562086D01*
X140993596Y-110427379D01*
X140993598Y-110427372D01*
X140999999Y-110367844D01*
X141000000Y-110367827D01*
X141000000Y-109470000D01*
X138400000Y-109470000D01*
X138400000Y-110367844D01*
X138406401Y-110427372D01*
X138406403Y-110427379D01*
X138456645Y-110562086D01*
X138456646Y-110562088D01*
X138518918Y-110645272D01*
X138543335Y-110710736D01*
X138528484Y-110779009D01*
X138518918Y-110793894D01*
X138456204Y-110877669D01*
X138456202Y-110877671D01*
X138405908Y-111012517D01*
X138399501Y-111072116D01*
X138399501Y-111072123D01*
X138399500Y-111072135D01*
X138399500Y-111095500D01*
X138379815Y-111162539D01*
X138327011Y-111208294D01*
X138275500Y-111219500D01*
X133429000Y-111219500D01*
X133361961Y-111199815D01*
X133316206Y-111147011D01*
X133305000Y-111095500D01*
X133305000Y-110972500D01*
X131954000Y-110972500D01*
X131886961Y-110952815D01*
X131841206Y-110900011D01*
X131830000Y-110848500D01*
X131830000Y-109635000D01*
X132330000Y-109635000D01*
X132330000Y-110472500D01*
X133304999Y-110472500D01*
X133304999Y-110335028D01*
X133304998Y-110335013D01*
X133294505Y-110232302D01*
X133239358Y-110065880D01*
X133239356Y-110065875D01*
X133147315Y-109916654D01*
X133023345Y-109792684D01*
X132874124Y-109700643D01*
X132874119Y-109700641D01*
X132707697Y-109645494D01*
X132707690Y-109645493D01*
X132604986Y-109635000D01*
X132330000Y-109635000D01*
X131830000Y-109635000D01*
X131555029Y-109635000D01*
X131555012Y-109635001D01*
X131452302Y-109645494D01*
X131285880Y-109700641D01*
X131285875Y-109700643D01*
X131136654Y-109792684D01*
X131012684Y-109916654D01*
X130920637Y-110065885D01*
X130919680Y-110067939D01*
X130918649Y-110069109D01*
X130916851Y-110072025D01*
X130916352Y-110071717D01*
X130873502Y-110120374D01*
X130806306Y-110139519D01*
X130739427Y-110119296D01*
X130719622Y-110103204D01*
X130576819Y-109960401D01*
X130543334Y-109899078D01*
X130540500Y-109872720D01*
X130540500Y-108970000D01*
X138400000Y-108970000D01*
X139450000Y-108970000D01*
X139450000Y-107620000D01*
X139950000Y-107620000D01*
X139950000Y-108970000D01*
X141000000Y-108970000D01*
X141000000Y-108072172D01*
X140999999Y-108072155D01*
X140993598Y-108012627D01*
X140993596Y-108012620D01*
X140943354Y-107877913D01*
X140943350Y-107877906D01*
X140857190Y-107762812D01*
X140857187Y-107762809D01*
X140742093Y-107676649D01*
X140742086Y-107676645D01*
X140607379Y-107626403D01*
X140607372Y-107626401D01*
X140547844Y-107620000D01*
X139950000Y-107620000D01*
X139450000Y-107620000D01*
X138852155Y-107620000D01*
X138792627Y-107626401D01*
X138792620Y-107626403D01*
X138657913Y-107676645D01*
X138657906Y-107676649D01*
X138542812Y-107762809D01*
X138542809Y-107762812D01*
X138456649Y-107877906D01*
X138456645Y-107877913D01*
X138406403Y-108012620D01*
X138406401Y-108012627D01*
X138400000Y-108072155D01*
X138400000Y-108970000D01*
X130540500Y-108970000D01*
X130540500Y-93980000D01*
X131174540Y-93980000D01*
X131194326Y-94168256D01*
X131194327Y-94168259D01*
X131252818Y-94348277D01*
X131252821Y-94348284D01*
X131347467Y-94512216D01*
X131474129Y-94652887D01*
X131474129Y-94652888D01*
X131627265Y-94764148D01*
X131627270Y-94764151D01*
X131800192Y-94841142D01*
X131800197Y-94841144D01*
X131985354Y-94880500D01*
X131985355Y-94880500D01*
X132174644Y-94880500D01*
X132174646Y-94880500D01*
X132359803Y-94841144D01*
X132532730Y-94764151D01*
X132685871Y-94652888D01*
X132812533Y-94512216D01*
X132907179Y-94348284D01*
X132965674Y-94168256D01*
X132985460Y-93980000D01*
X132965674Y-93791744D01*
X132907179Y-93611716D01*
X132812533Y-93447784D01*
X132737348Y-93364283D01*
X132707119Y-93301293D01*
X132705499Y-93281324D01*
X132705500Y-71869500D01*
X132725185Y-71802461D01*
X132777989Y-71756706D01*
X132829500Y-71745500D01*
X134537257Y-71745500D01*
X134552877Y-71747224D01*
X134552904Y-71746939D01*
X134560660Y-71747671D01*
X134560667Y-71747673D01*
X134629814Y-71745500D01*
X134659350Y-71745500D01*
X134666228Y-71744630D01*
X134672041Y-71744172D01*
X134718627Y-71742709D01*
X134737869Y-71737117D01*
X134756912Y-71733174D01*
X134776792Y-71730664D01*
X134820122Y-71713507D01*
X134825646Y-71711617D01*
X134829396Y-71710527D01*
X134870390Y-71698618D01*
X134887629Y-71688422D01*
X134905103Y-71679862D01*
X134923727Y-71672488D01*
X134923727Y-71672487D01*
X134923732Y-71672486D01*
X134961449Y-71645082D01*
X134966305Y-71641892D01*
X135006420Y-71618170D01*
X135020589Y-71603999D01*
X135035379Y-71591368D01*
X135051587Y-71579594D01*
X135081299Y-71543676D01*
X135085212Y-71539376D01*
X139922771Y-66701819D01*
X139984095Y-66668334D01*
X140010453Y-66665500D01*
X146616252Y-66665500D01*
X146683291Y-66685185D01*
X146708400Y-66706526D01*
X146714126Y-66712885D01*
X146714130Y-66712889D01*
X146867265Y-66824148D01*
X146867270Y-66824151D01*
X147040192Y-66901142D01*
X147040197Y-66901144D01*
X147225354Y-66940500D01*
X147225355Y-66940500D01*
X147414644Y-66940500D01*
X147414646Y-66940500D01*
X147599803Y-66901144D01*
X147772730Y-66824151D01*
X147925871Y-66712888D01*
X148052533Y-66572216D01*
X148147179Y-66408284D01*
X148205674Y-66228256D01*
X148225460Y-66040000D01*
X154034540Y-66040000D01*
X154054326Y-66228256D01*
X154054327Y-66228259D01*
X154112818Y-66408277D01*
X154112821Y-66408284D01*
X154207467Y-66572216D01*
X154324162Y-66701819D01*
X154334129Y-66712888D01*
X154487265Y-66824148D01*
X154487270Y-66824151D01*
X154660192Y-66901142D01*
X154660197Y-66901144D01*
X154845354Y-66940500D01*
X154845355Y-66940500D01*
X155034644Y-66940500D01*
X155034646Y-66940500D01*
X155219803Y-66901144D01*
X155392730Y-66824151D01*
X155545871Y-66712888D01*
X155548788Y-66709647D01*
X155551600Y-66706526D01*
X155611087Y-66669879D01*
X155643748Y-66665500D01*
X162249548Y-66665500D01*
X162316587Y-66685185D01*
X162337229Y-66701819D01*
X166978180Y-71342770D01*
X167011665Y-71404093D01*
X167014499Y-71430451D01*
X167014500Y-95821312D01*
X166994815Y-95888351D01*
X166982650Y-95904284D01*
X166907466Y-95987784D01*
X166812821Y-96151715D01*
X166812818Y-96151722D01*
X166754327Y-96331740D01*
X166754326Y-96331744D01*
X166734540Y-96520000D01*
X166754326Y-96708256D01*
X166754327Y-96708259D01*
X166812818Y-96888277D01*
X166812821Y-96888284D01*
X166907467Y-97052216D01*
X166996996Y-97151648D01*
X167034129Y-97192888D01*
X167187265Y-97304148D01*
X167187270Y-97304151D01*
X167360192Y-97381142D01*
X167360197Y-97381144D01*
X167545354Y-97420500D01*
X167545355Y-97420500D01*
X167734644Y-97420500D01*
X167734646Y-97420500D01*
X167919803Y-97381144D01*
X168092730Y-97304151D01*
X168245871Y-97192888D01*
X168372533Y-97052216D01*
X168467179Y-96888284D01*
X168525674Y-96708256D01*
X168545460Y-96520000D01*
X168525674Y-96331744D01*
X168467179Y-96151716D01*
X168372533Y-95987784D01*
X168297350Y-95904284D01*
X168267120Y-95841292D01*
X168265500Y-95821312D01*
X168265500Y-71202742D01*
X168267224Y-71187122D01*
X168266939Y-71187096D01*
X168267671Y-71179340D01*
X168267673Y-71179333D01*
X168265500Y-71110185D01*
X168265500Y-71080650D01*
X168264631Y-71073772D01*
X168264172Y-71067943D01*
X168262709Y-71021372D01*
X168257122Y-71002144D01*
X168253174Y-70983084D01*
X168250663Y-70963204D01*
X168233512Y-70919887D01*
X168231619Y-70914358D01*
X168218618Y-70869609D01*
X168218616Y-70869606D01*
X168208423Y-70852371D01*
X168199861Y-70834894D01*
X168192487Y-70816270D01*
X168192486Y-70816268D01*
X168165079Y-70778545D01*
X168161888Y-70773686D01*
X168147536Y-70749418D01*
X168138170Y-70733580D01*
X168138168Y-70733578D01*
X168138165Y-70733574D01*
X168124006Y-70719415D01*
X168111368Y-70704619D01*
X168099594Y-70688413D01*
X168090119Y-70680575D01*
X168063688Y-70658709D01*
X168059376Y-70654786D01*
X163060803Y-65656212D01*
X163050980Y-65643950D01*
X163050759Y-65644134D01*
X163045786Y-65638123D01*
X163027159Y-65620631D01*
X162995364Y-65590773D01*
X162984919Y-65580328D01*
X162974475Y-65569883D01*
X162968986Y-65565625D01*
X162964561Y-65561847D01*
X162930582Y-65529938D01*
X162930580Y-65529936D01*
X162930577Y-65529935D01*
X162913029Y-65520288D01*
X162896763Y-65509604D01*
X162880933Y-65497325D01*
X162838168Y-65478818D01*
X162832922Y-65476248D01*
X162792093Y-65453803D01*
X162792092Y-65453802D01*
X162772693Y-65448822D01*
X162754281Y-65442518D01*
X162735898Y-65434562D01*
X162735892Y-65434560D01*
X162689874Y-65427272D01*
X162684152Y-65426087D01*
X162639021Y-65414500D01*
X162639019Y-65414500D01*
X162618984Y-65414500D01*
X162599586Y-65412973D01*
X162592162Y-65411797D01*
X162579805Y-65409840D01*
X162579804Y-65409840D01*
X162533416Y-65414225D01*
X162527578Y-65414500D01*
X155643748Y-65414500D01*
X155576709Y-65394815D01*
X155551600Y-65373474D01*
X155545873Y-65367114D01*
X155545869Y-65367110D01*
X155392734Y-65255851D01*
X155392729Y-65255848D01*
X155219807Y-65178857D01*
X155219802Y-65178855D01*
X155074001Y-65147865D01*
X155034646Y-65139500D01*
X154845354Y-65139500D01*
X154812897Y-65146398D01*
X154660197Y-65178855D01*
X154660192Y-65178857D01*
X154487270Y-65255848D01*
X154487265Y-65255851D01*
X154334129Y-65367111D01*
X154207466Y-65507785D01*
X154112821Y-65671715D01*
X154112818Y-65671722D01*
X154058934Y-65837562D01*
X154054326Y-65851744D01*
X154034540Y-66040000D01*
X148225460Y-66040000D01*
X148205674Y-65851744D01*
X148147179Y-65671716D01*
X148052533Y-65507784D01*
X147925871Y-65367112D01*
X147925870Y-65367111D01*
X147772734Y-65255851D01*
X147772729Y-65255848D01*
X147599807Y-65178857D01*
X147599802Y-65178855D01*
X147454000Y-65147865D01*
X147414646Y-65139500D01*
X147225354Y-65139500D01*
X147192897Y-65146398D01*
X147040197Y-65178855D01*
X147040192Y-65178857D01*
X146867270Y-65255848D01*
X146867265Y-65255851D01*
X146714130Y-65367110D01*
X146714126Y-65367114D01*
X146708400Y-65373474D01*
X146648913Y-65410121D01*
X146616252Y-65414500D01*
X139782743Y-65414500D01*
X139767122Y-65412775D01*
X139767096Y-65413061D01*
X139759334Y-65412327D01*
X139759333Y-65412327D01*
X139690186Y-65414500D01*
X139660649Y-65414500D01*
X139653766Y-65415369D01*
X139647949Y-65415826D01*
X139601373Y-65417290D01*
X139582129Y-65422881D01*
X139563079Y-65426825D01*
X139543211Y-65429334D01*
X139499884Y-65446488D01*
X139494358Y-65448379D01*
X139449614Y-65461379D01*
X139449610Y-65461381D01*
X139432366Y-65471579D01*
X139414905Y-65480133D01*
X139396274Y-65487510D01*
X139396262Y-65487517D01*
X139358570Y-65514902D01*
X139353687Y-65518109D01*
X139313580Y-65541829D01*
X139299414Y-65555995D01*
X139284624Y-65568627D01*
X139268414Y-65580404D01*
X139268411Y-65580407D01*
X139238710Y-65616309D01*
X139234777Y-65620631D01*
X134397228Y-70458181D01*
X134335905Y-70491666D01*
X134309547Y-70494500D01*
X132150847Y-70494500D01*
X132127615Y-70492304D01*
X132119588Y-70490773D01*
X132119586Y-70490773D01*
X132110633Y-70491336D01*
X132062275Y-70494378D01*
X132058403Y-70494500D01*
X132040643Y-70494500D01*
X132023032Y-70496725D01*
X132019164Y-70497090D01*
X131987375Y-70499090D01*
X131961859Y-70500696D01*
X131954085Y-70503222D01*
X131931320Y-70508310D01*
X131923218Y-70509333D01*
X131923205Y-70509337D01*
X131869810Y-70530477D01*
X131866154Y-70531792D01*
X131811559Y-70549533D01*
X131811556Y-70549534D01*
X131804652Y-70553915D01*
X131783880Y-70564499D01*
X131776273Y-70567511D01*
X131776262Y-70567517D01*
X131729814Y-70601263D01*
X131726595Y-70603451D01*
X131678123Y-70634213D01*
X131678120Y-70634216D01*
X131672529Y-70640170D01*
X131655029Y-70655599D01*
X131648413Y-70660405D01*
X131648412Y-70660406D01*
X131611812Y-70704646D01*
X131609238Y-70707565D01*
X131569937Y-70749417D01*
X131569935Y-70749420D01*
X131565994Y-70756589D01*
X131552889Y-70775873D01*
X131547677Y-70782173D01*
X131547674Y-70782178D01*
X131523231Y-70834121D01*
X131521464Y-70837589D01*
X131493804Y-70887903D01*
X131493803Y-70887908D01*
X131491769Y-70895828D01*
X131483870Y-70917768D01*
X131480386Y-70925172D01*
X131480384Y-70925178D01*
X131469629Y-70981561D01*
X131468779Y-70985361D01*
X131454500Y-71040976D01*
X131454500Y-71049152D01*
X131452305Y-71072379D01*
X131450773Y-71080412D01*
X131454378Y-71137724D01*
X131454500Y-71141595D01*
X131454500Y-93281312D01*
X131434815Y-93348351D01*
X131422650Y-93364284D01*
X131347466Y-93447784D01*
X131252821Y-93611715D01*
X131252818Y-93611722D01*
X131194327Y-93791740D01*
X131194326Y-93791744D01*
X131174540Y-93980000D01*
X130540500Y-93980000D01*
X130540500Y-76212715D01*
X130542757Y-76123641D01*
X130542756Y-76123640D01*
X130542757Y-76123637D01*
X130531933Y-76063249D01*
X130531280Y-76058587D01*
X130525074Y-75997563D01*
X130525074Y-75997562D01*
X130514784Y-75964768D01*
X130512917Y-75957155D01*
X130506858Y-75923347D01*
X130506857Y-75923345D01*
X130484102Y-75866379D01*
X130482521Y-75861938D01*
X130464157Y-75803407D01*
X130447488Y-75773378D01*
X130444117Y-75766278D01*
X130431378Y-75734386D01*
X130431377Y-75734383D01*
X130397620Y-75683163D01*
X130395180Y-75679134D01*
X130384379Y-75659675D01*
X130365409Y-75625498D01*
X130365407Y-75625495D01*
X130343033Y-75599434D01*
X130338302Y-75593159D01*
X130319402Y-75564481D01*
X130276012Y-75521091D01*
X130272822Y-75517648D01*
X130232867Y-75471106D01*
X130232863Y-75471102D01*
X130205698Y-75450074D01*
X130199803Y-75444882D01*
X125496819Y-70741898D01*
X125463334Y-70680575D01*
X125460500Y-70654217D01*
X125460500Y-67164500D01*
X125480185Y-67097461D01*
X125532989Y-67051706D01*
X125584500Y-67040500D01*
X134607284Y-67040500D01*
X134696358Y-67042757D01*
X134696358Y-67042756D01*
X134696363Y-67042757D01*
X134756753Y-67031932D01*
X134761412Y-67031280D01*
X134803607Y-67026988D01*
X134822438Y-67025074D01*
X134855227Y-67014786D01*
X134862840Y-67012918D01*
X134896653Y-67006858D01*
X134953621Y-66984101D01*
X134958053Y-66982524D01*
X135016588Y-66964159D01*
X135046627Y-66947484D01*
X135053708Y-66944122D01*
X135085617Y-66931377D01*
X135136854Y-66897608D01*
X135140851Y-66895187D01*
X135194502Y-66865409D01*
X135220568Y-66843030D01*
X135226843Y-66838300D01*
X135255519Y-66819402D01*
X135298917Y-66776002D01*
X135302336Y-66772834D01*
X135348895Y-66732866D01*
X135369931Y-66705688D01*
X135375101Y-66699818D01*
X137538101Y-64536819D01*
X137599425Y-64503334D01*
X137625783Y-64500500D01*
X170078259Y-64500500D01*
X182778259Y-64500500D01*
X182867284Y-64500500D01*
X182956359Y-64502757D01*
X182956361Y-64502757D01*
X182956361Y-64502756D01*
X182956363Y-64502757D01*
X182957410Y-64502569D01*
X182958105Y-64502445D01*
X182979979Y-64500500D01*
X191859217Y-64500500D01*
X191926256Y-64520185D01*
X191946898Y-64536819D01*
X192715681Y-65305602D01*
X192749166Y-65366925D01*
X192752000Y-65393281D01*
X192752000Y-65439999D01*
X192752001Y-65440019D01*
X192762500Y-65542796D01*
X192762501Y-65542799D01*
X192817685Y-65709331D01*
X192817686Y-65709334D01*
X192905522Y-65851740D01*
X192909789Y-65858657D01*
X193003451Y-65952319D01*
X193036936Y-66013642D01*
X193031952Y-66083334D01*
X193003451Y-66127681D01*
X192909789Y-66221342D01*
X192817687Y-66370663D01*
X192817685Y-66370668D01*
X192801967Y-66418102D01*
X192762501Y-66537203D01*
X192762501Y-66537204D01*
X192762500Y-66537204D01*
X192752000Y-66639983D01*
X192752000Y-67265001D01*
X192752001Y-67265017D01*
X192759179Y-67335272D01*
X192759500Y-67341577D01*
X192759500Y-72535500D01*
X192739815Y-72602539D01*
X192687011Y-72648294D01*
X192635500Y-72659500D01*
X186512129Y-72659500D01*
X186512123Y-72659501D01*
X186452516Y-72665908D01*
X186317671Y-72716202D01*
X186317664Y-72716206D01*
X186202455Y-72802452D01*
X186123965Y-72907300D01*
X186068031Y-72949170D01*
X185998339Y-72954154D01*
X185951814Y-72933306D01*
X185872734Y-72875851D01*
X185872729Y-72875848D01*
X185699807Y-72798857D01*
X185699802Y-72798855D01*
X185554001Y-72767865D01*
X185514646Y-72759500D01*
X185494782Y-72759500D01*
X185427743Y-72739815D01*
X185381988Y-72687011D01*
X185372044Y-72617853D01*
X185401069Y-72554297D01*
X185407101Y-72547819D01*
X185600388Y-72354532D01*
X186118487Y-71836433D01*
X186183053Y-71775059D01*
X186213952Y-71730664D01*
X186218097Y-71724709D01*
X186220924Y-71720957D01*
X186259698Y-71673407D01*
X186275607Y-71642948D01*
X186279667Y-71636248D01*
X186299295Y-71608049D01*
X186323492Y-71551660D01*
X186325498Y-71547435D01*
X186353909Y-71493049D01*
X186363357Y-71460022D01*
X186365988Y-71452633D01*
X186379540Y-71421058D01*
X186391895Y-71360930D01*
X186392999Y-71356429D01*
X186409886Y-71297418D01*
X186412494Y-71263157D01*
X186413585Y-71255389D01*
X186420500Y-71221743D01*
X186420500Y-71160398D01*
X186420679Y-71155688D01*
X186421900Y-71139652D01*
X186425337Y-71094524D01*
X186422473Y-71072038D01*
X186420997Y-71060442D01*
X186420500Y-71052603D01*
X186420500Y-69704500D01*
X186440185Y-69637461D01*
X186492989Y-69591706D01*
X186544500Y-69580500D01*
X188010743Y-69580500D01*
X188162439Y-69565074D01*
X188356579Y-69504162D01*
X188356580Y-69504161D01*
X188356588Y-69504159D01*
X188534502Y-69405409D01*
X188688895Y-69272866D01*
X188813448Y-69111958D01*
X188903060Y-68929271D01*
X188954063Y-68732285D01*
X188964369Y-68529064D01*
X188933556Y-68327929D01*
X188862886Y-68137113D01*
X188755252Y-67964429D01*
X188615059Y-67816947D01*
X188516587Y-67748409D01*
X188448050Y-67700705D01*
X188261056Y-67620459D01*
X188061741Y-67579500D01*
X185446929Y-67579500D01*
X185443789Y-67579420D01*
X185369065Y-67575631D01*
X185369058Y-67575631D01*
X185295124Y-67586957D01*
X185292010Y-67587354D01*
X185217566Y-67594925D01*
X185217557Y-67594927D01*
X185202187Y-67599749D01*
X185183858Y-67604003D01*
X185167929Y-67606444D01*
X185167926Y-67606445D01*
X185097773Y-67632425D01*
X185094802Y-67633441D01*
X185023412Y-67655840D01*
X185009322Y-67663661D01*
X184992220Y-67671518D01*
X184977118Y-67677111D01*
X184977108Y-67677116D01*
X184913626Y-67716685D01*
X184910919Y-67718278D01*
X184845506Y-67754585D01*
X184845499Y-67754590D01*
X184833278Y-67765081D01*
X184818114Y-67776216D01*
X184804430Y-67784746D01*
X184804427Y-67784749D01*
X184750200Y-67836295D01*
X184747870Y-67838400D01*
X184691108Y-67887129D01*
X184691102Y-67887136D01*
X184681243Y-67899872D01*
X184668631Y-67913832D01*
X184656949Y-67924938D01*
X184656948Y-67924939D01*
X184614215Y-67986335D01*
X184612356Y-67988865D01*
X184566550Y-68048043D01*
X184559452Y-68062513D01*
X184549907Y-68078728D01*
X184540706Y-68091948D01*
X184540705Y-68091949D01*
X184511199Y-68160704D01*
X184509888Y-68163556D01*
X184476939Y-68230729D01*
X184476938Y-68230733D01*
X184472901Y-68246324D01*
X184466815Y-68264129D01*
X184460461Y-68278937D01*
X184445399Y-68352225D01*
X184444689Y-68355285D01*
X184425936Y-68427716D01*
X184425119Y-68443811D01*
X184422743Y-68462474D01*
X184419500Y-68478260D01*
X184419500Y-68553070D01*
X184419420Y-68556210D01*
X184415631Y-68630935D01*
X184415631Y-68630936D01*
X184418070Y-68646857D01*
X184419500Y-68665633D01*
X184419500Y-70654216D01*
X184399815Y-70721255D01*
X184383181Y-70741897D01*
X184092181Y-71032897D01*
X184030858Y-71066382D01*
X183961166Y-71061398D01*
X183905233Y-71019526D01*
X183880816Y-70954062D01*
X183880500Y-70945216D01*
X183880500Y-65989256D01*
X183865074Y-65837560D01*
X183804162Y-65643420D01*
X183804160Y-65643416D01*
X183804159Y-65643412D01*
X183705409Y-65465498D01*
X183705408Y-65465497D01*
X183705407Y-65465495D01*
X183572867Y-65311106D01*
X183572865Y-65311104D01*
X183411962Y-65186554D01*
X183411959Y-65186553D01*
X183411958Y-65186552D01*
X183229271Y-65096940D01*
X183032285Y-65045937D01*
X183032287Y-65045937D01*
X182896804Y-65039066D01*
X182829064Y-65035631D01*
X182829063Y-65035631D01*
X182829061Y-65035631D01*
X182627936Y-65066442D01*
X182627924Y-65066445D01*
X182437118Y-65137111D01*
X182437111Y-65137115D01*
X182264432Y-65244745D01*
X182264427Y-65244749D01*
X182116949Y-65384938D01*
X182116948Y-65384940D01*
X182000705Y-65551949D01*
X181920459Y-65738943D01*
X181879500Y-65938258D01*
X181879500Y-70654216D01*
X181859815Y-70721255D01*
X181843181Y-70741897D01*
X169481532Y-83103546D01*
X169416946Y-83164942D01*
X169381899Y-83215294D01*
X169379062Y-83219056D01*
X169340302Y-83266592D01*
X169340299Y-83266597D01*
X169324392Y-83297047D01*
X169320324Y-83303761D01*
X169300702Y-83331954D01*
X169276509Y-83388330D01*
X169274488Y-83392584D01*
X169246091Y-83446951D01*
X169246090Y-83446952D01*
X169236640Y-83479975D01*
X169234007Y-83487371D01*
X169220459Y-83518943D01*
X169208113Y-83579019D01*
X169206990Y-83583595D01*
X169190113Y-83642577D01*
X169190113Y-83642579D01*
X169187503Y-83676841D01*
X169186414Y-83684608D01*
X169180980Y-83711052D01*
X169179500Y-83718258D01*
X169179500Y-83779597D01*
X169179321Y-83784306D01*
X169174662Y-83845474D01*
X169176707Y-83861527D01*
X169179003Y-83879560D01*
X169179500Y-83887388D01*
X169179500Y-105555500D01*
X169159815Y-105622539D01*
X169107011Y-105668294D01*
X169055500Y-105679500D01*
X165514315Y-105679500D01*
X165447276Y-105659815D01*
X165401521Y-105607011D01*
X165391577Y-105537853D01*
X165420602Y-105474297D01*
X165479380Y-105436523D01*
X165482222Y-105435725D01*
X165540994Y-105419977D01*
X165563663Y-105413903D01*
X165777830Y-105314035D01*
X165971401Y-105178495D01*
X166138495Y-105011401D01*
X166274035Y-104817830D01*
X166373903Y-104603663D01*
X166435063Y-104375408D01*
X166455659Y-104140000D01*
X166435063Y-103904592D01*
X166373903Y-103676337D01*
X166274035Y-103462171D01*
X166268425Y-103454158D01*
X166138494Y-103268597D01*
X165971402Y-103101506D01*
X165971395Y-103101501D01*
X165777834Y-102965967D01*
X165777830Y-102965965D01*
X165777828Y-102965964D01*
X165563663Y-102866097D01*
X165563659Y-102866096D01*
X165563655Y-102866094D01*
X165335413Y-102804938D01*
X165335403Y-102804936D01*
X165100001Y-102784341D01*
X165099999Y-102784341D01*
X164864596Y-102804936D01*
X164864586Y-102804938D01*
X164636344Y-102866094D01*
X164636335Y-102866098D01*
X164422171Y-102965964D01*
X164422169Y-102965965D01*
X164228597Y-103101505D01*
X164061505Y-103268597D01*
X163931575Y-103454158D01*
X163876998Y-103497783D01*
X163807500Y-103504977D01*
X163745145Y-103473454D01*
X163728425Y-103454158D01*
X163598494Y-103268597D01*
X163431402Y-103101506D01*
X163431395Y-103101501D01*
X163237834Y-102965967D01*
X163237830Y-102965965D01*
X163237828Y-102965964D01*
X163023663Y-102866097D01*
X163023659Y-102866096D01*
X163023655Y-102866094D01*
X162795413Y-102804938D01*
X162795403Y-102804936D01*
X162560001Y-102784341D01*
X162559999Y-102784341D01*
X162324596Y-102804936D01*
X162324583Y-102804939D01*
X162166592Y-102847271D01*
X162096742Y-102845608D01*
X162038880Y-102806445D01*
X162011377Y-102742216D01*
X162010500Y-102727496D01*
X162010500Y-90347742D01*
X162012224Y-90332122D01*
X162011939Y-90332096D01*
X162012671Y-90324340D01*
X162012673Y-90324333D01*
X162010500Y-90255185D01*
X162010500Y-90225650D01*
X162009631Y-90218772D01*
X162009172Y-90212943D01*
X162007709Y-90166372D01*
X162002122Y-90147144D01*
X161998174Y-90128084D01*
X161995663Y-90108204D01*
X161978512Y-90064887D01*
X161976619Y-90059358D01*
X161963618Y-90014609D01*
X161963616Y-90014606D01*
X161953423Y-89997371D01*
X161944861Y-89979894D01*
X161937487Y-89961270D01*
X161937486Y-89961268D01*
X161910079Y-89923545D01*
X161906888Y-89918686D01*
X161883172Y-89878583D01*
X161883165Y-89878574D01*
X161869006Y-89864415D01*
X161856368Y-89849619D01*
X161844594Y-89833413D01*
X161808688Y-89803709D01*
X161804376Y-89799786D01*
X153061819Y-81057228D01*
X153028334Y-80995905D01*
X153025500Y-80969547D01*
X153025500Y-74874188D01*
X153045185Y-74807149D01*
X153078377Y-74772613D01*
X153232966Y-74664369D01*
X153239139Y-74660047D01*
X153400047Y-74499139D01*
X153530568Y-74312734D01*
X153557618Y-74254724D01*
X153603790Y-74202285D01*
X153670983Y-74183133D01*
X153737865Y-74203348D01*
X153782382Y-74254725D01*
X153809429Y-74312728D01*
X153809432Y-74312734D01*
X153939954Y-74499141D01*
X154100858Y-74660045D01*
X154147693Y-74692839D01*
X154287266Y-74790568D01*
X154493504Y-74886739D01*
X154713308Y-74945635D01*
X154875230Y-74959801D01*
X154939998Y-74965468D01*
X154940000Y-74965468D01*
X154940002Y-74965468D01*
X154996673Y-74960509D01*
X155166692Y-74945635D01*
X155386496Y-74886739D01*
X155592734Y-74790568D01*
X155779139Y-74660047D01*
X155940047Y-74499139D01*
X156070568Y-74312734D01*
X156097618Y-74254724D01*
X156143790Y-74202285D01*
X156210983Y-74183133D01*
X156277865Y-74203348D01*
X156322382Y-74254725D01*
X156349429Y-74312728D01*
X156349432Y-74312734D01*
X156479954Y-74499141D01*
X156640858Y-74660045D01*
X156687693Y-74692839D01*
X156827266Y-74790568D01*
X157033504Y-74886739D01*
X157253308Y-74945635D01*
X157415230Y-74959801D01*
X157479998Y-74965468D01*
X157480000Y-74965468D01*
X157480002Y-74965468D01*
X157536672Y-74960509D01*
X157706692Y-74945635D01*
X157926496Y-74886739D01*
X158132734Y-74790568D01*
X158319139Y-74660047D01*
X158480047Y-74499139D01*
X158610568Y-74312734D01*
X158637618Y-74254724D01*
X158683790Y-74202285D01*
X158750983Y-74183133D01*
X158817865Y-74203348D01*
X158862382Y-74254725D01*
X158889429Y-74312728D01*
X158889432Y-74312734D01*
X159019954Y-74499141D01*
X159180858Y-74660045D01*
X159227693Y-74692839D01*
X159367266Y-74790568D01*
X159573504Y-74886739D01*
X159793308Y-74945635D01*
X159955230Y-74959801D01*
X160019998Y-74965468D01*
X160020000Y-74965468D01*
X160020002Y-74965468D01*
X160076673Y-74960509D01*
X160246692Y-74945635D01*
X160466496Y-74886739D01*
X160672734Y-74790568D01*
X160859139Y-74660047D01*
X161020047Y-74499139D01*
X161150568Y-74312734D01*
X161177618Y-74254724D01*
X161223790Y-74202285D01*
X161290983Y-74183133D01*
X161357865Y-74203348D01*
X161402382Y-74254725D01*
X161429429Y-74312728D01*
X161429432Y-74312734D01*
X161559954Y-74499141D01*
X161720858Y-74660045D01*
X161767693Y-74692839D01*
X161907266Y-74790568D01*
X162113504Y-74886739D01*
X162333308Y-74945635D01*
X162495230Y-74959801D01*
X162559998Y-74965468D01*
X162560000Y-74965468D01*
X162560002Y-74965468D01*
X162616673Y-74960509D01*
X162786692Y-74945635D01*
X163006496Y-74886739D01*
X163212734Y-74790568D01*
X163399139Y-74660047D01*
X163560047Y-74499139D01*
X163690568Y-74312734D01*
X163786739Y-74106496D01*
X163845635Y-73886692D01*
X163865468Y-73660000D01*
X163845635Y-73433308D01*
X163786739Y-73213504D01*
X163690568Y-73007266D01*
X163560047Y-72820861D01*
X163560045Y-72820858D01*
X163399141Y-72659954D01*
X163212734Y-72529432D01*
X163212732Y-72529431D01*
X163006497Y-72433261D01*
X163006488Y-72433258D01*
X162786697Y-72374366D01*
X162786693Y-72374365D01*
X162786692Y-72374365D01*
X162786691Y-72374364D01*
X162786686Y-72374364D01*
X162560002Y-72354532D01*
X162559998Y-72354532D01*
X162333313Y-72374364D01*
X162333302Y-72374366D01*
X162113511Y-72433258D01*
X162113502Y-72433261D01*
X161907267Y-72529431D01*
X161907265Y-72529432D01*
X161720858Y-72659954D01*
X161559954Y-72820858D01*
X161429432Y-73007265D01*
X161429431Y-73007267D01*
X161402382Y-73065275D01*
X161356209Y-73117714D01*
X161289016Y-73136866D01*
X161222135Y-73116650D01*
X161177618Y-73065275D01*
X161171669Y-73052517D01*
X161150568Y-73007266D01*
X161020047Y-72820861D01*
X161020045Y-72820858D01*
X160859141Y-72659954D01*
X160672734Y-72529432D01*
X160672732Y-72529431D01*
X160466497Y-72433261D01*
X160466488Y-72433258D01*
X160246697Y-72374366D01*
X160246693Y-72374365D01*
X160246692Y-72374365D01*
X160246691Y-72374364D01*
X160246686Y-72374364D01*
X160020002Y-72354532D01*
X160019998Y-72354532D01*
X159793313Y-72374364D01*
X159793302Y-72374366D01*
X159573511Y-72433258D01*
X159573502Y-72433261D01*
X159367267Y-72529431D01*
X159367265Y-72529432D01*
X159180858Y-72659954D01*
X159019954Y-72820858D01*
X158889432Y-73007265D01*
X158889431Y-73007267D01*
X158862382Y-73065275D01*
X158816209Y-73117714D01*
X158749016Y-73136866D01*
X158682135Y-73116650D01*
X158637618Y-73065275D01*
X158631669Y-73052517D01*
X158610568Y-73007266D01*
X158480047Y-72820861D01*
X158480045Y-72820858D01*
X158319141Y-72659954D01*
X158132734Y-72529432D01*
X158132732Y-72529431D01*
X157926497Y-72433261D01*
X157926488Y-72433258D01*
X157706697Y-72374366D01*
X157706693Y-72374365D01*
X157706692Y-72374365D01*
X157706691Y-72374364D01*
X157706686Y-72374364D01*
X157480002Y-72354532D01*
X157479998Y-72354532D01*
X157253313Y-72374364D01*
X157253302Y-72374366D01*
X157033511Y-72433258D01*
X157033502Y-72433261D01*
X156827267Y-72529431D01*
X156827265Y-72529432D01*
X156640858Y-72659954D01*
X156479954Y-72820858D01*
X156349432Y-73007265D01*
X156349431Y-73007267D01*
X156322382Y-73065275D01*
X156276209Y-73117714D01*
X156209016Y-73136866D01*
X156142135Y-73116650D01*
X156097618Y-73065275D01*
X156091669Y-73052517D01*
X156070568Y-73007266D01*
X155940047Y-72820861D01*
X155940045Y-72820858D01*
X155779141Y-72659954D01*
X155592734Y-72529432D01*
X155592732Y-72529431D01*
X155386497Y-72433261D01*
X155386488Y-72433258D01*
X155166697Y-72374366D01*
X155166693Y-72374365D01*
X155166692Y-72374365D01*
X155166691Y-72374364D01*
X155166686Y-72374364D01*
X154940002Y-72354532D01*
X154939998Y-72354532D01*
X154713313Y-72374364D01*
X154713302Y-72374366D01*
X154493511Y-72433258D01*
X154493502Y-72433261D01*
X154287267Y-72529431D01*
X154287265Y-72529432D01*
X154100858Y-72659954D01*
X153939954Y-72820858D01*
X153809432Y-73007265D01*
X153809431Y-73007267D01*
X153782382Y-73065275D01*
X153736209Y-73117714D01*
X153669016Y-73136866D01*
X153602135Y-73116650D01*
X153557618Y-73065275D01*
X153551669Y-73052517D01*
X153530568Y-73007266D01*
X153400047Y-72820861D01*
X153400045Y-72820858D01*
X153239141Y-72659954D01*
X153052734Y-72529432D01*
X153052732Y-72529431D01*
X152846497Y-72433261D01*
X152846488Y-72433258D01*
X152626697Y-72374366D01*
X152626693Y-72374365D01*
X152626692Y-72374365D01*
X152626691Y-72374364D01*
X152626686Y-72374364D01*
X152400002Y-72354532D01*
X152399998Y-72354532D01*
X152173313Y-72374364D01*
X152173302Y-72374366D01*
X151953511Y-72433258D01*
X151953502Y-72433261D01*
X151747267Y-72529431D01*
X151747265Y-72529432D01*
X151560858Y-72659954D01*
X151399954Y-72820858D01*
X151269432Y-73007265D01*
X151269431Y-73007267D01*
X151242382Y-73065275D01*
X151196209Y-73117714D01*
X151129016Y-73136866D01*
X151062135Y-73116650D01*
X151017618Y-73065275D01*
X151011669Y-73052517D01*
X150990568Y-73007266D01*
X150860047Y-72820861D01*
X150860045Y-72820858D01*
X150699141Y-72659954D01*
X150512734Y-72529432D01*
X150512732Y-72529431D01*
X150306497Y-72433261D01*
X150306488Y-72433258D01*
X150086697Y-72374366D01*
X150086693Y-72374365D01*
X150086692Y-72374365D01*
X150086691Y-72374364D01*
X150086686Y-72374364D01*
X149860002Y-72354532D01*
X149859998Y-72354532D01*
X149633313Y-72374364D01*
X149633302Y-72374366D01*
X149413511Y-72433258D01*
X149413502Y-72433261D01*
X149207267Y-72529431D01*
X149207265Y-72529432D01*
X149020858Y-72659954D01*
X148859954Y-72820858D01*
X148729432Y-73007265D01*
X148729431Y-73007267D01*
X148702382Y-73065275D01*
X148656209Y-73117714D01*
X148589016Y-73136866D01*
X148522135Y-73116650D01*
X148477618Y-73065275D01*
X148471669Y-73052517D01*
X148450568Y-73007266D01*
X148320047Y-72820861D01*
X148320045Y-72820858D01*
X148159141Y-72659954D01*
X147972734Y-72529432D01*
X147972732Y-72529431D01*
X147766497Y-72433261D01*
X147766488Y-72433258D01*
X147546697Y-72374366D01*
X147546693Y-72374365D01*
X147546692Y-72374365D01*
X147546691Y-72374364D01*
X147546686Y-72374364D01*
X147320002Y-72354532D01*
X147319998Y-72354532D01*
X147093313Y-72374364D01*
X147093302Y-72374366D01*
X146873511Y-72433258D01*
X146873502Y-72433261D01*
X146667267Y-72529431D01*
X146667265Y-72529432D01*
X146480858Y-72659954D01*
X146319954Y-72820858D01*
X146189432Y-73007265D01*
X146189431Y-73007267D01*
X146162382Y-73065275D01*
X146116209Y-73117714D01*
X146049016Y-73136866D01*
X145982135Y-73116650D01*
X145937618Y-73065275D01*
X145931669Y-73052517D01*
X145910568Y-73007266D01*
X145780047Y-72820861D01*
X145780045Y-72820858D01*
X145619141Y-72659954D01*
X145432734Y-72529432D01*
X145432732Y-72529431D01*
X145226497Y-72433261D01*
X145226488Y-72433258D01*
X145006697Y-72374366D01*
X145006693Y-72374365D01*
X145006692Y-72374365D01*
X145006691Y-72374364D01*
X145006686Y-72374364D01*
X144780002Y-72354532D01*
X144779998Y-72354532D01*
X144553313Y-72374364D01*
X144553302Y-72374366D01*
X144333511Y-72433258D01*
X144333502Y-72433261D01*
X144127267Y-72529431D01*
X144127265Y-72529432D01*
X143940858Y-72659954D01*
X143779954Y-72820858D01*
X143649432Y-73007265D01*
X143649431Y-73007267D01*
X143622382Y-73065275D01*
X143576209Y-73117714D01*
X143509016Y-73136866D01*
X143442135Y-73116650D01*
X143397618Y-73065275D01*
X143391669Y-73052517D01*
X143370568Y-73007266D01*
X143240047Y-72820861D01*
X143240045Y-72820858D01*
X143079141Y-72659954D01*
X142892734Y-72529432D01*
X142892732Y-72529431D01*
X142686497Y-72433261D01*
X142686488Y-72433258D01*
X142466697Y-72374366D01*
X142466693Y-72374365D01*
X142466692Y-72374365D01*
X142466691Y-72374364D01*
X142466686Y-72374364D01*
X142240002Y-72354532D01*
X142239998Y-72354532D01*
X142013313Y-72374364D01*
X142013302Y-72374366D01*
X141793511Y-72433258D01*
X141793502Y-72433261D01*
X141587267Y-72529431D01*
X141587265Y-72529432D01*
X141400858Y-72659954D01*
X141239954Y-72820858D01*
X141109432Y-73007265D01*
X141109431Y-73007267D01*
X141082382Y-73065275D01*
X141036209Y-73117714D01*
X140969016Y-73136866D01*
X140902135Y-73116650D01*
X140857618Y-73065275D01*
X140851669Y-73052517D01*
X140830568Y-73007266D01*
X140700047Y-72820861D01*
X140700045Y-72820858D01*
X140539141Y-72659954D01*
X140352734Y-72529432D01*
X140352732Y-72529431D01*
X140146497Y-72433261D01*
X140146488Y-72433258D01*
X139926697Y-72374366D01*
X139926693Y-72374365D01*
X139926692Y-72374365D01*
X139926691Y-72374364D01*
X139926686Y-72374364D01*
X139700002Y-72354532D01*
X139699998Y-72354532D01*
X139473313Y-72374364D01*
X139473302Y-72374366D01*
X139253511Y-72433258D01*
X139253502Y-72433261D01*
X139047267Y-72529431D01*
X139047265Y-72529432D01*
X138860858Y-72659954D01*
X138699954Y-72820858D01*
X138569432Y-73007265D01*
X138569431Y-73007267D01*
X138542382Y-73065275D01*
X138496209Y-73117714D01*
X138429016Y-73136866D01*
X138362135Y-73116650D01*
X138317618Y-73065275D01*
X138311669Y-73052517D01*
X138290568Y-73007266D01*
X138160047Y-72820861D01*
X138160045Y-72820858D01*
X137999141Y-72659954D01*
X137812734Y-72529432D01*
X137812732Y-72529431D01*
X137606497Y-72433261D01*
X137606488Y-72433258D01*
X137386697Y-72374366D01*
X137386693Y-72374365D01*
X137386692Y-72374365D01*
X137386691Y-72374364D01*
X137386686Y-72374364D01*
X137160002Y-72354532D01*
X137159998Y-72354532D01*
X136933313Y-72374364D01*
X136933302Y-72374366D01*
X136713511Y-72433258D01*
X136713502Y-72433261D01*
X136507267Y-72529431D01*
X136507265Y-72529432D01*
X136320858Y-72659954D01*
X136159954Y-72820858D01*
X136029432Y-73007265D01*
X136029431Y-73007267D01*
X136002382Y-73065275D01*
X135956209Y-73117714D01*
X135889016Y-73136866D01*
X135822135Y-73116650D01*
X135777618Y-73065275D01*
X135771669Y-73052517D01*
X135750568Y-73007266D01*
X135620047Y-72820861D01*
X135620045Y-72820858D01*
X135459141Y-72659954D01*
X135272734Y-72529432D01*
X135272732Y-72529431D01*
X135066497Y-72433261D01*
X135066488Y-72433258D01*
X134846697Y-72374366D01*
X134846693Y-72374365D01*
X134846692Y-72374365D01*
X134846691Y-72374364D01*
X134846686Y-72374364D01*
X134620002Y-72354532D01*
X134619998Y-72354532D01*
X134393313Y-72374364D01*
X134393302Y-72374366D01*
X134173511Y-72433258D01*
X134173502Y-72433261D01*
X133967267Y-72529431D01*
X133967265Y-72529432D01*
X133780858Y-72659954D01*
X133619954Y-72820858D01*
X133489432Y-73007265D01*
X133489431Y-73007267D01*
X133393261Y-73213502D01*
X133393258Y-73213511D01*
X133334366Y-73433302D01*
X133334364Y-73433313D01*
X133314532Y-73659998D01*
X133314532Y-73660001D01*
X133334364Y-73886686D01*
X133334366Y-73886697D01*
X133393258Y-74106488D01*
X133393261Y-74106497D01*
X133489431Y-74312732D01*
X133489432Y-74312734D01*
X133619954Y-74499141D01*
X133780857Y-74660044D01*
X133780860Y-74660046D01*
X133780861Y-74660047D01*
X133941623Y-74772613D01*
X133985247Y-74827187D01*
X133994499Y-74874186D01*
X133994499Y-95821312D01*
X133974814Y-95888351D01*
X133962650Y-95904283D01*
X133887466Y-95987785D01*
X133792821Y-96151715D01*
X133792818Y-96151722D01*
X133734327Y-96331740D01*
X133734326Y-96331744D01*
X133714540Y-96520000D01*
X133734326Y-96708256D01*
X133734327Y-96708259D01*
X133792818Y-96888277D01*
X133792821Y-96888284D01*
X133887467Y-97052216D01*
X133930772Y-97100310D01*
X133962650Y-97135715D01*
X133992880Y-97198706D01*
X133994500Y-97218687D01*
X133994500Y-103441312D01*
X133974815Y-103508351D01*
X133962650Y-103524284D01*
X133887466Y-103607784D01*
X133792821Y-103771715D01*
X133792818Y-103771722D01*
X133749645Y-103904596D01*
X133734326Y-103951744D01*
X133714540Y-104140000D01*
X133734326Y-104328256D01*
X133734327Y-104328259D01*
X133792818Y-104508277D01*
X133792821Y-104508284D01*
X133887467Y-104672216D01*
X133980035Y-104775023D01*
X134014129Y-104812888D01*
X134167265Y-104924148D01*
X134167270Y-104924151D01*
X134340192Y-105001142D01*
X134340197Y-105001144D01*
X134525354Y-105040500D01*
X134525355Y-105040500D01*
X134714644Y-105040500D01*
X134714646Y-105040500D01*
X134899803Y-105001144D01*
X135072730Y-104924151D01*
X135225871Y-104812888D01*
X135352533Y-104672216D01*
X135447179Y-104508284D01*
X135505674Y-104328256D01*
X135525460Y-104140000D01*
X135505674Y-103951744D01*
X135447179Y-103771716D01*
X135352533Y-103607784D01*
X135277350Y-103524284D01*
X135247120Y-103461292D01*
X135245500Y-103441312D01*
X135245500Y-97218687D01*
X135265185Y-97151648D01*
X135277350Y-97135715D01*
X135295891Y-97115122D01*
X135352533Y-97052216D01*
X135447179Y-96888284D01*
X135505674Y-96708256D01*
X135525460Y-96520000D01*
X135505674Y-96331744D01*
X135447179Y-96151716D01*
X135352533Y-95987784D01*
X135277350Y-95904284D01*
X135247120Y-95841292D01*
X135245500Y-95821312D01*
X135245500Y-74874188D01*
X135265185Y-74807149D01*
X135298377Y-74772613D01*
X135452966Y-74664369D01*
X135459139Y-74660047D01*
X135620047Y-74499139D01*
X135750568Y-74312734D01*
X135777618Y-74254724D01*
X135823790Y-74202285D01*
X135890983Y-74183133D01*
X135957865Y-74203348D01*
X136002382Y-74254725D01*
X136029429Y-74312728D01*
X136029432Y-74312734D01*
X136159954Y-74499141D01*
X136320858Y-74660045D01*
X136481623Y-74772613D01*
X136525248Y-74827189D01*
X136534500Y-74874188D01*
X136534500Y-98989152D01*
X136532305Y-99012379D01*
X136530773Y-99020412D01*
X136534378Y-99077724D01*
X136534500Y-99081595D01*
X136534500Y-105981312D01*
X136514815Y-106048351D01*
X136502650Y-106064284D01*
X136427466Y-106147784D01*
X136332821Y-106311715D01*
X136332818Y-106311722D01*
X136274327Y-106491740D01*
X136274326Y-106491744D01*
X136254540Y-106680000D01*
X136274326Y-106868256D01*
X136274327Y-106868259D01*
X136332818Y-107048277D01*
X136332821Y-107048284D01*
X136427467Y-107212216D01*
X136554128Y-107352887D01*
X136554129Y-107352888D01*
X136707265Y-107464148D01*
X136707270Y-107464151D01*
X136880192Y-107541142D01*
X136880197Y-107541144D01*
X137065354Y-107580500D01*
X137065355Y-107580500D01*
X137254644Y-107580500D01*
X137254646Y-107580500D01*
X137439803Y-107541144D01*
X137612730Y-107464151D01*
X137765871Y-107352888D01*
X137892533Y-107212216D01*
X137987179Y-107048284D01*
X138045674Y-106868256D01*
X138065460Y-106680000D01*
X138045674Y-106491744D01*
X137987179Y-106311716D01*
X137892533Y-106147784D01*
X137879426Y-106133227D01*
X137817350Y-106064284D01*
X137787120Y-106001292D01*
X137785500Y-105981312D01*
X137785500Y-99809500D01*
X137805185Y-99742461D01*
X137857989Y-99696706D01*
X137909500Y-99685500D01*
X141929548Y-99685500D01*
X141996587Y-99705185D01*
X142017229Y-99721819D01*
X142774311Y-100478901D01*
X142807796Y-100540224D01*
X142802812Y-100609916D01*
X142760940Y-100665849D01*
X142695476Y-100690266D01*
X142632022Y-100677910D01*
X142589274Y-100656941D01*
X142589271Y-100656940D01*
X142392285Y-100605937D01*
X142392287Y-100605937D01*
X142256804Y-100599066D01*
X142189064Y-100595631D01*
X142189063Y-100595631D01*
X142189061Y-100595631D01*
X141987936Y-100626442D01*
X141987924Y-100626445D01*
X141797118Y-100697111D01*
X141797111Y-100697115D01*
X141624432Y-100804745D01*
X141624427Y-100804749D01*
X141476949Y-100944938D01*
X141476948Y-100944940D01*
X141360705Y-101111949D01*
X141280459Y-101298943D01*
X141239500Y-101498258D01*
X141239500Y-102725858D01*
X141219815Y-102792897D01*
X141167011Y-102838652D01*
X141158847Y-102842034D01*
X141149267Y-102845608D01*
X141147664Y-102846206D01*
X141032455Y-102932452D01*
X141032452Y-102932455D01*
X140946206Y-103047664D01*
X140946202Y-103047671D01*
X140895908Y-103182517D01*
X140889501Y-103242116D01*
X140889500Y-103242135D01*
X140889500Y-105037870D01*
X140889501Y-105037876D01*
X140895908Y-105097483D01*
X140946202Y-105232328D01*
X140946206Y-105232335D01*
X141032452Y-105347544D01*
X141032455Y-105347547D01*
X141147664Y-105433793D01*
X141147671Y-105433797D01*
X141282517Y-105484091D01*
X141282516Y-105484091D01*
X141289444Y-105484835D01*
X141342127Y-105490500D01*
X143137872Y-105490499D01*
X143197483Y-105484091D01*
X143332331Y-105433796D01*
X143447546Y-105347546D01*
X143533796Y-105232331D01*
X143583002Y-105100401D01*
X143624872Y-105044468D01*
X143690337Y-105020050D01*
X143758610Y-105034901D01*
X143786865Y-105056053D01*
X143908917Y-105178105D01*
X144102421Y-105313600D01*
X144316507Y-105413429D01*
X144316516Y-105413433D01*
X144530000Y-105470634D01*
X144530000Y-104752301D01*
X144549685Y-104685262D01*
X144602489Y-104639507D01*
X144671647Y-104629563D01*
X144744237Y-104640000D01*
X144744238Y-104640000D01*
X144815762Y-104640000D01*
X144815763Y-104640000D01*
X144888353Y-104629563D01*
X144957512Y-104639507D01*
X145010315Y-104685262D01*
X145030000Y-104752301D01*
X145030000Y-105470633D01*
X145243483Y-105413433D01*
X145243492Y-105413429D01*
X145457578Y-105313600D01*
X145651082Y-105178105D01*
X145818105Y-105011082D01*
X145948119Y-104825405D01*
X146002696Y-104781781D01*
X146072195Y-104774588D01*
X146134549Y-104806110D01*
X146151269Y-104825405D01*
X146281505Y-105011401D01*
X146448599Y-105178495D01*
X146545384Y-105246265D01*
X146642165Y-105314032D01*
X146642167Y-105314033D01*
X146642170Y-105314035D01*
X146856337Y-105413903D01*
X146856343Y-105413904D01*
X146856344Y-105413905D01*
X146911285Y-105428626D01*
X147084592Y-105475063D01*
X147265560Y-105490896D01*
X147319999Y-105495659D01*
X147320000Y-105495659D01*
X147320001Y-105495659D01*
X147374440Y-105490896D01*
X147555408Y-105475063D01*
X147783663Y-105413903D01*
X147997830Y-105314035D01*
X148191401Y-105178495D01*
X148358495Y-105011401D01*
X148488424Y-104825842D01*
X148543002Y-104782217D01*
X148612500Y-104775023D01*
X148674855Y-104806546D01*
X148691575Y-104825842D01*
X148821500Y-105011395D01*
X148821505Y-105011401D01*
X148988599Y-105178495D01*
X149085384Y-105246265D01*
X149182165Y-105314032D01*
X149182167Y-105314033D01*
X149182170Y-105314035D01*
X149396337Y-105413903D01*
X149396343Y-105413904D01*
X149396344Y-105413905D01*
X149451285Y-105428626D01*
X149624592Y-105475063D01*
X149805560Y-105490896D01*
X149859999Y-105495659D01*
X149860000Y-105495659D01*
X149860001Y-105495659D01*
X149914440Y-105490896D01*
X150095408Y-105475063D01*
X150323663Y-105413903D01*
X150423098Y-105367535D01*
X150492172Y-105357044D01*
X150555956Y-105385563D01*
X150594196Y-105444040D01*
X150599500Y-105479918D01*
X150599500Y-107962255D01*
X150597775Y-107977872D01*
X150598061Y-107977899D01*
X150597326Y-107985665D01*
X150599500Y-108054814D01*
X150599500Y-108084343D01*
X150599501Y-108084360D01*
X150600368Y-108091231D01*
X150600826Y-108097050D01*
X150602290Y-108143624D01*
X150602291Y-108143627D01*
X150607880Y-108162867D01*
X150611824Y-108181911D01*
X150614086Y-108199815D01*
X150614336Y-108201791D01*
X150631490Y-108245119D01*
X150633382Y-108250647D01*
X150646381Y-108295388D01*
X150656580Y-108312634D01*
X150665138Y-108330103D01*
X150672514Y-108348732D01*
X150699898Y-108386423D01*
X150703106Y-108391307D01*
X150726827Y-108431416D01*
X150726833Y-108431424D01*
X150740990Y-108445580D01*
X150753628Y-108460376D01*
X150765405Y-108476586D01*
X150765406Y-108476587D01*
X150801309Y-108506288D01*
X150805620Y-108510210D01*
X150935725Y-108640315D01*
X151028181Y-108732771D01*
X151061666Y-108794094D01*
X151064500Y-108820452D01*
X151064500Y-109240547D01*
X151044815Y-109307586D01*
X150992011Y-109353341D01*
X150922853Y-109363285D01*
X150859297Y-109334260D01*
X150852819Y-109328228D01*
X150798960Y-109274369D01*
X150765475Y-109213046D01*
X150763323Y-109199668D01*
X150745674Y-109031744D01*
X150687179Y-108851716D01*
X150592533Y-108687784D01*
X150465871Y-108547112D01*
X150465870Y-108547111D01*
X150312734Y-108435851D01*
X150312729Y-108435848D01*
X150139807Y-108358857D01*
X150139802Y-108358855D01*
X149994001Y-108327865D01*
X149954646Y-108319500D01*
X149765354Y-108319500D01*
X149732897Y-108326398D01*
X149580197Y-108358855D01*
X149580192Y-108358857D01*
X149407270Y-108435848D01*
X149407265Y-108435851D01*
X149254129Y-108547111D01*
X149127466Y-108687785D01*
X149032821Y-108851715D01*
X149032818Y-108851722D01*
X148974327Y-109031740D01*
X148974326Y-109031744D01*
X148954540Y-109220000D01*
X148974326Y-109408256D01*
X148974327Y-109408259D01*
X149032818Y-109588277D01*
X149032821Y-109588284D01*
X149127467Y-109752216D01*
X149244858Y-109882592D01*
X149254129Y-109892888D01*
X149407265Y-110004148D01*
X149407270Y-110004151D01*
X149580192Y-110081142D01*
X149580197Y-110081144D01*
X149765354Y-110120500D01*
X149824548Y-110120500D01*
X149891587Y-110140185D01*
X149912229Y-110156819D01*
X150378181Y-110622771D01*
X150411666Y-110684094D01*
X150414500Y-110710452D01*
X150414500Y-113370216D01*
X150394815Y-113437255D01*
X150342011Y-113483010D01*
X150272853Y-113492954D01*
X150240064Y-113483495D01*
X150139807Y-113438857D01*
X150139802Y-113438855D01*
X149994001Y-113407865D01*
X149954646Y-113399500D01*
X149765354Y-113399500D01*
X149732897Y-113406398D01*
X149580197Y-113438855D01*
X149580192Y-113438857D01*
X149407270Y-113515848D01*
X149407265Y-113515851D01*
X149254129Y-113627111D01*
X149127466Y-113767785D01*
X149032821Y-113931715D01*
X149032818Y-113931722D01*
X148974327Y-114111740D01*
X148974326Y-114111744D01*
X148954540Y-114300000D01*
X148974326Y-114488256D01*
X148974327Y-114488259D01*
X149032818Y-114668277D01*
X149032821Y-114668284D01*
X149127467Y-114832216D01*
X149202650Y-114915715D01*
X149254129Y-114972888D01*
X149407265Y-115084148D01*
X149407270Y-115084151D01*
X149580197Y-115161144D01*
X149591278Y-115163499D01*
X149652758Y-115196687D01*
X149686538Y-115257848D01*
X149689500Y-115284789D01*
X149689500Y-116205299D01*
X149681682Y-116248632D01*
X149670908Y-116277516D01*
X149664501Y-116337116D01*
X149664501Y-116337123D01*
X149664500Y-116337135D01*
X149664500Y-118182870D01*
X149664501Y-118182876D01*
X149670908Y-118242483D01*
X149721202Y-118377328D01*
X149721206Y-118377335D01*
X149807452Y-118492544D01*
X149807455Y-118492547D01*
X149922664Y-118578793D01*
X149922671Y-118578797D01*
X149967618Y-118595561D01*
X150057517Y-118629091D01*
X150117127Y-118635500D01*
X150662872Y-118635499D01*
X150662873Y-118635498D01*
X150662885Y-118635498D01*
X150701744Y-118631320D01*
X150728252Y-118631320D01*
X150767127Y-118635500D01*
X151312872Y-118635499D01*
X151312873Y-118635498D01*
X151312885Y-118635498D01*
X151351744Y-118631320D01*
X151378252Y-118631320D01*
X151417127Y-118635500D01*
X151962872Y-118635499D01*
X151962873Y-118635498D01*
X151962885Y-118635498D01*
X152001744Y-118631320D01*
X152028252Y-118631320D01*
X152067127Y-118635500D01*
X152612872Y-118635499D01*
X152612873Y-118635498D01*
X152612885Y-118635498D01*
X152651744Y-118631320D01*
X152678252Y-118631320D01*
X152717127Y-118635500D01*
X153262872Y-118635499D01*
X153262873Y-118635498D01*
X153262885Y-118635498D01*
X153301744Y-118631320D01*
X153328252Y-118631320D01*
X153367127Y-118635500D01*
X153912872Y-118635499D01*
X153921711Y-118634548D01*
X153954094Y-118631068D01*
X153980606Y-118631068D01*
X154017166Y-118634999D01*
X154017182Y-118635000D01*
X154065000Y-118635000D01*
X154080611Y-118619388D01*
X154084685Y-118605515D01*
X154114689Y-118573288D01*
X154215689Y-118497679D01*
X154281153Y-118473261D01*
X154349426Y-118488112D01*
X154364311Y-118497679D01*
X154465311Y-118573288D01*
X154501110Y-118621110D01*
X154515000Y-118635000D01*
X154562819Y-118635000D01*
X154562833Y-118634999D01*
X154599395Y-118631068D01*
X154625905Y-118631068D01*
X154667127Y-118635500D01*
X155212872Y-118635499D01*
X155212873Y-118635498D01*
X155212885Y-118635498D01*
X155251744Y-118631320D01*
X155278252Y-118631320D01*
X155317127Y-118635500D01*
X155862872Y-118635499D01*
X155862873Y-118635498D01*
X155862885Y-118635498D01*
X155901744Y-118631320D01*
X155928252Y-118631320D01*
X155967127Y-118635500D01*
X156512872Y-118635499D01*
X156512873Y-118635498D01*
X156512885Y-118635498D01*
X156551744Y-118631320D01*
X156578252Y-118631320D01*
X156617127Y-118635500D01*
X157162872Y-118635499D01*
X157162873Y-118635498D01*
X157162885Y-118635498D01*
X157201744Y-118631320D01*
X157228252Y-118631320D01*
X157267127Y-118635500D01*
X157812872Y-118635499D01*
X157872483Y-118629091D01*
X158007331Y-118578796D01*
X158122546Y-118492546D01*
X158208796Y-118377331D01*
X158259091Y-118242483D01*
X158265500Y-118182873D01*
X158265499Y-116337128D01*
X158259091Y-116277517D01*
X158248317Y-116248632D01*
X158240500Y-116205300D01*
X158240500Y-115005781D01*
X158260185Y-114938742D01*
X158276814Y-114918105D01*
X158898100Y-114296819D01*
X158959424Y-114263334D01*
X158985782Y-114260500D01*
X171295501Y-114260500D01*
X171362540Y-114280185D01*
X171408295Y-114332989D01*
X171419501Y-114384500D01*
X171419501Y-114407876D01*
X171425908Y-114467483D01*
X171476202Y-114602328D01*
X171476206Y-114602335D01*
X171562452Y-114717544D01*
X171562455Y-114717547D01*
X171677664Y-114803793D01*
X171677671Y-114803797D01*
X171812517Y-114854091D01*
X171812516Y-114854091D01*
X171819444Y-114854835D01*
X171872127Y-114860500D01*
X173567872Y-114860499D01*
X173627483Y-114854091D01*
X173762331Y-114803796D01*
X173877546Y-114717546D01*
X173963796Y-114602331D01*
X174014091Y-114467483D01*
X174020500Y-114407873D01*
X174020500Y-114384500D01*
X174040185Y-114317461D01*
X174092989Y-114271706D01*
X174144500Y-114260500D01*
X179010958Y-114260500D01*
X179077997Y-114280185D01*
X179123752Y-114332989D01*
X179133704Y-114382467D01*
X179134106Y-114382430D01*
X179134469Y-114386272D01*
X179134897Y-114388399D01*
X179134840Y-114390195D01*
X179134840Y-114390196D01*
X179149713Y-114547533D01*
X179149714Y-114547535D01*
X179149715Y-114547540D01*
X179203243Y-114696222D01*
X179203247Y-114696230D01*
X179292073Y-114826934D01*
X179292074Y-114826936D01*
X179292075Y-114826937D01*
X179292076Y-114826938D01*
X179297500Y-114831720D01*
X179334771Y-114890816D01*
X179339500Y-114924735D01*
X179339500Y-121087283D01*
X179337243Y-121176362D01*
X179337243Y-121176370D01*
X179348064Y-121236739D01*
X179348718Y-121241404D01*
X179354925Y-121302430D01*
X179354927Y-121302444D01*
X179365208Y-121335213D01*
X179367079Y-121342837D01*
X179373142Y-121376652D01*
X179373142Y-121376655D01*
X179395894Y-121433612D01*
X179397474Y-121438051D01*
X179415841Y-121496588D01*
X179415844Y-121496595D01*
X179432509Y-121526619D01*
X179435879Y-121533714D01*
X179448622Y-121565614D01*
X179448627Y-121565624D01*
X179482377Y-121616833D01*
X179484818Y-121620863D01*
X179514588Y-121674498D01*
X179514589Y-121674499D01*
X179514591Y-121674502D01*
X179536968Y-121700567D01*
X179541693Y-121706835D01*
X179554263Y-121725906D01*
X179560598Y-121735519D01*
X179603978Y-121778899D01*
X179607169Y-121782343D01*
X179647131Y-121828892D01*
X179647134Y-121828895D01*
X179674294Y-121849918D01*
X179680190Y-121855111D01*
X182983566Y-125158487D01*
X183044938Y-125223050D01*
X183044941Y-125223053D01*
X183095281Y-125258092D01*
X183099043Y-125260928D01*
X183146587Y-125299694D01*
X183146590Y-125299695D01*
X183146593Y-125299698D01*
X183177045Y-125315604D01*
X183183758Y-125319672D01*
X183211951Y-125339295D01*
X183268329Y-125363489D01*
X183272578Y-125365507D01*
X183326951Y-125393909D01*
X183354489Y-125401788D01*
X183359974Y-125403358D01*
X183367368Y-125405990D01*
X183398942Y-125419540D01*
X183398945Y-125419540D01*
X183398946Y-125419541D01*
X183459022Y-125431887D01*
X183463600Y-125433010D01*
X183477501Y-125436987D01*
X183522582Y-125449887D01*
X183556839Y-125452495D01*
X183564614Y-125453586D01*
X183598255Y-125460500D01*
X183598259Y-125460500D01*
X183659599Y-125460500D01*
X183664305Y-125460678D01*
X183699063Y-125463325D01*
X183725476Y-125465337D01*
X183725476Y-125465336D01*
X183725477Y-125465337D01*
X183759560Y-125460996D01*
X183767390Y-125460500D01*
X192574217Y-125460500D01*
X192641256Y-125480185D01*
X192661898Y-125496818D01*
X193703504Y-126538425D01*
X193736988Y-126599746D01*
X193739822Y-126626104D01*
X193739822Y-133629778D01*
X193720137Y-133696817D01*
X193667333Y-133742572D01*
X193598175Y-133752516D01*
X193534619Y-133723491D01*
X193510284Y-133694875D01*
X193432641Y-133568997D01*
X193432638Y-133568993D01*
X193308667Y-133445022D01*
X193159446Y-133352981D01*
X193159441Y-133352979D01*
X192993019Y-133297832D01*
X192993012Y-133297831D01*
X192890308Y-133287338D01*
X192490322Y-133287338D01*
X192490322Y-134175036D01*
X192470637Y-134242075D01*
X192417833Y-134287830D01*
X192348677Y-134297774D01*
X192276088Y-134287338D01*
X192276085Y-134287338D01*
X192204559Y-134287338D01*
X192204555Y-134287338D01*
X192131967Y-134297774D01*
X192062809Y-134287830D01*
X192010006Y-134242074D01*
X191990322Y-134175036D01*
X191990322Y-133287338D01*
X191590350Y-133287338D01*
X191590334Y-133287339D01*
X191487624Y-133297832D01*
X191321202Y-133352979D01*
X191321197Y-133352981D01*
X191171976Y-133445022D01*
X191048006Y-133568992D01*
X190955965Y-133718213D01*
X190955963Y-133718218D01*
X190900816Y-133884640D01*
X190900815Y-133884647D01*
X190890322Y-133987351D01*
X190890321Y-133987364D01*
X190890322Y-134537338D01*
X191626975Y-134537338D01*
X191694014Y-134557023D01*
X191739769Y-134609827D01*
X191749713Y-134678985D01*
X191745953Y-134696271D01*
X191740322Y-134715449D01*
X191740322Y-134859226D01*
X191745953Y-134878405D01*
X191745952Y-134948274D01*
X191708177Y-135007052D01*
X191644621Y-135036076D01*
X191626975Y-135037338D01*
X190890323Y-135037338D01*
X190890323Y-135587324D01*
X190900816Y-135690035D01*
X190955963Y-135856457D01*
X190955965Y-135856462D01*
X191048006Y-136005683D01*
X191171976Y-136129653D01*
X191321197Y-136221694D01*
X191321202Y-136221696D01*
X191487624Y-136276843D01*
X191487631Y-136276844D01*
X191590341Y-136287337D01*
X191990321Y-136287337D01*
X191990322Y-136287336D01*
X191990322Y-135399639D01*
X192010007Y-135332600D01*
X192062811Y-135286845D01*
X192131969Y-135276901D01*
X192204559Y-135287338D01*
X192204560Y-135287338D01*
X192276084Y-135287338D01*
X192276085Y-135287338D01*
X192348675Y-135276901D01*
X192417834Y-135286845D01*
X192470637Y-135332600D01*
X192490322Y-135399639D01*
X192490322Y-136287337D01*
X192890294Y-136287337D01*
X192890308Y-136287336D01*
X192993019Y-136276843D01*
X193159441Y-136221696D01*
X193159446Y-136221694D01*
X193308667Y-136129653D01*
X193432637Y-136005683D01*
X193528137Y-135850854D01*
X193580085Y-135804130D01*
X193649048Y-135792907D01*
X193713130Y-135820751D01*
X193721357Y-135828269D01*
X193868921Y-135975833D01*
X193868924Y-135975835D01*
X193868925Y-135975836D01*
X194062487Y-136111370D01*
X194062489Y-136111371D01*
X194062492Y-136111373D01*
X194276659Y-136211241D01*
X194276665Y-136211242D01*
X194276666Y-136211243D01*
X194315678Y-136221696D01*
X194504914Y-136272401D01*
X194690031Y-136288597D01*
X194740321Y-136292997D01*
X194740322Y-136292997D01*
X194740323Y-136292997D01*
X194779556Y-136289564D01*
X194975730Y-136272401D01*
X195203985Y-136211241D01*
X195418151Y-136111373D01*
X195611723Y-135975833D01*
X195778817Y-135808739D01*
X195914357Y-135615167D01*
X196014225Y-135401001D01*
X196075385Y-135172746D01*
X196090822Y-134996304D01*
X196090822Y-134578372D01*
X196075385Y-134401930D01*
X196014225Y-134173675D01*
X195914357Y-133959509D01*
X195910132Y-133953474D01*
X195778816Y-133765935D01*
X195777141Y-133764260D01*
X195776637Y-133763338D01*
X195775336Y-133761787D01*
X195775647Y-133761525D01*
X195743656Y-133702937D01*
X195740822Y-133676579D01*
X195740822Y-126172997D01*
X195743078Y-126083964D01*
X195743077Y-126083963D01*
X195743078Y-126083958D01*
X195732251Y-126023555D01*
X195731604Y-126018942D01*
X195725396Y-125957884D01*
X195725395Y-125957882D01*
X195725395Y-125957879D01*
X195717278Y-125932012D01*
X195715111Y-125925106D01*
X195713239Y-125917476D01*
X195707180Y-125883670D01*
X195684424Y-125826700D01*
X195682843Y-125822259D01*
X195664481Y-125763734D01*
X195664480Y-125763732D01*
X195664479Y-125763729D01*
X195647810Y-125733700D01*
X195644439Y-125726600D01*
X195631700Y-125694708D01*
X195631699Y-125694705D01*
X195597942Y-125643485D01*
X195595502Y-125639456D01*
X195584701Y-125619997D01*
X195565731Y-125585820D01*
X195565729Y-125585817D01*
X195543355Y-125559756D01*
X195538624Y-125553481D01*
X195519724Y-125524803D01*
X195476334Y-125481413D01*
X195473144Y-125477970D01*
X195433189Y-125431428D01*
X195433185Y-125431424D01*
X195406020Y-125410396D01*
X195400125Y-125405204D01*
X193756451Y-123761531D01*
X193695061Y-123696949D01*
X193695060Y-123696948D01*
X193695059Y-123696947D01*
X193667204Y-123677559D01*
X193644709Y-123661902D01*
X193640946Y-123659064D01*
X193593413Y-123620305D01*
X193593406Y-123620300D01*
X193562959Y-123604397D01*
X193556251Y-123600334D01*
X193528049Y-123580705D01*
X193528046Y-123580703D01*
X193528045Y-123580703D01*
X193528041Y-123580701D01*
X193471680Y-123556514D01*
X193467424Y-123554493D01*
X193413057Y-123526094D01*
X193413050Y-123526091D01*
X193413049Y-123526091D01*
X193407008Y-123524362D01*
X193380030Y-123516642D01*
X193372630Y-123514008D01*
X193341057Y-123500459D01*
X193341058Y-123500459D01*
X193280966Y-123488109D01*
X193276391Y-123486986D01*
X193217420Y-123470113D01*
X193217425Y-123470113D01*
X193183158Y-123467503D01*
X193175380Y-123466412D01*
X193141742Y-123459500D01*
X193141741Y-123459500D01*
X193080402Y-123459500D01*
X193075695Y-123459321D01*
X193070121Y-123458896D01*
X193014524Y-123454662D01*
X192994589Y-123457201D01*
X192980440Y-123459003D01*
X192972611Y-123459500D01*
X184165782Y-123459500D01*
X184098743Y-123439815D01*
X184078101Y-123423181D01*
X181376819Y-120721898D01*
X181343334Y-120660575D01*
X181340500Y-120634217D01*
X181340500Y-114759730D01*
X181360185Y-114692691D01*
X181376820Y-114672048D01*
X181407709Y-114641159D01*
X181407709Y-114641158D01*
X181407712Y-114641156D01*
X181499814Y-114491834D01*
X181554999Y-114325297D01*
X181565500Y-114222509D01*
X181565499Y-113447492D01*
X181554999Y-113344703D01*
X181499814Y-113178166D01*
X181407712Y-113028844D01*
X181283656Y-112904788D01*
X181280342Y-112902743D01*
X181278546Y-112900748D01*
X181277989Y-112900307D01*
X181278064Y-112900211D01*
X181233618Y-112850797D01*
X181222397Y-112781834D01*
X181250240Y-112717752D01*
X181280348Y-112691665D01*
X181283342Y-112689818D01*
X181407315Y-112565845D01*
X181499356Y-112416624D01*
X181499358Y-112416619D01*
X181554505Y-112250197D01*
X181554506Y-112250190D01*
X181564999Y-112147486D01*
X181565000Y-112147473D01*
X181565000Y-112010000D01*
X179115001Y-112010000D01*
X179115001Y-112135500D01*
X179095316Y-112202539D01*
X179042512Y-112248294D01*
X178991001Y-112259500D01*
X174144499Y-112259500D01*
X174077460Y-112239815D01*
X174031705Y-112187011D01*
X174020499Y-112135500D01*
X174020499Y-112112129D01*
X174020498Y-112112123D01*
X174020497Y-112112116D01*
X174014091Y-112052517D01*
X173998233Y-112010000D01*
X173963797Y-111917671D01*
X173963795Y-111917668D01*
X173901081Y-111833893D01*
X173876664Y-111768431D01*
X173891515Y-111700158D01*
X173901082Y-111685271D01*
X173963352Y-111602089D01*
X173963354Y-111602086D01*
X173997700Y-111510000D01*
X179115000Y-111510000D01*
X180090000Y-111510000D01*
X180090000Y-110672500D01*
X180590000Y-110672500D01*
X180590000Y-111510000D01*
X181564999Y-111510000D01*
X181564999Y-111372528D01*
X181564998Y-111372513D01*
X181554505Y-111269802D01*
X181499358Y-111103380D01*
X181499356Y-111103375D01*
X181407315Y-110954154D01*
X181283345Y-110830184D01*
X181134124Y-110738143D01*
X181134119Y-110738141D01*
X180967697Y-110682994D01*
X180967690Y-110682993D01*
X180864986Y-110672500D01*
X180590000Y-110672500D01*
X180090000Y-110672500D01*
X179815029Y-110672500D01*
X179815012Y-110672501D01*
X179712302Y-110682994D01*
X179545880Y-110738141D01*
X179545875Y-110738143D01*
X179396654Y-110830184D01*
X179272684Y-110954154D01*
X179180643Y-111103375D01*
X179180641Y-111103380D01*
X179125494Y-111269802D01*
X179125493Y-111269809D01*
X179115000Y-111372513D01*
X179115000Y-111510000D01*
X173997700Y-111510000D01*
X174013596Y-111467379D01*
X174013598Y-111467372D01*
X174019999Y-111407844D01*
X174020000Y-111407827D01*
X174020000Y-110510000D01*
X171420000Y-110510000D01*
X171420000Y-111407844D01*
X171426401Y-111467372D01*
X171426403Y-111467379D01*
X171476645Y-111602086D01*
X171476646Y-111602088D01*
X171538918Y-111685272D01*
X171563335Y-111750736D01*
X171548484Y-111819009D01*
X171538918Y-111833894D01*
X171476204Y-111917669D01*
X171476202Y-111917671D01*
X171425908Y-112052517D01*
X171422033Y-112088566D01*
X171419501Y-112112123D01*
X171419500Y-112112135D01*
X171419500Y-112135500D01*
X171399815Y-112202539D01*
X171347011Y-112248294D01*
X171295500Y-112259500D01*
X158532699Y-112259500D01*
X158443639Y-112257242D01*
X158443635Y-112257242D01*
X158391823Y-112266529D01*
X158383254Y-112268064D01*
X158378595Y-112268718D01*
X158317564Y-112274925D01*
X158317562Y-112274926D01*
X158284780Y-112285210D01*
X158277156Y-112287081D01*
X158269308Y-112288488D01*
X158243349Y-112293141D01*
X158186381Y-112315895D01*
X158181945Y-112317474D01*
X158123414Y-112335840D01*
X158123410Y-112335842D01*
X158093378Y-112352510D01*
X158086284Y-112355879D01*
X158054382Y-112368623D01*
X158054377Y-112368625D01*
X158003156Y-112402381D01*
X157999128Y-112404822D01*
X157945501Y-112434588D01*
X157919434Y-112456965D01*
X157913165Y-112461692D01*
X157884484Y-112480595D01*
X157884478Y-112480600D01*
X157841109Y-112523968D01*
X157837655Y-112527169D01*
X157791104Y-112567134D01*
X157770075Y-112594300D01*
X157764884Y-112600193D01*
X157077181Y-113287897D01*
X157015858Y-113321382D01*
X156946167Y-113316398D01*
X156890233Y-113274527D01*
X156865816Y-113209062D01*
X156865500Y-113200216D01*
X156865500Y-110770452D01*
X156885185Y-110703413D01*
X156901819Y-110682771D01*
X158666684Y-108917906D01*
X158894811Y-108689779D01*
X158956133Y-108656295D01*
X159025825Y-108661279D01*
X159081758Y-108703151D01*
X159106175Y-108768615D01*
X159092401Y-108834869D01*
X159086091Y-108846948D01*
X159030112Y-109042584D01*
X159014662Y-109245474D01*
X159014662Y-109245477D01*
X159040368Y-109447321D01*
X159040370Y-109447329D01*
X159106183Y-109639870D01*
X159106189Y-109639882D01*
X159209406Y-109815221D01*
X159209411Y-109815228D01*
X159345820Y-109966212D01*
X159509828Y-110086646D01*
X159509835Y-110086650D01*
X159678408Y-110164105D01*
X159694732Y-110171605D01*
X159760456Y-110186857D01*
X159892945Y-110217603D01*
X160096358Y-110222757D01*
X160096358Y-110222756D01*
X160096363Y-110222757D01*
X160275852Y-110190586D01*
X160296648Y-110186859D01*
X160296648Y-110186858D01*
X160296653Y-110186858D01*
X160485617Y-110111377D01*
X160503950Y-110099295D01*
X160560324Y-110062140D01*
X160655519Y-109999402D01*
X161359663Y-109295256D01*
X161420984Y-109261773D01*
X161490675Y-109266757D01*
X161546609Y-109308628D01*
X161569912Y-109364161D01*
X161586442Y-109472064D01*
X161586445Y-109472075D01*
X161657111Y-109662881D01*
X161657113Y-109662884D01*
X161657114Y-109662887D01*
X161703005Y-109736513D01*
X161764745Y-109835567D01*
X161764749Y-109835572D01*
X161883408Y-109960401D01*
X161904941Y-109983053D01*
X162032328Y-110071717D01*
X162071949Y-110099294D01*
X162071950Y-110099294D01*
X162071951Y-110099295D01*
X162258942Y-110179540D01*
X162458259Y-110220500D01*
X170167284Y-110220500D01*
X170256358Y-110222757D01*
X170256358Y-110222756D01*
X170256363Y-110222757D01*
X170316753Y-110211932D01*
X170321412Y-110211280D01*
X170363607Y-110206988D01*
X170382438Y-110205074D01*
X170415227Y-110194786D01*
X170422840Y-110192918D01*
X170456653Y-110186858D01*
X170513621Y-110164101D01*
X170518053Y-110162524D01*
X170576588Y-110144159D01*
X170606627Y-110127484D01*
X170613708Y-110124122D01*
X170645617Y-110111377D01*
X170696854Y-110077608D01*
X170700851Y-110075187D01*
X170754502Y-110045409D01*
X170780568Y-110023030D01*
X170786843Y-110018300D01*
X170815519Y-109999402D01*
X170858917Y-109956002D01*
X170862336Y-109952834D01*
X170908895Y-109912866D01*
X170929931Y-109885688D01*
X170935101Y-109879818D01*
X171208319Y-109606601D01*
X171269642Y-109573116D01*
X171339334Y-109578100D01*
X171395267Y-109619972D01*
X171419684Y-109685436D01*
X171420000Y-109694282D01*
X171420000Y-110010000D01*
X172470000Y-110010000D01*
X172470000Y-108660000D01*
X172970000Y-108660000D01*
X172970000Y-110010000D01*
X174020000Y-110010000D01*
X174020000Y-109112172D01*
X174019999Y-109112155D01*
X174013598Y-109052627D01*
X174013596Y-109052620D01*
X173963354Y-108917913D01*
X173963350Y-108917906D01*
X173877190Y-108802812D01*
X173877187Y-108802809D01*
X173762093Y-108716649D01*
X173762086Y-108716645D01*
X173627379Y-108666403D01*
X173627372Y-108666401D01*
X173567844Y-108660000D01*
X172970000Y-108660000D01*
X172470000Y-108660000D01*
X172454282Y-108660000D01*
X172387243Y-108640315D01*
X172341488Y-108587511D01*
X172331544Y-108518353D01*
X172360569Y-108454797D01*
X172366601Y-108448319D01*
X175429357Y-105385563D01*
X178498487Y-102316433D01*
X178563053Y-102255059D01*
X178598097Y-102204709D01*
X178600924Y-102200957D01*
X178639698Y-102153407D01*
X178655607Y-102122948D01*
X178659667Y-102116248D01*
X178679295Y-102088049D01*
X178703492Y-102031660D01*
X178705498Y-102027435D01*
X178733909Y-101973049D01*
X178743357Y-101940022D01*
X178745988Y-101932633D01*
X178759540Y-101901058D01*
X178771895Y-101840930D01*
X178772999Y-101836429D01*
X178789886Y-101777418D01*
X178792494Y-101743157D01*
X178793585Y-101735389D01*
X178800500Y-101701743D01*
X178800500Y-101640398D01*
X178800679Y-101635688D01*
X178805337Y-101574524D01*
X178800997Y-101540442D01*
X178800500Y-101532603D01*
X178800500Y-79205782D01*
X178820185Y-79138743D01*
X178836819Y-79118101D01*
X180044920Y-77910000D01*
X186060000Y-77910000D01*
X186060000Y-78207844D01*
X186066401Y-78267372D01*
X186066403Y-78267379D01*
X186116645Y-78402086D01*
X186116649Y-78402093D01*
X186202809Y-78517187D01*
X186202812Y-78517190D01*
X186317906Y-78603350D01*
X186317913Y-78603354D01*
X186452620Y-78653596D01*
X186452627Y-78653598D01*
X186512155Y-78659999D01*
X186512172Y-78660000D01*
X187710000Y-78660000D01*
X187710000Y-77910000D01*
X188210000Y-77910000D01*
X188210000Y-78660000D01*
X189407828Y-78660000D01*
X189407844Y-78659999D01*
X189467372Y-78653598D01*
X189467379Y-78653596D01*
X189602086Y-78603354D01*
X189602093Y-78603350D01*
X189717187Y-78517190D01*
X189717190Y-78517187D01*
X189803350Y-78402093D01*
X189803354Y-78402086D01*
X189853596Y-78267379D01*
X189853598Y-78267372D01*
X189859999Y-78207844D01*
X189860000Y-78207827D01*
X189860000Y-77910000D01*
X191860000Y-77910000D01*
X191860000Y-78207844D01*
X191866401Y-78267372D01*
X191866403Y-78267379D01*
X191916645Y-78402086D01*
X191916649Y-78402093D01*
X192002809Y-78517187D01*
X192002812Y-78517190D01*
X192117906Y-78603350D01*
X192117913Y-78603354D01*
X192252620Y-78653596D01*
X192252627Y-78653598D01*
X192312155Y-78659999D01*
X192312172Y-78660000D01*
X193510000Y-78660000D01*
X193510000Y-77910000D01*
X194010000Y-77910000D01*
X194010000Y-78660000D01*
X195207828Y-78660000D01*
X195207844Y-78659999D01*
X195267372Y-78653598D01*
X195267379Y-78653596D01*
X195402086Y-78603354D01*
X195402093Y-78603350D01*
X195517187Y-78517190D01*
X195517190Y-78517187D01*
X195603350Y-78402093D01*
X195603354Y-78402086D01*
X195653596Y-78267379D01*
X195653598Y-78267372D01*
X195659999Y-78207844D01*
X195660000Y-78207827D01*
X195660000Y-77910000D01*
X194010000Y-77910000D01*
X193510000Y-77910000D01*
X191860000Y-77910000D01*
X189860000Y-77910000D01*
X188210000Y-77910000D01*
X187710000Y-77910000D01*
X186060000Y-77910000D01*
X180044920Y-77910000D01*
X180544921Y-77409999D01*
X186059999Y-77409999D01*
X186060000Y-77410000D01*
X187710000Y-77410000D01*
X187710000Y-76660000D01*
X188210000Y-76660000D01*
X188210000Y-77410000D01*
X189860000Y-77410000D01*
X191860000Y-77410000D01*
X193510000Y-77410000D01*
X193510000Y-76660000D01*
X194010000Y-76660000D01*
X194010000Y-77410000D01*
X195659999Y-77410000D01*
X195660000Y-77112172D01*
X195659999Y-77112155D01*
X195653598Y-77052627D01*
X195653596Y-77052620D01*
X195603354Y-76917913D01*
X195603350Y-76917906D01*
X195517190Y-76802812D01*
X195517187Y-76802809D01*
X195402093Y-76716649D01*
X195402086Y-76716645D01*
X195267379Y-76666403D01*
X195267372Y-76666401D01*
X195207844Y-76660000D01*
X194010000Y-76660000D01*
X193510000Y-76660000D01*
X192312155Y-76660000D01*
X192252627Y-76666401D01*
X192252620Y-76666403D01*
X192117913Y-76716645D01*
X192117906Y-76716649D01*
X192002812Y-76802809D01*
X192002809Y-76802812D01*
X191916649Y-76917906D01*
X191916645Y-76917913D01*
X191866403Y-77052620D01*
X191866401Y-77052627D01*
X191860000Y-77112155D01*
X191860000Y-77410000D01*
X189860000Y-77410000D01*
X189860000Y-77112172D01*
X189859999Y-77112155D01*
X189853598Y-77052627D01*
X189853596Y-77052620D01*
X189803354Y-76917913D01*
X189803350Y-76917906D01*
X189717190Y-76802812D01*
X189717187Y-76802809D01*
X189602093Y-76716649D01*
X189602086Y-76716645D01*
X189467379Y-76666403D01*
X189467372Y-76666401D01*
X189407844Y-76660000D01*
X188210000Y-76660000D01*
X187710000Y-76660000D01*
X186512155Y-76660000D01*
X186452627Y-76666401D01*
X186452620Y-76666403D01*
X186317913Y-76716645D01*
X186317906Y-76716649D01*
X186202812Y-76802809D01*
X186202809Y-76802812D01*
X186116649Y-76917906D01*
X186116645Y-76917913D01*
X186066403Y-77052620D01*
X186066401Y-77052627D01*
X186060000Y-77112155D01*
X186060000Y-77112172D01*
X186059999Y-77409999D01*
X180544921Y-77409999D01*
X181552483Y-76402437D01*
X184309827Y-73645092D01*
X184371148Y-73611609D01*
X184440840Y-73616593D01*
X184496773Y-73658465D01*
X184520826Y-73719812D01*
X184534326Y-73848256D01*
X184534327Y-73848259D01*
X184592818Y-74028277D01*
X184592821Y-74028284D01*
X184687467Y-74192216D01*
X184795982Y-74312734D01*
X184814129Y-74332888D01*
X184967265Y-74444148D01*
X184967270Y-74444151D01*
X185140192Y-74521142D01*
X185140197Y-74521144D01*
X185325354Y-74560500D01*
X185325355Y-74560500D01*
X185514644Y-74560500D01*
X185514646Y-74560500D01*
X185699803Y-74521144D01*
X185872730Y-74444151D01*
X185951815Y-74386691D01*
X186017619Y-74363213D01*
X186085673Y-74379038D01*
X186123965Y-74412699D01*
X186202455Y-74517547D01*
X186317664Y-74603793D01*
X186317671Y-74603797D01*
X186452517Y-74654091D01*
X186452516Y-74654091D01*
X186459444Y-74654835D01*
X186512127Y-74660500D01*
X187848256Y-74660499D01*
X187848270Y-74660500D01*
X187858259Y-74660500D01*
X192312127Y-74660500D01*
X193733071Y-74660500D01*
X193736211Y-74660580D01*
X193762180Y-74661896D01*
X193810936Y-74664369D01*
X193823841Y-74662391D01*
X193826862Y-74661929D01*
X193845640Y-74660499D01*
X195207871Y-74660499D01*
X195207872Y-74660499D01*
X195267483Y-74654091D01*
X195402331Y-74603796D01*
X195517546Y-74517546D01*
X195603796Y-74402331D01*
X195654091Y-74267483D01*
X195660500Y-74207873D01*
X195660499Y-73112128D01*
X195654091Y-73052517D01*
X195637213Y-73007266D01*
X195603797Y-72917671D01*
X195603793Y-72917664D01*
X195517547Y-72802455D01*
X195517544Y-72802452D01*
X195402335Y-72716206D01*
X195402328Y-72716202D01*
X195267482Y-72665908D01*
X195267483Y-72665908D01*
X195207883Y-72659501D01*
X195207881Y-72659500D01*
X195207873Y-72659500D01*
X195207865Y-72659500D01*
X194884500Y-72659500D01*
X194817461Y-72639815D01*
X194771706Y-72587011D01*
X194760500Y-72535500D01*
X194760500Y-67945171D01*
X194780185Y-67878132D01*
X194819403Y-67839632D01*
X194871156Y-67807712D01*
X194995212Y-67683656D01*
X195087314Y-67534334D01*
X195142499Y-67367797D01*
X195153000Y-67265009D01*
X195152999Y-66639992D01*
X195142499Y-66537203D01*
X195087314Y-66370666D01*
X194995212Y-66221344D01*
X194901548Y-66127680D01*
X194868064Y-66066356D01*
X194873048Y-65996665D01*
X194901545Y-65952322D01*
X194995212Y-65858656D01*
X195087314Y-65709334D01*
X195142499Y-65542797D01*
X195153000Y-65440009D01*
X195152999Y-64814992D01*
X195142499Y-64712203D01*
X195087314Y-64545666D01*
X194995212Y-64396344D01*
X194871156Y-64272288D01*
X194721834Y-64180186D01*
X194555297Y-64125001D01*
X194555295Y-64125000D01*
X194452516Y-64114500D01*
X194452509Y-64114500D01*
X194405782Y-64114500D01*
X194338743Y-64094815D01*
X194318101Y-64078181D01*
X193041452Y-62801532D01*
X192980061Y-62736949D01*
X192980060Y-62736948D01*
X192980059Y-62736947D01*
X192952204Y-62717559D01*
X192929709Y-62701902D01*
X192925946Y-62699064D01*
X192878413Y-62660305D01*
X192878406Y-62660300D01*
X192847959Y-62644397D01*
X192841251Y-62640334D01*
X192813049Y-62620705D01*
X192813046Y-62620703D01*
X192813045Y-62620703D01*
X192813041Y-62620701D01*
X192756680Y-62596514D01*
X192752424Y-62594493D01*
X192698057Y-62566094D01*
X192698050Y-62566091D01*
X192698049Y-62566091D01*
X192692008Y-62564362D01*
X192665030Y-62556642D01*
X192657630Y-62554008D01*
X192626057Y-62540459D01*
X192626058Y-62540459D01*
X192565966Y-62528109D01*
X192561391Y-62526986D01*
X192502420Y-62510113D01*
X192502425Y-62510113D01*
X192468158Y-62507503D01*
X192460380Y-62506412D01*
X192426742Y-62499500D01*
X192426741Y-62499500D01*
X192365402Y-62499500D01*
X192360695Y-62499321D01*
X192355121Y-62498896D01*
X192299524Y-62494662D01*
X192279589Y-62497201D01*
X192265440Y-62499003D01*
X192257611Y-62499500D01*
X185594783Y-62499500D01*
X185527744Y-62479815D01*
X185481989Y-62427011D01*
X185472045Y-62357853D01*
X185501070Y-62294297D01*
X185507102Y-62287819D01*
X185981476Y-61813445D01*
X188658467Y-59136452D01*
X188723053Y-59075059D01*
X188749457Y-59037122D01*
X188758099Y-59024706D01*
X188760938Y-59020941D01*
X188764612Y-59016435D01*
X188799698Y-58973407D01*
X188815601Y-58942960D01*
X188819674Y-58936239D01*
X188824489Y-58929320D01*
X188839295Y-58908049D01*
X188863492Y-58851660D01*
X188865498Y-58847435D01*
X188893909Y-58793049D01*
X188903360Y-58760015D01*
X188905991Y-58752628D01*
X188919540Y-58721058D01*
X188931893Y-58660940D01*
X188933006Y-58656412D01*
X188949887Y-58597418D01*
X188952495Y-58563155D01*
X188953587Y-58555376D01*
X188955893Y-58544158D01*
X188960500Y-58521741D01*
X188960500Y-58460401D01*
X188960679Y-58455692D01*
X188965337Y-58394525D01*
X188964452Y-58387577D01*
X188960995Y-58360430D01*
X188960500Y-58352618D01*
X188960500Y-57187452D01*
X188980185Y-57120413D01*
X189003965Y-57093166D01*
X189095224Y-57015224D01*
X189258836Y-56823659D01*
X189339879Y-56691407D01*
X189357922Y-56668522D01*
X189851481Y-56174963D01*
X189912804Y-56141478D01*
X189982496Y-56146462D01*
X190038429Y-56188334D01*
X190041513Y-56193249D01*
X190041549Y-56193225D01*
X190046441Y-56200156D01*
X190117816Y-56276579D01*
X190149638Y-56310652D01*
X190184698Y-56331973D01*
X190231749Y-56383623D01*
X190243407Y-56452513D01*
X190215970Y-56516770D01*
X190207950Y-56525601D01*
X189555819Y-57177731D01*
X189555819Y-57177732D01*
X189556636Y-57178430D01*
X189556638Y-57178432D01*
X189771368Y-57310019D01*
X190004043Y-57406396D01*
X190248927Y-57465187D01*
X190500000Y-57484947D01*
X190751072Y-57465187D01*
X190995956Y-57406396D01*
X191228631Y-57310019D01*
X191443360Y-57178432D01*
X191443371Y-57178424D01*
X191444179Y-57177732D01*
X190793165Y-56526718D01*
X190759680Y-56465395D01*
X190764664Y-56395703D01*
X190802588Y-56342853D01*
X190905739Y-56258934D01*
X190956052Y-56187655D01*
X191010793Y-56144239D01*
X191080318Y-56137309D01*
X191142553Y-56169067D01*
X191145037Y-56171483D01*
X191642078Y-56668524D01*
X191660124Y-56691415D01*
X191741160Y-56823653D01*
X191741161Y-56823656D01*
X191863146Y-56966482D01*
X191904776Y-57015224D01*
X191996032Y-57093164D01*
X192034225Y-57151669D01*
X192039500Y-57187453D01*
X192039500Y-61010743D01*
X192054925Y-61162439D01*
X192115837Y-61356579D01*
X192115844Y-61356594D01*
X192214589Y-61534499D01*
X192214592Y-61534504D01*
X192347132Y-61688893D01*
X192347134Y-61688895D01*
X192508037Y-61813445D01*
X192508038Y-61813445D01*
X192508042Y-61813448D01*
X192690729Y-61903060D01*
X192887715Y-61954063D01*
X193090936Y-61964369D01*
X193292071Y-61933556D01*
X193482887Y-61862886D01*
X193655571Y-61755252D01*
X193803053Y-61615059D01*
X193919295Y-61448049D01*
X193999540Y-61261058D01*
X194040500Y-61061741D01*
X194040500Y-57523916D01*
X194060185Y-57456878D01*
X194112989Y-57411123D01*
X194182147Y-57401179D01*
X194229258Y-57420695D01*
X194229886Y-57419546D01*
X194237671Y-57423797D01*
X194282618Y-57440561D01*
X194372517Y-57474091D01*
X194432127Y-57480500D01*
X194455497Y-57480499D01*
X194522536Y-57500181D01*
X194568292Y-57552983D01*
X194579500Y-57604499D01*
X194579500Y-61010743D01*
X194594925Y-61162439D01*
X194655837Y-61356579D01*
X194655844Y-61356594D01*
X194754589Y-61534499D01*
X194754592Y-61534504D01*
X194887132Y-61688893D01*
X194887134Y-61688895D01*
X195048037Y-61813445D01*
X195048038Y-61813445D01*
X195048042Y-61813448D01*
X195230729Y-61903060D01*
X195427715Y-61954063D01*
X195630936Y-61964369D01*
X195832071Y-61933556D01*
X196022887Y-61862886D01*
X196195571Y-61755252D01*
X196343053Y-61615059D01*
X196459295Y-61448049D01*
X196539540Y-61261058D01*
X196580500Y-61061741D01*
X196580500Y-57604499D01*
X196600185Y-57537460D01*
X196652989Y-57491705D01*
X196704500Y-57480499D01*
X196727871Y-57480499D01*
X196727872Y-57480499D01*
X196787483Y-57474091D01*
X196922331Y-57423796D01*
X197037546Y-57337546D01*
X197123796Y-57222331D01*
X197174091Y-57087483D01*
X197180500Y-57027873D01*
X197180499Y-54732128D01*
X197174091Y-54672517D01*
X197167697Y-54655375D01*
X197123797Y-54537671D01*
X197123793Y-54537664D01*
X197037547Y-54422455D01*
X197037544Y-54422452D01*
X196922335Y-54336206D01*
X196922328Y-54336202D01*
X196787482Y-54285908D01*
X196787483Y-54285908D01*
X196727883Y-54279501D01*
X196727881Y-54279500D01*
X196727873Y-54279500D01*
X196727864Y-54279500D01*
X194432129Y-54279500D01*
X194432123Y-54279501D01*
X194372516Y-54285908D01*
X194237671Y-54336202D01*
X194237664Y-54336206D01*
X194122455Y-54422452D01*
X194065072Y-54499105D01*
X194009138Y-54540976D01*
X193939446Y-54545959D01*
X193901016Y-54530520D01*
X193768859Y-54449533D01*
X193536110Y-54353126D01*
X193291151Y-54294317D01*
X193040000Y-54274551D01*
X192788848Y-54294317D01*
X192543889Y-54353126D01*
X192311140Y-54449533D01*
X192096346Y-54581160D01*
X192096343Y-54581161D01*
X191904776Y-54744776D01*
X191741161Y-54936343D01*
X191741160Y-54936346D01*
X191660125Y-55068582D01*
X191642079Y-55091473D01*
X191148517Y-55585034D01*
X191087194Y-55618519D01*
X191017502Y-55613535D01*
X190961569Y-55571663D01*
X190958486Y-55566750D01*
X190958451Y-55566775D01*
X190953558Y-55559843D01*
X190850360Y-55449346D01*
X190850358Y-55449345D01*
X190815300Y-55428026D01*
X190768248Y-55376375D01*
X190756590Y-55307485D01*
X190784027Y-55243228D01*
X190792047Y-55234397D01*
X191444178Y-54582266D01*
X191444178Y-54582264D01*
X191443374Y-54581577D01*
X191443358Y-54581566D01*
X191228631Y-54449980D01*
X190995956Y-54353603D01*
X190751072Y-54294812D01*
X190500000Y-54275052D01*
X190248927Y-54294812D01*
X190004043Y-54353603D01*
X189771368Y-54449980D01*
X189556637Y-54581568D01*
X189555820Y-54582266D01*
X190206833Y-55233280D01*
X190240318Y-55294603D01*
X190235334Y-55364295D01*
X190197408Y-55417148D01*
X190094262Y-55501064D01*
X190094258Y-55501069D01*
X190043947Y-55572344D01*
X189989205Y-55615761D01*
X189919680Y-55622690D01*
X189857445Y-55590931D01*
X189854962Y-55588516D01*
X189357920Y-55091474D01*
X189339875Y-55068585D01*
X189258836Y-54936341D01*
X189095224Y-54744776D01*
X188955727Y-54625634D01*
X188903656Y-54581161D01*
X188903653Y-54581160D01*
X188688859Y-54449533D01*
X188456110Y-54353126D01*
X188211151Y-54294317D01*
X187960000Y-54274551D01*
X187708848Y-54294317D01*
X187463889Y-54353126D01*
X187231140Y-54449533D01*
X187016346Y-54581160D01*
X187016343Y-54581161D01*
X186824776Y-54744776D01*
X186784290Y-54792179D01*
X186725783Y-54830372D01*
X186655915Y-54830870D01*
X186596869Y-54793516D01*
X186595710Y-54792179D01*
X186594656Y-54790945D01*
X186555224Y-54744776D01*
X186415727Y-54625634D01*
X186363656Y-54581161D01*
X186363653Y-54581160D01*
X186148859Y-54449533D01*
X185916110Y-54353126D01*
X185671151Y-54294317D01*
X185420000Y-54274551D01*
X185168848Y-54294317D01*
X184923889Y-54353126D01*
X184691140Y-54449533D01*
X184476346Y-54581160D01*
X184476343Y-54581161D01*
X184284775Y-54744777D01*
X184244288Y-54792180D01*
X184185780Y-54830372D01*
X184115913Y-54830870D01*
X184056867Y-54793515D01*
X184055792Y-54792275D01*
X184015224Y-54744776D01*
X183930620Y-54672517D01*
X183823656Y-54581161D01*
X183823653Y-54581160D01*
X183608859Y-54449533D01*
X183376110Y-54353126D01*
X183131151Y-54294317D01*
X182942786Y-54279492D01*
X182880000Y-54274551D01*
X182879999Y-54274551D01*
X182628848Y-54294317D01*
X182383889Y-54353126D01*
X182151140Y-54449533D01*
X181936346Y-54581160D01*
X181936343Y-54581161D01*
X181744776Y-54744776D01*
X181581161Y-54936343D01*
X181581160Y-54936346D01*
X181449533Y-55151140D01*
X181353126Y-55383889D01*
X181294317Y-55628848D01*
X181274551Y-55879999D01*
X181294317Y-56131151D01*
X181353126Y-56376110D01*
X181364232Y-56402921D01*
X181371701Y-56472390D01*
X181340426Y-56534869D01*
X181337352Y-56538055D01*
X180117228Y-57758181D01*
X180055905Y-57791666D01*
X180029547Y-57794500D01*
X167950452Y-57794500D01*
X167883413Y-57774815D01*
X167862771Y-57758181D01*
X164956859Y-54852268D01*
X164923374Y-54790945D01*
X164928358Y-54721253D01*
X164970230Y-54665320D01*
X165035694Y-54640903D01*
X165055349Y-54641059D01*
X165100001Y-54644966D01*
X165100002Y-54644966D01*
X165326599Y-54625141D01*
X165326610Y-54625139D01*
X165546317Y-54566269D01*
X165546331Y-54566264D01*
X165752478Y-54470136D01*
X165825472Y-54419025D01*
X165283866Y-53877419D01*
X165250381Y-53816096D01*
X165255365Y-53746404D01*
X165297237Y-53690471D01*
X165315245Y-53679258D01*
X165338045Y-53667641D01*
X165427641Y-53578045D01*
X165439254Y-53555252D01*
X165487225Y-53504458D01*
X165555046Y-53487661D01*
X165621181Y-53510197D01*
X165637419Y-53523866D01*
X166179025Y-54065472D01*
X166230133Y-53992482D01*
X166257341Y-53934135D01*
X166303513Y-53881696D01*
X166370707Y-53862543D01*
X166437588Y-53882758D01*
X166482105Y-53934132D01*
X166509432Y-53992734D01*
X166509433Y-53992735D01*
X166639954Y-54179141D01*
X166800858Y-54340045D01*
X166800861Y-54340047D01*
X166987266Y-54470568D01*
X167193504Y-54566739D01*
X167413308Y-54625635D01*
X167570780Y-54639412D01*
X167639998Y-54645468D01*
X167640000Y-54645468D01*
X167640002Y-54645468D01*
X167696807Y-54640498D01*
X167866692Y-54625635D01*
X168086496Y-54566739D01*
X168292734Y-54470568D01*
X168479139Y-54340047D01*
X168640047Y-54179139D01*
X168770568Y-53992734D01*
X168797618Y-53934724D01*
X168843790Y-53882285D01*
X168910983Y-53863133D01*
X168977865Y-53883348D01*
X169022382Y-53934725D01*
X169049429Y-53992728D01*
X169049432Y-53992734D01*
X169157075Y-54146465D01*
X169179402Y-54212671D01*
X169179500Y-54217588D01*
X169179500Y-55930743D01*
X169194925Y-56082439D01*
X169255837Y-56276579D01*
X169255844Y-56276594D01*
X169354589Y-56454499D01*
X169354592Y-56454504D01*
X169487132Y-56608893D01*
X169487134Y-56608895D01*
X169648037Y-56733445D01*
X169648038Y-56733445D01*
X169648042Y-56733448D01*
X169830729Y-56823060D01*
X170027715Y-56874063D01*
X170230936Y-56884369D01*
X170432071Y-56853556D01*
X170622887Y-56782886D01*
X170795571Y-56675252D01*
X170943053Y-56535059D01*
X171059295Y-56368049D01*
X171139540Y-56181058D01*
X171180500Y-55981741D01*
X171180500Y-54272899D01*
X171200185Y-54205861D01*
X171252989Y-54160106D01*
X171322147Y-54150162D01*
X171385703Y-54179187D01*
X171423477Y-54237965D01*
X171425177Y-54244385D01*
X171425909Y-54247484D01*
X171476202Y-54382328D01*
X171476206Y-54382335D01*
X171562452Y-54497544D01*
X171562455Y-54497547D01*
X171677664Y-54583793D01*
X171677671Y-54583797D01*
X171812517Y-54634091D01*
X171812516Y-54634091D01*
X171819444Y-54634835D01*
X171872127Y-54640500D01*
X173567872Y-54640499D01*
X173627483Y-54634091D01*
X173762331Y-54583796D01*
X173877546Y-54497546D01*
X173963796Y-54382331D01*
X174014091Y-54247483D01*
X174020500Y-54187873D01*
X174020499Y-52492128D01*
X174014091Y-52432517D01*
X173979567Y-52339954D01*
X173963797Y-52297671D01*
X173963793Y-52297664D01*
X173877547Y-52182455D01*
X173877544Y-52182452D01*
X173762335Y-52096206D01*
X173762328Y-52096202D01*
X173627482Y-52045908D01*
X173627483Y-52045908D01*
X173567883Y-52039501D01*
X173567881Y-52039500D01*
X173567873Y-52039500D01*
X173567864Y-52039500D01*
X171872129Y-52039500D01*
X171872123Y-52039501D01*
X171812516Y-52045908D01*
X171677671Y-52096202D01*
X171677664Y-52096206D01*
X171562455Y-52182452D01*
X171562452Y-52182455D01*
X171476206Y-52297664D01*
X171476202Y-52297671D01*
X171425908Y-52432516D01*
X171422137Y-52467596D01*
X171395398Y-52532146D01*
X171338006Y-52571994D01*
X171268180Y-52574487D01*
X171208092Y-52538834D01*
X171197273Y-52525462D01*
X171180045Y-52500858D01*
X171019141Y-52339954D01*
X170832734Y-52209432D01*
X170832732Y-52209431D01*
X170626497Y-52113261D01*
X170626488Y-52113258D01*
X170406697Y-52054366D01*
X170406693Y-52054365D01*
X170406692Y-52054365D01*
X170406691Y-52054364D01*
X170406686Y-52054364D01*
X170180002Y-52034532D01*
X170179998Y-52034532D01*
X169953313Y-52054364D01*
X169953302Y-52054366D01*
X169733511Y-52113258D01*
X169733502Y-52113261D01*
X169527267Y-52209431D01*
X169527265Y-52209432D01*
X169340858Y-52339954D01*
X169179954Y-52500858D01*
X169049432Y-52687265D01*
X169049430Y-52687268D01*
X169022380Y-52745277D01*
X168976207Y-52797715D01*
X168909013Y-52816866D01*
X168842132Y-52796649D01*
X168797619Y-52745277D01*
X168770568Y-52687266D01*
X168689855Y-52571994D01*
X168640045Y-52500858D01*
X168479141Y-52339954D01*
X168292734Y-52209432D01*
X168292732Y-52209431D01*
X168086497Y-52113261D01*
X168086488Y-52113258D01*
X167866697Y-52054366D01*
X167866693Y-52054365D01*
X167866692Y-52054365D01*
X167866691Y-52054364D01*
X167866686Y-52054364D01*
X167640002Y-52034532D01*
X167639998Y-52034532D01*
X167413313Y-52054364D01*
X167413302Y-52054366D01*
X167193511Y-52113258D01*
X167193502Y-52113261D01*
X166987267Y-52209431D01*
X166987265Y-52209432D01*
X166800858Y-52339954D01*
X166639954Y-52500858D01*
X166509434Y-52687263D01*
X166509432Y-52687266D01*
X166482383Y-52745274D01*
X166482106Y-52745867D01*
X166435933Y-52798306D01*
X166368739Y-52817457D01*
X166301858Y-52797241D01*
X166257342Y-52745865D01*
X166230135Y-52687520D01*
X166230131Y-52687512D01*
X166179026Y-52614526D01*
X166179025Y-52614526D01*
X165637419Y-53156132D01*
X165576096Y-53189617D01*
X165506404Y-53184633D01*
X165450471Y-53142761D01*
X165439256Y-53124751D01*
X165427641Y-53101955D01*
X165427637Y-53101951D01*
X165427636Y-53101949D01*
X165338050Y-53012363D01*
X165338044Y-53012358D01*
X165328109Y-53007296D01*
X165315250Y-53000744D01*
X165264456Y-52952773D01*
X165247660Y-52884952D01*
X165270197Y-52818817D01*
X165283865Y-52802580D01*
X165825472Y-52260973D01*
X165752483Y-52209866D01*
X165752481Y-52209865D01*
X165546326Y-52113734D01*
X165546317Y-52113730D01*
X165326610Y-52054860D01*
X165326599Y-52054858D01*
X165100002Y-52035034D01*
X165099998Y-52035034D01*
X164873400Y-52054858D01*
X164873389Y-52054860D01*
X164653682Y-52113730D01*
X164653673Y-52113734D01*
X164447513Y-52209868D01*
X164374526Y-52260973D01*
X164916133Y-52802580D01*
X164949618Y-52863903D01*
X164944634Y-52933595D01*
X164902762Y-52989528D01*
X164884748Y-53000745D01*
X164861956Y-53012358D01*
X164861949Y-53012363D01*
X164772363Y-53101949D01*
X164772358Y-53101956D01*
X164760745Y-53124748D01*
X164712770Y-53175544D01*
X164644949Y-53192338D01*
X164578814Y-53169800D01*
X164562580Y-53156133D01*
X164020973Y-52614526D01*
X163969869Y-52687511D01*
X163942657Y-52745867D01*
X163896484Y-52798306D01*
X163829290Y-52817457D01*
X163762409Y-52797241D01*
X163717893Y-52745865D01*
X163717617Y-52745274D01*
X163690568Y-52687266D01*
X163560047Y-52500861D01*
X163560045Y-52500858D01*
X163399141Y-52339954D01*
X163212734Y-52209432D01*
X163212732Y-52209431D01*
X163006497Y-52113261D01*
X163006488Y-52113258D01*
X162786697Y-52054366D01*
X162786693Y-52054365D01*
X162786692Y-52054365D01*
X162786691Y-52054364D01*
X162786686Y-52054364D01*
X162560002Y-52034532D01*
X162559998Y-52034532D01*
X162333313Y-52054364D01*
X162333302Y-52054366D01*
X162113511Y-52113258D01*
X162113502Y-52113261D01*
X161907267Y-52209431D01*
X161907265Y-52209432D01*
X161720858Y-52339954D01*
X161559954Y-52500858D01*
X161429432Y-52687265D01*
X161429431Y-52687267D01*
X161402382Y-52745275D01*
X161356209Y-52797714D01*
X161289016Y-52816866D01*
X161222135Y-52796650D01*
X161177618Y-52745275D01*
X161150686Y-52687520D01*
X161150568Y-52687266D01*
X161020047Y-52500861D01*
X161020045Y-52500858D01*
X160859141Y-52339954D01*
X160672734Y-52209432D01*
X160672732Y-52209431D01*
X160466497Y-52113261D01*
X160466488Y-52113258D01*
X160246697Y-52054366D01*
X160246693Y-52054365D01*
X160246692Y-52054365D01*
X160246691Y-52054364D01*
X160246686Y-52054364D01*
X160020002Y-52034532D01*
X160019998Y-52034532D01*
X159793313Y-52054364D01*
X159793302Y-52054366D01*
X159573511Y-52113258D01*
X159573502Y-52113261D01*
X159367267Y-52209431D01*
X159367265Y-52209432D01*
X159180858Y-52339954D01*
X159019954Y-52500858D01*
X158889432Y-52687265D01*
X158889431Y-52687267D01*
X158862382Y-52745275D01*
X158816209Y-52797714D01*
X158749016Y-52816866D01*
X158682135Y-52796650D01*
X158637618Y-52745275D01*
X158610686Y-52687520D01*
X158610568Y-52687266D01*
X158480047Y-52500861D01*
X158480045Y-52500858D01*
X158319141Y-52339954D01*
X158132734Y-52209432D01*
X158132732Y-52209431D01*
X157926497Y-52113261D01*
X157926488Y-52113258D01*
X157706697Y-52054366D01*
X157706693Y-52054365D01*
X157706692Y-52054365D01*
X157706691Y-52054364D01*
X157706686Y-52054364D01*
X157480002Y-52034532D01*
X157479998Y-52034532D01*
X157253313Y-52054364D01*
X157253302Y-52054366D01*
X157033511Y-52113258D01*
X157033502Y-52113261D01*
X156827267Y-52209431D01*
X156827265Y-52209432D01*
X156640858Y-52339954D01*
X156479954Y-52500858D01*
X156349432Y-52687265D01*
X156349431Y-52687267D01*
X156322382Y-52745275D01*
X156276209Y-52797714D01*
X156209016Y-52816866D01*
X156142135Y-52796650D01*
X156097618Y-52745275D01*
X156070686Y-52687520D01*
X156070568Y-52687266D01*
X155940047Y-52500861D01*
X155940045Y-52500858D01*
X155779141Y-52339954D01*
X155592734Y-52209432D01*
X155592732Y-52209431D01*
X155386497Y-52113261D01*
X155386488Y-52113258D01*
X155166697Y-52054366D01*
X155166693Y-52054365D01*
X155166692Y-52054365D01*
X155166691Y-52054364D01*
X155166686Y-52054364D01*
X154940002Y-52034532D01*
X154939998Y-52034532D01*
X154713313Y-52054364D01*
X154713302Y-52054366D01*
X154493511Y-52113258D01*
X154493502Y-52113261D01*
X154287267Y-52209431D01*
X154287265Y-52209432D01*
X154100858Y-52339954D01*
X153939954Y-52500858D01*
X153809432Y-52687265D01*
X153809431Y-52687267D01*
X153782382Y-52745275D01*
X153736209Y-52797714D01*
X153669016Y-52816866D01*
X153602135Y-52796650D01*
X153557618Y-52745275D01*
X153530686Y-52687520D01*
X153530568Y-52687266D01*
X153400047Y-52500861D01*
X153400045Y-52500858D01*
X153239141Y-52339954D01*
X153052734Y-52209432D01*
X153052732Y-52209431D01*
X152846497Y-52113261D01*
X152846488Y-52113258D01*
X152626697Y-52054366D01*
X152626693Y-52054365D01*
X152626692Y-52054365D01*
X152626691Y-52054364D01*
X152626686Y-52054364D01*
X152400002Y-52034532D01*
X152399998Y-52034532D01*
X152173313Y-52054364D01*
X152173302Y-52054366D01*
X151953511Y-52113258D01*
X151953502Y-52113261D01*
X151747267Y-52209431D01*
X151747265Y-52209432D01*
X151560858Y-52339954D01*
X151399954Y-52500858D01*
X151269432Y-52687265D01*
X151269431Y-52687267D01*
X151242382Y-52745275D01*
X151196209Y-52797714D01*
X151129016Y-52816866D01*
X151062135Y-52796650D01*
X151017618Y-52745275D01*
X150990686Y-52687520D01*
X150990568Y-52687266D01*
X150860047Y-52500861D01*
X150860045Y-52500858D01*
X150699141Y-52339954D01*
X150512734Y-52209432D01*
X150512732Y-52209431D01*
X150306497Y-52113261D01*
X150306488Y-52113258D01*
X150086697Y-52054366D01*
X150086693Y-52054365D01*
X150086692Y-52054365D01*
X150086691Y-52054364D01*
X150086686Y-52054364D01*
X149860002Y-52034532D01*
X149859998Y-52034532D01*
X149633313Y-52054364D01*
X149633302Y-52054366D01*
X149413511Y-52113258D01*
X149413502Y-52113261D01*
X149207267Y-52209431D01*
X149207265Y-52209432D01*
X149020858Y-52339954D01*
X148859954Y-52500858D01*
X148729432Y-52687265D01*
X148729431Y-52687267D01*
X148702382Y-52745275D01*
X148656209Y-52797714D01*
X148589016Y-52816866D01*
X148522135Y-52796650D01*
X148477618Y-52745275D01*
X148450686Y-52687520D01*
X148450568Y-52687266D01*
X148320047Y-52500861D01*
X148320045Y-52500858D01*
X148159141Y-52339954D01*
X147972734Y-52209432D01*
X147972732Y-52209431D01*
X147766497Y-52113261D01*
X147766488Y-52113258D01*
X147546697Y-52054366D01*
X147546693Y-52054365D01*
X147546692Y-52054365D01*
X147546691Y-52054364D01*
X147546686Y-52054364D01*
X147320002Y-52034532D01*
X147319998Y-52034532D01*
X147093313Y-52054364D01*
X147093302Y-52054366D01*
X146873511Y-52113258D01*
X146873502Y-52113261D01*
X146667267Y-52209431D01*
X146667265Y-52209432D01*
X146480858Y-52339954D01*
X146319954Y-52500858D01*
X146189432Y-52687265D01*
X146189431Y-52687267D01*
X146162382Y-52745275D01*
X146116209Y-52797714D01*
X146049016Y-52816866D01*
X145982135Y-52796650D01*
X145937618Y-52745275D01*
X145910686Y-52687520D01*
X145910568Y-52687266D01*
X145780047Y-52500861D01*
X145780045Y-52500858D01*
X145619141Y-52339954D01*
X145432734Y-52209432D01*
X145432732Y-52209431D01*
X145226497Y-52113261D01*
X145226488Y-52113258D01*
X145006697Y-52054366D01*
X145006693Y-52054365D01*
X145006692Y-52054365D01*
X145006691Y-52054364D01*
X145006686Y-52054364D01*
X144780002Y-52034532D01*
X144779998Y-52034532D01*
X144553313Y-52054364D01*
X144553302Y-52054366D01*
X144333511Y-52113258D01*
X144333502Y-52113261D01*
X144127267Y-52209431D01*
X144127265Y-52209432D01*
X143940858Y-52339954D01*
X143779954Y-52500858D01*
X143649432Y-52687265D01*
X143649431Y-52687267D01*
X143622382Y-52745275D01*
X143576209Y-52797714D01*
X143509016Y-52816866D01*
X143442135Y-52796650D01*
X143397618Y-52745275D01*
X143370686Y-52687520D01*
X143370568Y-52687266D01*
X143240047Y-52500861D01*
X143240045Y-52500858D01*
X143079141Y-52339954D01*
X142892734Y-52209432D01*
X142892732Y-52209431D01*
X142686497Y-52113261D01*
X142686488Y-52113258D01*
X142466697Y-52054366D01*
X142466693Y-52054365D01*
X142466692Y-52054365D01*
X142466691Y-52054364D01*
X142466686Y-52054364D01*
X142240002Y-52034532D01*
X142239998Y-52034532D01*
X142013313Y-52054364D01*
X142013302Y-52054366D01*
X141793511Y-52113258D01*
X141793502Y-52113261D01*
X141587267Y-52209431D01*
X141587265Y-52209432D01*
X141400858Y-52339954D01*
X141239954Y-52500858D01*
X141109432Y-52687265D01*
X141109431Y-52687267D01*
X141082382Y-52745275D01*
X141036209Y-52797714D01*
X140969016Y-52816866D01*
X140902135Y-52796650D01*
X140857618Y-52745275D01*
X140830686Y-52687520D01*
X140830568Y-52687266D01*
X140700047Y-52500861D01*
X140700045Y-52500858D01*
X140539141Y-52339954D01*
X140352734Y-52209432D01*
X140352732Y-52209431D01*
X140146497Y-52113261D01*
X140146488Y-52113258D01*
X139926697Y-52054366D01*
X139926693Y-52054365D01*
X139926692Y-52054365D01*
X139926691Y-52054364D01*
X139926686Y-52054364D01*
X139700002Y-52034532D01*
X139699998Y-52034532D01*
X139473313Y-52054364D01*
X139473302Y-52054366D01*
X139253511Y-52113258D01*
X139253502Y-52113261D01*
X139047267Y-52209431D01*
X139047265Y-52209432D01*
X138860858Y-52339954D01*
X138699954Y-52500858D01*
X138569432Y-52687265D01*
X138569431Y-52687267D01*
X138542382Y-52745275D01*
X138496209Y-52797714D01*
X138429016Y-52816866D01*
X138362135Y-52796650D01*
X138317618Y-52745275D01*
X138290686Y-52687520D01*
X138290568Y-52687266D01*
X138160047Y-52500861D01*
X138160045Y-52500858D01*
X137999141Y-52339954D01*
X137812734Y-52209432D01*
X137812732Y-52209431D01*
X137606497Y-52113261D01*
X137606488Y-52113258D01*
X137386697Y-52054366D01*
X137386693Y-52054365D01*
X137386692Y-52054365D01*
X137386691Y-52054364D01*
X137386686Y-52054364D01*
X137160002Y-52034532D01*
X137159998Y-52034532D01*
X136933313Y-52054364D01*
X136933302Y-52054366D01*
X136713511Y-52113258D01*
X136713502Y-52113261D01*
X136507267Y-52209431D01*
X136507265Y-52209432D01*
X136320858Y-52339954D01*
X136159954Y-52500858D01*
X136029432Y-52687265D01*
X136029431Y-52687267D01*
X136002382Y-52745275D01*
X135956209Y-52797714D01*
X135889016Y-52816866D01*
X135822135Y-52796650D01*
X135777618Y-52745275D01*
X135750686Y-52687520D01*
X135750568Y-52687266D01*
X135620047Y-52500861D01*
X135620045Y-52500858D01*
X135459141Y-52339954D01*
X135272734Y-52209432D01*
X135272732Y-52209431D01*
X135066497Y-52113261D01*
X135066488Y-52113258D01*
X134846697Y-52054366D01*
X134846693Y-52054365D01*
X134846692Y-52054365D01*
X134846691Y-52054364D01*
X134846686Y-52054364D01*
X134620002Y-52034532D01*
X134619998Y-52034532D01*
X134393313Y-52054364D01*
X134393302Y-52054366D01*
X134173511Y-52113258D01*
X134173502Y-52113261D01*
X133967267Y-52209431D01*
X133967265Y-52209432D01*
X133780858Y-52339954D01*
X133619954Y-52500858D01*
X133489432Y-52687265D01*
X133489431Y-52687267D01*
X133393261Y-52893502D01*
X133393258Y-52893511D01*
X133334366Y-53113302D01*
X133334364Y-53113313D01*
X133314532Y-53339998D01*
X133314532Y-53340001D01*
X133334364Y-53566686D01*
X133334366Y-53566697D01*
X133393258Y-53786488D01*
X133393261Y-53786497D01*
X133489431Y-53992732D01*
X133489432Y-53992734D01*
X133619954Y-54179141D01*
X133780859Y-54340046D01*
X133941622Y-54452613D01*
X133985247Y-54507190D01*
X133994499Y-54554188D01*
X133994500Y-58109546D01*
X133974815Y-58176585D01*
X133958181Y-58197227D01*
X131857228Y-60298181D01*
X131795905Y-60331666D01*
X131769547Y-60334500D01*
X127310453Y-60334500D01*
X127243414Y-60314815D01*
X127222772Y-60298181D01*
X125121819Y-58197228D01*
X125088334Y-58135905D01*
X125085500Y-58109547D01*
X125085500Y-57604499D01*
X125105185Y-57537460D01*
X125157989Y-57491705D01*
X125209500Y-57480499D01*
X125607871Y-57480499D01*
X125607872Y-57480499D01*
X125667483Y-57474091D01*
X125802331Y-57423796D01*
X125917546Y-57337546D01*
X126003796Y-57222331D01*
X126054091Y-57087483D01*
X126060500Y-57027873D01*
X126060499Y-54732128D01*
X126054091Y-54672517D01*
X126047697Y-54655375D01*
X126003797Y-54537671D01*
X126003793Y-54537664D01*
X125917547Y-54422455D01*
X125917544Y-54422452D01*
X125802335Y-54336206D01*
X125802328Y-54336202D01*
X125667482Y-54285908D01*
X125667483Y-54285908D01*
X125607883Y-54279501D01*
X125607881Y-54279500D01*
X125607873Y-54279500D01*
X125607864Y-54279500D01*
X123312129Y-54279500D01*
X123312123Y-54279501D01*
X123252516Y-54285908D01*
X123117671Y-54336202D01*
X123117664Y-54336206D01*
X123002455Y-54422452D01*
X122945072Y-54499105D01*
X122889138Y-54540976D01*
X122819446Y-54545959D01*
X122781016Y-54530520D01*
X122648859Y-54449533D01*
X122416110Y-54353126D01*
X122171151Y-54294317D01*
X121920000Y-54274551D01*
X121668848Y-54294317D01*
X121423889Y-54353126D01*
X121191140Y-54449533D01*
X120976346Y-54581160D01*
X120976343Y-54581161D01*
X120784776Y-54744776D01*
X120621161Y-54936343D01*
X120621160Y-54936346D01*
X120540125Y-55068582D01*
X120522079Y-55091473D01*
X120028517Y-55585034D01*
X119967194Y-55618519D01*
X119897502Y-55613535D01*
X119841569Y-55571663D01*
X119838486Y-55566750D01*
X119838451Y-55566775D01*
X119833558Y-55559843D01*
X119730360Y-55449346D01*
X119730358Y-55449345D01*
X119695300Y-55428026D01*
X119648248Y-55376375D01*
X119636590Y-55307485D01*
X119664027Y-55243228D01*
X119672047Y-55234397D01*
X120324178Y-54582266D01*
X120324178Y-54582264D01*
X120323374Y-54581577D01*
X120323358Y-54581566D01*
X120108631Y-54449980D01*
X119875956Y-54353603D01*
X119631072Y-54294812D01*
X119380000Y-54275052D01*
X119128927Y-54294812D01*
X118884043Y-54353603D01*
X118651368Y-54449980D01*
X118436637Y-54581568D01*
X118435820Y-54582266D01*
X119086833Y-55233280D01*
X119120318Y-55294603D01*
X119115334Y-55364295D01*
X119077408Y-55417148D01*
X118974262Y-55501064D01*
X118974258Y-55501069D01*
X118923947Y-55572344D01*
X118869205Y-55615761D01*
X118799680Y-55622690D01*
X118737445Y-55590931D01*
X118734962Y-55588516D01*
X118237920Y-55091474D01*
X118219875Y-55068585D01*
X118138836Y-54936341D01*
X117975224Y-54744776D01*
X117835727Y-54625634D01*
X117783656Y-54581161D01*
X117783653Y-54581160D01*
X117568859Y-54449533D01*
X117336110Y-54353126D01*
X117091151Y-54294317D01*
X116902786Y-54279492D01*
X116840000Y-54274551D01*
X116839999Y-54274551D01*
X116588848Y-54294317D01*
X116343889Y-54353126D01*
X116111140Y-54449533D01*
X115896346Y-54581160D01*
X115896343Y-54581161D01*
X115704776Y-54744776D01*
X115664290Y-54792179D01*
X115605783Y-54830372D01*
X115535915Y-54830870D01*
X115476869Y-54793516D01*
X115475710Y-54792179D01*
X115474656Y-54790945D01*
X115435224Y-54744776D01*
X115295727Y-54625634D01*
X115243656Y-54581161D01*
X115243653Y-54581160D01*
X115028859Y-54449533D01*
X114796110Y-54353126D01*
X114551151Y-54294317D01*
X114300000Y-54274551D01*
X114048848Y-54294317D01*
X113803889Y-54353126D01*
X113571140Y-54449533D01*
X113356346Y-54581160D01*
X113356343Y-54581161D01*
X113164776Y-54744776D01*
X113124290Y-54792179D01*
X113065783Y-54830372D01*
X112995915Y-54830870D01*
X112936869Y-54793516D01*
X112935710Y-54792179D01*
X112934656Y-54790945D01*
X112895224Y-54744776D01*
X112755727Y-54625634D01*
X112703656Y-54581161D01*
X112703653Y-54581160D01*
X112488859Y-54449533D01*
X112256110Y-54353126D01*
X112011151Y-54294317D01*
X111760000Y-54274551D01*
X111508848Y-54294317D01*
X111263889Y-54353126D01*
X111031140Y-54449533D01*
X110816346Y-54581160D01*
X110816343Y-54581161D01*
X110624776Y-54744776D01*
X110461161Y-54936343D01*
X110461160Y-54936346D01*
X110329533Y-55151140D01*
X110233126Y-55383889D01*
X110174317Y-55628848D01*
X110154551Y-55879999D01*
X109220500Y-55879999D01*
X109220500Y-50924500D01*
X109240185Y-50857461D01*
X109292989Y-50811706D01*
X109344500Y-50800500D01*
X197995500Y-50800500D01*
X198062539Y-50820185D01*
G37*
%TD.AperFunction*%
%TD*%
M02*
