%TF.GenerationSoftware,KiCad,Pcbnew,7.0.7*%
%TF.CreationDate,2023-11-09T14:18:26-08:00*%
%TF.ProjectId,Micro_Mouse,4d696372-6f5f-44d6-9f75-73652e6b6963,rev?*%
%TF.SameCoordinates,Original*%
%TF.FileFunction,Copper,L2,Bot*%
%TF.FilePolarity,Positive*%
%FSLAX46Y46*%
G04 Gerber Fmt 4.6, Leading zero omitted, Abs format (unit mm)*
G04 Created by KiCad (PCBNEW 7.0.7) date 2023-11-09 14:18:26*
%MOMM*%
%LPD*%
G01*
G04 APERTURE LIST*
G04 Aperture macros list*
%AMRoundRect*
0 Rectangle with rounded corners*
0 $1 Rounding radius*
0 $2 $3 $4 $5 $6 $7 $8 $9 X,Y pos of 4 corners*
0 Add a 4 corners polygon primitive as box body*
4,1,4,$2,$3,$4,$5,$6,$7,$8,$9,$2,$3,0*
0 Add four circle primitives for the rounded corners*
1,1,$1+$1,$2,$3*
1,1,$1+$1,$4,$5*
1,1,$1+$1,$6,$7*
1,1,$1+$1,$8,$9*
0 Add four rect primitives between the rounded corners*
20,1,$1+$1,$2,$3,$4,$5,0*
20,1,$1+$1,$4,$5,$6,$7,0*
20,1,$1+$1,$6,$7,$8,$9,0*
20,1,$1+$1,$8,$9,$2,$3,0*%
G04 Aperture macros list end*
%TA.AperFunction,ComponentPad*%
%ADD10R,2.200000X2.200000*%
%TD*%
%TA.AperFunction,ComponentPad*%
%ADD11C,2.200000*%
%TD*%
%TA.AperFunction,ComponentPad*%
%ADD12R,1.600000X1.600000*%
%TD*%
%TA.AperFunction,ComponentPad*%
%ADD13C,1.600000*%
%TD*%
%TA.AperFunction,ComponentPad*%
%ADD14R,1.700000X1.700000*%
%TD*%
%TA.AperFunction,ComponentPad*%
%ADD15O,1.700000X1.700000*%
%TD*%
%TA.AperFunction,ComponentPad*%
%ADD16RoundRect,0.250000X-0.600000X-0.750000X0.600000X-0.750000X0.600000X0.750000X-0.600000X0.750000X0*%
%TD*%
%TA.AperFunction,ComponentPad*%
%ADD17O,1.700000X2.000000*%
%TD*%
%TA.AperFunction,ViaPad*%
%ADD18C,0.800000*%
%TD*%
%TA.AperFunction,Conductor*%
%ADD19C,0.250000*%
%TD*%
%TA.AperFunction,Conductor*%
%ADD20C,1.000000*%
%TD*%
G04 APERTURE END LIST*
D10*
%TO.P,J4,1,Pin_1*%
%TO.N,BO1*%
X195580000Y-55880000D03*
D11*
%TO.P,J4,2,Pin_2*%
%TO.N,BO2*%
X193040000Y-55880000D03*
%TO.P,J4,3,Pin_3*%
%TO.N,GND*%
X190500000Y-55880000D03*
%TO.P,J4,4,Pin_4*%
%TO.N,+3.3V*%
X187960000Y-55880000D03*
%TO.P,J4,5,Pin_5*%
%TO.N,E2_PHA*%
X185420000Y-55880000D03*
%TO.P,J4,6,Pin_6*%
%TO.N,E2_PHB*%
X182880000Y-55880000D03*
%TD*%
D12*
%TO.P,A1,1,~{RESET}*%
%TO.N,unconnected-(A1-~{RESET}-Pad1)*%
X172720000Y-53340000D03*
D13*
%TO.P,A1,2,3V3*%
%TO.N,+3.3V*%
X170180000Y-53340000D03*
%TO.P,A1,3,NC*%
%TO.N,unconnected-(A1-NC-Pad3)*%
X167640000Y-53340000D03*
%TO.P,A1,4,GND*%
%TO.N,GND*%
X165100000Y-53340000D03*
%TO.P,A1,5,DAC2/A0*%
%TO.N,E2_PHB*%
X162560000Y-53340000D03*
%TO.P,A1,6,DAC1/A1*%
%TO.N,E2_PHA*%
X160020000Y-53340000D03*
%TO.P,A1,7,I34/A2*%
%TO.N,BTN*%
X157480000Y-53340000D03*
%TO.P,A1,8,I39/A3*%
%TO.N,IR_2*%
X154940000Y-53340000D03*
%TO.P,A1,9,IO36/A4*%
%TO.N,IR_1*%
X152400000Y-53340000D03*
%TO.P,A1,10,IO4/A5*%
%TO.N,E1_PHA*%
X149860000Y-53340000D03*
%TO.P,A1,11,SCK/IO5*%
%TO.N,unconnected-(A1-SCK{slash}IO5-Pad11)*%
X147320000Y-53340000D03*
%TO.P,A1,12,MOSI/IO18*%
%TO.N,unconnected-(A1-MOSI{slash}IO18-Pad12)*%
X144780000Y-53340000D03*
%TO.P,A1,13,MISO/IO19*%
%TO.N,unconnected-(A1-MISO{slash}IO19-Pad13)*%
X142240000Y-53340000D03*
%TO.P,A1,14,RX/IO16*%
%TO.N,unconnected-(A1-RX{slash}IO16-Pad14)*%
X139700000Y-53340000D03*
%TO.P,A1,15,TX/IO17*%
%TO.N,unconnected-(A1-TX{slash}IO17-Pad15)*%
X137160000Y-53340000D03*
%TO.P,A1,16,IO21*%
%TO.N,E1_PHB*%
X134620000Y-53340000D03*
%TO.P,A1,17,SDA/IO23*%
%TO.N,I2C SDA*%
X134620000Y-73660000D03*
%TO.P,A1,18,SCL/IO22*%
%TO.N,I2C SCL*%
X137160000Y-73660000D03*
%TO.P,A1,19,A6/IO14*%
%TO.N,PWMA*%
X139700000Y-73660000D03*
%TO.P,A1,20,A7/IO32*%
%TO.N,AIN2*%
X142240000Y-73660000D03*
%TO.P,A1,21,A8/IO15*%
%TO.N,AIN1*%
X144780000Y-73660000D03*
%TO.P,A1,22,A9/IO33*%
%TO.N,BIN1*%
X147320000Y-73660000D03*
%TO.P,A1,23,A10/IO27*%
%TO.N,BIN2*%
X149860000Y-73660000D03*
%TO.P,A1,24,A11/IO12*%
%TO.N,PWMB*%
X152400000Y-73660000D03*
%TO.P,A1,25,A12/IO13*%
%TO.N,unconnected-(A1-A12{slash}IO13-Pad25)*%
X154940000Y-73660000D03*
%TO.P,A1,26,USB*%
%TO.N,unconnected-(A1-USB-Pad26)*%
X157480000Y-73660000D03*
%TO.P,A1,27,EN*%
%TO.N,unconnected-(A1-EN-Pad27)*%
X160020000Y-73660000D03*
%TO.P,A1,28,VBAT*%
%TO.N,unconnected-(A1-VBAT-Pad28)*%
X162560000Y-73660000D03*
%TD*%
D14*
%TO.P,J6,1,Pin_1*%
%TO.N,+3.3V*%
X144780000Y-116840000D03*
D15*
%TO.P,J6,2,Pin_2*%
%TO.N,GND*%
X144780000Y-119380000D03*
%TO.P,J6,3,Pin_3*%
%TO.N,IR_1*%
X144780000Y-121920000D03*
%TD*%
D10*
%TO.P,J3,1,Pin_1*%
%TO.N,E1_PHB*%
X124460000Y-55880000D03*
D11*
%TO.P,J3,2,Pin_2*%
%TO.N,E1_PHA*%
X121920000Y-55880000D03*
%TO.P,J3,3,Pin_3*%
%TO.N,GND*%
X119380000Y-55880000D03*
%TO.P,J3,4,Pin_4*%
%TO.N,+3.3V*%
X116840000Y-55880000D03*
%TO.P,J3,5,Pin_5*%
%TO.N,AO1*%
X114300000Y-55880000D03*
%TO.P,J3,6,Pin_6*%
%TO.N,AO2*%
X111760000Y-55880000D03*
%TD*%
D14*
%TO.P,J7,1,Pin_1*%
%TO.N,IR_2*%
X165100000Y-116840000D03*
D15*
%TO.P,J7,2,Pin_2*%
%TO.N,GND*%
X165100000Y-119380000D03*
%TO.P,J7,3,Pin_3*%
%TO.N,+3.3V*%
X165100000Y-121920000D03*
%TD*%
D14*
%TO.P,J5,1,Pin_1*%
%TO.N,+3.3V*%
X149860000Y-137160000D03*
D15*
%TO.P,J5,2,Pin_2*%
%TO.N,GND*%
X152400000Y-137160000D03*
%TO.P,J5,3,Pin_3*%
%TO.N,I2C SCL*%
X154940000Y-137160000D03*
%TO.P,J5,4,Pin_4*%
%TO.N,I2C SDA*%
X157480000Y-137160000D03*
%TO.P,J5,5,Pin_5*%
%TO.N,unconnected-(J5-Pin_5-Pad5)*%
X160020000Y-137160000D03*
%TO.P,J5,6,Pin_6*%
%TO.N,unconnected-(J5-Pin_6-Pad6)*%
X162560000Y-137160000D03*
%TD*%
D16*
%TO.P,J1,1,Pin_1*%
%TO.N,GND*%
X192240322Y-134787338D03*
D17*
%TO.P,J1,2,Pin_2*%
%TO.N,Net-(J1-Pin_2)*%
X194740322Y-134787338D03*
%TD*%
D14*
%TO.P,J8,1,Pin_1*%
%TO.N,+3.3V*%
X142240000Y-104140000D03*
D15*
%TO.P,J8,2,Pin_2*%
%TO.N,GND*%
X144780000Y-104140000D03*
%TO.P,J8,3,Pin_3*%
%TO.N,I2C SCL*%
X147320000Y-104140000D03*
%TO.P,J8,4,Pin_4*%
%TO.N,I2C SDA*%
X149860000Y-104140000D03*
%TO.P,J8,5,Pin_5*%
%TO.N,unconnected-(J8-Pin_5-Pad5)*%
X152400000Y-104140000D03*
%TO.P,J8,6,Pin_6*%
%TO.N,unconnected-(J8-Pin_6-Pad6)*%
X154940000Y-104140000D03*
%TO.P,J8,7,Pin_7*%
%TO.N,unconnected-(J8-Pin_7-Pad7)*%
X157480000Y-104140000D03*
%TO.P,J8,8,Pin_8*%
%TO.N,unconnected-(J8-Pin_8-Pad8)*%
X160020000Y-104140000D03*
%TO.P,J8,9,Pin_9*%
%TO.N,unconnected-(J8-Pin_9-Pad9)*%
X162560000Y-104140000D03*
%TO.P,J8,10,Pin_10*%
%TO.N,unconnected-(J8-Pin_10-Pad10)*%
X165100000Y-104140000D03*
%TD*%
D18*
%TO.N,GND*%
X144780000Y-106680000D03*
%TO.N,BO2*%
X160020000Y-109220000D03*
%TO.N,BO1*%
X162560000Y-109220000D03*
%TO.N,IR_1*%
X132080000Y-93980000D03*
X147320000Y-66040000D03*
%TO.N,+3.3V*%
X142240000Y-101600000D03*
X129540000Y-101600000D03*
%TO.N,I2C SDA*%
X134620000Y-96520000D03*
X139700000Y-96520000D03*
%TO.N,PWMA*%
X139700000Y-81280000D03*
X149860000Y-109220000D03*
%TO.N,+3.3V*%
X170180000Y-63500000D03*
X132080000Y-116840000D03*
X153615363Y-112937056D03*
X149860000Y-129540000D03*
X147343149Y-112963100D03*
X170180000Y-55880000D03*
X165100000Y-129540000D03*
%TO.N,GND*%
X142240000Y-106680000D03*
X195580000Y-78740000D03*
X147320000Y-119380000D03*
X152292244Y-122020592D03*
X121920000Y-60960000D03*
X167640000Y-55880000D03*
X152387920Y-133508679D03*
X167640000Y-119380000D03*
X190500000Y-132080000D03*
X185420000Y-78740000D03*
X190500000Y-60960000D03*
X156207450Y-121890374D03*
X134620000Y-109220000D03*
%TO.N,BO1*%
X187960000Y-68580000D03*
X195580000Y-60960000D03*
X162560000Y-127000000D03*
X157480000Y-127000000D03*
X162560000Y-116840000D03*
%TO.N,BO2*%
X193040000Y-60960000D03*
X182880000Y-66040000D03*
X160020000Y-116840000D03*
%TO.N,Net-(J1-Pin_2)*%
X157480000Y-114300000D03*
X149860000Y-114300000D03*
%TO.N,BTN*%
X185420000Y-73660000D03*
X157480000Y-60960000D03*
%TO.N,I2C SCL*%
X137160000Y-106680000D03*
X147320000Y-132080000D03*
X116840000Y-114300000D03*
X154940000Y-132080000D03*
%TO.N,I2C SDA*%
X119380000Y-134620000D03*
X119380000Y-127000000D03*
X147320000Y-134620000D03*
X157480000Y-134620000D03*
X134620000Y-104140000D03*
X119380000Y-111760000D03*
%TO.N,IR_1*%
X142240000Y-121920000D03*
X152400000Y-60960000D03*
%TO.N,IR_2*%
X167640000Y-116840000D03*
X154940000Y-60960000D03*
X154940000Y-66040000D03*
X167640000Y-96520000D03*
%TD*%
D19*
%TO.N,IR_1*%
X142050000Y-93980000D02*
X142050000Y-96618835D01*
X142050000Y-96618835D02*
X146145000Y-100713835D01*
X146145000Y-110395000D02*
X146145000Y-100713835D01*
X142050000Y-93980000D02*
X132080000Y-93980000D01*
X142240000Y-114300000D02*
X146145000Y-110395000D01*
X142240000Y-121920000D02*
X142240000Y-114300000D01*
X147320000Y-66040000D02*
X152400000Y-60960000D01*
D20*
%TO.N,+3.3V*%
X144780000Y-129540000D02*
X132080000Y-116840000D01*
X149860000Y-129540000D02*
X144780000Y-129540000D01*
X129540000Y-101600000D02*
X142240000Y-101600000D01*
D19*
%TO.N,I2C SDA*%
X139700000Y-96520000D02*
X134620000Y-96520000D01*
%TO.N,PWMA*%
X148685000Y-90265000D02*
X139700000Y-81280000D01*
X148685000Y-108045000D02*
X148685000Y-90265000D01*
X149860000Y-109220000D02*
X148685000Y-108045000D01*
D20*
%TO.N,+3.3V*%
X170180000Y-63500000D02*
X170180000Y-55880000D01*
D19*
X147317105Y-112937056D02*
X147308170Y-112937056D01*
D20*
X149860000Y-129540000D02*
X165100000Y-129540000D01*
D19*
X147369193Y-112937056D02*
X147343149Y-112963100D01*
X147343149Y-112963100D02*
X147317105Y-112937056D01*
D20*
X153615363Y-112937056D02*
X147369193Y-112937056D01*
%TO.N,BO1*%
X195580000Y-60960000D02*
X187960000Y-68580000D01*
X162560000Y-109220000D02*
X162560000Y-116840000D01*
X162560000Y-127000000D02*
X157480000Y-127000000D01*
%TO.N,BO2*%
X187960000Y-66040000D02*
X182880000Y-66040000D01*
X160020000Y-109220000D02*
X160020000Y-116840000D01*
X193040000Y-60960000D02*
X187960000Y-66040000D01*
%TO.N,Net-(J1-Pin_2)*%
X157480000Y-114300000D02*
X149860000Y-114300000D01*
D19*
%TO.N,BTN*%
X170180000Y-73660000D02*
X157480000Y-60960000D01*
X185420000Y-73660000D02*
X170180000Y-73660000D01*
%TO.N,I2C SCL*%
X147320000Y-132080000D02*
X154940000Y-132080000D01*
X127000000Y-106680000D02*
X137160000Y-106680000D01*
X127000000Y-114300000D02*
X127000000Y-106680000D01*
X116840000Y-114300000D02*
X127000000Y-114300000D01*
%TO.N,I2C SDA*%
X124460000Y-104140000D02*
X134620000Y-104140000D01*
X147320000Y-134620000D02*
X157480000Y-134620000D01*
X119380000Y-111760000D02*
X124460000Y-111760000D01*
X119380000Y-134620000D02*
X119380000Y-127000000D01*
X124460000Y-111760000D02*
X124460000Y-104140000D01*
%TO.N,IR_2*%
X167640000Y-116840000D02*
X167640000Y-96520000D01*
X154940000Y-66040000D02*
X154940000Y-60960000D01*
%TD*%
%TA.AperFunction,Conductor*%
%TO.N,GND*%
G36*
X198062539Y-50820185D02*
G01*
X198108294Y-50872989D01*
X198119500Y-50924500D01*
X198119500Y-81155500D01*
X198099815Y-81222539D01*
X198047011Y-81268294D01*
X197995500Y-81279500D01*
X185444760Y-81279500D01*
X185444554Y-81279459D01*
X185420000Y-81279459D01*
X185419901Y-81279500D01*
X185419617Y-81279616D01*
X185419615Y-81279618D01*
X185419459Y-81279999D01*
X185419476Y-81304616D01*
X185419471Y-81304616D01*
X185419500Y-81304759D01*
X185419500Y-109195467D01*
X185419416Y-109195889D01*
X185419459Y-109220001D01*
X185419500Y-109220099D01*
X185419616Y-109220382D01*
X185419618Y-109220384D01*
X185419808Y-109220462D01*
X185420000Y-109220541D01*
X185420002Y-109220539D01*
X185444616Y-109220524D01*
X185444616Y-109220528D01*
X185444760Y-109220500D01*
X197995500Y-109220500D01*
X198062539Y-109240185D01*
X198108294Y-109292989D01*
X198119500Y-109344500D01*
X198119500Y-139575500D01*
X198099815Y-139642539D01*
X198047011Y-139688294D01*
X197995500Y-139699500D01*
X109344500Y-139699500D01*
X109277461Y-139679815D01*
X109231706Y-139627011D01*
X109220500Y-139575500D01*
X109220500Y-138057870D01*
X148509500Y-138057870D01*
X148509501Y-138057876D01*
X148515908Y-138117483D01*
X148566202Y-138252328D01*
X148566206Y-138252335D01*
X148652452Y-138367544D01*
X148652455Y-138367547D01*
X148767664Y-138453793D01*
X148767671Y-138453797D01*
X148902517Y-138504091D01*
X148902516Y-138504091D01*
X148909444Y-138504835D01*
X148962127Y-138510500D01*
X150757872Y-138510499D01*
X150817483Y-138504091D01*
X150952331Y-138453796D01*
X151067546Y-138367546D01*
X151153796Y-138252331D01*
X151203002Y-138120401D01*
X151244872Y-138064468D01*
X151310337Y-138040050D01*
X151378610Y-138054901D01*
X151406865Y-138076053D01*
X151528917Y-138198105D01*
X151722421Y-138333600D01*
X151936507Y-138433429D01*
X151936516Y-138433433D01*
X152150000Y-138490634D01*
X152150000Y-137772301D01*
X152169685Y-137705262D01*
X152222489Y-137659507D01*
X152291647Y-137649563D01*
X152364237Y-137660000D01*
X152364238Y-137660000D01*
X152435762Y-137660000D01*
X152435763Y-137660000D01*
X152508353Y-137649563D01*
X152577512Y-137659507D01*
X152630315Y-137705262D01*
X152650000Y-137772301D01*
X152650000Y-138490633D01*
X152863483Y-138433433D01*
X152863492Y-138433429D01*
X153077578Y-138333600D01*
X153271082Y-138198105D01*
X153438105Y-138031082D01*
X153568119Y-137845405D01*
X153622696Y-137801781D01*
X153692195Y-137794588D01*
X153754549Y-137826110D01*
X153771269Y-137845405D01*
X153901505Y-138031401D01*
X154068599Y-138198495D01*
X154165384Y-138266265D01*
X154262165Y-138334032D01*
X154262167Y-138334033D01*
X154262170Y-138334035D01*
X154476337Y-138433903D01*
X154704592Y-138495063D01*
X154881034Y-138510500D01*
X154939999Y-138515659D01*
X154940000Y-138515659D01*
X154940001Y-138515659D01*
X154998966Y-138510500D01*
X155175408Y-138495063D01*
X155403663Y-138433903D01*
X155617830Y-138334035D01*
X155811401Y-138198495D01*
X155978495Y-138031401D01*
X156108424Y-137845842D01*
X156163002Y-137802217D01*
X156232500Y-137795023D01*
X156294855Y-137826546D01*
X156311575Y-137845842D01*
X156441500Y-138031395D01*
X156441505Y-138031401D01*
X156608599Y-138198495D01*
X156705384Y-138266265D01*
X156802165Y-138334032D01*
X156802167Y-138334033D01*
X156802170Y-138334035D01*
X157016337Y-138433903D01*
X157244592Y-138495063D01*
X157421034Y-138510500D01*
X157479999Y-138515659D01*
X157480000Y-138515659D01*
X157480001Y-138515659D01*
X157538966Y-138510500D01*
X157715408Y-138495063D01*
X157943663Y-138433903D01*
X158157830Y-138334035D01*
X158351401Y-138198495D01*
X158518495Y-138031401D01*
X158648424Y-137845842D01*
X158703002Y-137802217D01*
X158772500Y-137795023D01*
X158834855Y-137826546D01*
X158851575Y-137845842D01*
X158981500Y-138031395D01*
X158981505Y-138031401D01*
X159148599Y-138198495D01*
X159245384Y-138266265D01*
X159342165Y-138334032D01*
X159342167Y-138334033D01*
X159342170Y-138334035D01*
X159556337Y-138433903D01*
X159784592Y-138495063D01*
X159961034Y-138510500D01*
X160019999Y-138515659D01*
X160020000Y-138515659D01*
X160020001Y-138515659D01*
X160078966Y-138510500D01*
X160255408Y-138495063D01*
X160483663Y-138433903D01*
X160697830Y-138334035D01*
X160891401Y-138198495D01*
X161058495Y-138031401D01*
X161188424Y-137845842D01*
X161243002Y-137802217D01*
X161312500Y-137795023D01*
X161374855Y-137826546D01*
X161391575Y-137845842D01*
X161521500Y-138031395D01*
X161521505Y-138031401D01*
X161688599Y-138198495D01*
X161785384Y-138266265D01*
X161882165Y-138334032D01*
X161882167Y-138334033D01*
X161882170Y-138334035D01*
X162096337Y-138433903D01*
X162324592Y-138495063D01*
X162501034Y-138510500D01*
X162559999Y-138515659D01*
X162560000Y-138515659D01*
X162560001Y-138515659D01*
X162618966Y-138510500D01*
X162795408Y-138495063D01*
X163023663Y-138433903D01*
X163237830Y-138334035D01*
X163431401Y-138198495D01*
X163598495Y-138031401D01*
X163734035Y-137837830D01*
X163833903Y-137623663D01*
X163895063Y-137395408D01*
X163915659Y-137160000D01*
X163895063Y-136924592D01*
X163833903Y-136696337D01*
X163734035Y-136482171D01*
X163728731Y-136474595D01*
X163598494Y-136288597D01*
X163431402Y-136121506D01*
X163431395Y-136121501D01*
X163416929Y-136111372D01*
X163354518Y-136067671D01*
X163237834Y-135985967D01*
X163237830Y-135985965D01*
X163216100Y-135975832D01*
X163023663Y-135886097D01*
X163023659Y-135886096D01*
X163023655Y-135886094D01*
X162795413Y-135824938D01*
X162795403Y-135824936D01*
X162560001Y-135804341D01*
X162559999Y-135804341D01*
X162324596Y-135824936D01*
X162324586Y-135824938D01*
X162096344Y-135886094D01*
X162096335Y-135886098D01*
X161882171Y-135985964D01*
X161882169Y-135985965D01*
X161688597Y-136121505D01*
X161521505Y-136288597D01*
X161391575Y-136474158D01*
X161336998Y-136517783D01*
X161267500Y-136524977D01*
X161205145Y-136493454D01*
X161188425Y-136474158D01*
X161058494Y-136288597D01*
X160891402Y-136121506D01*
X160891395Y-136121501D01*
X160876929Y-136111372D01*
X160814518Y-136067671D01*
X160697834Y-135985967D01*
X160697830Y-135985965D01*
X160676100Y-135975832D01*
X160483663Y-135886097D01*
X160483659Y-135886096D01*
X160483655Y-135886094D01*
X160255413Y-135824938D01*
X160255403Y-135824936D01*
X160020001Y-135804341D01*
X160019999Y-135804341D01*
X159784596Y-135824936D01*
X159784586Y-135824938D01*
X159556344Y-135886094D01*
X159556335Y-135886098D01*
X159342171Y-135985964D01*
X159342169Y-135985965D01*
X159148597Y-136121505D01*
X158981508Y-136288594D01*
X158851574Y-136474160D01*
X158796997Y-136517784D01*
X158727498Y-136524977D01*
X158665144Y-136493455D01*
X158648429Y-136474164D01*
X158530807Y-136306183D01*
X158518493Y-136288596D01*
X158351402Y-136121506D01*
X158351395Y-136121501D01*
X158336929Y-136111372D01*
X158274518Y-136067671D01*
X158157834Y-135985967D01*
X158157830Y-135985965D01*
X158136100Y-135975832D01*
X157943663Y-135886097D01*
X157943659Y-135886096D01*
X157943655Y-135886094D01*
X157715413Y-135824938D01*
X157715403Y-135824936D01*
X157480001Y-135804341D01*
X157479999Y-135804341D01*
X157244596Y-135824936D01*
X157244586Y-135824938D01*
X157016344Y-135886094D01*
X157016335Y-135886098D01*
X156802171Y-135985964D01*
X156802169Y-135985965D01*
X156608597Y-136121505D01*
X156441505Y-136288597D01*
X156311575Y-136474158D01*
X156256998Y-136517783D01*
X156187500Y-136524977D01*
X156125145Y-136493454D01*
X156108425Y-136474158D01*
X155978494Y-136288597D01*
X155811402Y-136121506D01*
X155811395Y-136121501D01*
X155796929Y-136111372D01*
X155734518Y-136067671D01*
X155617834Y-135985967D01*
X155617830Y-135985965D01*
X155596100Y-135975832D01*
X155403663Y-135886097D01*
X155403659Y-135886096D01*
X155403655Y-135886094D01*
X155175413Y-135824938D01*
X155175403Y-135824936D01*
X154940001Y-135804341D01*
X154939999Y-135804341D01*
X154704596Y-135824936D01*
X154704586Y-135824938D01*
X154476344Y-135886094D01*
X154476335Y-135886098D01*
X154262171Y-135985964D01*
X154262169Y-135985965D01*
X154068597Y-136121505D01*
X153901508Y-136288594D01*
X153771269Y-136474595D01*
X153716692Y-136518219D01*
X153647193Y-136525412D01*
X153584839Y-136493890D01*
X153568119Y-136474594D01*
X153438113Y-136288926D01*
X153438108Y-136288920D01*
X153271082Y-136121894D01*
X153077578Y-135986399D01*
X152863492Y-135886570D01*
X152863486Y-135886567D01*
X152650000Y-135829364D01*
X152650000Y-136547698D01*
X152630315Y-136614737D01*
X152577511Y-136660492D01*
X152508355Y-136670436D01*
X152435766Y-136660000D01*
X152435763Y-136660000D01*
X152364237Y-136660000D01*
X152364233Y-136660000D01*
X152291645Y-136670436D01*
X152222487Y-136660492D01*
X152169684Y-136614736D01*
X152150000Y-136547698D01*
X152150000Y-135829364D01*
X152149999Y-135829364D01*
X151936513Y-135886567D01*
X151936507Y-135886570D01*
X151722422Y-135986399D01*
X151722420Y-135986400D01*
X151528926Y-136121886D01*
X151406865Y-136243947D01*
X151345542Y-136277431D01*
X151275850Y-136272447D01*
X151219917Y-136230575D01*
X151203002Y-136199598D01*
X151153797Y-136067671D01*
X151153793Y-136067664D01*
X151067547Y-135952455D01*
X151067544Y-135952452D01*
X150952335Y-135866206D01*
X150952328Y-135866202D01*
X150817482Y-135815908D01*
X150817483Y-135815908D01*
X150757883Y-135809501D01*
X150757881Y-135809500D01*
X150757873Y-135809500D01*
X150757864Y-135809500D01*
X148962129Y-135809500D01*
X148962123Y-135809501D01*
X148902516Y-135815908D01*
X148767671Y-135866202D01*
X148767664Y-135866206D01*
X148652455Y-135952452D01*
X148652452Y-135952455D01*
X148566206Y-136067664D01*
X148566202Y-136067671D01*
X148515908Y-136202517D01*
X148509501Y-136262116D01*
X148509500Y-136262135D01*
X148509500Y-138057870D01*
X109220500Y-138057870D01*
X109220500Y-134620000D01*
X118474540Y-134620000D01*
X118494326Y-134808256D01*
X118494327Y-134808259D01*
X118552818Y-134988277D01*
X118552821Y-134988284D01*
X118647467Y-135152216D01*
X118749185Y-135265185D01*
X118774129Y-135292888D01*
X118927265Y-135404148D01*
X118927270Y-135404151D01*
X119100192Y-135481142D01*
X119100197Y-135481144D01*
X119285354Y-135520500D01*
X119285355Y-135520500D01*
X119474644Y-135520500D01*
X119474646Y-135520500D01*
X119659803Y-135481144D01*
X119832730Y-135404151D01*
X119985871Y-135292888D01*
X120112533Y-135152216D01*
X120207179Y-134988284D01*
X120265674Y-134808256D01*
X120285460Y-134620000D01*
X146414540Y-134620000D01*
X146434326Y-134808256D01*
X146434327Y-134808259D01*
X146492818Y-134988277D01*
X146492821Y-134988284D01*
X146587467Y-135152216D01*
X146689185Y-135265185D01*
X146714129Y-135292888D01*
X146867265Y-135404148D01*
X146867270Y-135404151D01*
X147040192Y-135481142D01*
X147040197Y-135481144D01*
X147225354Y-135520500D01*
X147225355Y-135520500D01*
X147414644Y-135520500D01*
X147414646Y-135520500D01*
X147599803Y-135481144D01*
X147772730Y-135404151D01*
X147925871Y-135292888D01*
X147928788Y-135289647D01*
X147931600Y-135286526D01*
X147991087Y-135249879D01*
X148023748Y-135245500D01*
X156776252Y-135245500D01*
X156843291Y-135265185D01*
X156868400Y-135286526D01*
X156874126Y-135292885D01*
X156874130Y-135292889D01*
X157027265Y-135404148D01*
X157027270Y-135404151D01*
X157200192Y-135481142D01*
X157200197Y-135481144D01*
X157385354Y-135520500D01*
X157385355Y-135520500D01*
X157574644Y-135520500D01*
X157574646Y-135520500D01*
X157759803Y-135481144D01*
X157932730Y-135404151D01*
X158085871Y-135292888D01*
X158212533Y-135152216D01*
X158307179Y-134988284D01*
X158365674Y-134808256D01*
X158385460Y-134620000D01*
X158365674Y-134431744D01*
X158307179Y-134251716D01*
X158212533Y-134087784D01*
X158122114Y-133987364D01*
X190890321Y-133987364D01*
X190890322Y-134537338D01*
X191626975Y-134537338D01*
X191694014Y-134557023D01*
X191739769Y-134609827D01*
X191749713Y-134678985D01*
X191745953Y-134696271D01*
X191740322Y-134715449D01*
X191740322Y-134859226D01*
X191745953Y-134878405D01*
X191745952Y-134948274D01*
X191708177Y-135007052D01*
X191644621Y-135036076D01*
X191626975Y-135037338D01*
X190890323Y-135037338D01*
X190890323Y-135587324D01*
X190900816Y-135690035D01*
X190955963Y-135856457D01*
X190955965Y-135856462D01*
X191048006Y-136005683D01*
X191171976Y-136129653D01*
X191321197Y-136221694D01*
X191321202Y-136221696D01*
X191487624Y-136276843D01*
X191487631Y-136276844D01*
X191590341Y-136287337D01*
X191990321Y-136287337D01*
X191990322Y-136287336D01*
X191990322Y-135399639D01*
X192010007Y-135332600D01*
X192062811Y-135286845D01*
X192131969Y-135276901D01*
X192204559Y-135287338D01*
X192204560Y-135287338D01*
X192276084Y-135287338D01*
X192276085Y-135287338D01*
X192348675Y-135276901D01*
X192417834Y-135286845D01*
X192470637Y-135332600D01*
X192490322Y-135399639D01*
X192490322Y-136287337D01*
X192890294Y-136287337D01*
X192890308Y-136287336D01*
X192993019Y-136276843D01*
X193159441Y-136221696D01*
X193159446Y-136221694D01*
X193308667Y-136129653D01*
X193432637Y-136005683D01*
X193528137Y-135850854D01*
X193580085Y-135804130D01*
X193649048Y-135792907D01*
X193713130Y-135820751D01*
X193721357Y-135828269D01*
X193868921Y-135975833D01*
X193868924Y-135975835D01*
X193868925Y-135975836D01*
X194062487Y-136111370D01*
X194062489Y-136111371D01*
X194062492Y-136111373D01*
X194276659Y-136211241D01*
X194276665Y-136211242D01*
X194276666Y-136211243D01*
X194315678Y-136221696D01*
X194504914Y-136272401D01*
X194690031Y-136288597D01*
X194740321Y-136292997D01*
X194740322Y-136292997D01*
X194740323Y-136292997D01*
X194779556Y-136289564D01*
X194975730Y-136272401D01*
X195203985Y-136211241D01*
X195418151Y-136111373D01*
X195611723Y-135975833D01*
X195778817Y-135808739D01*
X195914357Y-135615167D01*
X196014225Y-135401001D01*
X196075385Y-135172746D01*
X196090822Y-134996304D01*
X196090822Y-134578372D01*
X196075385Y-134401930D01*
X196014225Y-134173675D01*
X195914357Y-133959509D01*
X195910132Y-133953474D01*
X195778816Y-133765935D01*
X195611724Y-133598844D01*
X195611717Y-133598839D01*
X195418156Y-133463305D01*
X195418152Y-133463303D01*
X195378948Y-133445022D01*
X195203985Y-133363435D01*
X195203981Y-133363434D01*
X195203977Y-133363432D01*
X194975735Y-133302276D01*
X194975725Y-133302274D01*
X194740323Y-133281679D01*
X194740321Y-133281679D01*
X194504918Y-133302274D01*
X194504908Y-133302276D01*
X194276666Y-133363432D01*
X194276657Y-133363436D01*
X194062493Y-133463302D01*
X194062491Y-133463303D01*
X193868919Y-133598843D01*
X193721357Y-133746406D01*
X193660034Y-133779891D01*
X193590342Y-133774907D01*
X193534409Y-133733035D01*
X193528137Y-133723822D01*
X193432637Y-133568992D01*
X193308667Y-133445022D01*
X193159446Y-133352981D01*
X193159441Y-133352979D01*
X192993019Y-133297832D01*
X192993012Y-133297831D01*
X192890308Y-133287338D01*
X192490322Y-133287338D01*
X192490322Y-134175036D01*
X192470637Y-134242075D01*
X192417833Y-134287830D01*
X192348677Y-134297774D01*
X192276088Y-134287338D01*
X192276085Y-134287338D01*
X192204559Y-134287338D01*
X192204555Y-134287338D01*
X192131967Y-134297774D01*
X192062809Y-134287830D01*
X192010006Y-134242074D01*
X191990322Y-134175036D01*
X191990322Y-133287338D01*
X191590350Y-133287338D01*
X191590334Y-133287339D01*
X191487624Y-133297832D01*
X191321202Y-133352979D01*
X191321197Y-133352981D01*
X191171976Y-133445022D01*
X191048006Y-133568992D01*
X190955965Y-133718213D01*
X190955963Y-133718218D01*
X190900816Y-133884640D01*
X190900815Y-133884647D01*
X190890322Y-133987351D01*
X190890321Y-133987364D01*
X158122114Y-133987364D01*
X158085871Y-133947112D01*
X158085870Y-133947111D01*
X157932734Y-133835851D01*
X157932729Y-133835848D01*
X157759807Y-133758857D01*
X157759802Y-133758855D01*
X157614001Y-133727865D01*
X157574646Y-133719500D01*
X157385354Y-133719500D01*
X157352897Y-133726398D01*
X157200197Y-133758855D01*
X157200192Y-133758857D01*
X157027270Y-133835848D01*
X157027265Y-133835851D01*
X156874130Y-133947110D01*
X156874126Y-133947114D01*
X156868400Y-133953474D01*
X156808913Y-133990121D01*
X156776252Y-133994500D01*
X148023748Y-133994500D01*
X147956709Y-133974815D01*
X147931600Y-133953474D01*
X147925873Y-133947114D01*
X147925869Y-133947110D01*
X147772734Y-133835851D01*
X147772729Y-133835848D01*
X147599807Y-133758857D01*
X147599802Y-133758855D01*
X147454000Y-133727865D01*
X147414646Y-133719500D01*
X147225354Y-133719500D01*
X147192897Y-133726398D01*
X147040197Y-133758855D01*
X147040192Y-133758857D01*
X146867270Y-133835848D01*
X146867265Y-133835851D01*
X146714129Y-133947111D01*
X146587466Y-134087785D01*
X146492821Y-134251715D01*
X146492818Y-134251722D01*
X146434327Y-134431740D01*
X146434326Y-134431744D01*
X146414540Y-134620000D01*
X120285460Y-134620000D01*
X120265674Y-134431744D01*
X120207179Y-134251716D01*
X120112533Y-134087784D01*
X120037350Y-134004284D01*
X120007120Y-133941292D01*
X120005500Y-133921312D01*
X120005500Y-132080000D01*
X146414540Y-132080000D01*
X146434326Y-132268256D01*
X146434327Y-132268259D01*
X146492818Y-132448277D01*
X146492821Y-132448284D01*
X146587467Y-132612216D01*
X146689185Y-132725185D01*
X146714129Y-132752888D01*
X146867265Y-132864148D01*
X146867270Y-132864151D01*
X147040192Y-132941142D01*
X147040197Y-132941144D01*
X147225354Y-132980500D01*
X147225355Y-132980500D01*
X147414644Y-132980500D01*
X147414646Y-132980500D01*
X147599803Y-132941144D01*
X147772730Y-132864151D01*
X147925871Y-132752888D01*
X147928788Y-132749647D01*
X147931600Y-132746526D01*
X147991087Y-132709879D01*
X148023748Y-132705500D01*
X154236252Y-132705500D01*
X154303291Y-132725185D01*
X154328400Y-132746526D01*
X154334126Y-132752885D01*
X154334130Y-132752889D01*
X154487265Y-132864148D01*
X154487270Y-132864151D01*
X154660192Y-132941142D01*
X154660197Y-132941144D01*
X154845354Y-132980500D01*
X154845355Y-132980500D01*
X155034644Y-132980500D01*
X155034646Y-132980500D01*
X155219803Y-132941144D01*
X155392730Y-132864151D01*
X155545871Y-132752888D01*
X155672533Y-132612216D01*
X155767179Y-132448284D01*
X155825674Y-132268256D01*
X155845460Y-132080000D01*
X155825674Y-131891744D01*
X155767179Y-131711716D01*
X155672533Y-131547784D01*
X155545871Y-131407112D01*
X155545870Y-131407111D01*
X155392734Y-131295851D01*
X155392729Y-131295848D01*
X155219807Y-131218857D01*
X155219802Y-131218855D01*
X155074000Y-131187865D01*
X155034646Y-131179500D01*
X154845354Y-131179500D01*
X154812897Y-131186398D01*
X154660197Y-131218855D01*
X154660192Y-131218857D01*
X154487270Y-131295848D01*
X154487265Y-131295851D01*
X154334130Y-131407110D01*
X154334126Y-131407114D01*
X154328400Y-131413474D01*
X154268913Y-131450121D01*
X154236252Y-131454500D01*
X148023748Y-131454500D01*
X147956709Y-131434815D01*
X147931600Y-131413474D01*
X147925873Y-131407114D01*
X147925869Y-131407110D01*
X147772734Y-131295851D01*
X147772729Y-131295848D01*
X147599807Y-131218857D01*
X147599802Y-131218855D01*
X147454000Y-131187865D01*
X147414646Y-131179500D01*
X147225354Y-131179500D01*
X147192897Y-131186398D01*
X147040197Y-131218855D01*
X147040192Y-131218857D01*
X146867270Y-131295848D01*
X146867265Y-131295851D01*
X146714129Y-131407111D01*
X146587466Y-131547785D01*
X146492821Y-131711715D01*
X146492818Y-131711722D01*
X146434327Y-131891740D01*
X146434326Y-131891744D01*
X146414540Y-132080000D01*
X120005500Y-132080000D01*
X120005500Y-127698687D01*
X120025185Y-127631648D01*
X120037350Y-127615715D01*
X120055891Y-127595122D01*
X120112533Y-127532216D01*
X120207179Y-127368284D01*
X120265674Y-127188256D01*
X120285460Y-127000000D01*
X120265674Y-126811744D01*
X120207179Y-126631716D01*
X120112533Y-126467784D01*
X119985871Y-126327112D01*
X119958371Y-126307132D01*
X119832734Y-126215851D01*
X119832729Y-126215848D01*
X119659807Y-126138857D01*
X119659802Y-126138855D01*
X119514001Y-126107865D01*
X119474646Y-126099500D01*
X119285354Y-126099500D01*
X119252897Y-126106398D01*
X119100197Y-126138855D01*
X119100192Y-126138857D01*
X118927270Y-126215848D01*
X118927265Y-126215851D01*
X118774129Y-126327111D01*
X118647466Y-126467785D01*
X118552821Y-126631715D01*
X118552818Y-126631722D01*
X118494327Y-126811740D01*
X118494326Y-126811744D01*
X118474540Y-127000000D01*
X118494326Y-127188256D01*
X118494327Y-127188259D01*
X118552818Y-127368277D01*
X118552821Y-127368284D01*
X118647467Y-127532216D01*
X118690772Y-127580310D01*
X118722650Y-127615715D01*
X118752880Y-127678706D01*
X118754500Y-127698687D01*
X118754500Y-133921312D01*
X118734815Y-133988351D01*
X118722650Y-134004284D01*
X118647466Y-134087784D01*
X118552821Y-134251715D01*
X118552818Y-134251722D01*
X118494327Y-134431740D01*
X118494326Y-134431744D01*
X118474540Y-134620000D01*
X109220500Y-134620000D01*
X109220500Y-116916358D01*
X131077242Y-116916358D01*
X131113140Y-117116648D01*
X131113142Y-117116654D01*
X131188623Y-117305616D01*
X131188629Y-117305628D01*
X131300596Y-117475517D01*
X131300599Y-117475521D01*
X140876016Y-127050936D01*
X144063547Y-130238467D01*
X144124941Y-130303053D01*
X144124944Y-130303055D01*
X144124947Y-130303058D01*
X144159053Y-130326795D01*
X144175303Y-130338106D01*
X144179044Y-130340926D01*
X144226593Y-130379698D01*
X144257045Y-130395604D01*
X144263756Y-130399671D01*
X144291951Y-130419295D01*
X144348332Y-130443490D01*
X144352567Y-130445501D01*
X144406951Y-130473909D01*
X144439973Y-130483356D01*
X144447365Y-130485989D01*
X144478940Y-130499539D01*
X144478941Y-130499540D01*
X144492054Y-130502234D01*
X144539055Y-130511892D01*
X144543595Y-130513006D01*
X144602582Y-130529886D01*
X144636841Y-130532494D01*
X144644609Y-130533585D01*
X144678255Y-130540500D01*
X144678259Y-130540500D01*
X144739601Y-130540500D01*
X144744308Y-130540678D01*
X144780651Y-130543446D01*
X144805475Y-130545337D01*
X144805475Y-130545336D01*
X144805476Y-130545337D01*
X144839559Y-130540996D01*
X144847389Y-130540500D01*
X165150743Y-130540500D01*
X165302439Y-130525074D01*
X165496579Y-130464162D01*
X165496580Y-130464161D01*
X165496588Y-130464159D01*
X165674502Y-130365409D01*
X165828895Y-130232866D01*
X165953448Y-130071958D01*
X166043060Y-129889271D01*
X166094063Y-129692285D01*
X166104369Y-129489064D01*
X166073556Y-129287929D01*
X166002886Y-129097113D01*
X165895252Y-128924429D01*
X165755059Y-128776947D01*
X165656587Y-128708409D01*
X165588050Y-128660705D01*
X165401056Y-128580459D01*
X165201741Y-128539500D01*
X149961741Y-128539500D01*
X145245783Y-128539500D01*
X145178744Y-128519815D01*
X145158102Y-128503181D01*
X143705857Y-127050936D01*
X156475631Y-127050936D01*
X156506442Y-127252063D01*
X156506445Y-127252075D01*
X156577111Y-127442881D01*
X156577115Y-127442888D01*
X156684745Y-127615567D01*
X156684747Y-127615569D01*
X156684748Y-127615571D01*
X156824941Y-127763053D01*
X156953344Y-127852424D01*
X156991949Y-127879294D01*
X156991950Y-127879294D01*
X156991951Y-127879295D01*
X157178942Y-127959540D01*
X157378259Y-128000500D01*
X162610743Y-128000500D01*
X162762439Y-127985074D01*
X162956579Y-127924162D01*
X162956580Y-127924161D01*
X162956588Y-127924159D01*
X163134502Y-127825409D01*
X163288895Y-127692866D01*
X163413448Y-127531958D01*
X163503060Y-127349271D01*
X163554063Y-127152285D01*
X163564369Y-126949064D01*
X163533556Y-126747929D01*
X163462886Y-126557113D01*
X163355252Y-126384429D01*
X163215059Y-126236947D01*
X163074129Y-126138857D01*
X163048050Y-126120705D01*
X162861056Y-126040459D01*
X162661741Y-125999500D01*
X157429258Y-125999500D01*
X157429257Y-125999500D01*
X157277560Y-126014925D01*
X157083420Y-126075837D01*
X157083405Y-126075844D01*
X156905500Y-126174589D01*
X156905495Y-126174592D01*
X156751106Y-126307132D01*
X156751104Y-126307134D01*
X156626554Y-126468037D01*
X156626553Y-126468040D01*
X156536940Y-126650728D01*
X156485937Y-126847714D01*
X156475631Y-127050936D01*
X143705857Y-127050936D01*
X132751582Y-116096662D01*
X132669105Y-116029410D01*
X132633407Y-116000302D01*
X132453049Y-115906091D01*
X132370659Y-115882516D01*
X132293257Y-115860368D01*
X132257418Y-115850113D01*
X132257417Y-115850112D01*
X132257416Y-115850112D01*
X132054525Y-115834662D01*
X132054522Y-115834662D01*
X131852678Y-115860368D01*
X131852670Y-115860370D01*
X131660129Y-115926183D01*
X131660117Y-115926189D01*
X131484778Y-116029406D01*
X131484771Y-116029411D01*
X131333787Y-116165820D01*
X131333787Y-116165821D01*
X131213353Y-116329828D01*
X131213349Y-116329835D01*
X131128397Y-116514725D01*
X131128393Y-116514737D01*
X131082396Y-116712945D01*
X131077242Y-116916358D01*
X109220500Y-116916358D01*
X109220500Y-114300000D01*
X115934540Y-114300000D01*
X115954326Y-114488256D01*
X115954327Y-114488259D01*
X116012818Y-114668277D01*
X116012821Y-114668284D01*
X116107467Y-114832216D01*
X116228401Y-114966526D01*
X116234129Y-114972888D01*
X116387265Y-115084148D01*
X116387270Y-115084151D01*
X116560192Y-115161142D01*
X116560197Y-115161144D01*
X116745354Y-115200500D01*
X116745355Y-115200500D01*
X116934644Y-115200500D01*
X116934646Y-115200500D01*
X117119803Y-115161144D01*
X117292730Y-115084151D01*
X117445871Y-114972888D01*
X117448788Y-114969647D01*
X117451600Y-114966526D01*
X117511087Y-114929879D01*
X117543748Y-114925500D01*
X126929153Y-114925500D01*
X126952385Y-114927696D01*
X126953989Y-114928001D01*
X126960412Y-114929227D01*
X127017724Y-114925621D01*
X127021597Y-114925500D01*
X127039342Y-114925500D01*
X127039350Y-114925500D01*
X127056990Y-114923271D01*
X127060807Y-114922910D01*
X127118138Y-114919304D01*
X127125905Y-114916780D01*
X127148680Y-114911688D01*
X127156792Y-114910664D01*
X127210195Y-114889519D01*
X127213835Y-114888209D01*
X127268441Y-114870467D01*
X127275337Y-114866090D01*
X127296133Y-114855494D01*
X127303732Y-114852486D01*
X127350191Y-114818730D01*
X127353390Y-114816555D01*
X127401877Y-114785786D01*
X127407466Y-114779833D01*
X127424979Y-114764394D01*
X127431587Y-114759594D01*
X127468190Y-114715347D01*
X127470736Y-114712457D01*
X127510062Y-114670582D01*
X127513998Y-114663421D01*
X127527119Y-114644114D01*
X127532324Y-114637823D01*
X127556769Y-114585874D01*
X127558528Y-114582419D01*
X127586197Y-114532092D01*
X127588227Y-114524181D01*
X127596135Y-114502218D01*
X127599614Y-114494826D01*
X127610377Y-114438401D01*
X127611210Y-114434670D01*
X127625500Y-114379019D01*
X127625500Y-114370844D01*
X127627697Y-114347606D01*
X127629227Y-114339588D01*
X127625621Y-114282275D01*
X127625500Y-114278403D01*
X127625500Y-107429500D01*
X127645185Y-107362461D01*
X127697989Y-107316706D01*
X127749500Y-107305500D01*
X136456252Y-107305500D01*
X136523291Y-107325185D01*
X136548400Y-107346526D01*
X136554126Y-107352885D01*
X136554130Y-107352889D01*
X136707265Y-107464148D01*
X136707270Y-107464151D01*
X136880192Y-107541142D01*
X136880197Y-107541144D01*
X137065354Y-107580500D01*
X137065355Y-107580500D01*
X137254644Y-107580500D01*
X137254646Y-107580500D01*
X137439803Y-107541144D01*
X137612730Y-107464151D01*
X137765871Y-107352888D01*
X137892533Y-107212216D01*
X137987179Y-107048284D01*
X138045674Y-106868256D01*
X138065460Y-106680000D01*
X138045674Y-106491744D01*
X137987179Y-106311716D01*
X137892533Y-106147784D01*
X137765871Y-106007112D01*
X137765870Y-106007111D01*
X137612734Y-105895851D01*
X137612729Y-105895848D01*
X137439807Y-105818857D01*
X137439802Y-105818855D01*
X137294000Y-105787865D01*
X137254646Y-105779500D01*
X137065354Y-105779500D01*
X137032897Y-105786398D01*
X136880197Y-105818855D01*
X136880192Y-105818857D01*
X136707270Y-105895848D01*
X136707265Y-105895851D01*
X136554130Y-106007110D01*
X136554126Y-106007114D01*
X136548400Y-106013474D01*
X136488913Y-106050121D01*
X136456252Y-106054500D01*
X127070847Y-106054500D01*
X127047615Y-106052304D01*
X127039588Y-106050773D01*
X127039586Y-106050773D01*
X127030633Y-106051336D01*
X126982275Y-106054378D01*
X126978403Y-106054500D01*
X126960643Y-106054500D01*
X126943032Y-106056725D01*
X126939164Y-106057090D01*
X126907375Y-106059090D01*
X126881859Y-106060696D01*
X126874085Y-106063222D01*
X126851320Y-106068310D01*
X126843218Y-106069333D01*
X126843205Y-106069337D01*
X126789810Y-106090477D01*
X126786154Y-106091792D01*
X126731559Y-106109533D01*
X126731556Y-106109534D01*
X126724652Y-106113915D01*
X126703880Y-106124499D01*
X126696273Y-106127511D01*
X126696262Y-106127517D01*
X126649814Y-106161263D01*
X126646595Y-106163451D01*
X126598123Y-106194213D01*
X126598120Y-106194216D01*
X126592529Y-106200170D01*
X126575029Y-106215599D01*
X126568413Y-106220405D01*
X126568412Y-106220406D01*
X126531812Y-106264646D01*
X126529238Y-106267565D01*
X126489937Y-106309417D01*
X126489935Y-106309420D01*
X126485994Y-106316589D01*
X126472889Y-106335873D01*
X126467677Y-106342173D01*
X126467674Y-106342178D01*
X126443231Y-106394121D01*
X126441464Y-106397589D01*
X126413804Y-106447903D01*
X126413803Y-106447908D01*
X126411769Y-106455828D01*
X126403870Y-106477768D01*
X126400386Y-106485172D01*
X126400384Y-106485178D01*
X126389629Y-106541561D01*
X126388779Y-106545361D01*
X126374500Y-106600976D01*
X126374500Y-106609152D01*
X126372305Y-106632379D01*
X126370773Y-106640412D01*
X126374378Y-106697724D01*
X126374500Y-106701595D01*
X126374500Y-113550500D01*
X126354815Y-113617539D01*
X126302011Y-113663294D01*
X126250500Y-113674500D01*
X117543748Y-113674500D01*
X117476709Y-113654815D01*
X117451600Y-113633474D01*
X117445873Y-113627114D01*
X117445869Y-113627110D01*
X117292734Y-113515851D01*
X117292729Y-113515848D01*
X117119807Y-113438857D01*
X117119802Y-113438855D01*
X116974001Y-113407865D01*
X116934646Y-113399500D01*
X116745354Y-113399500D01*
X116712897Y-113406398D01*
X116560197Y-113438855D01*
X116560192Y-113438857D01*
X116387270Y-113515848D01*
X116387265Y-113515851D01*
X116234129Y-113627111D01*
X116107466Y-113767785D01*
X116012821Y-113931715D01*
X116012818Y-113931722D01*
X115954327Y-114111740D01*
X115954326Y-114111744D01*
X115934540Y-114300000D01*
X109220500Y-114300000D01*
X109220500Y-111760000D01*
X118474540Y-111760000D01*
X118494326Y-111948256D01*
X118494327Y-111948259D01*
X118552818Y-112128277D01*
X118552821Y-112128284D01*
X118647467Y-112292216D01*
X118749102Y-112405093D01*
X118774129Y-112432888D01*
X118927265Y-112544148D01*
X118927270Y-112544151D01*
X119100192Y-112621142D01*
X119100197Y-112621144D01*
X119285354Y-112660500D01*
X119285355Y-112660500D01*
X119474644Y-112660500D01*
X119474646Y-112660500D01*
X119659803Y-112621144D01*
X119832730Y-112544151D01*
X119985871Y-112432888D01*
X119988788Y-112429647D01*
X119991600Y-112426526D01*
X120051087Y-112389879D01*
X120083748Y-112385500D01*
X124389153Y-112385500D01*
X124412385Y-112387696D01*
X124413989Y-112388001D01*
X124420412Y-112389227D01*
X124477724Y-112385621D01*
X124481597Y-112385500D01*
X124499342Y-112385500D01*
X124499350Y-112385500D01*
X124516990Y-112383271D01*
X124520807Y-112382910D01*
X124578138Y-112379304D01*
X124585905Y-112376780D01*
X124608680Y-112371688D01*
X124616792Y-112370664D01*
X124670195Y-112349519D01*
X124673835Y-112348209D01*
X124728441Y-112330467D01*
X124735337Y-112326090D01*
X124756133Y-112315494D01*
X124763732Y-112312486D01*
X124810191Y-112278730D01*
X124813390Y-112276555D01*
X124861877Y-112245786D01*
X124867466Y-112239833D01*
X124884979Y-112224394D01*
X124891587Y-112219594D01*
X124928190Y-112175347D01*
X124930736Y-112172457D01*
X124970062Y-112130582D01*
X124973998Y-112123421D01*
X124987119Y-112104114D01*
X124992324Y-112097823D01*
X124992326Y-112097819D01*
X125016769Y-112045874D01*
X125018528Y-112042419D01*
X125046197Y-111992092D01*
X125048227Y-111984181D01*
X125056135Y-111962218D01*
X125059614Y-111954826D01*
X125070377Y-111898401D01*
X125071218Y-111894640D01*
X125085500Y-111839019D01*
X125085499Y-111830847D01*
X125087697Y-111807603D01*
X125089227Y-111799588D01*
X125085620Y-111742276D01*
X125085499Y-111738400D01*
X125085500Y-104889500D01*
X125105185Y-104822461D01*
X125157989Y-104776706D01*
X125209500Y-104765500D01*
X133916252Y-104765500D01*
X133983291Y-104785185D01*
X134008400Y-104806526D01*
X134014126Y-104812885D01*
X134014130Y-104812889D01*
X134167265Y-104924148D01*
X134167270Y-104924151D01*
X134340192Y-105001142D01*
X134340197Y-105001144D01*
X134525354Y-105040500D01*
X134525355Y-105040500D01*
X134714644Y-105040500D01*
X134714646Y-105040500D01*
X134899803Y-105001144D01*
X135072730Y-104924151D01*
X135225871Y-104812888D01*
X135352533Y-104672216D01*
X135447179Y-104508284D01*
X135505674Y-104328256D01*
X135525460Y-104140000D01*
X135505674Y-103951744D01*
X135447179Y-103771716D01*
X135352533Y-103607784D01*
X135225871Y-103467112D01*
X135225870Y-103467111D01*
X135072734Y-103355851D01*
X135072729Y-103355848D01*
X134899807Y-103278857D01*
X134899802Y-103278855D01*
X134754000Y-103247865D01*
X134714646Y-103239500D01*
X134525354Y-103239500D01*
X134492897Y-103246398D01*
X134340197Y-103278855D01*
X134340192Y-103278857D01*
X134167270Y-103355848D01*
X134167265Y-103355851D01*
X134014130Y-103467110D01*
X134014126Y-103467114D01*
X134008400Y-103473474D01*
X133948913Y-103510121D01*
X133916252Y-103514500D01*
X124530847Y-103514500D01*
X124507615Y-103512304D01*
X124499588Y-103510773D01*
X124499586Y-103510773D01*
X124490633Y-103511336D01*
X124442275Y-103514378D01*
X124438403Y-103514500D01*
X124420643Y-103514500D01*
X124403032Y-103516725D01*
X124399164Y-103517090D01*
X124367375Y-103519090D01*
X124341859Y-103520696D01*
X124334085Y-103523222D01*
X124311320Y-103528310D01*
X124303218Y-103529333D01*
X124303205Y-103529337D01*
X124249810Y-103550477D01*
X124246154Y-103551792D01*
X124191559Y-103569533D01*
X124191556Y-103569534D01*
X124184652Y-103573915D01*
X124163880Y-103584499D01*
X124156273Y-103587511D01*
X124156262Y-103587517D01*
X124109814Y-103621263D01*
X124106595Y-103623451D01*
X124058123Y-103654213D01*
X124058120Y-103654216D01*
X124052529Y-103660170D01*
X124035029Y-103675599D01*
X124028413Y-103680405D01*
X124028412Y-103680406D01*
X123991812Y-103724646D01*
X123989238Y-103727565D01*
X123949937Y-103769417D01*
X123949935Y-103769420D01*
X123945994Y-103776589D01*
X123932889Y-103795873D01*
X123927677Y-103802173D01*
X123927674Y-103802178D01*
X123903231Y-103854121D01*
X123901464Y-103857589D01*
X123873804Y-103907903D01*
X123873803Y-103907908D01*
X123871769Y-103915828D01*
X123863870Y-103937768D01*
X123860386Y-103945172D01*
X123860384Y-103945178D01*
X123849629Y-104001561D01*
X123848779Y-104005361D01*
X123834500Y-104060976D01*
X123834500Y-104069152D01*
X123832305Y-104092379D01*
X123830773Y-104100412D01*
X123834378Y-104157724D01*
X123834500Y-104161595D01*
X123834500Y-111010500D01*
X123814815Y-111077539D01*
X123762011Y-111123294D01*
X123710500Y-111134500D01*
X120083748Y-111134500D01*
X120016709Y-111114815D01*
X119991600Y-111093474D01*
X119985873Y-111087114D01*
X119985869Y-111087110D01*
X119832734Y-110975851D01*
X119832729Y-110975848D01*
X119659807Y-110898857D01*
X119659802Y-110898855D01*
X119514000Y-110867865D01*
X119474646Y-110859500D01*
X119285354Y-110859500D01*
X119252897Y-110866398D01*
X119100197Y-110898855D01*
X119100192Y-110898857D01*
X118927270Y-110975848D01*
X118927265Y-110975851D01*
X118774129Y-111087111D01*
X118647466Y-111227785D01*
X118552821Y-111391715D01*
X118552818Y-111391722D01*
X118494327Y-111571740D01*
X118494326Y-111571744D01*
X118474540Y-111760000D01*
X109220500Y-111760000D01*
X109220500Y-109344500D01*
X109240185Y-109277461D01*
X109292989Y-109231706D01*
X109344500Y-109220500D01*
X121895240Y-109220500D01*
X121895383Y-109220528D01*
X121895384Y-109220524D01*
X121919997Y-109220539D01*
X121920000Y-109220541D01*
X121920383Y-109220383D01*
X121920500Y-109220099D01*
X121920541Y-109220000D01*
X121920540Y-109219997D01*
X121920583Y-109195889D01*
X121920500Y-109195467D01*
X121920500Y-101650936D01*
X128535631Y-101650936D01*
X128566442Y-101852063D01*
X128566445Y-101852075D01*
X128637111Y-102042881D01*
X128637115Y-102042888D01*
X128744745Y-102215567D01*
X128744747Y-102215569D01*
X128744748Y-102215571D01*
X128884941Y-102363053D01*
X129013344Y-102452424D01*
X129051949Y-102479294D01*
X129051950Y-102479294D01*
X129051951Y-102479295D01*
X129238942Y-102559540D01*
X129438259Y-102600500D01*
X141119140Y-102600500D01*
X141186179Y-102620185D01*
X141231934Y-102672989D01*
X141241878Y-102742147D01*
X141212853Y-102805703D01*
X141162473Y-102840682D01*
X141147671Y-102846202D01*
X141147664Y-102846206D01*
X141032455Y-102932452D01*
X141032452Y-102932455D01*
X140946206Y-103047664D01*
X140946202Y-103047671D01*
X140895908Y-103182517D01*
X140889501Y-103242116D01*
X140889500Y-103242135D01*
X140889500Y-105037870D01*
X140889501Y-105037876D01*
X140895908Y-105097483D01*
X140946202Y-105232328D01*
X140946206Y-105232335D01*
X141032452Y-105347544D01*
X141032455Y-105347547D01*
X141147664Y-105433793D01*
X141147671Y-105433797D01*
X141282517Y-105484091D01*
X141282516Y-105484091D01*
X141289444Y-105484835D01*
X141342127Y-105490500D01*
X143137872Y-105490499D01*
X143197483Y-105484091D01*
X143332331Y-105433796D01*
X143447546Y-105347546D01*
X143533796Y-105232331D01*
X143583002Y-105100401D01*
X143624872Y-105044468D01*
X143690337Y-105020050D01*
X143758610Y-105034901D01*
X143786865Y-105056053D01*
X143908917Y-105178105D01*
X144102421Y-105313600D01*
X144316507Y-105413429D01*
X144316516Y-105413433D01*
X144530000Y-105470634D01*
X144530000Y-104752301D01*
X144549685Y-104685262D01*
X144602489Y-104639507D01*
X144671647Y-104629563D01*
X144744237Y-104640000D01*
X144744238Y-104640000D01*
X144815762Y-104640000D01*
X144815763Y-104640000D01*
X144888353Y-104629563D01*
X144957512Y-104639507D01*
X145010315Y-104685262D01*
X145030000Y-104752301D01*
X145030000Y-105470633D01*
X145243483Y-105413433D01*
X145243492Y-105413430D01*
X145343095Y-105366984D01*
X145412172Y-105356492D01*
X145475956Y-105385011D01*
X145514196Y-105443488D01*
X145519500Y-105479366D01*
X145519500Y-110084546D01*
X145499815Y-110151585D01*
X145483181Y-110172227D01*
X141856208Y-113799199D01*
X141843951Y-113809020D01*
X141844134Y-113809241D01*
X141838123Y-113814213D01*
X141790772Y-113864636D01*
X141769889Y-113885519D01*
X141769877Y-113885532D01*
X141765621Y-113891017D01*
X141761837Y-113895447D01*
X141729937Y-113929418D01*
X141729936Y-113929420D01*
X141720284Y-113946976D01*
X141709610Y-113963226D01*
X141697329Y-113979061D01*
X141697324Y-113979068D01*
X141678815Y-114021838D01*
X141676245Y-114027084D01*
X141653803Y-114067906D01*
X141648822Y-114087307D01*
X141642521Y-114105710D01*
X141634562Y-114124102D01*
X141634561Y-114124105D01*
X141627271Y-114170127D01*
X141626087Y-114175846D01*
X141614501Y-114220972D01*
X141614500Y-114220982D01*
X141614500Y-114241016D01*
X141612973Y-114260415D01*
X141609840Y-114280194D01*
X141609840Y-114280195D01*
X141614225Y-114326583D01*
X141614500Y-114332421D01*
X141614500Y-121221312D01*
X141594815Y-121288351D01*
X141582650Y-121304284D01*
X141507466Y-121387784D01*
X141412821Y-121551715D01*
X141412818Y-121551722D01*
X141369645Y-121684596D01*
X141354326Y-121731744D01*
X141334540Y-121920000D01*
X141354326Y-122108256D01*
X141354327Y-122108259D01*
X141412818Y-122288277D01*
X141412821Y-122288284D01*
X141507467Y-122452216D01*
X141634128Y-122592887D01*
X141634129Y-122592888D01*
X141787265Y-122704148D01*
X141787270Y-122704151D01*
X141960192Y-122781142D01*
X141960197Y-122781144D01*
X142145354Y-122820500D01*
X142145355Y-122820500D01*
X142334644Y-122820500D01*
X142334646Y-122820500D01*
X142519803Y-122781144D01*
X142692730Y-122704151D01*
X142845871Y-122592888D01*
X142972533Y-122452216D01*
X143067179Y-122288284D01*
X143125674Y-122108256D01*
X143145460Y-121920000D01*
X143424341Y-121920000D01*
X143444936Y-122155403D01*
X143444938Y-122155413D01*
X143506094Y-122383655D01*
X143506096Y-122383659D01*
X143506097Y-122383663D01*
X143538063Y-122452214D01*
X143605965Y-122597830D01*
X143605967Y-122597834D01*
X143680412Y-122704151D01*
X143741505Y-122791401D01*
X143908599Y-122958495D01*
X144005384Y-123026265D01*
X144102165Y-123094032D01*
X144102167Y-123094033D01*
X144102170Y-123094035D01*
X144316337Y-123193903D01*
X144544592Y-123255063D01*
X144732918Y-123271539D01*
X144779999Y-123275659D01*
X144780000Y-123275659D01*
X144780001Y-123275659D01*
X144819234Y-123272226D01*
X145015408Y-123255063D01*
X145243663Y-123193903D01*
X145457830Y-123094035D01*
X145651401Y-122958495D01*
X145818495Y-122791401D01*
X145954035Y-122597830D01*
X146053903Y-122383663D01*
X146115063Y-122155408D01*
X146135659Y-121920000D01*
X146115063Y-121684592D01*
X146053903Y-121456337D01*
X145954035Y-121242171D01*
X145939430Y-121221312D01*
X145818494Y-121048597D01*
X145651402Y-120881506D01*
X145651401Y-120881505D01*
X145465405Y-120751269D01*
X145421781Y-120696692D01*
X145414588Y-120627193D01*
X145446110Y-120564839D01*
X145465405Y-120548119D01*
X145651082Y-120418105D01*
X145818105Y-120251082D01*
X145953600Y-120057578D01*
X146053429Y-119843492D01*
X146053432Y-119843486D01*
X146110636Y-119630000D01*
X145393347Y-119630000D01*
X145326308Y-119610315D01*
X145280553Y-119557511D01*
X145270609Y-119488353D01*
X145274369Y-119471067D01*
X145280000Y-119451888D01*
X145280000Y-119308111D01*
X145274369Y-119288933D01*
X145274370Y-119219064D01*
X145312145Y-119160286D01*
X145375701Y-119131262D01*
X145393347Y-119130000D01*
X146110636Y-119130000D01*
X146110635Y-119129999D01*
X146053432Y-118916513D01*
X146053429Y-118916507D01*
X145953600Y-118702422D01*
X145953599Y-118702420D01*
X145818113Y-118508926D01*
X145818108Y-118508920D01*
X145696053Y-118386865D01*
X145662568Y-118325542D01*
X145667552Y-118255850D01*
X145709424Y-118199917D01*
X145740400Y-118183002D01*
X145872331Y-118133796D01*
X145987546Y-118047546D01*
X146073796Y-117932331D01*
X146124091Y-117797483D01*
X146130500Y-117737873D01*
X146130500Y-116890743D01*
X159019500Y-116890743D01*
X159034925Y-117042439D01*
X159095837Y-117236579D01*
X159095844Y-117236594D01*
X159194589Y-117414499D01*
X159194592Y-117414504D01*
X159327132Y-117568893D01*
X159327134Y-117568895D01*
X159488037Y-117693445D01*
X159488038Y-117693445D01*
X159488042Y-117693448D01*
X159670729Y-117783060D01*
X159867715Y-117834063D01*
X160070936Y-117844369D01*
X160272071Y-117813556D01*
X160462887Y-117742886D01*
X160635571Y-117635252D01*
X160783053Y-117495059D01*
X160899295Y-117328049D01*
X160979540Y-117141058D01*
X161020500Y-116941741D01*
X161020500Y-116890743D01*
X161559500Y-116890743D01*
X161574925Y-117042439D01*
X161635837Y-117236579D01*
X161635844Y-117236594D01*
X161734589Y-117414499D01*
X161734592Y-117414504D01*
X161867132Y-117568893D01*
X161867134Y-117568895D01*
X162028037Y-117693445D01*
X162028038Y-117693445D01*
X162028042Y-117693448D01*
X162210729Y-117783060D01*
X162407715Y-117834063D01*
X162610936Y-117844369D01*
X162812071Y-117813556D01*
X163002887Y-117742886D01*
X163175571Y-117635252D01*
X163323053Y-117495059D01*
X163439295Y-117328049D01*
X163511550Y-117159674D01*
X163556076Y-117105833D01*
X163622644Y-117084610D01*
X163690119Y-117102745D01*
X163737078Y-117154481D01*
X163749500Y-117208577D01*
X163749500Y-117737870D01*
X163749501Y-117737876D01*
X163755908Y-117797483D01*
X163806202Y-117932328D01*
X163806206Y-117932335D01*
X163892452Y-118047544D01*
X163892455Y-118047547D01*
X164007664Y-118133793D01*
X164007671Y-118133797D01*
X164007674Y-118133798D01*
X164139598Y-118183002D01*
X164195531Y-118224873D01*
X164219949Y-118290337D01*
X164205098Y-118358610D01*
X164183947Y-118386865D01*
X164061886Y-118508926D01*
X163926400Y-118702420D01*
X163926399Y-118702422D01*
X163826570Y-118916507D01*
X163826567Y-118916513D01*
X163769364Y-119129999D01*
X163769364Y-119130000D01*
X164486653Y-119130000D01*
X164553692Y-119149685D01*
X164599447Y-119202489D01*
X164609391Y-119271647D01*
X164605631Y-119288933D01*
X164600000Y-119308111D01*
X164600000Y-119451888D01*
X164605631Y-119471067D01*
X164605630Y-119540936D01*
X164567855Y-119599714D01*
X164504299Y-119628738D01*
X164486653Y-119630000D01*
X163769364Y-119630000D01*
X163826567Y-119843486D01*
X163826570Y-119843492D01*
X163926399Y-120057578D01*
X164061894Y-120251082D01*
X164228917Y-120418105D01*
X164414595Y-120548119D01*
X164458219Y-120602696D01*
X164465412Y-120672195D01*
X164433890Y-120734549D01*
X164414595Y-120751269D01*
X164228594Y-120881508D01*
X164061505Y-121048597D01*
X163925965Y-121242169D01*
X163925964Y-121242171D01*
X163826098Y-121456335D01*
X163826094Y-121456344D01*
X163764938Y-121684586D01*
X163764936Y-121684596D01*
X163744341Y-121919999D01*
X163744341Y-121920000D01*
X163764936Y-122155403D01*
X163764938Y-122155413D01*
X163826094Y-122383655D01*
X163826096Y-122383659D01*
X163826097Y-122383663D01*
X163858063Y-122452214D01*
X163925965Y-122597830D01*
X163925967Y-122597834D01*
X164000412Y-122704151D01*
X164061505Y-122791401D01*
X164228599Y-122958495D01*
X164325384Y-123026264D01*
X164422165Y-123094032D01*
X164422167Y-123094033D01*
X164422170Y-123094035D01*
X164636337Y-123193903D01*
X164864592Y-123255063D01*
X165052918Y-123271539D01*
X165099999Y-123275659D01*
X165100000Y-123275659D01*
X165100001Y-123275659D01*
X165139234Y-123272226D01*
X165335408Y-123255063D01*
X165563663Y-123193903D01*
X165777830Y-123094035D01*
X165971401Y-122958495D01*
X166138495Y-122791401D01*
X166274035Y-122597830D01*
X166373903Y-122383663D01*
X166435063Y-122155408D01*
X166455659Y-121920000D01*
X166435063Y-121684592D01*
X166373903Y-121456337D01*
X166274035Y-121242171D01*
X166259430Y-121221312D01*
X166138494Y-121048597D01*
X165971402Y-120881506D01*
X165971401Y-120881505D01*
X165785405Y-120751269D01*
X165741781Y-120696692D01*
X165734588Y-120627193D01*
X165766110Y-120564839D01*
X165785405Y-120548119D01*
X165971082Y-120418105D01*
X166138105Y-120251082D01*
X166273600Y-120057578D01*
X166373429Y-119843492D01*
X166373432Y-119843486D01*
X166430636Y-119630000D01*
X165713347Y-119630000D01*
X165646308Y-119610315D01*
X165600553Y-119557511D01*
X165590609Y-119488353D01*
X165594369Y-119471067D01*
X165600000Y-119451888D01*
X165600000Y-119308111D01*
X165594369Y-119288933D01*
X165594370Y-119219064D01*
X165632145Y-119160286D01*
X165695701Y-119131262D01*
X165713347Y-119130000D01*
X166430636Y-119130000D01*
X166430635Y-119129999D01*
X166373432Y-118916513D01*
X166373429Y-118916507D01*
X166273600Y-118702422D01*
X166273599Y-118702420D01*
X166138113Y-118508926D01*
X166138108Y-118508920D01*
X166016053Y-118386865D01*
X165982568Y-118325542D01*
X165987552Y-118255850D01*
X166029424Y-118199917D01*
X166060400Y-118183002D01*
X166192331Y-118133796D01*
X166307546Y-118047546D01*
X166393796Y-117932331D01*
X166444091Y-117797483D01*
X166450500Y-117737873D01*
X166450499Y-116840000D01*
X166734540Y-116840000D01*
X166754326Y-117028256D01*
X166754327Y-117028259D01*
X166812818Y-117208277D01*
X166812821Y-117208284D01*
X166907467Y-117372216D01*
X167034128Y-117512888D01*
X167034129Y-117512888D01*
X167187265Y-117624148D01*
X167187270Y-117624151D01*
X167360192Y-117701142D01*
X167360197Y-117701144D01*
X167545354Y-117740500D01*
X167545355Y-117740500D01*
X167734644Y-117740500D01*
X167734646Y-117740500D01*
X167919803Y-117701144D01*
X168092730Y-117624151D01*
X168245871Y-117512888D01*
X168372533Y-117372216D01*
X168467179Y-117208284D01*
X168525674Y-117028256D01*
X168545460Y-116840000D01*
X168525674Y-116651744D01*
X168467179Y-116471716D01*
X168372533Y-116307784D01*
X168297350Y-116224284D01*
X168267120Y-116161292D01*
X168265500Y-116141312D01*
X168265500Y-97218687D01*
X168285185Y-97151648D01*
X168297350Y-97135715D01*
X168315891Y-97115122D01*
X168372533Y-97052216D01*
X168467179Y-96888284D01*
X168525674Y-96708256D01*
X168545460Y-96520000D01*
X168525674Y-96331744D01*
X168467179Y-96151716D01*
X168372533Y-95987784D01*
X168245871Y-95847112D01*
X168245870Y-95847111D01*
X168092734Y-95735851D01*
X168092729Y-95735848D01*
X167919807Y-95658857D01*
X167919802Y-95658855D01*
X167774000Y-95627865D01*
X167734646Y-95619500D01*
X167545354Y-95619500D01*
X167512897Y-95626398D01*
X167360197Y-95658855D01*
X167360192Y-95658857D01*
X167187270Y-95735848D01*
X167187265Y-95735851D01*
X167034129Y-95847111D01*
X166907466Y-95987785D01*
X166812821Y-96151715D01*
X166812818Y-96151722D01*
X166754327Y-96331740D01*
X166754326Y-96331744D01*
X166734540Y-96520000D01*
X166754326Y-96708256D01*
X166754327Y-96708259D01*
X166812818Y-96888277D01*
X166812821Y-96888284D01*
X166907467Y-97052216D01*
X166936136Y-97084056D01*
X166982650Y-97135715D01*
X167012880Y-97198706D01*
X167014500Y-97218687D01*
X167014500Y-116141312D01*
X166994815Y-116208351D01*
X166982650Y-116224284D01*
X166907466Y-116307784D01*
X166812821Y-116471715D01*
X166812818Y-116471722D01*
X166754327Y-116651740D01*
X166754326Y-116651744D01*
X166734540Y-116840000D01*
X166450499Y-116840000D01*
X166450499Y-115942128D01*
X166444091Y-115882517D01*
X166429286Y-115842824D01*
X166393797Y-115747671D01*
X166393793Y-115747664D01*
X166307547Y-115632455D01*
X166307544Y-115632452D01*
X166192335Y-115546206D01*
X166192328Y-115546202D01*
X166057482Y-115495908D01*
X166057483Y-115495908D01*
X165997883Y-115489501D01*
X165997881Y-115489500D01*
X165997873Y-115489500D01*
X165997864Y-115489500D01*
X164202129Y-115489500D01*
X164202123Y-115489501D01*
X164142516Y-115495908D01*
X164007671Y-115546202D01*
X164007664Y-115546206D01*
X163892455Y-115632452D01*
X163892452Y-115632455D01*
X163806206Y-115747664D01*
X163806202Y-115747671D01*
X163800682Y-115762473D01*
X163758811Y-115818407D01*
X163693346Y-115842824D01*
X163625073Y-115827972D01*
X163575668Y-115778567D01*
X163560500Y-115719140D01*
X163560500Y-109169256D01*
X163545074Y-109017560D01*
X163484162Y-108823420D01*
X163484160Y-108823416D01*
X163484159Y-108823412D01*
X163385409Y-108645498D01*
X163385408Y-108645497D01*
X163385407Y-108645495D01*
X163252867Y-108491106D01*
X163252865Y-108491104D01*
X163091962Y-108366554D01*
X163091959Y-108366553D01*
X163091958Y-108366552D01*
X162909271Y-108276940D01*
X162712285Y-108225937D01*
X162712287Y-108225937D01*
X162576804Y-108219066D01*
X162509064Y-108215631D01*
X162509063Y-108215631D01*
X162509061Y-108215631D01*
X162307936Y-108246442D01*
X162307924Y-108246445D01*
X162117118Y-108317111D01*
X162117111Y-108317115D01*
X161944432Y-108424745D01*
X161944427Y-108424749D01*
X161796949Y-108564938D01*
X161796948Y-108564940D01*
X161680705Y-108731949D01*
X161600459Y-108918943D01*
X161559500Y-109118258D01*
X161559500Y-116890743D01*
X161020500Y-116890743D01*
X161020500Y-109169258D01*
X161005074Y-109017562D01*
X161005074Y-109017560D01*
X160944162Y-108823420D01*
X160944160Y-108823416D01*
X160944159Y-108823412D01*
X160845409Y-108645498D01*
X160845408Y-108645497D01*
X160845407Y-108645495D01*
X160712867Y-108491106D01*
X160712865Y-108491104D01*
X160551962Y-108366554D01*
X160551959Y-108366553D01*
X160551958Y-108366552D01*
X160369271Y-108276940D01*
X160172285Y-108225937D01*
X160172287Y-108225937D01*
X160036804Y-108219066D01*
X159969064Y-108215631D01*
X159969063Y-108215631D01*
X159969061Y-108215631D01*
X159767936Y-108246442D01*
X159767924Y-108246445D01*
X159577118Y-108317111D01*
X159577111Y-108317115D01*
X159404432Y-108424745D01*
X159404427Y-108424749D01*
X159256949Y-108564938D01*
X159256948Y-108564940D01*
X159140705Y-108731949D01*
X159060459Y-108918943D01*
X159019500Y-109118258D01*
X159019500Y-116890743D01*
X146130500Y-116890743D01*
X146130499Y-115942128D01*
X146124091Y-115882517D01*
X146109286Y-115842824D01*
X146073797Y-115747671D01*
X146073793Y-115747664D01*
X145987547Y-115632455D01*
X145987544Y-115632452D01*
X145872335Y-115546206D01*
X145872328Y-115546202D01*
X145737482Y-115495908D01*
X145737483Y-115495908D01*
X145677883Y-115489501D01*
X145677881Y-115489500D01*
X145677873Y-115489500D01*
X145677864Y-115489500D01*
X143882129Y-115489500D01*
X143882123Y-115489501D01*
X143822516Y-115495908D01*
X143687671Y-115546202D01*
X143687664Y-115546206D01*
X143572455Y-115632452D01*
X143572452Y-115632455D01*
X143486206Y-115747664D01*
X143486202Y-115747671D01*
X143435908Y-115882517D01*
X143429501Y-115942116D01*
X143429501Y-115942123D01*
X143429500Y-115942135D01*
X143429500Y-117737870D01*
X143429501Y-117737876D01*
X143435908Y-117797483D01*
X143486202Y-117932328D01*
X143486206Y-117932335D01*
X143572452Y-118047544D01*
X143572455Y-118047547D01*
X143687664Y-118133793D01*
X143687671Y-118133797D01*
X143687674Y-118133798D01*
X143819598Y-118183002D01*
X143875531Y-118224873D01*
X143899949Y-118290337D01*
X143885098Y-118358610D01*
X143863947Y-118386865D01*
X143741886Y-118508926D01*
X143606400Y-118702420D01*
X143606399Y-118702422D01*
X143506570Y-118916507D01*
X143506567Y-118916513D01*
X143449364Y-119129999D01*
X143449364Y-119130000D01*
X144166653Y-119130000D01*
X144233692Y-119149685D01*
X144279447Y-119202489D01*
X144289391Y-119271647D01*
X144285631Y-119288933D01*
X144280000Y-119308111D01*
X144280000Y-119451888D01*
X144285631Y-119471067D01*
X144285630Y-119540936D01*
X144247855Y-119599714D01*
X144184299Y-119628738D01*
X144166653Y-119630000D01*
X143449364Y-119630000D01*
X143506567Y-119843486D01*
X143506570Y-119843492D01*
X143606399Y-120057578D01*
X143741894Y-120251082D01*
X143908917Y-120418105D01*
X144094595Y-120548119D01*
X144138219Y-120602696D01*
X144145412Y-120672195D01*
X144113890Y-120734549D01*
X144094595Y-120751269D01*
X143908594Y-120881508D01*
X143741505Y-121048597D01*
X143605965Y-121242169D01*
X143605964Y-121242171D01*
X143506098Y-121456335D01*
X143506094Y-121456344D01*
X143444938Y-121684586D01*
X143444936Y-121684596D01*
X143424341Y-121919999D01*
X143424341Y-121920000D01*
X143145460Y-121920000D01*
X143125674Y-121731744D01*
X143067179Y-121551716D01*
X142972533Y-121387784D01*
X142897350Y-121304284D01*
X142867120Y-121241292D01*
X142865500Y-121221312D01*
X142865500Y-114610451D01*
X142885185Y-114543412D01*
X142901814Y-114522775D01*
X144436597Y-112987992D01*
X146364824Y-112987992D01*
X146395635Y-113189119D01*
X146395638Y-113189131D01*
X146466304Y-113379937D01*
X146466306Y-113379940D01*
X146466307Y-113379943D01*
X146503028Y-113438857D01*
X146573938Y-113552623D01*
X146573942Y-113552628D01*
X146679138Y-113663294D01*
X146714134Y-113700109D01*
X146842537Y-113789480D01*
X146881142Y-113816350D01*
X146881143Y-113816350D01*
X146881144Y-113816351D01*
X147068135Y-113896596D01*
X147267452Y-113937556D01*
X148760156Y-113937556D01*
X148827195Y-113957241D01*
X148872950Y-114010045D01*
X148882894Y-114079203D01*
X148880199Y-114092630D01*
X148872051Y-114124102D01*
X148865937Y-114147714D01*
X148855631Y-114350936D01*
X148886442Y-114552063D01*
X148886445Y-114552075D01*
X148957111Y-114742881D01*
X148957113Y-114742884D01*
X148957114Y-114742887D01*
X148970517Y-114764390D01*
X149064745Y-114915567D01*
X149064747Y-114915569D01*
X149064748Y-114915571D01*
X149204941Y-115063053D01*
X149333344Y-115152424D01*
X149371949Y-115179294D01*
X149371950Y-115179294D01*
X149371951Y-115179295D01*
X149558942Y-115259540D01*
X149758259Y-115300500D01*
X157530743Y-115300500D01*
X157682439Y-115285074D01*
X157876579Y-115224162D01*
X157876580Y-115224161D01*
X157876588Y-115224159D01*
X158054502Y-115125409D01*
X158208895Y-114992866D01*
X158333448Y-114831958D01*
X158423060Y-114649271D01*
X158474063Y-114452285D01*
X158484369Y-114249064D01*
X158453556Y-114047929D01*
X158382886Y-113857113D01*
X158285024Y-113700107D01*
X158275254Y-113684432D01*
X158275250Y-113684427D01*
X158255161Y-113663294D01*
X158135059Y-113536947D01*
X157994129Y-113438857D01*
X157968050Y-113420705D01*
X157781056Y-113340459D01*
X157581741Y-113299500D01*
X154715207Y-113299500D01*
X154648168Y-113279815D01*
X154602413Y-113227011D01*
X154592469Y-113157853D01*
X154595165Y-113144419D01*
X154609426Y-113089341D01*
X154619732Y-112886120D01*
X154588919Y-112684985D01*
X154518249Y-112494169D01*
X154426465Y-112346915D01*
X154410617Y-112321488D01*
X154410613Y-112321483D01*
X154368887Y-112277588D01*
X154270422Y-112174003D01*
X154160965Y-112097819D01*
X154103413Y-112057761D01*
X153916419Y-111977515D01*
X153717104Y-111936556D01*
X147318451Y-111936556D01*
X147318450Y-111936556D01*
X147166753Y-111951981D01*
X146972613Y-112012893D01*
X146972598Y-112012900D01*
X146794693Y-112111645D01*
X146794688Y-112111648D01*
X146640299Y-112244188D01*
X146640297Y-112244190D01*
X146515747Y-112405093D01*
X146515746Y-112405096D01*
X146426133Y-112587784D01*
X146375130Y-112784770D01*
X146364824Y-112987992D01*
X144436597Y-112987992D01*
X146528788Y-110895801D01*
X146541042Y-110885986D01*
X146540859Y-110885764D01*
X146546866Y-110880792D01*
X146546877Y-110880786D01*
X146577775Y-110847882D01*
X146594227Y-110830364D01*
X146604671Y-110819918D01*
X146615120Y-110809471D01*
X146619379Y-110803978D01*
X146623152Y-110799561D01*
X146655062Y-110765582D01*
X146664715Y-110748020D01*
X146675389Y-110731770D01*
X146687673Y-110715936D01*
X146706180Y-110673167D01*
X146708749Y-110667924D01*
X146731196Y-110627093D01*
X146731197Y-110627092D01*
X146736177Y-110607691D01*
X146742478Y-110589288D01*
X146750438Y-110570896D01*
X146757730Y-110524849D01*
X146758911Y-110519152D01*
X146770500Y-110474019D01*
X146770500Y-110453983D01*
X146772027Y-110434582D01*
X146775160Y-110414804D01*
X146770775Y-110368415D01*
X146770500Y-110362577D01*
X146770500Y-105552503D01*
X146790185Y-105485464D01*
X146842989Y-105439709D01*
X146912147Y-105429765D01*
X146926593Y-105432728D01*
X146930583Y-105433797D01*
X147084592Y-105475063D01*
X147261034Y-105490500D01*
X147319999Y-105495659D01*
X147320000Y-105495659D01*
X147320001Y-105495659D01*
X147378966Y-105490500D01*
X147555408Y-105475063D01*
X147783663Y-105413903D01*
X147883098Y-105367535D01*
X147952172Y-105357044D01*
X148015956Y-105385563D01*
X148054196Y-105444040D01*
X148059500Y-105479918D01*
X148059500Y-107962255D01*
X148057775Y-107977872D01*
X148058061Y-107977899D01*
X148057326Y-107985665D01*
X148059500Y-108054814D01*
X148059500Y-108084343D01*
X148059501Y-108084360D01*
X148060368Y-108091231D01*
X148060826Y-108097050D01*
X148062290Y-108143624D01*
X148062291Y-108143627D01*
X148067880Y-108162867D01*
X148071824Y-108181911D01*
X148074336Y-108201792D01*
X148091490Y-108245119D01*
X148093382Y-108250647D01*
X148106381Y-108295388D01*
X148116580Y-108312634D01*
X148125138Y-108330103D01*
X148132514Y-108348732D01*
X148159898Y-108386423D01*
X148163106Y-108391307D01*
X148186827Y-108431416D01*
X148186833Y-108431424D01*
X148200990Y-108445580D01*
X148213627Y-108460375D01*
X148225406Y-108476587D01*
X148242955Y-108491105D01*
X148261309Y-108506288D01*
X148265620Y-108510210D01*
X148772969Y-109017560D01*
X148921038Y-109165629D01*
X148954523Y-109226952D01*
X148956678Y-109240348D01*
X148960579Y-109277461D01*
X148974326Y-109408256D01*
X148974327Y-109408259D01*
X149032818Y-109588277D01*
X149032821Y-109588284D01*
X149127467Y-109752216D01*
X149254129Y-109892887D01*
X149254129Y-109892888D01*
X149407265Y-110004148D01*
X149407270Y-110004151D01*
X149580192Y-110081142D01*
X149580197Y-110081144D01*
X149765354Y-110120500D01*
X149765355Y-110120500D01*
X149954644Y-110120500D01*
X149954646Y-110120500D01*
X150139803Y-110081144D01*
X150312730Y-110004151D01*
X150465871Y-109892888D01*
X150592533Y-109752216D01*
X150687179Y-109588284D01*
X150745674Y-109408256D01*
X150765460Y-109220000D01*
X150745674Y-109031744D01*
X150687179Y-108851716D01*
X150592533Y-108687784D01*
X150465871Y-108547112D01*
X150415095Y-108510221D01*
X150312734Y-108435851D01*
X150312729Y-108435848D01*
X150139807Y-108358857D01*
X150139802Y-108358855D01*
X149994001Y-108327865D01*
X149954646Y-108319500D01*
X149954645Y-108319500D01*
X149895452Y-108319500D01*
X149828413Y-108299815D01*
X149807771Y-108283181D01*
X149346819Y-107822228D01*
X149313334Y-107760905D01*
X149310500Y-107734547D01*
X149310500Y-105552503D01*
X149330185Y-105485464D01*
X149382989Y-105439709D01*
X149452147Y-105429765D01*
X149466593Y-105432728D01*
X149470583Y-105433797D01*
X149624592Y-105475063D01*
X149801034Y-105490500D01*
X149859999Y-105495659D01*
X149860000Y-105495659D01*
X149860001Y-105495659D01*
X149918966Y-105490500D01*
X150095408Y-105475063D01*
X150323663Y-105413903D01*
X150537830Y-105314035D01*
X150731401Y-105178495D01*
X150898495Y-105011401D01*
X151028426Y-104825841D01*
X151083002Y-104782217D01*
X151152500Y-104775023D01*
X151214855Y-104806546D01*
X151231575Y-104825842D01*
X151361500Y-105011395D01*
X151361505Y-105011401D01*
X151528599Y-105178495D01*
X151625384Y-105246265D01*
X151722165Y-105314032D01*
X151722167Y-105314033D01*
X151722170Y-105314035D01*
X151936337Y-105413903D01*
X152164592Y-105475063D01*
X152341034Y-105490500D01*
X152399999Y-105495659D01*
X152400000Y-105495659D01*
X152400001Y-105495659D01*
X152458966Y-105490500D01*
X152635408Y-105475063D01*
X152863663Y-105413903D01*
X153077830Y-105314035D01*
X153271401Y-105178495D01*
X153438495Y-105011401D01*
X153568426Y-104825841D01*
X153623002Y-104782217D01*
X153692500Y-104775023D01*
X153754855Y-104806546D01*
X153771575Y-104825842D01*
X153901500Y-105011395D01*
X153901505Y-105011401D01*
X154068599Y-105178495D01*
X154165384Y-105246265D01*
X154262165Y-105314032D01*
X154262167Y-105314033D01*
X154262170Y-105314035D01*
X154476337Y-105413903D01*
X154704592Y-105475063D01*
X154881034Y-105490500D01*
X154939999Y-105495659D01*
X154940000Y-105495659D01*
X154940001Y-105495659D01*
X154998966Y-105490500D01*
X155175408Y-105475063D01*
X155403663Y-105413903D01*
X155617830Y-105314035D01*
X155811401Y-105178495D01*
X155978495Y-105011401D01*
X156108426Y-104825841D01*
X156163002Y-104782217D01*
X156232500Y-104775023D01*
X156294855Y-104806546D01*
X156311575Y-104825842D01*
X156441500Y-105011395D01*
X156441505Y-105011401D01*
X156608599Y-105178495D01*
X156705384Y-105246265D01*
X156802165Y-105314032D01*
X156802167Y-105314033D01*
X156802170Y-105314035D01*
X157016337Y-105413903D01*
X157244592Y-105475063D01*
X157421034Y-105490500D01*
X157479999Y-105495659D01*
X157480000Y-105495659D01*
X157480001Y-105495659D01*
X157538966Y-105490500D01*
X157715408Y-105475063D01*
X157943663Y-105413903D01*
X158157830Y-105314035D01*
X158351401Y-105178495D01*
X158518495Y-105011401D01*
X158648426Y-104825841D01*
X158703002Y-104782217D01*
X158772500Y-104775023D01*
X158834855Y-104806546D01*
X158851575Y-104825842D01*
X158981500Y-105011395D01*
X158981505Y-105011401D01*
X159148599Y-105178495D01*
X159245384Y-105246264D01*
X159342165Y-105314032D01*
X159342167Y-105314033D01*
X159342170Y-105314035D01*
X159556337Y-105413903D01*
X159784592Y-105475063D01*
X159961034Y-105490500D01*
X160019999Y-105495659D01*
X160020000Y-105495659D01*
X160020001Y-105495659D01*
X160078966Y-105490500D01*
X160255408Y-105475063D01*
X160483663Y-105413903D01*
X160697830Y-105314035D01*
X160891401Y-105178495D01*
X161058495Y-105011401D01*
X161188426Y-104825840D01*
X161243001Y-104782217D01*
X161312499Y-104775023D01*
X161374854Y-104806546D01*
X161391574Y-104825841D01*
X161521505Y-105011401D01*
X161688599Y-105178495D01*
X161785384Y-105246264D01*
X161882165Y-105314032D01*
X161882167Y-105314033D01*
X161882170Y-105314035D01*
X162096337Y-105413903D01*
X162324592Y-105475063D01*
X162501034Y-105490500D01*
X162559999Y-105495659D01*
X162560000Y-105495659D01*
X162560001Y-105495659D01*
X162618966Y-105490500D01*
X162795408Y-105475063D01*
X163023663Y-105413903D01*
X163237830Y-105314035D01*
X163431401Y-105178495D01*
X163598495Y-105011401D01*
X163728426Y-104825841D01*
X163783002Y-104782217D01*
X163852500Y-104775023D01*
X163914855Y-104806546D01*
X163931575Y-104825842D01*
X164061500Y-105011395D01*
X164061505Y-105011401D01*
X164228599Y-105178495D01*
X164325384Y-105246264D01*
X164422165Y-105314032D01*
X164422167Y-105314033D01*
X164422170Y-105314035D01*
X164636337Y-105413903D01*
X164864592Y-105475063D01*
X165041034Y-105490500D01*
X165099999Y-105495659D01*
X165100000Y-105495659D01*
X165100001Y-105495659D01*
X165158966Y-105490500D01*
X165335408Y-105475063D01*
X165563663Y-105413903D01*
X165777830Y-105314035D01*
X165971401Y-105178495D01*
X166138495Y-105011401D01*
X166274035Y-104817830D01*
X166373903Y-104603663D01*
X166435063Y-104375408D01*
X166455659Y-104140000D01*
X166435063Y-103904592D01*
X166373903Y-103676337D01*
X166274035Y-103462171D01*
X166268425Y-103454158D01*
X166138494Y-103268597D01*
X165971402Y-103101506D01*
X165971395Y-103101501D01*
X165777834Y-102965967D01*
X165777830Y-102965965D01*
X165777828Y-102965964D01*
X165563663Y-102866097D01*
X165563659Y-102866096D01*
X165563655Y-102866094D01*
X165335413Y-102804938D01*
X165335403Y-102804936D01*
X165100001Y-102784341D01*
X165099999Y-102784341D01*
X164864596Y-102804936D01*
X164864586Y-102804938D01*
X164636344Y-102866094D01*
X164636337Y-102866096D01*
X164636337Y-102866097D01*
X164622816Y-102872401D01*
X164422171Y-102965964D01*
X164422169Y-102965965D01*
X164228597Y-103101505D01*
X164061505Y-103268597D01*
X163931575Y-103454158D01*
X163876998Y-103497783D01*
X163807500Y-103504977D01*
X163745145Y-103473454D01*
X163728425Y-103454158D01*
X163598494Y-103268597D01*
X163431402Y-103101506D01*
X163431395Y-103101501D01*
X163237834Y-102965967D01*
X163237830Y-102965965D01*
X163237828Y-102965964D01*
X163023663Y-102866097D01*
X163023659Y-102866096D01*
X163023655Y-102866094D01*
X162795413Y-102804938D01*
X162795403Y-102804936D01*
X162560001Y-102784341D01*
X162559999Y-102784341D01*
X162324596Y-102804936D01*
X162324586Y-102804938D01*
X162096344Y-102866094D01*
X162096337Y-102866096D01*
X162096337Y-102866097D01*
X162082816Y-102872401D01*
X161882171Y-102965964D01*
X161882169Y-102965965D01*
X161688597Y-103101505D01*
X161521505Y-103268597D01*
X161391575Y-103454158D01*
X161336998Y-103497783D01*
X161267500Y-103504977D01*
X161205145Y-103473454D01*
X161188425Y-103454158D01*
X161058494Y-103268597D01*
X160891402Y-103101506D01*
X160891395Y-103101501D01*
X160697834Y-102965967D01*
X160697830Y-102965965D01*
X160697828Y-102965964D01*
X160483663Y-102866097D01*
X160483659Y-102866096D01*
X160483655Y-102866094D01*
X160255413Y-102804938D01*
X160255403Y-102804936D01*
X160020001Y-102784341D01*
X160019999Y-102784341D01*
X159784596Y-102804936D01*
X159784586Y-102804938D01*
X159556344Y-102866094D01*
X159556337Y-102866096D01*
X159556337Y-102866097D01*
X159542816Y-102872401D01*
X159342171Y-102965964D01*
X159342169Y-102965965D01*
X159148597Y-103101505D01*
X158981505Y-103268597D01*
X158851575Y-103454158D01*
X158796998Y-103497783D01*
X158727500Y-103504977D01*
X158665145Y-103473454D01*
X158648425Y-103454158D01*
X158518494Y-103268597D01*
X158351402Y-103101506D01*
X158351395Y-103101501D01*
X158157834Y-102965967D01*
X158157830Y-102965965D01*
X158157828Y-102965964D01*
X157943663Y-102866097D01*
X157943659Y-102866096D01*
X157943655Y-102866094D01*
X157715413Y-102804938D01*
X157715403Y-102804936D01*
X157480001Y-102784341D01*
X157479999Y-102784341D01*
X157244596Y-102804936D01*
X157244586Y-102804938D01*
X157016344Y-102866094D01*
X157016337Y-102866096D01*
X157016337Y-102866097D01*
X157002816Y-102872401D01*
X156802171Y-102965964D01*
X156802169Y-102965965D01*
X156608597Y-103101505D01*
X156441508Y-103268594D01*
X156311574Y-103454159D01*
X156256997Y-103497784D01*
X156187498Y-103504976D01*
X156125144Y-103473454D01*
X156108424Y-103454158D01*
X155978494Y-103268597D01*
X155811402Y-103101506D01*
X155811395Y-103101501D01*
X155617834Y-102965967D01*
X155617830Y-102965965D01*
X155617828Y-102965964D01*
X155403663Y-102866097D01*
X155403659Y-102866096D01*
X155403655Y-102866094D01*
X155175413Y-102804938D01*
X155175403Y-102804936D01*
X154940001Y-102784341D01*
X154939999Y-102784341D01*
X154704596Y-102804936D01*
X154704586Y-102804938D01*
X154476344Y-102866094D01*
X154476337Y-102866096D01*
X154476337Y-102866097D01*
X154462816Y-102872401D01*
X154262171Y-102965964D01*
X154262169Y-102965965D01*
X154068597Y-103101505D01*
X153901505Y-103268597D01*
X153771575Y-103454158D01*
X153716998Y-103497783D01*
X153647500Y-103504977D01*
X153585145Y-103473454D01*
X153568425Y-103454158D01*
X153438494Y-103268597D01*
X153271402Y-103101506D01*
X153271395Y-103101501D01*
X153077834Y-102965967D01*
X153077830Y-102965965D01*
X153077828Y-102965964D01*
X152863663Y-102866097D01*
X152863659Y-102866096D01*
X152863655Y-102866094D01*
X152635413Y-102804938D01*
X152635403Y-102804936D01*
X152400001Y-102784341D01*
X152399999Y-102784341D01*
X152164596Y-102804936D01*
X152164586Y-102804938D01*
X151936344Y-102866094D01*
X151936337Y-102866096D01*
X151936337Y-102866097D01*
X151922816Y-102872401D01*
X151722171Y-102965964D01*
X151722169Y-102965965D01*
X151528597Y-103101505D01*
X151361505Y-103268597D01*
X151231575Y-103454158D01*
X151176998Y-103497783D01*
X151107500Y-103504977D01*
X151045145Y-103473454D01*
X151028425Y-103454158D01*
X150898494Y-103268597D01*
X150731402Y-103101506D01*
X150731395Y-103101501D01*
X150537834Y-102965967D01*
X150537830Y-102965965D01*
X150537828Y-102965964D01*
X150323663Y-102866097D01*
X150323659Y-102866096D01*
X150323655Y-102866094D01*
X150095413Y-102804938D01*
X150095403Y-102804936D01*
X149860001Y-102784341D01*
X149859999Y-102784341D01*
X149624596Y-102804936D01*
X149624583Y-102804939D01*
X149466592Y-102847271D01*
X149396742Y-102845608D01*
X149338880Y-102806445D01*
X149311377Y-102742216D01*
X149310500Y-102727496D01*
X149310500Y-91880577D01*
X159346601Y-91880577D01*
X159347171Y-91885796D01*
X159349138Y-91897985D01*
X159349138Y-91903833D01*
X159349296Y-91905282D01*
X159370478Y-98832383D01*
X159367310Y-98843295D01*
X159370226Y-98869174D01*
X159370612Y-98876066D01*
X159370616Y-98877071D01*
X159370616Y-98955952D01*
X159374861Y-98975923D01*
X159381212Y-99005804D01*
X159380380Y-99016700D01*
X159387096Y-99035893D01*
X159389219Y-99043474D01*
X159397362Y-99081782D01*
X159403416Y-99110266D01*
X159403416Y-99110267D01*
X159427602Y-99164589D01*
X159429236Y-99176777D01*
X159437558Y-99190022D01*
X159445843Y-99205558D01*
X159467583Y-99254387D01*
X159467586Y-99254392D01*
X159506863Y-99308452D01*
X159511498Y-99321444D01*
X159522167Y-99332113D01*
X159534801Y-99346905D01*
X159560314Y-99382020D01*
X159615181Y-99431422D01*
X159623167Y-99444386D01*
X159635332Y-99452030D01*
X159652332Y-99464874D01*
X159677553Y-99487583D01*
X159705789Y-99503884D01*
X159747413Y-99527917D01*
X159758836Y-99539897D01*
X159771541Y-99544343D01*
X159792588Y-99553998D01*
X159814175Y-99566461D01*
X159814176Y-99566462D01*
X159814178Y-99566462D01*
X159814179Y-99566463D01*
X159897322Y-99593477D01*
X159911991Y-99603508D01*
X159924307Y-99604896D01*
X159948741Y-99610184D01*
X159964219Y-99615214D01*
X159964231Y-99615215D01*
X159970573Y-99616564D01*
X159970551Y-99616665D01*
X159991947Y-99621464D01*
X159993108Y-99621870D01*
X160020857Y-99621167D01*
X160044009Y-99623600D01*
X160057835Y-99625054D01*
X160075286Y-99632234D01*
X160086419Y-99630980D01*
X160113267Y-99630880D01*
X160121116Y-99631705D01*
X160128964Y-99630880D01*
X160155810Y-99630980D01*
X160158691Y-99631304D01*
X160184395Y-99625054D01*
X160187647Y-99624712D01*
X160221370Y-99621167D01*
X160240918Y-99624741D01*
X160250283Y-99621465D01*
X160271680Y-99616666D01*
X160271659Y-99616564D01*
X160278001Y-99615215D01*
X160278013Y-99615214D01*
X160293497Y-99610182D01*
X160317926Y-99604895D01*
X160322418Y-99604388D01*
X160344907Y-99593478D01*
X160428053Y-99566463D01*
X160449643Y-99553997D01*
X160470691Y-99544343D01*
X160476422Y-99542337D01*
X160494819Y-99527916D01*
X160500464Y-99524657D01*
X160564679Y-99487583D01*
X160589908Y-99464865D01*
X160606905Y-99452024D01*
X160613272Y-99448023D01*
X160627049Y-99431424D01*
X160681918Y-99382020D01*
X160707434Y-99346899D01*
X160720068Y-99332107D01*
X160726315Y-99325859D01*
X160735369Y-99308451D01*
X160746419Y-99293242D01*
X160774648Y-99254388D01*
X160796396Y-99205540D01*
X160804678Y-99190013D01*
X160810003Y-99181538D01*
X160814627Y-99164592D01*
X160838816Y-99110266D01*
X160853016Y-99043456D01*
X160855137Y-99035883D01*
X160860185Y-99021455D01*
X160861020Y-99005801D01*
X160867371Y-98975923D01*
X160871616Y-98955952D01*
X160871616Y-98877071D01*
X160871616Y-98876571D01*
X160871616Y-98876112D01*
X160872006Y-98869165D01*
X160874150Y-98850130D01*
X160873589Y-98844979D01*
X160871616Y-98832748D01*
X160871616Y-98826886D01*
X160871457Y-98825433D01*
X160850274Y-91898325D01*
X160853442Y-91887412D01*
X160850528Y-91861544D01*
X160850141Y-91854657D01*
X160850138Y-91853539D01*
X160850138Y-91774759D01*
X160839541Y-91724904D01*
X160840372Y-91714009D01*
X160833658Y-91694821D01*
X160831536Y-91687244D01*
X160817338Y-91620445D01*
X160793150Y-91566120D01*
X160791516Y-91553930D01*
X160783197Y-91540691D01*
X160774917Y-91525167D01*
X160753170Y-91476323D01*
X160713888Y-91422256D01*
X160709252Y-91409262D01*
X160698584Y-91398594D01*
X160685947Y-91383799D01*
X160660440Y-91348691D01*
X160605571Y-91299286D01*
X160597584Y-91286323D01*
X160585419Y-91278679D01*
X160568418Y-91265834D01*
X160564501Y-91262307D01*
X160543201Y-91243128D01*
X160527681Y-91234168D01*
X160473337Y-91202792D01*
X160461912Y-91190810D01*
X160449205Y-91186364D01*
X160428159Y-91176709D01*
X160406578Y-91164249D01*
X160406579Y-91164249D01*
X160323429Y-91137232D01*
X160308757Y-91127199D01*
X160296439Y-91125812D01*
X160272005Y-91120523D01*
X160256542Y-91115499D01*
X160256539Y-91115498D01*
X160256535Y-91115497D01*
X160256530Y-91115496D01*
X160250181Y-91114147D01*
X160250202Y-91114045D01*
X160228813Y-91109247D01*
X160227650Y-91108840D01*
X160199897Y-91109543D01*
X160162920Y-91105657D01*
X160145467Y-91098476D01*
X160134333Y-91099731D01*
X160107497Y-91099831D01*
X160099644Y-91099006D01*
X160099638Y-91099006D01*
X160091775Y-91099832D01*
X160064941Y-91099731D01*
X160062064Y-91099407D01*
X160036355Y-91105657D01*
X159999378Y-91109544D01*
X159979829Y-91105968D01*
X159970460Y-91109247D01*
X159949073Y-91114044D01*
X159949095Y-91114147D01*
X159942743Y-91115496D01*
X159942741Y-91115497D01*
X159942738Y-91115497D01*
X159942733Y-91115499D01*
X159927274Y-91120522D01*
X159902839Y-91125811D01*
X159898346Y-91126317D01*
X159875846Y-91137232D01*
X159792697Y-91164249D01*
X159771114Y-91176710D01*
X159750072Y-91186362D01*
X159744337Y-91188368D01*
X159725937Y-91202793D01*
X159656076Y-91243127D01*
X159630854Y-91265836D01*
X159613859Y-91278676D01*
X159607485Y-91282680D01*
X159593703Y-91299287D01*
X159538836Y-91348690D01*
X159513328Y-91383799D01*
X159500694Y-91398592D01*
X159494441Y-91404844D01*
X159485387Y-91422257D01*
X159446106Y-91476323D01*
X159424365Y-91525151D01*
X159416082Y-91540681D01*
X159410751Y-91549164D01*
X159406124Y-91566121D01*
X159381938Y-91620443D01*
X159381938Y-91620444D01*
X159367744Y-91687219D01*
X159365618Y-91694812D01*
X159360568Y-91709243D01*
X159359734Y-91724907D01*
X159349138Y-91774758D01*
X159349138Y-91854585D01*
X159348748Y-91861532D01*
X159346601Y-91880577D01*
X149310500Y-91880577D01*
X149310500Y-90347742D01*
X149312224Y-90332122D01*
X149311939Y-90332096D01*
X149312671Y-90324340D01*
X149312673Y-90324333D01*
X149310500Y-90255185D01*
X149310500Y-90225650D01*
X149309631Y-90218772D01*
X149309172Y-90212943D01*
X149307709Y-90166372D01*
X149302122Y-90147144D01*
X149298174Y-90128084D01*
X149295663Y-90108204D01*
X149278512Y-90064887D01*
X149276619Y-90059358D01*
X149263618Y-90014609D01*
X149263616Y-90014606D01*
X149253423Y-89997371D01*
X149244861Y-89979894D01*
X149237487Y-89961270D01*
X149237486Y-89961268D01*
X149210079Y-89923545D01*
X149206888Y-89918686D01*
X149183172Y-89878583D01*
X149183165Y-89878574D01*
X149169006Y-89864415D01*
X149156368Y-89849619D01*
X149144594Y-89833413D01*
X149108688Y-89803709D01*
X149104376Y-89799786D01*
X140638960Y-81334369D01*
X140605475Y-81273046D01*
X140603323Y-81259668D01*
X140585674Y-81091744D01*
X140527179Y-80911716D01*
X140432533Y-80747784D01*
X140305871Y-80607112D01*
X140305870Y-80607111D01*
X140152734Y-80495851D01*
X140152729Y-80495848D01*
X139979807Y-80418857D01*
X139979802Y-80418855D01*
X139834000Y-80387865D01*
X139794646Y-80379500D01*
X139605354Y-80379500D01*
X139572897Y-80386398D01*
X139420197Y-80418855D01*
X139420192Y-80418857D01*
X139247270Y-80495848D01*
X139247265Y-80495851D01*
X139094129Y-80607111D01*
X138967466Y-80747785D01*
X138872821Y-80911715D01*
X138872818Y-80911722D01*
X138814327Y-81091740D01*
X138814326Y-81091744D01*
X138794540Y-81280000D01*
X138814326Y-81468256D01*
X138814327Y-81468259D01*
X138872818Y-81648277D01*
X138872821Y-81648284D01*
X138967467Y-81812216D01*
X139094128Y-81952888D01*
X139094129Y-81952888D01*
X139247265Y-82064148D01*
X139247270Y-82064151D01*
X139420192Y-82141142D01*
X139420197Y-82141144D01*
X139605354Y-82180500D01*
X139664548Y-82180500D01*
X139731587Y-82200185D01*
X139752229Y-82216819D01*
X148023181Y-90487771D01*
X148056666Y-90549094D01*
X148059500Y-90575452D01*
X148059500Y-90924238D01*
X148039815Y-90991277D01*
X147987011Y-91037032D01*
X147917853Y-91046976D01*
X147854297Y-91017951D01*
X147840512Y-91003945D01*
X147809429Y-90966903D01*
X147802839Y-90951847D01*
X147792337Y-90943228D01*
X147776015Y-90927082D01*
X147768344Y-90917940D01*
X147759201Y-90910269D01*
X147743050Y-90893941D01*
X147738885Y-90888865D01*
X147719357Y-90876836D01*
X147672964Y-90837909D01*
X147663051Y-90823009D01*
X147652814Y-90817538D01*
X147638925Y-90808147D01*
X147638668Y-90808516D01*
X147634232Y-90805410D01*
X147626258Y-90800806D01*
X147609902Y-90791364D01*
X147593236Y-90779829D01*
X147586232Y-90774081D01*
X147566889Y-90766531D01*
X147482614Y-90717877D01*
X147439963Y-90702355D01*
X147423919Y-90695191D01*
X147413635Y-90689694D01*
X147395460Y-90686159D01*
X147318099Y-90658005D01*
X147250956Y-90646169D01*
X147243716Y-90644439D01*
X147225413Y-90638887D01*
X147208484Y-90638681D01*
X147145695Y-90627612D01*
X147130574Y-90627612D01*
X147113669Y-90622648D01*
X147070313Y-90626918D01*
X147046007Y-90626918D01*
X147013545Y-90623721D01*
X146990895Y-90627559D01*
X146970624Y-90627560D01*
X146970615Y-90627561D01*
X146908945Y-90638438D01*
X146896830Y-90637087D01*
X146872931Y-90644337D01*
X146865695Y-90646066D01*
X146798224Y-90657965D01*
X146798210Y-90657969D01*
X146721227Y-90685991D01*
X146708033Y-90686829D01*
X146692548Y-90695107D01*
X146676512Y-90702268D01*
X146633705Y-90717850D01*
X146549512Y-90766463D01*
X146535102Y-90769959D01*
X146523132Y-90779783D01*
X146506474Y-90791313D01*
X146482092Y-90805391D01*
X146477656Y-90808498D01*
X146477402Y-90808135D01*
X146463466Y-90817557D01*
X146459896Y-90819464D01*
X146443263Y-90837974D01*
X146396922Y-90876861D01*
X146381875Y-90883446D01*
X146373261Y-90893943D01*
X146357121Y-90910261D01*
X146347993Y-90917920D01*
X146347983Y-90917931D01*
X146340321Y-90927063D01*
X146323996Y-90943211D01*
X146318920Y-90947376D01*
X146306893Y-90966903D01*
X146291176Y-90985636D01*
X146267927Y-91013344D01*
X146253030Y-91023255D01*
X146247561Y-91033488D01*
X146238191Y-91047353D01*
X146238560Y-91047611D01*
X146235455Y-91052044D01*
X146221427Y-91076343D01*
X146209893Y-91093007D01*
X146204151Y-91100003D01*
X146196608Y-91119331D01*
X146147929Y-91203651D01*
X146147928Y-91203654D01*
X146147926Y-91203658D01*
X146132420Y-91246265D01*
X146125256Y-91262307D01*
X146119772Y-91272567D01*
X146116242Y-91290716D01*
X146088053Y-91368171D01*
X146076220Y-91435281D01*
X146074491Y-91442518D01*
X146068955Y-91460768D01*
X146068751Y-91477644D01*
X146057655Y-91540580D01*
X146057655Y-91628228D01*
X146057634Y-91630574D01*
X146057357Y-91636220D01*
X146053529Y-91675088D01*
X146057036Y-91696364D01*
X145993826Y-98649390D01*
X145988794Y-98665967D01*
X145992917Y-98707834D01*
X145993216Y-98713914D01*
X145993215Y-98803517D01*
X145993215Y-98803522D01*
X146004295Y-98866360D01*
X146002972Y-98878222D01*
X146010044Y-98901537D01*
X146011773Y-98908774D01*
X146023612Y-98975920D01*
X146051810Y-99053396D01*
X146052641Y-99066489D01*
X146060816Y-99081782D01*
X146067980Y-99097825D01*
X146083486Y-99140428D01*
X146083487Y-99140430D01*
X146083488Y-99140432D01*
X146132218Y-99224836D01*
X146135704Y-99239204D01*
X146145476Y-99251112D01*
X146157007Y-99267773D01*
X146171023Y-99292049D01*
X146174129Y-99296485D01*
X146173758Y-99296744D01*
X146183115Y-99310587D01*
X146185005Y-99314124D01*
X146203472Y-99330719D01*
X146242557Y-99377298D01*
X146249135Y-99392330D01*
X146259607Y-99400924D01*
X146275926Y-99417066D01*
X146283551Y-99426153D01*
X146292629Y-99433771D01*
X146308775Y-99450093D01*
X146312920Y-99455144D01*
X146332405Y-99467145D01*
X146356762Y-99487583D01*
X146378993Y-99506237D01*
X146388899Y-99521125D01*
X146399118Y-99526588D01*
X146412965Y-99535950D01*
X146413227Y-99535578D01*
X146417660Y-99538682D01*
X146441916Y-99552686D01*
X146458582Y-99564221D01*
X146465554Y-99569943D01*
X146484849Y-99577472D01*
X146569273Y-99626214D01*
X146569275Y-99626215D01*
X146611861Y-99641714D01*
X146627907Y-99648879D01*
X146638143Y-99654350D01*
X146656261Y-99657873D01*
X146690921Y-99670488D01*
X146733776Y-99686086D01*
X146733782Y-99686088D01*
X146800894Y-99697920D01*
X146808131Y-99699649D01*
X146826368Y-99705181D01*
X146843230Y-99705385D01*
X146906183Y-99716484D01*
X146906189Y-99716485D01*
X146923126Y-99716484D01*
X146939579Y-99721315D01*
X146981568Y-99717179D01*
X147005880Y-99717179D01*
X147038225Y-99720365D01*
X147060912Y-99716520D01*
X147081256Y-99716520D01*
X147143392Y-99705562D01*
X147155403Y-99706901D01*
X147179061Y-99699725D01*
X147186283Y-99697998D01*
X147253664Y-99686116D01*
X147330847Y-99658021D01*
X147343992Y-99657186D01*
X147359389Y-99648956D01*
X147375413Y-99641800D01*
X147418173Y-99626236D01*
X147502444Y-99577579D01*
X147516833Y-99574088D01*
X147528772Y-99564291D01*
X147545431Y-99552760D01*
X147569785Y-99538699D01*
X147569789Y-99538696D01*
X147574215Y-99535597D01*
X147574472Y-99535965D01*
X147588384Y-99526556D01*
X147591935Y-99524657D01*
X147608552Y-99506168D01*
X147654983Y-99467205D01*
X147670024Y-99460622D01*
X147678628Y-99450139D01*
X147694781Y-99433810D01*
X147697628Y-99431421D01*
X147703892Y-99426165D01*
X147711545Y-99417044D01*
X147727870Y-99400896D01*
X147732932Y-99396741D01*
X147744948Y-99377233D01*
X147783961Y-99330737D01*
X147798850Y-99320831D01*
X147804316Y-99310606D01*
X147813688Y-99296746D01*
X147813316Y-99296486D01*
X147816416Y-99292057D01*
X147816421Y-99292052D01*
X147828111Y-99271802D01*
X147878678Y-99223585D01*
X147947285Y-99210361D01*
X148012150Y-99236328D01*
X148052679Y-99293242D01*
X148059500Y-99333800D01*
X148059500Y-102800081D01*
X148039815Y-102867120D01*
X147987011Y-102912875D01*
X147917853Y-102922819D01*
X147883095Y-102912463D01*
X147869499Y-102906123D01*
X147783663Y-102866097D01*
X147783659Y-102866096D01*
X147783655Y-102866094D01*
X147555413Y-102804938D01*
X147555403Y-102804936D01*
X147320001Y-102784341D01*
X147319999Y-102784341D01*
X147084596Y-102804936D01*
X147084583Y-102804939D01*
X146926592Y-102847271D01*
X146856742Y-102845608D01*
X146798880Y-102806445D01*
X146771377Y-102742216D01*
X146770500Y-102727496D01*
X146770500Y-100796577D01*
X146772224Y-100780957D01*
X146771939Y-100780930D01*
X146772673Y-100773168D01*
X146770500Y-100704007D01*
X146770500Y-100674491D01*
X146770500Y-100674485D01*
X146769631Y-100667614D01*
X146769173Y-100661787D01*
X146768503Y-100640459D01*
X146767710Y-100615208D01*
X146762119Y-100595965D01*
X146758173Y-100576913D01*
X146755664Y-100557043D01*
X146738504Y-100513702D01*
X146736624Y-100508214D01*
X146723618Y-100463445D01*
X146713422Y-100446205D01*
X146704861Y-100428729D01*
X146697487Y-100410105D01*
X146697486Y-100410103D01*
X146670079Y-100372380D01*
X146666888Y-100367521D01*
X146643172Y-100327418D01*
X146643165Y-100327409D01*
X146629006Y-100313250D01*
X146616368Y-100298454D01*
X146604594Y-100282248D01*
X146568688Y-100252544D01*
X146564376Y-100248621D01*
X142711819Y-96396063D01*
X142678334Y-96334740D01*
X142675500Y-96308382D01*
X142675500Y-94050844D01*
X142677697Y-94027606D01*
X142679227Y-94019588D01*
X142675621Y-93962275D01*
X142675500Y-93958403D01*
X142675500Y-93940650D01*
X142673270Y-93923002D01*
X142672910Y-93919191D01*
X142669304Y-93861862D01*
X142666779Y-93854092D01*
X142661687Y-93831314D01*
X142660664Y-93823208D01*
X142639520Y-93769806D01*
X142638211Y-93766170D01*
X142620467Y-93711559D01*
X142616089Y-93704661D01*
X142605495Y-93683868D01*
X142602486Y-93676268D01*
X142568736Y-93629815D01*
X142566545Y-93626592D01*
X142535786Y-93578123D01*
X142529833Y-93572533D01*
X142514398Y-93555025D01*
X142509594Y-93548413D01*
X142509591Y-93548411D01*
X142509591Y-93548410D01*
X142465361Y-93511820D01*
X142462438Y-93509243D01*
X142420585Y-93469940D01*
X142420577Y-93469934D01*
X142413415Y-93465997D01*
X142394114Y-93452880D01*
X142387824Y-93447676D01*
X142335878Y-93423232D01*
X142332417Y-93421469D01*
X142282092Y-93393803D01*
X142282089Y-93393802D01*
X142282085Y-93393800D01*
X142274174Y-93391769D01*
X142252222Y-93383866D01*
X142244825Y-93380385D01*
X142244821Y-93380384D01*
X142188444Y-93369630D01*
X142184644Y-93368780D01*
X142129023Y-93354500D01*
X142129019Y-93354500D01*
X142120847Y-93354500D01*
X142097615Y-93352304D01*
X142089588Y-93350773D01*
X142089586Y-93350773D01*
X142080633Y-93351336D01*
X142032275Y-93354378D01*
X142028403Y-93354500D01*
X132783748Y-93354500D01*
X132716709Y-93334815D01*
X132691600Y-93313474D01*
X132685873Y-93307114D01*
X132685869Y-93307110D01*
X132532734Y-93195851D01*
X132532729Y-93195848D01*
X132359807Y-93118857D01*
X132359802Y-93118855D01*
X132214001Y-93087865D01*
X132174646Y-93079500D01*
X131985354Y-93079500D01*
X131952897Y-93086398D01*
X131800197Y-93118855D01*
X131800192Y-93118857D01*
X131627270Y-93195848D01*
X131627265Y-93195851D01*
X131474129Y-93307111D01*
X131347466Y-93447785D01*
X131252821Y-93611715D01*
X131252818Y-93611722D01*
X131201450Y-93769819D01*
X131194326Y-93791744D01*
X131174540Y-93980000D01*
X131194326Y-94168256D01*
X131194327Y-94168259D01*
X131252818Y-94348277D01*
X131252821Y-94348284D01*
X131347467Y-94512216D01*
X131449185Y-94625185D01*
X131474129Y-94652888D01*
X131627265Y-94764148D01*
X131627270Y-94764151D01*
X131800192Y-94841142D01*
X131800197Y-94841144D01*
X131985354Y-94880500D01*
X131985355Y-94880500D01*
X132174644Y-94880500D01*
X132174646Y-94880500D01*
X132359803Y-94841144D01*
X132532730Y-94764151D01*
X132685871Y-94652888D01*
X132688788Y-94649647D01*
X132691600Y-94646526D01*
X132751087Y-94609879D01*
X132783748Y-94605500D01*
X141300500Y-94605500D01*
X141367539Y-94625185D01*
X141413294Y-94677989D01*
X141424500Y-94729500D01*
X141424500Y-96536090D01*
X141422775Y-96551707D01*
X141423061Y-96551734D01*
X141422326Y-96559500D01*
X141424500Y-96628649D01*
X141424500Y-96658178D01*
X141424501Y-96658195D01*
X141425368Y-96665066D01*
X141425826Y-96670885D01*
X141427290Y-96717459D01*
X141427291Y-96717462D01*
X141432880Y-96736702D01*
X141436824Y-96755746D01*
X141439336Y-96775626D01*
X141456490Y-96818954D01*
X141458382Y-96824482D01*
X141471381Y-96869223D01*
X141481580Y-96886469D01*
X141490138Y-96903938D01*
X141497514Y-96922567D01*
X141524898Y-96960258D01*
X141528106Y-96965142D01*
X141551827Y-97005251D01*
X141551833Y-97005259D01*
X141565990Y-97019415D01*
X141578628Y-97034211D01*
X141590405Y-97050421D01*
X141590406Y-97050422D01*
X141626309Y-97080123D01*
X141630620Y-97084045D01*
X145483182Y-100936607D01*
X145516666Y-100997928D01*
X145519500Y-101024286D01*
X145519500Y-102800633D01*
X145499815Y-102867672D01*
X145447011Y-102913427D01*
X145377853Y-102923371D01*
X145343096Y-102913015D01*
X145243497Y-102866571D01*
X145243486Y-102866567D01*
X145030000Y-102809364D01*
X145030000Y-103527698D01*
X145010315Y-103594737D01*
X144957511Y-103640492D01*
X144888355Y-103650436D01*
X144815766Y-103640000D01*
X144815763Y-103640000D01*
X144744237Y-103640000D01*
X144744233Y-103640000D01*
X144671645Y-103650436D01*
X144602487Y-103640492D01*
X144549684Y-103594736D01*
X144530000Y-103527698D01*
X144530000Y-102809364D01*
X144529999Y-102809364D01*
X144316513Y-102866567D01*
X144316507Y-102866570D01*
X144102422Y-102966399D01*
X144102420Y-102966400D01*
X143908926Y-103101886D01*
X143786865Y-103223947D01*
X143725542Y-103257431D01*
X143655850Y-103252447D01*
X143599917Y-103210575D01*
X143583002Y-103179598D01*
X143533797Y-103047671D01*
X143533793Y-103047664D01*
X143447547Y-102932455D01*
X143447544Y-102932452D01*
X143332335Y-102846206D01*
X143332328Y-102846202D01*
X143197482Y-102795908D01*
X143197483Y-102795908D01*
X143137883Y-102789501D01*
X143137881Y-102789500D01*
X143137873Y-102789500D01*
X143137865Y-102789500D01*
X142600314Y-102789500D01*
X142533275Y-102769815D01*
X142487520Y-102717011D01*
X142477576Y-102647853D01*
X142506601Y-102584297D01*
X142563193Y-102547187D01*
X142580158Y-102541863D01*
X142636588Y-102524159D01*
X142814502Y-102425409D01*
X142968895Y-102292866D01*
X143093448Y-102131958D01*
X143183060Y-101949271D01*
X143234063Y-101752285D01*
X143244369Y-101549064D01*
X143213556Y-101347929D01*
X143142886Y-101157113D01*
X143035252Y-100984429D01*
X142895059Y-100836947D01*
X142796587Y-100768409D01*
X142728050Y-100720705D01*
X142541056Y-100640459D01*
X142341741Y-100599500D01*
X129489258Y-100599500D01*
X129489257Y-100599500D01*
X129337560Y-100614925D01*
X129143420Y-100675837D01*
X129143405Y-100675844D01*
X128965500Y-100774589D01*
X128965495Y-100774592D01*
X128811106Y-100907132D01*
X128811104Y-100907134D01*
X128686554Y-101068037D01*
X128686553Y-101068040D01*
X128596940Y-101250728D01*
X128545937Y-101447714D01*
X128535631Y-101650936D01*
X121920500Y-101650936D01*
X121920500Y-96520000D01*
X133714540Y-96520000D01*
X133734326Y-96708256D01*
X133734327Y-96708259D01*
X133792818Y-96888277D01*
X133792821Y-96888284D01*
X133887467Y-97052216D01*
X133976996Y-97151648D01*
X134014129Y-97192888D01*
X134167265Y-97304148D01*
X134167270Y-97304151D01*
X134340192Y-97381142D01*
X134340197Y-97381144D01*
X134525354Y-97420500D01*
X134525355Y-97420500D01*
X134714644Y-97420500D01*
X134714646Y-97420500D01*
X134899803Y-97381144D01*
X135072730Y-97304151D01*
X135225871Y-97192888D01*
X135228788Y-97189647D01*
X135231600Y-97186526D01*
X135291087Y-97149879D01*
X135323748Y-97145500D01*
X138996252Y-97145500D01*
X139063291Y-97165185D01*
X139088400Y-97186526D01*
X139094126Y-97192885D01*
X139094130Y-97192889D01*
X139247265Y-97304148D01*
X139247270Y-97304151D01*
X139420192Y-97381142D01*
X139420197Y-97381144D01*
X139605354Y-97420500D01*
X139605355Y-97420500D01*
X139794644Y-97420500D01*
X139794646Y-97420500D01*
X139979803Y-97381144D01*
X140152730Y-97304151D01*
X140305871Y-97192888D01*
X140432533Y-97052216D01*
X140527179Y-96888284D01*
X140585674Y-96708256D01*
X140605460Y-96520000D01*
X140585674Y-96331744D01*
X140527179Y-96151716D01*
X140432533Y-95987784D01*
X140305871Y-95847112D01*
X140305870Y-95847111D01*
X140152734Y-95735851D01*
X140152729Y-95735848D01*
X139979807Y-95658857D01*
X139979802Y-95658855D01*
X139834000Y-95627865D01*
X139794646Y-95619500D01*
X139605354Y-95619500D01*
X139572897Y-95626398D01*
X139420197Y-95658855D01*
X139420192Y-95658857D01*
X139247270Y-95735848D01*
X139247265Y-95735851D01*
X139094130Y-95847110D01*
X139094126Y-95847114D01*
X139088400Y-95853474D01*
X139028913Y-95890121D01*
X138996252Y-95894500D01*
X135323748Y-95894500D01*
X135256709Y-95874815D01*
X135231600Y-95853474D01*
X135225873Y-95847114D01*
X135225869Y-95847110D01*
X135072734Y-95735851D01*
X135072729Y-95735848D01*
X134899807Y-95658857D01*
X134899802Y-95658855D01*
X134754000Y-95627865D01*
X134714646Y-95619500D01*
X134525354Y-95619500D01*
X134492897Y-95626398D01*
X134340197Y-95658855D01*
X134340192Y-95658857D01*
X134167270Y-95735848D01*
X134167265Y-95735851D01*
X134014129Y-95847111D01*
X133887466Y-95987785D01*
X133792821Y-96151715D01*
X133792818Y-96151722D01*
X133734327Y-96331740D01*
X133734326Y-96331744D01*
X133714540Y-96520000D01*
X121920500Y-96520000D01*
X121920500Y-81304759D01*
X121920528Y-81304616D01*
X121920524Y-81304616D01*
X121920539Y-81280002D01*
X121920541Y-81280000D01*
X121920462Y-81279808D01*
X121920384Y-81279618D01*
X121920382Y-81279616D01*
X121920099Y-81279500D01*
X121920000Y-81279459D01*
X121895446Y-81279459D01*
X121895240Y-81279500D01*
X109344500Y-81279500D01*
X109277461Y-81259815D01*
X109231706Y-81207011D01*
X109220500Y-81155500D01*
X109220500Y-73660001D01*
X133314532Y-73660001D01*
X133334364Y-73886686D01*
X133334366Y-73886697D01*
X133393258Y-74106488D01*
X133393261Y-74106497D01*
X133489431Y-74312732D01*
X133489432Y-74312734D01*
X133619954Y-74499141D01*
X133780858Y-74660045D01*
X133780861Y-74660047D01*
X133967266Y-74790568D01*
X134173504Y-74886739D01*
X134393308Y-74945635D01*
X134555230Y-74959801D01*
X134619998Y-74965468D01*
X134620000Y-74965468D01*
X134620002Y-74965468D01*
X134676673Y-74960509D01*
X134846692Y-74945635D01*
X135066496Y-74886739D01*
X135272734Y-74790568D01*
X135459139Y-74660047D01*
X135620047Y-74499139D01*
X135750568Y-74312734D01*
X135777618Y-74254724D01*
X135823790Y-74202285D01*
X135890983Y-74183133D01*
X135957865Y-74203348D01*
X136002381Y-74254724D01*
X136007377Y-74265437D01*
X136029429Y-74312728D01*
X136029432Y-74312734D01*
X136159954Y-74499141D01*
X136320858Y-74660045D01*
X136320861Y-74660047D01*
X136507266Y-74790568D01*
X136713504Y-74886739D01*
X136933308Y-74945635D01*
X137095230Y-74959801D01*
X137159998Y-74965468D01*
X137160000Y-74965468D01*
X137160002Y-74965468D01*
X137216672Y-74960509D01*
X137386692Y-74945635D01*
X137606496Y-74886739D01*
X137812734Y-74790568D01*
X137999139Y-74660047D01*
X138160047Y-74499139D01*
X138290568Y-74312734D01*
X138317618Y-74254724D01*
X138363790Y-74202285D01*
X138430983Y-74183133D01*
X138497865Y-74203348D01*
X138542381Y-74254724D01*
X138547377Y-74265437D01*
X138569429Y-74312728D01*
X138569432Y-74312734D01*
X138699954Y-74499141D01*
X138860858Y-74660045D01*
X138860861Y-74660047D01*
X139047266Y-74790568D01*
X139253504Y-74886739D01*
X139473308Y-74945635D01*
X139635230Y-74959801D01*
X139699998Y-74965468D01*
X139700000Y-74965468D01*
X139700002Y-74965468D01*
X139756673Y-74960509D01*
X139926692Y-74945635D01*
X140146496Y-74886739D01*
X140352734Y-74790568D01*
X140539139Y-74660047D01*
X140700047Y-74499139D01*
X140830568Y-74312734D01*
X140857618Y-74254724D01*
X140903790Y-74202285D01*
X140970983Y-74183133D01*
X141037865Y-74203348D01*
X141082381Y-74254724D01*
X141087377Y-74265437D01*
X141109429Y-74312728D01*
X141109432Y-74312734D01*
X141239954Y-74499141D01*
X141400858Y-74660045D01*
X141400861Y-74660047D01*
X141587266Y-74790568D01*
X141793504Y-74886739D01*
X142013308Y-74945635D01*
X142175230Y-74959801D01*
X142239998Y-74965468D01*
X142240000Y-74965468D01*
X142240002Y-74965468D01*
X142296673Y-74960509D01*
X142466692Y-74945635D01*
X142686496Y-74886739D01*
X142892734Y-74790568D01*
X143079139Y-74660047D01*
X143240047Y-74499139D01*
X143370568Y-74312734D01*
X143397618Y-74254724D01*
X143443790Y-74202285D01*
X143510983Y-74183133D01*
X143577865Y-74203348D01*
X143622381Y-74254724D01*
X143627377Y-74265437D01*
X143649429Y-74312728D01*
X143649432Y-74312734D01*
X143779954Y-74499141D01*
X143940858Y-74660045D01*
X143940861Y-74660047D01*
X144127266Y-74790568D01*
X144333504Y-74886739D01*
X144553308Y-74945635D01*
X144715230Y-74959801D01*
X144779998Y-74965468D01*
X144780000Y-74965468D01*
X144780002Y-74965468D01*
X144836673Y-74960509D01*
X145006692Y-74945635D01*
X145226496Y-74886739D01*
X145432734Y-74790568D01*
X145619139Y-74660047D01*
X145780047Y-74499139D01*
X145910568Y-74312734D01*
X145937618Y-74254724D01*
X145983790Y-74202285D01*
X146050983Y-74183133D01*
X146117865Y-74203348D01*
X146162381Y-74254724D01*
X146167377Y-74265437D01*
X146189429Y-74312728D01*
X146189432Y-74312734D01*
X146319954Y-74499141D01*
X146480858Y-74660045D01*
X146480861Y-74660047D01*
X146667266Y-74790568D01*
X146873504Y-74886739D01*
X147093308Y-74945635D01*
X147255230Y-74959801D01*
X147319998Y-74965468D01*
X147320000Y-74965468D01*
X147320002Y-74965468D01*
X147376672Y-74960509D01*
X147546692Y-74945635D01*
X147766496Y-74886739D01*
X147972734Y-74790568D01*
X148159139Y-74660047D01*
X148320047Y-74499139D01*
X148450568Y-74312734D01*
X148477618Y-74254724D01*
X148523790Y-74202285D01*
X148590983Y-74183133D01*
X148657865Y-74203348D01*
X148702381Y-74254724D01*
X148707377Y-74265437D01*
X148729429Y-74312728D01*
X148729432Y-74312734D01*
X148859954Y-74499141D01*
X149020858Y-74660045D01*
X149020861Y-74660047D01*
X149207266Y-74790568D01*
X149413504Y-74886739D01*
X149633308Y-74945635D01*
X149795230Y-74959801D01*
X149859998Y-74965468D01*
X149860000Y-74965468D01*
X149860002Y-74965468D01*
X149916673Y-74960509D01*
X150086692Y-74945635D01*
X150306496Y-74886739D01*
X150512734Y-74790568D01*
X150699139Y-74660047D01*
X150860047Y-74499139D01*
X150990568Y-74312734D01*
X151017618Y-74254724D01*
X151063790Y-74202285D01*
X151130983Y-74183133D01*
X151197865Y-74203348D01*
X151242381Y-74254724D01*
X151247377Y-74265437D01*
X151269429Y-74312728D01*
X151269432Y-74312734D01*
X151399954Y-74499141D01*
X151560858Y-74660045D01*
X151560861Y-74660047D01*
X151747266Y-74790568D01*
X151953504Y-74886739D01*
X152173308Y-74945635D01*
X152335230Y-74959801D01*
X152399998Y-74965468D01*
X152400000Y-74965468D01*
X152400002Y-74965468D01*
X152456673Y-74960509D01*
X152626692Y-74945635D01*
X152846496Y-74886739D01*
X153052734Y-74790568D01*
X153239139Y-74660047D01*
X153400047Y-74499139D01*
X153530568Y-74312734D01*
X153557618Y-74254724D01*
X153603790Y-74202285D01*
X153670983Y-74183133D01*
X153737865Y-74203348D01*
X153782381Y-74254724D01*
X153787377Y-74265437D01*
X153809429Y-74312728D01*
X153809432Y-74312734D01*
X153939954Y-74499141D01*
X154100858Y-74660045D01*
X154100861Y-74660047D01*
X154287266Y-74790568D01*
X154493504Y-74886739D01*
X154713308Y-74945635D01*
X154875230Y-74959801D01*
X154939998Y-74965468D01*
X154940000Y-74965468D01*
X154940002Y-74965468D01*
X154996673Y-74960509D01*
X155166692Y-74945635D01*
X155386496Y-74886739D01*
X155592734Y-74790568D01*
X155779139Y-74660047D01*
X155940047Y-74499139D01*
X156070568Y-74312734D01*
X156097618Y-74254724D01*
X156143790Y-74202285D01*
X156210983Y-74183133D01*
X156277865Y-74203348D01*
X156322381Y-74254724D01*
X156327377Y-74265437D01*
X156349429Y-74312728D01*
X156349432Y-74312734D01*
X156479954Y-74499141D01*
X156640858Y-74660045D01*
X156640861Y-74660047D01*
X156827266Y-74790568D01*
X157033504Y-74886739D01*
X157253308Y-74945635D01*
X157415230Y-74959801D01*
X157479998Y-74965468D01*
X157480000Y-74965468D01*
X157480002Y-74965468D01*
X157536672Y-74960509D01*
X157706692Y-74945635D01*
X157926496Y-74886739D01*
X158132734Y-74790568D01*
X158319139Y-74660047D01*
X158480047Y-74499139D01*
X158610568Y-74312734D01*
X158637618Y-74254724D01*
X158683790Y-74202285D01*
X158750983Y-74183133D01*
X158817865Y-74203348D01*
X158862381Y-74254724D01*
X158867377Y-74265437D01*
X158889429Y-74312728D01*
X158889432Y-74312734D01*
X159019954Y-74499141D01*
X159180858Y-74660045D01*
X159180861Y-74660047D01*
X159367266Y-74790568D01*
X159573504Y-74886739D01*
X159793308Y-74945635D01*
X159955230Y-74959801D01*
X160019998Y-74965468D01*
X160020000Y-74965468D01*
X160020002Y-74965468D01*
X160076673Y-74960509D01*
X160246692Y-74945635D01*
X160466496Y-74886739D01*
X160672734Y-74790568D01*
X160859139Y-74660047D01*
X161020047Y-74499139D01*
X161150568Y-74312734D01*
X161177618Y-74254724D01*
X161223790Y-74202285D01*
X161290983Y-74183133D01*
X161357865Y-74203348D01*
X161402381Y-74254724D01*
X161407377Y-74265437D01*
X161429429Y-74312728D01*
X161429432Y-74312734D01*
X161559954Y-74499141D01*
X161720858Y-74660045D01*
X161720861Y-74660047D01*
X161907266Y-74790568D01*
X162113504Y-74886739D01*
X162333308Y-74945635D01*
X162495230Y-74959801D01*
X162559998Y-74965468D01*
X162560000Y-74965468D01*
X162560002Y-74965468D01*
X162616673Y-74960509D01*
X162786692Y-74945635D01*
X163006496Y-74886739D01*
X163212734Y-74790568D01*
X163399139Y-74660047D01*
X163560047Y-74499139D01*
X163690568Y-74312734D01*
X163786739Y-74106496D01*
X163845635Y-73886692D01*
X163865468Y-73660000D01*
X163845635Y-73433308D01*
X163786739Y-73213504D01*
X163690568Y-73007266D01*
X163560047Y-72820861D01*
X163560045Y-72820858D01*
X163399141Y-72659954D01*
X163212734Y-72529432D01*
X163212732Y-72529431D01*
X163006497Y-72433261D01*
X163006488Y-72433258D01*
X162786697Y-72374366D01*
X162786693Y-72374365D01*
X162786692Y-72374365D01*
X162786691Y-72374364D01*
X162786686Y-72374364D01*
X162560002Y-72354532D01*
X162559998Y-72354532D01*
X162333313Y-72374364D01*
X162333302Y-72374366D01*
X162113511Y-72433258D01*
X162113502Y-72433261D01*
X161907267Y-72529431D01*
X161907265Y-72529432D01*
X161720858Y-72659954D01*
X161559954Y-72820858D01*
X161429432Y-73007265D01*
X161429431Y-73007267D01*
X161402382Y-73065275D01*
X161356209Y-73117714D01*
X161289016Y-73136866D01*
X161222135Y-73116650D01*
X161177618Y-73065275D01*
X161150568Y-73007266D01*
X161020047Y-72820861D01*
X161020045Y-72820858D01*
X160859141Y-72659954D01*
X160672734Y-72529432D01*
X160672732Y-72529431D01*
X160466497Y-72433261D01*
X160466488Y-72433258D01*
X160246697Y-72374366D01*
X160246693Y-72374365D01*
X160246692Y-72374365D01*
X160246691Y-72374364D01*
X160246686Y-72374364D01*
X160020002Y-72354532D01*
X160019998Y-72354532D01*
X159793313Y-72374364D01*
X159793302Y-72374366D01*
X159573511Y-72433258D01*
X159573502Y-72433261D01*
X159367267Y-72529431D01*
X159367265Y-72529432D01*
X159180858Y-72659954D01*
X159019954Y-72820858D01*
X158889432Y-73007265D01*
X158889431Y-73007267D01*
X158862382Y-73065275D01*
X158816209Y-73117714D01*
X158749016Y-73136866D01*
X158682135Y-73116650D01*
X158637618Y-73065275D01*
X158610568Y-73007266D01*
X158480047Y-72820861D01*
X158480045Y-72820858D01*
X158319141Y-72659954D01*
X158132734Y-72529432D01*
X158132732Y-72529431D01*
X157926497Y-72433261D01*
X157926488Y-72433258D01*
X157706697Y-72374366D01*
X157706693Y-72374365D01*
X157706692Y-72374365D01*
X157706691Y-72374364D01*
X157706686Y-72374364D01*
X157480002Y-72354532D01*
X157479998Y-72354532D01*
X157253313Y-72374364D01*
X157253302Y-72374366D01*
X157033511Y-72433258D01*
X157033502Y-72433261D01*
X156827267Y-72529431D01*
X156827265Y-72529432D01*
X156640858Y-72659954D01*
X156479954Y-72820858D01*
X156349432Y-73007265D01*
X156349431Y-73007267D01*
X156322382Y-73065275D01*
X156276209Y-73117714D01*
X156209016Y-73136866D01*
X156142135Y-73116650D01*
X156097618Y-73065275D01*
X156070568Y-73007266D01*
X155940047Y-72820861D01*
X155940045Y-72820858D01*
X155779141Y-72659954D01*
X155592734Y-72529432D01*
X155592732Y-72529431D01*
X155386497Y-72433261D01*
X155386488Y-72433258D01*
X155166697Y-72374366D01*
X155166693Y-72374365D01*
X155166692Y-72374365D01*
X155166691Y-72374364D01*
X155166686Y-72374364D01*
X154940002Y-72354532D01*
X154939998Y-72354532D01*
X154713313Y-72374364D01*
X154713302Y-72374366D01*
X154493511Y-72433258D01*
X154493502Y-72433261D01*
X154287267Y-72529431D01*
X154287265Y-72529432D01*
X154100858Y-72659954D01*
X153939954Y-72820858D01*
X153809432Y-73007265D01*
X153809431Y-73007267D01*
X153782382Y-73065275D01*
X153736209Y-73117714D01*
X153669016Y-73136866D01*
X153602135Y-73116650D01*
X153557618Y-73065275D01*
X153530568Y-73007266D01*
X153400047Y-72820861D01*
X153400045Y-72820858D01*
X153239141Y-72659954D01*
X153052734Y-72529432D01*
X153052732Y-72529431D01*
X152846497Y-72433261D01*
X152846488Y-72433258D01*
X152626697Y-72374366D01*
X152626693Y-72374365D01*
X152626692Y-72374365D01*
X152626691Y-72374364D01*
X152626686Y-72374364D01*
X152400002Y-72354532D01*
X152399998Y-72354532D01*
X152173313Y-72374364D01*
X152173302Y-72374366D01*
X151953511Y-72433258D01*
X151953502Y-72433261D01*
X151747267Y-72529431D01*
X151747265Y-72529432D01*
X151560858Y-72659954D01*
X151399954Y-72820858D01*
X151269432Y-73007265D01*
X151269431Y-73007267D01*
X151242382Y-73065275D01*
X151196209Y-73117714D01*
X151129016Y-73136866D01*
X151062135Y-73116650D01*
X151017618Y-73065275D01*
X150990568Y-73007266D01*
X150860047Y-72820861D01*
X150860045Y-72820858D01*
X150699141Y-72659954D01*
X150512734Y-72529432D01*
X150512732Y-72529431D01*
X150306497Y-72433261D01*
X150306488Y-72433258D01*
X150086697Y-72374366D01*
X150086693Y-72374365D01*
X150086692Y-72374365D01*
X150086691Y-72374364D01*
X150086686Y-72374364D01*
X149860002Y-72354532D01*
X149859998Y-72354532D01*
X149633313Y-72374364D01*
X149633302Y-72374366D01*
X149413511Y-72433258D01*
X149413502Y-72433261D01*
X149207267Y-72529431D01*
X149207265Y-72529432D01*
X149020858Y-72659954D01*
X148859954Y-72820858D01*
X148729432Y-73007265D01*
X148729431Y-73007267D01*
X148702382Y-73065275D01*
X148656209Y-73117714D01*
X148589016Y-73136866D01*
X148522135Y-73116650D01*
X148477618Y-73065275D01*
X148450568Y-73007266D01*
X148320047Y-72820861D01*
X148320045Y-72820858D01*
X148159141Y-72659954D01*
X147972734Y-72529432D01*
X147972732Y-72529431D01*
X147766497Y-72433261D01*
X147766488Y-72433258D01*
X147546697Y-72374366D01*
X147546693Y-72374365D01*
X147546692Y-72374365D01*
X147546691Y-72374364D01*
X147546686Y-72374364D01*
X147320002Y-72354532D01*
X147319998Y-72354532D01*
X147093313Y-72374364D01*
X147093302Y-72374366D01*
X146873511Y-72433258D01*
X146873502Y-72433261D01*
X146667267Y-72529431D01*
X146667265Y-72529432D01*
X146480858Y-72659954D01*
X146319954Y-72820858D01*
X146189432Y-73007265D01*
X146189431Y-73007267D01*
X146162382Y-73065275D01*
X146116209Y-73117714D01*
X146049016Y-73136866D01*
X145982135Y-73116650D01*
X145937618Y-73065275D01*
X145910568Y-73007266D01*
X145780047Y-72820861D01*
X145780045Y-72820858D01*
X145619141Y-72659954D01*
X145432734Y-72529432D01*
X145432732Y-72529431D01*
X145226497Y-72433261D01*
X145226488Y-72433258D01*
X145006697Y-72374366D01*
X145006693Y-72374365D01*
X145006692Y-72374365D01*
X145006691Y-72374364D01*
X145006686Y-72374364D01*
X144780002Y-72354532D01*
X144779998Y-72354532D01*
X144553313Y-72374364D01*
X144553302Y-72374366D01*
X144333511Y-72433258D01*
X144333502Y-72433261D01*
X144127267Y-72529431D01*
X144127265Y-72529432D01*
X143940858Y-72659954D01*
X143779954Y-72820858D01*
X143649432Y-73007265D01*
X143649431Y-73007267D01*
X143622382Y-73065275D01*
X143576209Y-73117714D01*
X143509016Y-73136866D01*
X143442135Y-73116650D01*
X143397618Y-73065275D01*
X143370568Y-73007266D01*
X143240047Y-72820861D01*
X143240045Y-72820858D01*
X143079141Y-72659954D01*
X142892734Y-72529432D01*
X142892732Y-72529431D01*
X142686497Y-72433261D01*
X142686488Y-72433258D01*
X142466697Y-72374366D01*
X142466693Y-72374365D01*
X142466692Y-72374365D01*
X142466691Y-72374364D01*
X142466686Y-72374364D01*
X142240002Y-72354532D01*
X142239998Y-72354532D01*
X142013313Y-72374364D01*
X142013302Y-72374366D01*
X141793511Y-72433258D01*
X141793502Y-72433261D01*
X141587267Y-72529431D01*
X141587265Y-72529432D01*
X141400858Y-72659954D01*
X141239954Y-72820858D01*
X141109432Y-73007265D01*
X141109431Y-73007267D01*
X141082382Y-73065275D01*
X141036209Y-73117714D01*
X140969016Y-73136866D01*
X140902135Y-73116650D01*
X140857618Y-73065275D01*
X140830568Y-73007266D01*
X140700047Y-72820861D01*
X140700045Y-72820858D01*
X140539141Y-72659954D01*
X140352734Y-72529432D01*
X140352732Y-72529431D01*
X140146497Y-72433261D01*
X140146488Y-72433258D01*
X139926697Y-72374366D01*
X139926693Y-72374365D01*
X139926692Y-72374365D01*
X139926691Y-72374364D01*
X139926686Y-72374364D01*
X139700002Y-72354532D01*
X139699998Y-72354532D01*
X139473313Y-72374364D01*
X139473302Y-72374366D01*
X139253511Y-72433258D01*
X139253502Y-72433261D01*
X139047267Y-72529431D01*
X139047265Y-72529432D01*
X138860858Y-72659954D01*
X138699954Y-72820858D01*
X138569432Y-73007265D01*
X138569431Y-73007267D01*
X138542382Y-73065275D01*
X138496209Y-73117714D01*
X138429016Y-73136866D01*
X138362135Y-73116650D01*
X138317618Y-73065275D01*
X138290568Y-73007266D01*
X138160047Y-72820861D01*
X138160045Y-72820858D01*
X137999141Y-72659954D01*
X137812734Y-72529432D01*
X137812732Y-72529431D01*
X137606497Y-72433261D01*
X137606488Y-72433258D01*
X137386697Y-72374366D01*
X137386693Y-72374365D01*
X137386692Y-72374365D01*
X137386691Y-72374364D01*
X137386686Y-72374364D01*
X137160002Y-72354532D01*
X137159998Y-72354532D01*
X136933313Y-72374364D01*
X136933302Y-72374366D01*
X136713511Y-72433258D01*
X136713502Y-72433261D01*
X136507267Y-72529431D01*
X136507265Y-72529432D01*
X136320858Y-72659954D01*
X136159954Y-72820858D01*
X136029432Y-73007265D01*
X136029431Y-73007267D01*
X136002382Y-73065275D01*
X135956209Y-73117714D01*
X135889016Y-73136866D01*
X135822135Y-73116650D01*
X135777618Y-73065275D01*
X135750568Y-73007266D01*
X135620047Y-72820861D01*
X135620045Y-72820858D01*
X135459141Y-72659954D01*
X135272734Y-72529432D01*
X135272732Y-72529431D01*
X135066497Y-72433261D01*
X135066488Y-72433258D01*
X134846697Y-72374366D01*
X134846693Y-72374365D01*
X134846692Y-72374365D01*
X134846691Y-72374364D01*
X134846686Y-72374364D01*
X134620002Y-72354532D01*
X134619998Y-72354532D01*
X134393313Y-72374364D01*
X134393302Y-72374366D01*
X134173511Y-72433258D01*
X134173502Y-72433261D01*
X133967267Y-72529431D01*
X133967265Y-72529432D01*
X133780858Y-72659954D01*
X133619954Y-72820858D01*
X133489432Y-73007265D01*
X133489431Y-73007267D01*
X133393261Y-73213502D01*
X133393258Y-73213511D01*
X133334366Y-73433302D01*
X133334364Y-73433313D01*
X133314532Y-73659998D01*
X133314532Y-73660001D01*
X109220500Y-73660001D01*
X109220500Y-66040000D01*
X146414540Y-66040000D01*
X146434326Y-66228256D01*
X146434327Y-66228259D01*
X146492818Y-66408277D01*
X146492821Y-66408284D01*
X146587467Y-66572216D01*
X146714129Y-66712888D01*
X146867265Y-66824148D01*
X146867270Y-66824151D01*
X147040192Y-66901142D01*
X147040197Y-66901144D01*
X147225354Y-66940500D01*
X147225355Y-66940500D01*
X147414644Y-66940500D01*
X147414646Y-66940500D01*
X147599803Y-66901144D01*
X147772730Y-66824151D01*
X147925871Y-66712888D01*
X148052533Y-66572216D01*
X148147179Y-66408284D01*
X148205674Y-66228256D01*
X148223321Y-66060345D01*
X148231692Y-66040000D01*
X154034540Y-66040000D01*
X154054326Y-66228256D01*
X154054327Y-66228259D01*
X154112818Y-66408277D01*
X154112821Y-66408284D01*
X154207467Y-66572216D01*
X154334129Y-66712888D01*
X154487265Y-66824148D01*
X154487270Y-66824151D01*
X154660192Y-66901142D01*
X154660197Y-66901144D01*
X154845354Y-66940500D01*
X154845355Y-66940500D01*
X155034644Y-66940500D01*
X155034646Y-66940500D01*
X155219803Y-66901144D01*
X155392730Y-66824151D01*
X155545871Y-66712888D01*
X155672533Y-66572216D01*
X155767179Y-66408284D01*
X155825674Y-66228256D01*
X155845460Y-66040000D01*
X155825674Y-65851744D01*
X155767179Y-65671716D01*
X155672533Y-65507784D01*
X155597350Y-65424284D01*
X155567120Y-65361292D01*
X155565500Y-65341312D01*
X155565500Y-61658687D01*
X155585185Y-61591648D01*
X155597350Y-61575715D01*
X155615891Y-61555122D01*
X155672533Y-61492216D01*
X155767179Y-61328284D01*
X155825674Y-61148256D01*
X155845460Y-60960000D01*
X156574540Y-60960000D01*
X156594326Y-61148256D01*
X156594327Y-61148259D01*
X156652818Y-61328277D01*
X156652821Y-61328284D01*
X156747467Y-61492216D01*
X156822650Y-61575715D01*
X156874129Y-61632888D01*
X157027265Y-61744148D01*
X157027270Y-61744151D01*
X157200192Y-61821142D01*
X157200197Y-61821144D01*
X157385354Y-61860500D01*
X157444548Y-61860500D01*
X157511587Y-61880185D01*
X157532229Y-61896819D01*
X169679197Y-74043788D01*
X169689022Y-74056051D01*
X169689243Y-74055869D01*
X169694214Y-74061878D01*
X169720217Y-74086295D01*
X169744635Y-74109226D01*
X169765529Y-74130120D01*
X169771011Y-74134373D01*
X169775443Y-74138157D01*
X169809418Y-74170062D01*
X169826976Y-74179714D01*
X169843235Y-74190395D01*
X169859064Y-74202673D01*
X169901838Y-74221182D01*
X169907056Y-74223738D01*
X169947908Y-74246197D01*
X169967316Y-74251180D01*
X169985717Y-74257480D01*
X170004104Y-74265437D01*
X170047488Y-74272308D01*
X170050119Y-74272725D01*
X170055839Y-74273909D01*
X170100981Y-74285500D01*
X170121016Y-74285500D01*
X170140414Y-74287026D01*
X170160194Y-74290159D01*
X170160195Y-74290160D01*
X170160195Y-74290159D01*
X170160196Y-74290160D01*
X170206583Y-74285775D01*
X170212422Y-74285500D01*
X184716252Y-74285500D01*
X184783291Y-74305185D01*
X184808400Y-74326526D01*
X184814126Y-74332885D01*
X184814130Y-74332889D01*
X184967265Y-74444148D01*
X184967270Y-74444151D01*
X185140192Y-74521142D01*
X185140197Y-74521144D01*
X185325354Y-74560500D01*
X185325355Y-74560500D01*
X185514644Y-74560500D01*
X185514646Y-74560500D01*
X185699803Y-74521144D01*
X185872730Y-74444151D01*
X186025871Y-74332888D01*
X186152533Y-74192216D01*
X186247179Y-74028284D01*
X186305674Y-73848256D01*
X186325460Y-73660000D01*
X186305674Y-73471744D01*
X186247179Y-73291716D01*
X186152533Y-73127784D01*
X186025871Y-72987112D01*
X186025870Y-72987111D01*
X185872734Y-72875851D01*
X185872729Y-72875848D01*
X185699807Y-72798857D01*
X185699802Y-72798855D01*
X185554001Y-72767865D01*
X185514646Y-72759500D01*
X185325354Y-72759500D01*
X185292897Y-72766398D01*
X185140197Y-72798855D01*
X185140192Y-72798857D01*
X184967270Y-72875848D01*
X184967265Y-72875851D01*
X184814130Y-72987110D01*
X184814126Y-72987114D01*
X184808400Y-72993474D01*
X184748913Y-73030121D01*
X184716252Y-73034500D01*
X170490453Y-73034500D01*
X170423414Y-73014815D01*
X170402772Y-72998181D01*
X163495527Y-66090936D01*
X181875631Y-66090936D01*
X181906442Y-66292063D01*
X181906445Y-66292075D01*
X181977111Y-66482881D01*
X181977115Y-66482888D01*
X182084745Y-66655567D01*
X182084747Y-66655569D01*
X182084748Y-66655571D01*
X182224941Y-66803053D01*
X182353344Y-66892424D01*
X182391949Y-66919294D01*
X182391950Y-66919294D01*
X182391951Y-66919295D01*
X182578942Y-66999540D01*
X182778259Y-67040500D01*
X187785217Y-67040500D01*
X187852256Y-67060185D01*
X187898011Y-67112989D01*
X187907955Y-67182147D01*
X187878930Y-67245703D01*
X187872898Y-67252181D01*
X187216662Y-67908417D01*
X187120304Y-68026590D01*
X187026090Y-68206953D01*
X186970112Y-68402584D01*
X186954662Y-68605474D01*
X186954662Y-68605477D01*
X186980368Y-68807321D01*
X186980370Y-68807329D01*
X187046183Y-68999870D01*
X187046189Y-68999882D01*
X187149406Y-69175221D01*
X187149411Y-69175228D01*
X187285820Y-69326212D01*
X187449828Y-69446646D01*
X187449832Y-69446648D01*
X187449833Y-69446649D01*
X187634732Y-69531605D01*
X187700456Y-69546857D01*
X187832945Y-69577603D01*
X188036358Y-69582757D01*
X188036358Y-69582756D01*
X188036363Y-69582757D01*
X188215852Y-69550586D01*
X188236648Y-69546859D01*
X188236648Y-69546858D01*
X188236653Y-69546858D01*
X188425617Y-69471377D01*
X188595519Y-69359402D01*
X196323340Y-61631581D01*
X196419698Y-61513407D01*
X196513909Y-61333049D01*
X196569886Y-61137418D01*
X196585337Y-60934524D01*
X196585337Y-60934523D01*
X196559631Y-60732678D01*
X196559630Y-60732676D01*
X196559630Y-60732672D01*
X196493816Y-60540128D01*
X196390590Y-60364773D01*
X196254179Y-60213787D01*
X196254178Y-60213786D01*
X196090171Y-60093353D01*
X196090164Y-60093349D01*
X195905274Y-60008397D01*
X195905261Y-60008392D01*
X195707053Y-59962397D01*
X195503638Y-59957244D01*
X195503635Y-59957244D01*
X195303350Y-59993140D01*
X195303345Y-59993142D01*
X195114383Y-60068623D01*
X195114371Y-60068629D01*
X194944482Y-60180596D01*
X194944477Y-60180600D01*
X194240492Y-60884585D01*
X194179169Y-60918070D01*
X194109477Y-60913086D01*
X194053544Y-60871214D01*
X194029805Y-60812572D01*
X194019630Y-60732672D01*
X193953816Y-60540128D01*
X193887684Y-60427785D01*
X193850592Y-60364774D01*
X193850590Y-60364772D01*
X193714180Y-60213787D01*
X193714178Y-60213786D01*
X193550171Y-60093353D01*
X193550164Y-60093349D01*
X193365274Y-60008397D01*
X193365262Y-60008393D01*
X193167054Y-59962396D01*
X192963641Y-59957242D01*
X192763351Y-59993140D01*
X192763345Y-59993142D01*
X192574383Y-60068623D01*
X192574371Y-60068629D01*
X192404482Y-60180596D01*
X192404478Y-60180599D01*
X187581899Y-65003181D01*
X187520576Y-65036666D01*
X187494218Y-65039500D01*
X182829257Y-65039500D01*
X182677560Y-65054925D01*
X182483420Y-65115837D01*
X182483405Y-65115844D01*
X182305500Y-65214589D01*
X182305495Y-65214592D01*
X182151106Y-65347132D01*
X182151104Y-65347134D01*
X182026554Y-65508037D01*
X182026553Y-65508040D01*
X181936940Y-65690728D01*
X181885937Y-65887714D01*
X181875631Y-66090936D01*
X163495527Y-66090936D01*
X160955334Y-63550743D01*
X169179500Y-63550743D01*
X169194925Y-63702439D01*
X169255837Y-63896579D01*
X169255844Y-63896594D01*
X169354589Y-64074499D01*
X169354592Y-64074504D01*
X169487132Y-64228893D01*
X169487134Y-64228895D01*
X169648037Y-64353445D01*
X169648038Y-64353445D01*
X169648042Y-64353448D01*
X169830729Y-64443060D01*
X170027715Y-64494063D01*
X170230936Y-64504369D01*
X170432071Y-64473556D01*
X170622887Y-64402886D01*
X170795571Y-64295252D01*
X170943053Y-64155059D01*
X171059295Y-63988049D01*
X171139540Y-63801058D01*
X171180500Y-63601741D01*
X171180500Y-55879999D01*
X181274551Y-55879999D01*
X181294317Y-56131151D01*
X181353126Y-56376110D01*
X181449533Y-56608859D01*
X181581160Y-56823653D01*
X181581161Y-56823656D01*
X181581164Y-56823659D01*
X181744776Y-57015224D01*
X181893066Y-57141875D01*
X181936343Y-57178838D01*
X181936346Y-57178839D01*
X182151140Y-57310466D01*
X182382737Y-57406396D01*
X182383889Y-57406873D01*
X182628852Y-57465683D01*
X182880000Y-57485449D01*
X183131148Y-57465683D01*
X183376111Y-57406873D01*
X183608859Y-57310466D01*
X183823659Y-57178836D01*
X184015224Y-57015224D01*
X184055710Y-56967819D01*
X184114216Y-56929627D01*
X184184084Y-56929128D01*
X184243130Y-56966482D01*
X184244235Y-56967756D01*
X184284776Y-57015223D01*
X184284776Y-57015224D01*
X184476343Y-57178838D01*
X184476346Y-57178839D01*
X184691140Y-57310466D01*
X184922737Y-57406396D01*
X184923889Y-57406873D01*
X185168852Y-57465683D01*
X185420000Y-57485449D01*
X185671148Y-57465683D01*
X185916111Y-57406873D01*
X186148859Y-57310466D01*
X186363659Y-57178836D01*
X186555224Y-57015224D01*
X186595710Y-56967819D01*
X186654216Y-56929627D01*
X186724084Y-56929128D01*
X186783130Y-56966482D01*
X186784235Y-56967756D01*
X186824776Y-57015223D01*
X186824776Y-57015224D01*
X187016343Y-57178838D01*
X187016346Y-57178839D01*
X187231140Y-57310466D01*
X187462737Y-57406396D01*
X187463889Y-57406873D01*
X187708852Y-57465683D01*
X187960000Y-57485449D01*
X188211148Y-57465683D01*
X188456111Y-57406873D01*
X188688859Y-57310466D01*
X188903659Y-57178836D01*
X189095224Y-57015224D01*
X189258836Y-56823659D01*
X189339879Y-56691407D01*
X189357922Y-56668522D01*
X189851481Y-56174963D01*
X189912804Y-56141478D01*
X189982496Y-56146462D01*
X190038429Y-56188334D01*
X190041513Y-56193249D01*
X190041549Y-56193225D01*
X190046441Y-56200156D01*
X190149637Y-56310651D01*
X190149638Y-56310652D01*
X190184698Y-56331973D01*
X190231749Y-56383623D01*
X190243407Y-56452513D01*
X190215970Y-56516770D01*
X190207950Y-56525601D01*
X189555819Y-57177731D01*
X189555819Y-57177732D01*
X189556636Y-57178430D01*
X189556638Y-57178432D01*
X189771368Y-57310019D01*
X190004043Y-57406396D01*
X190248927Y-57465187D01*
X190500000Y-57484947D01*
X190751072Y-57465187D01*
X190995956Y-57406396D01*
X191228631Y-57310019D01*
X191443360Y-57178432D01*
X191443371Y-57178424D01*
X191444179Y-57177732D01*
X190793165Y-56526718D01*
X190759680Y-56465395D01*
X190764664Y-56395703D01*
X190802588Y-56342853D01*
X190905739Y-56258934D01*
X190956052Y-56187655D01*
X191010793Y-56144239D01*
X191080318Y-56137309D01*
X191142553Y-56169067D01*
X191145037Y-56171483D01*
X191642078Y-56668524D01*
X191660124Y-56691415D01*
X191741160Y-56823653D01*
X191741161Y-56823656D01*
X191741164Y-56823659D01*
X191904776Y-57015224D01*
X192053066Y-57141875D01*
X192096343Y-57178838D01*
X192096346Y-57178839D01*
X192311140Y-57310466D01*
X192542737Y-57406396D01*
X192543889Y-57406873D01*
X192788852Y-57465683D01*
X193040000Y-57485449D01*
X193291148Y-57465683D01*
X193536111Y-57406873D01*
X193768859Y-57310466D01*
X193901019Y-57229477D01*
X193968461Y-57211234D01*
X194035064Y-57232350D01*
X194065072Y-57260894D01*
X194122455Y-57337547D01*
X194237664Y-57423793D01*
X194237671Y-57423797D01*
X194372517Y-57474091D01*
X194372516Y-57474091D01*
X194379444Y-57474835D01*
X194432127Y-57480500D01*
X196727872Y-57480499D01*
X196787483Y-57474091D01*
X196922331Y-57423796D01*
X197037546Y-57337546D01*
X197123796Y-57222331D01*
X197174091Y-57087483D01*
X197180500Y-57027873D01*
X197180499Y-54732128D01*
X197174091Y-54672517D01*
X197170111Y-54661847D01*
X197123797Y-54537671D01*
X197123793Y-54537664D01*
X197037547Y-54422455D01*
X197037544Y-54422452D01*
X196922335Y-54336206D01*
X196922328Y-54336202D01*
X196787482Y-54285908D01*
X196787483Y-54285908D01*
X196727883Y-54279501D01*
X196727881Y-54279500D01*
X196727873Y-54279500D01*
X196727864Y-54279500D01*
X194432129Y-54279500D01*
X194432123Y-54279501D01*
X194372516Y-54285908D01*
X194237671Y-54336202D01*
X194237664Y-54336206D01*
X194122455Y-54422452D01*
X194065072Y-54499105D01*
X194009138Y-54540976D01*
X193939446Y-54545959D01*
X193901016Y-54530520D01*
X193768859Y-54449533D01*
X193536110Y-54353126D01*
X193291151Y-54294317D01*
X193040000Y-54274551D01*
X192788848Y-54294317D01*
X192543889Y-54353126D01*
X192311140Y-54449533D01*
X192096346Y-54581160D01*
X192096343Y-54581161D01*
X191904776Y-54744776D01*
X191741161Y-54936343D01*
X191741160Y-54936346D01*
X191660125Y-55068582D01*
X191642079Y-55091473D01*
X191148517Y-55585034D01*
X191087194Y-55618519D01*
X191017502Y-55613535D01*
X190961569Y-55571663D01*
X190958486Y-55566750D01*
X190958451Y-55566775D01*
X190953558Y-55559843D01*
X190850360Y-55449346D01*
X190850358Y-55449345D01*
X190815300Y-55428026D01*
X190768248Y-55376375D01*
X190756590Y-55307485D01*
X190784027Y-55243228D01*
X190792047Y-55234397D01*
X191444178Y-54582266D01*
X191444178Y-54582264D01*
X191443374Y-54581577D01*
X191443358Y-54581566D01*
X191228631Y-54449980D01*
X190995956Y-54353603D01*
X190751072Y-54294812D01*
X190500000Y-54275052D01*
X190248927Y-54294812D01*
X190004043Y-54353603D01*
X189771368Y-54449980D01*
X189556637Y-54581568D01*
X189555820Y-54582266D01*
X190206833Y-55233280D01*
X190240318Y-55294603D01*
X190235334Y-55364295D01*
X190197408Y-55417148D01*
X190094262Y-55501064D01*
X190094258Y-55501069D01*
X190043947Y-55572344D01*
X189989205Y-55615761D01*
X189919680Y-55622690D01*
X189857445Y-55590931D01*
X189854962Y-55588516D01*
X189357920Y-55091474D01*
X189339875Y-55068585D01*
X189258836Y-54936341D01*
X189095224Y-54744776D01*
X188955728Y-54625635D01*
X188903656Y-54581161D01*
X188903653Y-54581160D01*
X188688859Y-54449533D01*
X188456110Y-54353126D01*
X188211151Y-54294317D01*
X187960000Y-54274551D01*
X187708848Y-54294317D01*
X187463889Y-54353126D01*
X187231140Y-54449533D01*
X187016346Y-54581160D01*
X187016343Y-54581161D01*
X186824776Y-54744776D01*
X186784290Y-54792179D01*
X186725783Y-54830372D01*
X186655915Y-54830870D01*
X186596869Y-54793516D01*
X186595710Y-54792179D01*
X186595709Y-54792178D01*
X186555224Y-54744776D01*
X186415728Y-54625635D01*
X186363656Y-54581161D01*
X186363653Y-54581160D01*
X186148859Y-54449533D01*
X185916110Y-54353126D01*
X185671151Y-54294317D01*
X185420000Y-54274551D01*
X185168848Y-54294317D01*
X184923889Y-54353126D01*
X184691140Y-54449533D01*
X184476346Y-54581160D01*
X184476343Y-54581161D01*
X184284775Y-54744777D01*
X184244288Y-54792180D01*
X184185780Y-54830372D01*
X184115913Y-54830870D01*
X184056867Y-54793515D01*
X184055792Y-54792275D01*
X184015224Y-54744776D01*
X184000409Y-54732123D01*
X183823656Y-54581161D01*
X183823653Y-54581160D01*
X183608859Y-54449533D01*
X183376110Y-54353126D01*
X183131151Y-54294317D01*
X182942786Y-54279492D01*
X182880000Y-54274551D01*
X182879999Y-54274551D01*
X182628848Y-54294317D01*
X182383889Y-54353126D01*
X182151140Y-54449533D01*
X181936346Y-54581160D01*
X181936343Y-54581161D01*
X181744776Y-54744776D01*
X181581161Y-54936343D01*
X181581160Y-54936346D01*
X181449533Y-55151140D01*
X181353126Y-55383889D01*
X181294317Y-55628848D01*
X181274551Y-55879999D01*
X171180500Y-55879999D01*
X171180500Y-55829258D01*
X171165074Y-55677562D01*
X171165074Y-55677560D01*
X171104162Y-55483420D01*
X171104160Y-55483416D01*
X171104159Y-55483412D01*
X171005409Y-55305498D01*
X171005408Y-55305497D01*
X171005407Y-55305495D01*
X170872867Y-55151106D01*
X170872865Y-55151104D01*
X170711962Y-55026554D01*
X170711959Y-55026553D01*
X170711958Y-55026552D01*
X170529271Y-54936940D01*
X170332285Y-54885937D01*
X170332287Y-54885937D01*
X170288668Y-54883725D01*
X170222712Y-54860669D01*
X170179691Y-54805615D01*
X170179223Y-54800552D01*
X170151771Y-54848984D01*
X170089925Y-54881492D01*
X170084269Y-54882493D01*
X169927936Y-54906442D01*
X169927924Y-54906445D01*
X169737118Y-54977111D01*
X169737111Y-54977115D01*
X169564432Y-55084745D01*
X169564427Y-55084749D01*
X169416949Y-55224938D01*
X169416947Y-55224940D01*
X169416947Y-55224941D01*
X169404219Y-55243228D01*
X169300705Y-55391949D01*
X169220459Y-55578943D01*
X169179500Y-55778258D01*
X169179500Y-63550743D01*
X160955334Y-63550743D01*
X158418960Y-61014369D01*
X158385475Y-60953046D01*
X158383323Y-60939668D01*
X158365674Y-60771744D01*
X158307179Y-60591716D01*
X158212533Y-60427784D01*
X158085871Y-60287112D01*
X158085870Y-60287111D01*
X157932734Y-60175851D01*
X157932729Y-60175848D01*
X157759807Y-60098857D01*
X157759802Y-60098855D01*
X157614000Y-60067865D01*
X157574646Y-60059500D01*
X157385354Y-60059500D01*
X157352897Y-60066398D01*
X157200197Y-60098855D01*
X157200192Y-60098857D01*
X157027270Y-60175848D01*
X157027265Y-60175851D01*
X156874129Y-60287111D01*
X156747466Y-60427785D01*
X156652821Y-60591715D01*
X156652818Y-60591722D01*
X156607021Y-60732672D01*
X156594326Y-60771744D01*
X156574540Y-60960000D01*
X155845460Y-60960000D01*
X155825674Y-60771744D01*
X155767179Y-60591716D01*
X155672533Y-60427784D01*
X155545871Y-60287112D01*
X155545870Y-60287111D01*
X155392734Y-60175851D01*
X155392729Y-60175848D01*
X155219807Y-60098857D01*
X155219802Y-60098855D01*
X155074000Y-60067865D01*
X155034646Y-60059500D01*
X154845354Y-60059500D01*
X154812897Y-60066398D01*
X154660197Y-60098855D01*
X154660192Y-60098857D01*
X154487270Y-60175848D01*
X154487265Y-60175851D01*
X154334129Y-60287111D01*
X154207466Y-60427785D01*
X154112821Y-60591715D01*
X154112818Y-60591722D01*
X154067021Y-60732672D01*
X154054326Y-60771744D01*
X154034540Y-60960000D01*
X154054326Y-61148256D01*
X154054327Y-61148259D01*
X154112818Y-61328277D01*
X154112821Y-61328284D01*
X154207467Y-61492216D01*
X154250772Y-61540310D01*
X154282650Y-61575715D01*
X154312880Y-61638706D01*
X154314500Y-61658687D01*
X154314500Y-65341312D01*
X154294815Y-65408351D01*
X154282650Y-65424284D01*
X154207466Y-65507784D01*
X154112821Y-65671715D01*
X154112818Y-65671722D01*
X154054327Y-65851740D01*
X154054326Y-65851744D01*
X154034540Y-66040000D01*
X148231692Y-66040000D01*
X148249905Y-65995732D01*
X148258952Y-65985636D01*
X152347771Y-61896819D01*
X152409095Y-61863334D01*
X152435453Y-61860500D01*
X152494644Y-61860500D01*
X152494646Y-61860500D01*
X152679803Y-61821144D01*
X152852730Y-61744151D01*
X153005871Y-61632888D01*
X153132533Y-61492216D01*
X153227179Y-61328284D01*
X153285674Y-61148256D01*
X153305460Y-60960000D01*
X153285674Y-60771744D01*
X153227179Y-60591716D01*
X153132533Y-60427784D01*
X153005871Y-60287112D01*
X153005870Y-60287111D01*
X152852734Y-60175851D01*
X152852729Y-60175848D01*
X152679807Y-60098857D01*
X152679802Y-60098855D01*
X152534000Y-60067865D01*
X152494646Y-60059500D01*
X152305354Y-60059500D01*
X152272897Y-60066398D01*
X152120197Y-60098855D01*
X152120192Y-60098857D01*
X151947270Y-60175848D01*
X151947265Y-60175851D01*
X151794129Y-60287111D01*
X151667466Y-60427785D01*
X151572821Y-60591715D01*
X151572818Y-60591722D01*
X151527021Y-60732672D01*
X151514326Y-60771744D01*
X151506405Y-60847105D01*
X151496678Y-60939651D01*
X151470093Y-61004266D01*
X151461038Y-61014370D01*
X147372228Y-65103181D01*
X147310905Y-65136666D01*
X147284547Y-65139500D01*
X147225354Y-65139500D01*
X147192897Y-65146398D01*
X147040197Y-65178855D01*
X147040192Y-65178857D01*
X146867270Y-65255848D01*
X146867265Y-65255851D01*
X146714129Y-65367111D01*
X146587466Y-65507785D01*
X146492821Y-65671715D01*
X146492818Y-65671722D01*
X146434327Y-65851740D01*
X146434326Y-65851744D01*
X146414540Y-66040000D01*
X109220500Y-66040000D01*
X109220500Y-55879999D01*
X110154551Y-55879999D01*
X110174317Y-56131151D01*
X110233126Y-56376110D01*
X110329533Y-56608859D01*
X110461160Y-56823653D01*
X110461161Y-56823656D01*
X110461164Y-56823659D01*
X110624776Y-57015224D01*
X110773066Y-57141875D01*
X110816343Y-57178838D01*
X110816346Y-57178839D01*
X111031140Y-57310466D01*
X111262737Y-57406396D01*
X111263889Y-57406873D01*
X111508852Y-57465683D01*
X111760000Y-57485449D01*
X112011148Y-57465683D01*
X112256111Y-57406873D01*
X112488859Y-57310466D01*
X112703659Y-57178836D01*
X112895224Y-57015224D01*
X112935710Y-56967819D01*
X112994216Y-56929627D01*
X113064084Y-56929128D01*
X113123130Y-56966482D01*
X113124235Y-56967756D01*
X113164776Y-57015223D01*
X113164776Y-57015224D01*
X113356343Y-57178838D01*
X113356346Y-57178839D01*
X113571140Y-57310466D01*
X113802737Y-57406396D01*
X113803889Y-57406873D01*
X114048852Y-57465683D01*
X114300000Y-57485449D01*
X114551148Y-57465683D01*
X114796111Y-57406873D01*
X115028859Y-57310466D01*
X115243659Y-57178836D01*
X115435224Y-57015224D01*
X115475711Y-56967819D01*
X115534214Y-56929628D01*
X115604082Y-56929128D01*
X115663129Y-56966481D01*
X115664289Y-56967820D01*
X115704776Y-57015224D01*
X115853066Y-57141875D01*
X115896343Y-57178838D01*
X115896346Y-57178839D01*
X116111140Y-57310466D01*
X116342737Y-57406396D01*
X116343889Y-57406873D01*
X116588852Y-57465683D01*
X116840000Y-57485449D01*
X117091148Y-57465683D01*
X117336111Y-57406873D01*
X117568859Y-57310466D01*
X117783659Y-57178836D01*
X117975224Y-57015224D01*
X118138836Y-56823659D01*
X118219879Y-56691407D01*
X118237922Y-56668522D01*
X118731481Y-56174963D01*
X118792804Y-56141478D01*
X118862496Y-56146462D01*
X118918429Y-56188334D01*
X118921513Y-56193249D01*
X118921549Y-56193225D01*
X118926441Y-56200156D01*
X119029637Y-56310651D01*
X119029638Y-56310652D01*
X119064698Y-56331973D01*
X119111749Y-56383623D01*
X119123407Y-56452513D01*
X119095970Y-56516770D01*
X119087950Y-56525601D01*
X118435819Y-57177731D01*
X118435819Y-57177732D01*
X118436636Y-57178430D01*
X118436638Y-57178432D01*
X118651368Y-57310019D01*
X118884043Y-57406396D01*
X119128927Y-57465187D01*
X119379999Y-57484947D01*
X119631072Y-57465187D01*
X119875956Y-57406396D01*
X120108631Y-57310019D01*
X120323360Y-57178432D01*
X120323371Y-57178424D01*
X120324179Y-57177732D01*
X119673165Y-56526718D01*
X119639680Y-56465395D01*
X119644664Y-56395703D01*
X119682588Y-56342853D01*
X119785739Y-56258934D01*
X119836052Y-56187655D01*
X119890793Y-56144239D01*
X119960318Y-56137309D01*
X120022553Y-56169067D01*
X120025037Y-56171483D01*
X120522078Y-56668524D01*
X120540124Y-56691415D01*
X120621160Y-56823653D01*
X120621161Y-56823656D01*
X120621164Y-56823659D01*
X120784776Y-57015224D01*
X120933066Y-57141875D01*
X120976343Y-57178838D01*
X120976346Y-57178839D01*
X121191140Y-57310466D01*
X121422737Y-57406396D01*
X121423889Y-57406873D01*
X121668852Y-57465683D01*
X121920000Y-57485449D01*
X122171148Y-57465683D01*
X122416111Y-57406873D01*
X122648859Y-57310466D01*
X122781019Y-57229477D01*
X122848461Y-57211234D01*
X122915064Y-57232350D01*
X122945072Y-57260894D01*
X123002455Y-57337547D01*
X123117664Y-57423793D01*
X123117671Y-57423797D01*
X123252517Y-57474091D01*
X123252516Y-57474091D01*
X123259444Y-57474835D01*
X123312127Y-57480500D01*
X125607872Y-57480499D01*
X125667483Y-57474091D01*
X125802331Y-57423796D01*
X125917546Y-57337546D01*
X126003796Y-57222331D01*
X126054091Y-57087483D01*
X126060500Y-57027873D01*
X126060499Y-54732128D01*
X126054091Y-54672517D01*
X126050111Y-54661847D01*
X126003797Y-54537671D01*
X126003793Y-54537664D01*
X125917547Y-54422455D01*
X125917544Y-54422452D01*
X125802335Y-54336206D01*
X125802328Y-54336202D01*
X125667482Y-54285908D01*
X125667483Y-54285908D01*
X125607883Y-54279501D01*
X125607881Y-54279500D01*
X125607873Y-54279500D01*
X125607864Y-54279500D01*
X123312129Y-54279500D01*
X123312123Y-54279501D01*
X123252516Y-54285908D01*
X123117671Y-54336202D01*
X123117664Y-54336206D01*
X123002455Y-54422452D01*
X122945072Y-54499105D01*
X122889138Y-54540976D01*
X122819446Y-54545959D01*
X122781016Y-54530520D01*
X122648859Y-54449533D01*
X122416110Y-54353126D01*
X122171151Y-54294317D01*
X121920000Y-54274551D01*
X121668848Y-54294317D01*
X121423889Y-54353126D01*
X121191140Y-54449533D01*
X120976346Y-54581160D01*
X120976343Y-54581161D01*
X120784776Y-54744776D01*
X120621161Y-54936343D01*
X120621160Y-54936346D01*
X120540125Y-55068582D01*
X120522079Y-55091473D01*
X120028517Y-55585034D01*
X119967194Y-55618519D01*
X119897502Y-55613535D01*
X119841569Y-55571663D01*
X119838486Y-55566750D01*
X119838451Y-55566775D01*
X119833558Y-55559843D01*
X119730360Y-55449346D01*
X119730358Y-55449345D01*
X119695300Y-55428026D01*
X119648248Y-55376375D01*
X119636590Y-55307485D01*
X119664027Y-55243228D01*
X119672047Y-55234397D01*
X120324178Y-54582266D01*
X120324178Y-54582264D01*
X120323374Y-54581577D01*
X120323358Y-54581566D01*
X120108631Y-54449980D01*
X119875956Y-54353603D01*
X119631072Y-54294812D01*
X119380000Y-54275052D01*
X119128927Y-54294812D01*
X118884043Y-54353603D01*
X118651368Y-54449980D01*
X118436637Y-54581568D01*
X118435820Y-54582266D01*
X119086833Y-55233280D01*
X119120318Y-55294603D01*
X119115334Y-55364295D01*
X119077408Y-55417148D01*
X118974262Y-55501064D01*
X118974258Y-55501069D01*
X118923947Y-55572344D01*
X118869205Y-55615761D01*
X118799680Y-55622690D01*
X118737445Y-55590931D01*
X118734962Y-55588516D01*
X118237920Y-55091474D01*
X118219875Y-55068585D01*
X118138836Y-54936341D01*
X117975224Y-54744776D01*
X117835728Y-54625635D01*
X117783656Y-54581161D01*
X117783653Y-54581160D01*
X117568859Y-54449533D01*
X117336110Y-54353126D01*
X117091151Y-54294317D01*
X116902786Y-54279492D01*
X116840000Y-54274551D01*
X116839999Y-54274551D01*
X116588848Y-54294317D01*
X116343889Y-54353126D01*
X116111140Y-54449533D01*
X115896346Y-54581160D01*
X115896343Y-54581161D01*
X115704776Y-54744776D01*
X115664290Y-54792179D01*
X115605783Y-54830372D01*
X115535915Y-54830870D01*
X115476869Y-54793516D01*
X115475710Y-54792179D01*
X115475709Y-54792178D01*
X115435224Y-54744776D01*
X115295728Y-54625635D01*
X115243656Y-54581161D01*
X115243653Y-54581160D01*
X115028859Y-54449533D01*
X114796110Y-54353126D01*
X114551151Y-54294317D01*
X114300000Y-54274551D01*
X114048848Y-54294317D01*
X113803889Y-54353126D01*
X113571140Y-54449533D01*
X113356346Y-54581160D01*
X113356343Y-54581161D01*
X113164776Y-54744776D01*
X113124290Y-54792179D01*
X113065783Y-54830372D01*
X112995915Y-54830870D01*
X112936869Y-54793516D01*
X112935710Y-54792179D01*
X112935709Y-54792178D01*
X112895224Y-54744776D01*
X112755728Y-54625635D01*
X112703656Y-54581161D01*
X112703653Y-54581160D01*
X112488859Y-54449533D01*
X112256110Y-54353126D01*
X112011151Y-54294317D01*
X111760000Y-54274551D01*
X111508848Y-54294317D01*
X111263889Y-54353126D01*
X111031140Y-54449533D01*
X110816346Y-54581160D01*
X110816343Y-54581161D01*
X110624776Y-54744776D01*
X110461161Y-54936343D01*
X110461160Y-54936346D01*
X110329533Y-55151140D01*
X110233126Y-55383889D01*
X110174317Y-55628848D01*
X110154551Y-55879999D01*
X109220500Y-55879999D01*
X109220500Y-53340001D01*
X133314532Y-53340001D01*
X133334364Y-53566686D01*
X133334366Y-53566697D01*
X133393258Y-53786488D01*
X133393261Y-53786497D01*
X133489431Y-53992732D01*
X133489432Y-53992734D01*
X133619954Y-54179141D01*
X133780858Y-54340045D01*
X133780861Y-54340047D01*
X133967266Y-54470568D01*
X134173504Y-54566739D01*
X134393308Y-54625635D01*
X134549385Y-54639290D01*
X134619998Y-54645468D01*
X134620000Y-54645468D01*
X134620002Y-54645468D01*
X134676807Y-54640498D01*
X134846692Y-54625635D01*
X135066496Y-54566739D01*
X135272734Y-54470568D01*
X135459139Y-54340047D01*
X135620047Y-54179139D01*
X135750568Y-53992734D01*
X135777618Y-53934724D01*
X135823790Y-53882285D01*
X135890983Y-53863133D01*
X135957865Y-53883348D01*
X136002382Y-53934725D01*
X136029429Y-53992728D01*
X136029432Y-53992734D01*
X136159954Y-54179141D01*
X136320858Y-54340045D01*
X136320861Y-54340047D01*
X136507266Y-54470568D01*
X136713504Y-54566739D01*
X136933308Y-54625635D01*
X137089385Y-54639290D01*
X137159998Y-54645468D01*
X137160000Y-54645468D01*
X137160002Y-54645468D01*
X137216807Y-54640498D01*
X137386692Y-54625635D01*
X137606496Y-54566739D01*
X137812734Y-54470568D01*
X137999139Y-54340047D01*
X138160047Y-54179139D01*
X138290568Y-53992734D01*
X138317618Y-53934724D01*
X138363790Y-53882285D01*
X138430983Y-53863133D01*
X138497865Y-53883348D01*
X138542382Y-53934725D01*
X138569429Y-53992728D01*
X138569432Y-53992734D01*
X138699954Y-54179141D01*
X138860858Y-54340045D01*
X138860861Y-54340047D01*
X139047266Y-54470568D01*
X139253504Y-54566739D01*
X139473308Y-54625635D01*
X139629385Y-54639290D01*
X139699998Y-54645468D01*
X139700000Y-54645468D01*
X139700002Y-54645468D01*
X139756807Y-54640498D01*
X139926692Y-54625635D01*
X140146496Y-54566739D01*
X140352734Y-54470568D01*
X140539139Y-54340047D01*
X140700047Y-54179139D01*
X140830568Y-53992734D01*
X140857618Y-53934724D01*
X140903790Y-53882285D01*
X140970983Y-53863133D01*
X141037865Y-53883348D01*
X141082382Y-53934725D01*
X141109429Y-53992728D01*
X141109432Y-53992734D01*
X141239954Y-54179141D01*
X141400858Y-54340045D01*
X141400861Y-54340047D01*
X141587266Y-54470568D01*
X141793504Y-54566739D01*
X142013308Y-54625635D01*
X142169385Y-54639290D01*
X142239998Y-54645468D01*
X142240000Y-54645468D01*
X142240002Y-54645468D01*
X142296807Y-54640498D01*
X142466692Y-54625635D01*
X142686496Y-54566739D01*
X142892734Y-54470568D01*
X143079139Y-54340047D01*
X143240047Y-54179139D01*
X143370568Y-53992734D01*
X143397618Y-53934724D01*
X143443790Y-53882285D01*
X143510983Y-53863133D01*
X143577865Y-53883348D01*
X143622382Y-53934725D01*
X143649429Y-53992728D01*
X143649432Y-53992734D01*
X143779954Y-54179141D01*
X143940858Y-54340045D01*
X143940861Y-54340047D01*
X144127266Y-54470568D01*
X144333504Y-54566739D01*
X144553308Y-54625635D01*
X144709385Y-54639290D01*
X144779998Y-54645468D01*
X144780000Y-54645468D01*
X144780002Y-54645468D01*
X144836807Y-54640498D01*
X145006692Y-54625635D01*
X145226496Y-54566739D01*
X145432734Y-54470568D01*
X145619139Y-54340047D01*
X145780047Y-54179139D01*
X145910568Y-53992734D01*
X145937618Y-53934724D01*
X145983790Y-53882285D01*
X146050983Y-53863133D01*
X146117865Y-53883348D01*
X146162382Y-53934725D01*
X146189429Y-53992728D01*
X146189432Y-53992734D01*
X146319954Y-54179141D01*
X146480858Y-54340045D01*
X146480861Y-54340047D01*
X146667266Y-54470568D01*
X146873504Y-54566739D01*
X147093308Y-54625635D01*
X147249385Y-54639290D01*
X147319998Y-54645468D01*
X147320000Y-54645468D01*
X147320002Y-54645468D01*
X147376807Y-54640498D01*
X147546692Y-54625635D01*
X147766496Y-54566739D01*
X147972734Y-54470568D01*
X148159139Y-54340047D01*
X148320047Y-54179139D01*
X148450568Y-53992734D01*
X148477618Y-53934724D01*
X148523790Y-53882285D01*
X148590983Y-53863133D01*
X148657865Y-53883348D01*
X148702382Y-53934725D01*
X148729429Y-53992728D01*
X148729432Y-53992734D01*
X148859954Y-54179141D01*
X149020858Y-54340045D01*
X149020861Y-54340047D01*
X149207266Y-54470568D01*
X149413504Y-54566739D01*
X149633308Y-54625635D01*
X149789385Y-54639290D01*
X149859998Y-54645468D01*
X149860000Y-54645468D01*
X149860002Y-54645468D01*
X149916807Y-54640498D01*
X150086692Y-54625635D01*
X150306496Y-54566739D01*
X150512734Y-54470568D01*
X150699139Y-54340047D01*
X150860047Y-54179139D01*
X150990568Y-53992734D01*
X151017618Y-53934724D01*
X151063790Y-53882285D01*
X151130983Y-53863133D01*
X151197865Y-53883348D01*
X151242382Y-53934725D01*
X151269429Y-53992728D01*
X151269432Y-53992734D01*
X151399954Y-54179141D01*
X151560858Y-54340045D01*
X151560861Y-54340047D01*
X151747266Y-54470568D01*
X151953504Y-54566739D01*
X152173308Y-54625635D01*
X152329385Y-54639290D01*
X152399998Y-54645468D01*
X152400000Y-54645468D01*
X152400002Y-54645468D01*
X152456807Y-54640498D01*
X152626692Y-54625635D01*
X152846496Y-54566739D01*
X153052734Y-54470568D01*
X153239139Y-54340047D01*
X153400047Y-54179139D01*
X153530568Y-53992734D01*
X153557618Y-53934724D01*
X153603790Y-53882285D01*
X153670983Y-53863133D01*
X153737865Y-53883348D01*
X153782382Y-53934725D01*
X153809429Y-53992728D01*
X153809432Y-53992734D01*
X153939954Y-54179141D01*
X154100858Y-54340045D01*
X154100861Y-54340047D01*
X154287266Y-54470568D01*
X154493504Y-54566739D01*
X154713308Y-54625635D01*
X154869385Y-54639290D01*
X154939998Y-54645468D01*
X154940000Y-54645468D01*
X154940002Y-54645468D01*
X154996807Y-54640498D01*
X155166692Y-54625635D01*
X155386496Y-54566739D01*
X155592734Y-54470568D01*
X155779139Y-54340047D01*
X155940047Y-54179139D01*
X156070568Y-53992734D01*
X156097618Y-53934724D01*
X156143790Y-53882285D01*
X156210983Y-53863133D01*
X156277865Y-53883348D01*
X156322382Y-53934725D01*
X156349429Y-53992728D01*
X156349432Y-53992734D01*
X156479954Y-54179141D01*
X156640858Y-54340045D01*
X156640861Y-54340047D01*
X156827266Y-54470568D01*
X157033504Y-54566739D01*
X157253308Y-54625635D01*
X157409385Y-54639290D01*
X157479998Y-54645468D01*
X157480000Y-54645468D01*
X157480002Y-54645468D01*
X157536807Y-54640498D01*
X157706692Y-54625635D01*
X157926496Y-54566739D01*
X158132734Y-54470568D01*
X158319139Y-54340047D01*
X158480047Y-54179139D01*
X158610568Y-53992734D01*
X158637618Y-53934724D01*
X158683790Y-53882285D01*
X158750983Y-53863133D01*
X158817865Y-53883348D01*
X158862382Y-53934725D01*
X158889429Y-53992728D01*
X158889432Y-53992734D01*
X159019954Y-54179141D01*
X159180858Y-54340045D01*
X159180861Y-54340047D01*
X159367266Y-54470568D01*
X159573504Y-54566739D01*
X159793308Y-54625635D01*
X159949385Y-54639290D01*
X160019998Y-54645468D01*
X160020000Y-54645468D01*
X160020002Y-54645468D01*
X160076807Y-54640498D01*
X160246692Y-54625635D01*
X160466496Y-54566739D01*
X160672734Y-54470568D01*
X160859139Y-54340047D01*
X161020047Y-54179139D01*
X161150568Y-53992734D01*
X161177618Y-53934724D01*
X161223790Y-53882285D01*
X161290983Y-53863133D01*
X161357865Y-53883348D01*
X161402382Y-53934725D01*
X161429429Y-53992728D01*
X161429432Y-53992734D01*
X161559954Y-54179141D01*
X161720858Y-54340045D01*
X161720861Y-54340047D01*
X161907266Y-54470568D01*
X162113504Y-54566739D01*
X162333308Y-54625635D01*
X162489385Y-54639290D01*
X162559998Y-54645468D01*
X162560000Y-54645468D01*
X162560002Y-54645468D01*
X162616807Y-54640498D01*
X162786692Y-54625635D01*
X163006496Y-54566739D01*
X163212734Y-54470568D01*
X163399139Y-54340047D01*
X163560047Y-54179139D01*
X163690568Y-53992734D01*
X163717895Y-53934129D01*
X163764064Y-53881695D01*
X163831257Y-53862542D01*
X163898139Y-53882757D01*
X163942657Y-53934133D01*
X163969865Y-53992481D01*
X163969866Y-53992483D01*
X164020973Y-54065471D01*
X164020973Y-54065472D01*
X164562580Y-53523865D01*
X164623903Y-53490380D01*
X164693594Y-53495364D01*
X164749528Y-53537235D01*
X164760742Y-53555246D01*
X164766571Y-53566686D01*
X164772358Y-53578044D01*
X164772363Y-53578050D01*
X164861949Y-53667636D01*
X164861951Y-53667637D01*
X164861955Y-53667641D01*
X164884747Y-53679254D01*
X164935542Y-53727228D01*
X164952337Y-53795049D01*
X164929799Y-53861184D01*
X164916132Y-53877419D01*
X164374526Y-54419025D01*
X164374526Y-54419026D01*
X164447512Y-54470131D01*
X164447516Y-54470133D01*
X164653673Y-54566265D01*
X164653682Y-54566269D01*
X164873389Y-54625139D01*
X164873400Y-54625141D01*
X165099998Y-54644966D01*
X165100002Y-54644966D01*
X165326599Y-54625141D01*
X165326610Y-54625139D01*
X165546317Y-54566269D01*
X165546331Y-54566264D01*
X165752478Y-54470136D01*
X165825472Y-54419025D01*
X165283866Y-53877419D01*
X165250381Y-53816096D01*
X165255365Y-53746404D01*
X165297237Y-53690471D01*
X165315245Y-53679258D01*
X165338045Y-53667641D01*
X165427641Y-53578045D01*
X165439254Y-53555252D01*
X165487225Y-53504458D01*
X165555046Y-53487661D01*
X165621181Y-53510197D01*
X165637419Y-53523866D01*
X166179025Y-54065472D01*
X166230133Y-53992482D01*
X166257341Y-53934135D01*
X166303513Y-53881696D01*
X166370707Y-53862543D01*
X166437588Y-53882758D01*
X166482105Y-53934132D01*
X166509432Y-53992734D01*
X166560363Y-54065471D01*
X166639954Y-54179141D01*
X166800858Y-54340045D01*
X166800861Y-54340047D01*
X166987266Y-54470568D01*
X167193504Y-54566739D01*
X167413308Y-54625635D01*
X167569385Y-54639290D01*
X167639998Y-54645468D01*
X167640000Y-54645468D01*
X167640002Y-54645468D01*
X167696807Y-54640498D01*
X167866692Y-54625635D01*
X168086496Y-54566739D01*
X168292734Y-54470568D01*
X168479139Y-54340047D01*
X168640047Y-54179139D01*
X168770568Y-53992734D01*
X168797618Y-53934724D01*
X168843790Y-53882285D01*
X168910983Y-53863133D01*
X168977865Y-53883348D01*
X169022382Y-53934725D01*
X169049429Y-53992728D01*
X169049432Y-53992734D01*
X169179954Y-54179141D01*
X169340858Y-54340045D01*
X169340861Y-54340047D01*
X169527266Y-54470568D01*
X169733504Y-54566739D01*
X169953308Y-54625635D01*
X170076300Y-54636395D01*
X170141368Y-54661847D01*
X170182347Y-54718438D01*
X170182352Y-54718544D01*
X170205471Y-54674038D01*
X170266087Y-54639290D01*
X170284134Y-54636357D01*
X170406692Y-54625635D01*
X170626496Y-54566739D01*
X170832734Y-54470568D01*
X171019139Y-54340047D01*
X171180047Y-54179139D01*
X171197271Y-54154539D01*
X171251848Y-54110913D01*
X171321346Y-54103718D01*
X171383701Y-54135239D01*
X171419116Y-54195468D01*
X171422138Y-54212406D01*
X171425908Y-54247483D01*
X171476202Y-54382328D01*
X171476206Y-54382335D01*
X171562452Y-54497544D01*
X171562455Y-54497547D01*
X171677664Y-54583793D01*
X171677671Y-54583797D01*
X171812517Y-54634091D01*
X171812516Y-54634091D01*
X171819444Y-54634835D01*
X171872127Y-54640500D01*
X173567872Y-54640499D01*
X173627483Y-54634091D01*
X173762331Y-54583796D01*
X173877546Y-54497546D01*
X173963796Y-54382331D01*
X174014091Y-54247483D01*
X174020500Y-54187873D01*
X174020499Y-52492128D01*
X174014091Y-52432517D01*
X173979567Y-52339954D01*
X173963797Y-52297671D01*
X173963793Y-52297664D01*
X173877547Y-52182455D01*
X173877544Y-52182452D01*
X173762335Y-52096206D01*
X173762328Y-52096202D01*
X173627482Y-52045908D01*
X173627483Y-52045908D01*
X173567883Y-52039501D01*
X173567881Y-52039500D01*
X173567873Y-52039500D01*
X173567864Y-52039500D01*
X171872129Y-52039500D01*
X171872123Y-52039501D01*
X171812516Y-52045908D01*
X171677671Y-52096202D01*
X171677664Y-52096206D01*
X171562455Y-52182452D01*
X171562452Y-52182455D01*
X171476206Y-52297664D01*
X171476202Y-52297671D01*
X171425908Y-52432516D01*
X171422137Y-52467596D01*
X171395398Y-52532146D01*
X171338006Y-52571994D01*
X171268180Y-52574487D01*
X171208092Y-52538834D01*
X171197273Y-52525462D01*
X171180045Y-52500858D01*
X171019141Y-52339954D01*
X170832734Y-52209432D01*
X170832732Y-52209431D01*
X170626497Y-52113261D01*
X170626488Y-52113258D01*
X170406697Y-52054366D01*
X170406693Y-52054365D01*
X170406692Y-52054365D01*
X170406691Y-52054364D01*
X170406686Y-52054364D01*
X170180002Y-52034532D01*
X170179998Y-52034532D01*
X169953313Y-52054364D01*
X169953302Y-52054366D01*
X169733511Y-52113258D01*
X169733502Y-52113261D01*
X169527267Y-52209431D01*
X169527265Y-52209432D01*
X169340858Y-52339954D01*
X169179954Y-52500858D01*
X169049432Y-52687265D01*
X169049430Y-52687268D01*
X169022380Y-52745277D01*
X168976207Y-52797715D01*
X168909013Y-52816866D01*
X168842132Y-52796649D01*
X168797619Y-52745277D01*
X168770568Y-52687266D01*
X168689855Y-52571994D01*
X168640045Y-52500858D01*
X168479141Y-52339954D01*
X168292734Y-52209432D01*
X168292732Y-52209431D01*
X168086497Y-52113261D01*
X168086488Y-52113258D01*
X167866697Y-52054366D01*
X167866693Y-52054365D01*
X167866692Y-52054365D01*
X167866691Y-52054364D01*
X167866686Y-52054364D01*
X167640002Y-52034532D01*
X167639998Y-52034532D01*
X167413313Y-52054364D01*
X167413302Y-52054366D01*
X167193511Y-52113258D01*
X167193502Y-52113261D01*
X166987267Y-52209431D01*
X166987265Y-52209432D01*
X166800858Y-52339954D01*
X166639954Y-52500858D01*
X166509434Y-52687263D01*
X166509432Y-52687266D01*
X166482383Y-52745274D01*
X166482106Y-52745867D01*
X166435933Y-52798306D01*
X166368739Y-52817457D01*
X166301858Y-52797241D01*
X166257342Y-52745865D01*
X166230135Y-52687520D01*
X166230131Y-52687512D01*
X166179026Y-52614526D01*
X166179025Y-52614526D01*
X165637419Y-53156132D01*
X165576096Y-53189617D01*
X165506404Y-53184633D01*
X165450471Y-53142761D01*
X165439256Y-53124751D01*
X165427641Y-53101955D01*
X165427637Y-53101951D01*
X165427636Y-53101949D01*
X165338050Y-53012363D01*
X165338044Y-53012358D01*
X165328109Y-53007296D01*
X165315250Y-53000744D01*
X165264456Y-52952773D01*
X165247660Y-52884952D01*
X165270197Y-52818817D01*
X165283865Y-52802580D01*
X165825472Y-52260973D01*
X165752483Y-52209866D01*
X165752481Y-52209865D01*
X165546326Y-52113734D01*
X165546317Y-52113730D01*
X165326610Y-52054860D01*
X165326599Y-52054858D01*
X165100002Y-52035034D01*
X165099998Y-52035034D01*
X164873400Y-52054858D01*
X164873389Y-52054860D01*
X164653682Y-52113730D01*
X164653673Y-52113734D01*
X164447513Y-52209868D01*
X164374526Y-52260973D01*
X164916133Y-52802580D01*
X164949618Y-52863903D01*
X164944634Y-52933595D01*
X164902762Y-52989528D01*
X164884748Y-53000745D01*
X164861956Y-53012358D01*
X164861949Y-53012363D01*
X164772363Y-53101949D01*
X164772358Y-53101956D01*
X164760745Y-53124748D01*
X164712770Y-53175544D01*
X164644949Y-53192338D01*
X164578814Y-53169800D01*
X164562580Y-53156133D01*
X164020973Y-52614526D01*
X163969869Y-52687511D01*
X163942657Y-52745867D01*
X163896484Y-52798306D01*
X163829290Y-52817457D01*
X163762409Y-52797241D01*
X163717893Y-52745865D01*
X163717617Y-52745274D01*
X163690568Y-52687266D01*
X163560047Y-52500861D01*
X163560045Y-52500858D01*
X163399141Y-52339954D01*
X163212734Y-52209432D01*
X163212732Y-52209431D01*
X163006497Y-52113261D01*
X163006488Y-52113258D01*
X162786697Y-52054366D01*
X162786693Y-52054365D01*
X162786692Y-52054365D01*
X162786691Y-52054364D01*
X162786686Y-52054364D01*
X162560002Y-52034532D01*
X162559998Y-52034532D01*
X162333313Y-52054364D01*
X162333302Y-52054366D01*
X162113511Y-52113258D01*
X162113502Y-52113261D01*
X161907267Y-52209431D01*
X161907265Y-52209432D01*
X161720858Y-52339954D01*
X161559954Y-52500858D01*
X161429432Y-52687265D01*
X161429431Y-52687267D01*
X161402382Y-52745275D01*
X161356209Y-52797714D01*
X161289016Y-52816866D01*
X161222135Y-52796650D01*
X161177618Y-52745275D01*
X161150686Y-52687520D01*
X161150568Y-52687266D01*
X161020047Y-52500861D01*
X161020045Y-52500858D01*
X160859141Y-52339954D01*
X160672734Y-52209432D01*
X160672732Y-52209431D01*
X160466497Y-52113261D01*
X160466488Y-52113258D01*
X160246697Y-52054366D01*
X160246693Y-52054365D01*
X160246692Y-52054365D01*
X160246691Y-52054364D01*
X160246686Y-52054364D01*
X160020002Y-52034532D01*
X160019998Y-52034532D01*
X159793313Y-52054364D01*
X159793302Y-52054366D01*
X159573511Y-52113258D01*
X159573502Y-52113261D01*
X159367267Y-52209431D01*
X159367265Y-52209432D01*
X159180858Y-52339954D01*
X159019954Y-52500858D01*
X158889432Y-52687265D01*
X158889431Y-52687267D01*
X158862382Y-52745275D01*
X158816209Y-52797714D01*
X158749016Y-52816866D01*
X158682135Y-52796650D01*
X158637618Y-52745275D01*
X158610686Y-52687520D01*
X158610568Y-52687266D01*
X158480047Y-52500861D01*
X158480045Y-52500858D01*
X158319141Y-52339954D01*
X158132734Y-52209432D01*
X158132732Y-52209431D01*
X157926497Y-52113261D01*
X157926488Y-52113258D01*
X157706697Y-52054366D01*
X157706693Y-52054365D01*
X157706692Y-52054365D01*
X157706691Y-52054364D01*
X157706686Y-52054364D01*
X157480002Y-52034532D01*
X157479998Y-52034532D01*
X157253313Y-52054364D01*
X157253302Y-52054366D01*
X157033511Y-52113258D01*
X157033502Y-52113261D01*
X156827267Y-52209431D01*
X156827265Y-52209432D01*
X156640858Y-52339954D01*
X156479954Y-52500858D01*
X156349432Y-52687265D01*
X156349431Y-52687267D01*
X156322382Y-52745275D01*
X156276209Y-52797714D01*
X156209016Y-52816866D01*
X156142135Y-52796650D01*
X156097618Y-52745275D01*
X156070686Y-52687520D01*
X156070568Y-52687266D01*
X155940047Y-52500861D01*
X155940045Y-52500858D01*
X155779141Y-52339954D01*
X155592734Y-52209432D01*
X155592732Y-52209431D01*
X155386497Y-52113261D01*
X155386488Y-52113258D01*
X155166697Y-52054366D01*
X155166693Y-52054365D01*
X155166692Y-52054365D01*
X155166691Y-52054364D01*
X155166686Y-52054364D01*
X154940002Y-52034532D01*
X154939998Y-52034532D01*
X154713313Y-52054364D01*
X154713302Y-52054366D01*
X154493511Y-52113258D01*
X154493502Y-52113261D01*
X154287267Y-52209431D01*
X154287265Y-52209432D01*
X154100858Y-52339954D01*
X153939954Y-52500858D01*
X153809432Y-52687265D01*
X153809431Y-52687267D01*
X153782382Y-52745275D01*
X153736209Y-52797714D01*
X153669016Y-52816866D01*
X153602135Y-52796650D01*
X153557618Y-52745275D01*
X153530686Y-52687520D01*
X153530568Y-52687266D01*
X153400047Y-52500861D01*
X153400045Y-52500858D01*
X153239141Y-52339954D01*
X153052734Y-52209432D01*
X153052732Y-52209431D01*
X152846497Y-52113261D01*
X152846488Y-52113258D01*
X152626697Y-52054366D01*
X152626693Y-52054365D01*
X152626692Y-52054365D01*
X152626691Y-52054364D01*
X152626686Y-52054364D01*
X152400002Y-52034532D01*
X152399998Y-52034532D01*
X152173313Y-52054364D01*
X152173302Y-52054366D01*
X151953511Y-52113258D01*
X151953502Y-52113261D01*
X151747267Y-52209431D01*
X151747265Y-52209432D01*
X151560858Y-52339954D01*
X151399954Y-52500858D01*
X151269432Y-52687265D01*
X151269431Y-52687267D01*
X151242382Y-52745275D01*
X151196209Y-52797714D01*
X151129016Y-52816866D01*
X151062135Y-52796650D01*
X151017618Y-52745275D01*
X150990686Y-52687520D01*
X150990568Y-52687266D01*
X150860047Y-52500861D01*
X150860045Y-52500858D01*
X150699141Y-52339954D01*
X150512734Y-52209432D01*
X150512732Y-52209431D01*
X150306497Y-52113261D01*
X150306488Y-52113258D01*
X150086697Y-52054366D01*
X150086693Y-52054365D01*
X150086692Y-52054365D01*
X150086691Y-52054364D01*
X150086686Y-52054364D01*
X149860002Y-52034532D01*
X149859998Y-52034532D01*
X149633313Y-52054364D01*
X149633302Y-52054366D01*
X149413511Y-52113258D01*
X149413502Y-52113261D01*
X149207267Y-52209431D01*
X149207265Y-52209432D01*
X149020858Y-52339954D01*
X148859954Y-52500858D01*
X148729432Y-52687265D01*
X148729431Y-52687267D01*
X148702382Y-52745275D01*
X148656209Y-52797714D01*
X148589016Y-52816866D01*
X148522135Y-52796650D01*
X148477618Y-52745275D01*
X148450686Y-52687520D01*
X148450568Y-52687266D01*
X148320047Y-52500861D01*
X148320045Y-52500858D01*
X148159141Y-52339954D01*
X147972734Y-52209432D01*
X147972732Y-52209431D01*
X147766497Y-52113261D01*
X147766488Y-52113258D01*
X147546697Y-52054366D01*
X147546693Y-52054365D01*
X147546692Y-52054365D01*
X147546691Y-52054364D01*
X147546686Y-52054364D01*
X147320002Y-52034532D01*
X147319998Y-52034532D01*
X147093313Y-52054364D01*
X147093302Y-52054366D01*
X146873511Y-52113258D01*
X146873502Y-52113261D01*
X146667267Y-52209431D01*
X146667265Y-52209432D01*
X146480858Y-52339954D01*
X146319954Y-52500858D01*
X146189432Y-52687265D01*
X146189431Y-52687267D01*
X146162382Y-52745275D01*
X146116209Y-52797714D01*
X146049016Y-52816866D01*
X145982135Y-52796650D01*
X145937618Y-52745275D01*
X145910686Y-52687520D01*
X145910568Y-52687266D01*
X145780047Y-52500861D01*
X145780045Y-52500858D01*
X145619141Y-52339954D01*
X145432734Y-52209432D01*
X145432732Y-52209431D01*
X145226497Y-52113261D01*
X145226488Y-52113258D01*
X145006697Y-52054366D01*
X145006693Y-52054365D01*
X145006692Y-52054365D01*
X145006691Y-52054364D01*
X145006686Y-52054364D01*
X144780002Y-52034532D01*
X144779998Y-52034532D01*
X144553313Y-52054364D01*
X144553302Y-52054366D01*
X144333511Y-52113258D01*
X144333502Y-52113261D01*
X144127267Y-52209431D01*
X144127265Y-52209432D01*
X143940858Y-52339954D01*
X143779954Y-52500858D01*
X143649432Y-52687265D01*
X143649431Y-52687267D01*
X143622382Y-52745275D01*
X143576209Y-52797714D01*
X143509016Y-52816866D01*
X143442135Y-52796650D01*
X143397618Y-52745275D01*
X143370686Y-52687520D01*
X143370568Y-52687266D01*
X143240047Y-52500861D01*
X143240045Y-52500858D01*
X143079141Y-52339954D01*
X142892734Y-52209432D01*
X142892732Y-52209431D01*
X142686497Y-52113261D01*
X142686488Y-52113258D01*
X142466697Y-52054366D01*
X142466693Y-52054365D01*
X142466692Y-52054365D01*
X142466691Y-52054364D01*
X142466686Y-52054364D01*
X142240002Y-52034532D01*
X142239998Y-52034532D01*
X142013313Y-52054364D01*
X142013302Y-52054366D01*
X141793511Y-52113258D01*
X141793502Y-52113261D01*
X141587267Y-52209431D01*
X141587265Y-52209432D01*
X141400858Y-52339954D01*
X141239954Y-52500858D01*
X141109432Y-52687265D01*
X141109431Y-52687267D01*
X141082382Y-52745275D01*
X141036209Y-52797714D01*
X140969016Y-52816866D01*
X140902135Y-52796650D01*
X140857618Y-52745275D01*
X140830686Y-52687520D01*
X140830568Y-52687266D01*
X140700047Y-52500861D01*
X140700045Y-52500858D01*
X140539141Y-52339954D01*
X140352734Y-52209432D01*
X140352732Y-52209431D01*
X140146497Y-52113261D01*
X140146488Y-52113258D01*
X139926697Y-52054366D01*
X139926693Y-52054365D01*
X139926692Y-52054365D01*
X139926691Y-52054364D01*
X139926686Y-52054364D01*
X139700002Y-52034532D01*
X139699998Y-52034532D01*
X139473313Y-52054364D01*
X139473302Y-52054366D01*
X139253511Y-52113258D01*
X139253502Y-52113261D01*
X139047267Y-52209431D01*
X139047265Y-52209432D01*
X138860858Y-52339954D01*
X138699954Y-52500858D01*
X138569432Y-52687265D01*
X138569431Y-52687267D01*
X138542382Y-52745275D01*
X138496209Y-52797714D01*
X138429016Y-52816866D01*
X138362135Y-52796650D01*
X138317618Y-52745275D01*
X138290686Y-52687520D01*
X138290568Y-52687266D01*
X138160047Y-52500861D01*
X138160045Y-52500858D01*
X137999141Y-52339954D01*
X137812734Y-52209432D01*
X137812732Y-52209431D01*
X137606497Y-52113261D01*
X137606488Y-52113258D01*
X137386697Y-52054366D01*
X137386693Y-52054365D01*
X137386692Y-52054365D01*
X137386691Y-52054364D01*
X137386686Y-52054364D01*
X137160002Y-52034532D01*
X137159998Y-52034532D01*
X136933313Y-52054364D01*
X136933302Y-52054366D01*
X136713511Y-52113258D01*
X136713502Y-52113261D01*
X136507267Y-52209431D01*
X136507265Y-52209432D01*
X136320858Y-52339954D01*
X136159954Y-52500858D01*
X136029432Y-52687265D01*
X136029431Y-52687267D01*
X136002382Y-52745275D01*
X135956209Y-52797714D01*
X135889016Y-52816866D01*
X135822135Y-52796650D01*
X135777618Y-52745275D01*
X135750686Y-52687520D01*
X135750568Y-52687266D01*
X135620047Y-52500861D01*
X135620045Y-52500858D01*
X135459141Y-52339954D01*
X135272734Y-52209432D01*
X135272732Y-52209431D01*
X135066497Y-52113261D01*
X135066488Y-52113258D01*
X134846697Y-52054366D01*
X134846693Y-52054365D01*
X134846692Y-52054365D01*
X134846691Y-52054364D01*
X134846686Y-52054364D01*
X134620002Y-52034532D01*
X134619998Y-52034532D01*
X134393313Y-52054364D01*
X134393302Y-52054366D01*
X134173511Y-52113258D01*
X134173502Y-52113261D01*
X133967267Y-52209431D01*
X133967265Y-52209432D01*
X133780858Y-52339954D01*
X133619954Y-52500858D01*
X133489432Y-52687265D01*
X133489431Y-52687267D01*
X133393261Y-52893502D01*
X133393258Y-52893511D01*
X133334366Y-53113302D01*
X133334364Y-53113313D01*
X133314532Y-53339998D01*
X133314532Y-53340001D01*
X109220500Y-53340001D01*
X109220500Y-50924500D01*
X109240185Y-50857461D01*
X109292989Y-50811706D01*
X109344500Y-50800500D01*
X197995500Y-50800500D01*
X198062539Y-50820185D01*
G37*
%TD.AperFunction*%
%TD*%
M02*
