%TF.GenerationSoftware,KiCad,Pcbnew,7.0.7*%
%TF.CreationDate,2023-11-09T14:18:27-08:00*%
%TF.ProjectId,Micro_Mouse,4d696372-6f5f-44d6-9f75-73652e6b6963,rev?*%
%TF.SameCoordinates,Original*%
%TF.FileFunction,Profile,NP*%
%FSLAX46Y46*%
G04 Gerber Fmt 4.6, Leading zero omitted, Abs format (unit mm)*
G04 Created by KiCad (PCBNEW 7.0.7) date 2023-11-09 14:18:27*
%MOMM*%
%LPD*%
G01*
G04 APERTURE LIST*
%TA.AperFunction,Profile*%
%ADD10C,0.100000*%
%TD*%
G04 APERTURE END LIST*
D10*
X159371116Y-98877071D02*
G75*
G03*
X160871116Y-98877071I750000J0D01*
G01*
X160849638Y-91853640D02*
G75*
G03*
X159349638Y-91853640I-750000J0D01*
G01*
X160871116Y-98877071D02*
X160849638Y-91853640D01*
X159349638Y-91853640D02*
X159371116Y-98877071D01*
X148058157Y-91628116D02*
G75*
G03*
X147058157Y-90628116I-1000000J0D01*
G01*
X147058157Y-90628116D02*
G75*
G03*
X146058157Y-91628116I0J-1000000D01*
G01*
X145993722Y-98715983D02*
G75*
G03*
X146993722Y-99715983I1000000J0D01*
G01*
X146993722Y-99715983D02*
G75*
G03*
X147993722Y-98715983I0J1000000D01*
G01*
X148058157Y-91628116D02*
X147993722Y-98715983D01*
X145993722Y-98715983D02*
X146058157Y-91628116D01*
X121920000Y-109220000D02*
X109220000Y-109220000D01*
X198120000Y-139700000D02*
X109220000Y-139700000D01*
X198120000Y-109220000D02*
X198120000Y-139700000D01*
X198120000Y-81280000D02*
X185420000Y-81280000D01*
X109220000Y-109220000D02*
X109220000Y-139700000D01*
X185420000Y-109220000D02*
X198120000Y-109220000D01*
X109220000Y-50800000D02*
X109220000Y-81280000D01*
X185420000Y-81280000D02*
X185420000Y-109220000D01*
X198120000Y-81280000D02*
X198120000Y-50800000D01*
X109220000Y-50800000D02*
X198120000Y-50800000D01*
X121920000Y-81280000D02*
X121920000Y-109220000D01*
X109220000Y-81280000D02*
X121920000Y-81280000D01*
M02*
