M48
; DRILL file {KiCad 7.0.7} date Thu Nov  9 14:22:01 2023
; FORMAT={-:-/ absolute / metric / decimal}
; #@! TF.CreationDate,2023-11-09T14:22:01-08:00
; #@! TF.GenerationSoftware,Kicad,Pcbnew,7.0.7
; #@! TF.FileFunction,Plated,1,2,PTH
FMAT,2
METRIC
; #@! TA.AperFunction,Plated,PTH,ViaDrill
T1C0.400
; #@! TA.AperFunction,Plated,PTH,ComponentDrill
T2C0.800
; #@! TA.AperFunction,Plated,PTH,ComponentDrill
T3C1.000
; #@! TA.AperFunction,Plated,PTH,ComponentDrill
T4C1.100
%
G90
G05
T1
X116.84Y-114.3
X119.38Y-111.76
X119.38Y-127.0
X119.38Y-134.62
X121.92Y-60.96
X129.54Y-101.6
X132.08Y-93.98
X132.08Y-116.84
X134.62Y-96.52
X134.62Y-104.14
X134.62Y-109.22
X137.16Y-106.68
X139.7Y-81.28
X139.7Y-96.52
X142.24Y-101.6
X142.24Y-106.68
X142.24Y-121.92
X144.78Y-106.68
X147.32Y-66.04
X147.32Y-119.38
X147.32Y-132.08
X147.32Y-134.62
X147.343Y-112.963
X149.86Y-109.22
X149.86Y-114.3
X149.86Y-129.54
X152.292Y-122.021
X152.388Y-133.509
X152.4Y-60.96
X153.615Y-112.937
X154.94Y-60.96
X154.94Y-66.04
X154.94Y-132.08
X156.207Y-121.89
X157.48Y-60.96
X157.48Y-114.3
X157.48Y-127.0
X157.48Y-134.62
X160.02Y-109.22
X160.02Y-116.84
X162.56Y-109.22
X162.56Y-116.84
X162.56Y-127.0
X165.1Y-129.54
X167.64Y-55.88
X167.64Y-96.52
X167.64Y-116.84
X167.64Y-119.38
X170.18Y-55.88
X170.18Y-63.5
X182.88Y-66.04
X185.42Y-73.66
X185.42Y-78.74
X187.96Y-68.58
X190.5Y-60.96
X190.5Y-132.08
X193.04Y-60.96
X195.58Y-60.96
X195.58Y-78.74
T2
X134.62Y-53.34
X134.62Y-73.66
X137.16Y-53.34
X137.16Y-73.66
X139.7Y-53.34
X139.7Y-73.66
X142.24Y-53.34
X142.24Y-73.66
X144.78Y-53.34
X144.78Y-73.66
X147.32Y-53.34
X147.32Y-73.66
X149.86Y-53.34
X149.86Y-73.66
X152.4Y-53.34
X152.4Y-73.66
X154.94Y-53.34
X154.94Y-73.66
X157.48Y-53.34
X157.48Y-73.66
X160.02Y-53.34
X160.02Y-73.66
X162.56Y-53.34
X162.56Y-73.66
X165.1Y-53.34
X167.64Y-53.34
X170.18Y-53.34
X172.72Y-53.34
T3
X142.24Y-104.14
X144.78Y-104.14
X144.78Y-116.84
X144.78Y-119.38
X144.78Y-121.92
X147.32Y-104.14
X149.86Y-104.14
X149.86Y-137.16
X152.4Y-104.14
X152.4Y-137.16
X154.94Y-104.14
X154.94Y-137.16
X157.48Y-104.14
X157.48Y-137.16
X160.02Y-104.14
X160.02Y-137.16
X162.56Y-104.14
X162.56Y-137.16
X165.1Y-104.14
X165.1Y-116.84
X165.1Y-119.38
X165.1Y-121.92
X192.24Y-134.787
X194.74Y-134.787
T4
X111.76Y-55.88
X114.3Y-55.88
X116.84Y-55.88
X119.38Y-55.88
X121.92Y-55.88
X124.46Y-55.88
X182.88Y-55.88
X185.42Y-55.88
X187.96Y-55.88
X190.5Y-55.88
X193.04Y-55.88
X195.58Y-55.88
T0
M30
